<?xml version="1.0" encoding="utf-8"?>
<!-- Generator: Adobe Illustrator 19.0.0, SVG Export Plug-In . SVG Version: 6.00 Build 0)  -->
<svg version="1.1" id="Layer_1" xmlns="http://www.w3.org/2000/svg" xmlns:xlink="http://www.w3.org/1999/xlink" x="0px" y="0px"
	 viewBox="0 0 841.9 595.3" style="enable-background:new 0 0 841.9 595.3;" xml:space="preserve">
<style type="text/css">
	.st0{fill:#FFDE17;}
	.st1{fill:#FFFFFF;}
	.st2{fill:#6B7085;}
	.st3{fill:#0469B1;}
	.st4{fill:none;}
</style>
<g>
	<path class="st0" d="M38.1,126.7l756-36.1c4-0.2,7.8,0.4,11.3,1.5c3.4,1.2,6.4,2.9,8.9,5.2c2.5,2.2,4.4,5,5.7,8
		c1.3,3.1,1.8,6.4,1.6,10l-27.3,366.9c-0.2,3-1.2,5.8-2.7,8.3c-1.5,2.5-3.6,4.7-6.2,6.6c-2.5,1.8-5.5,3.3-8.7,4.2
		c-3.2,0.9-6.7,1.4-10.3,1.2L78.5,472.6c-2.6-0.1-5.1-0.7-7.5-1.7c-2.3-1-4.5-2.4-6.4-4.1c-1.9-1.7-3.5-3.7-4.7-5.9
		c-1.2-2.2-2-4.6-2.3-7.1L20.5,149c-0.4-2.9-0.1-5.8,0.6-8.4c0.7-2.6,1.9-5,3.5-7c1.6-2,3.6-3.7,5.8-4.9
		C32.7,127.5,35.3,126.8,38.1,126.7"/>
	<g>
		<g>
			<path class="st1" d="M301.4,99.1c-30.5,0.6-54.8,25.9-54.2,56.4c0.6,30.5,25.9,54.8,56.4,54.2c30.5-0.6,54.8-25.9,54.2-56.4
				C357.2,122.8,331.9,98.4,301.4,99.1L301.4,99.1z"/>
			<path class="st2" d="M238.6,155.4c0,1.1-0.9,2-2,2.1l-20.9,0.4c-1.1,0-2-0.9-2.1-2l0,0c0-1.1,0.9-2.1,2-2.1l20.9-0.4
				C237.7,153.4,238.6,154.3,238.6,155.4L238.6,155.4z"/>
			<path class="st2" d="M366.3,153.3c0-1.1,0.9-2.1,2-2.1l20.9-0.4c1.1,0,2,0.9,2.1,2l0,0c0,1.1-0.9,2-2,2.1l-20.9,0.4
				C367.3,155.3,366.4,154.4,366.3,153.3L366.3,153.3z"/>
			<path class="st2" d="M359.8,124.2c-0.5-1-0.1-2.2,0.9-2.7l18.7-9.5c1-0.5,2.2-0.1,2.7,0.9l0,0c0.5,1,0.1,2.2-0.9,2.7l-18.7,9.5
				C361.5,125.6,360.3,125.2,359.8,124.2L359.8,124.2z"/>
			<path class="st2" d="M342.4,103.2c-0.9-0.7-1.1-2-0.4-2.8l12.7-16.6c0.7-0.9,2-1.1,2.8-0.4l0,0c0.9,0.7,1.1,2,0.4,2.8l-12.7,16.6
				C344.6,103.7,343.3,103.9,342.4,103.2L342.4,103.2z"/>
			<path class="st2" d="M317.7,91.8c-1.1-0.2-1.8-1.3-1.6-2.4l4.3-20.5c0.2-1.1,1.3-1.8,2.4-1.6l0,0c1.1,0.2,1.8,1.3,1.6,2.4
				l-4.3,20.5C319.8,91.3,318.8,92,317.7,91.8L317.7,91.8z"/>
			<path class="st2" d="M285.2,92.3c-1.1,0.3-2.2-0.4-2.5-1.5l-5.1-20.3c-0.3-1.1,0.4-2.2,1.5-2.5l0,0c1.1-0.3,2.2,0.4,2.5,1.5
				l5.1,20.3C287,90.9,286.3,92,285.2,92.3L285.2,92.3z"/>
			<path class="st2" d="M260.9,104.5c-0.9,0.7-2.1,0.6-2.9-0.3l-13.4-16.1c-0.7-0.9-0.6-2.1,0.3-2.9l0,0c0.9-0.7,2.1-0.6,2.9,0.3
				l13.4,16.1C261.8,102.5,261.7,103.8,260.9,104.5L260.9,104.5z"/>
			<path class="st2" d="M244.2,126.2c-0.5,1-1.7,1.5-2.7,1l-19.1-8.7c-1-0.5-1.5-1.7-1-2.7l0,0c0.5-1,1.7-1.5,2.7-1l19.1,8.7
				C244.2,123.9,244.7,125.1,244.2,126.2L244.2,126.2z"/>
			<g>
				<path class="st2" d="M301.6,109.1L301.6,109.1c0-1-0.9-1.9-1.9-1.8c-24.5,1.4-43.8,21.6-44.3,46.1c0,1,0.8,1.9,1.9,1.8l0,0
					c1,0,1.8-0.9,1.9-1.9c0.5-22.5,18.2-40.9,40.6-42.3C300.8,111,301.6,110.2,301.6,109.1z"/>
			</g>
		</g>
		<g>
			<g>
				<g>
					<path class="st3" d="M613.7,247h-26.5v-37.8h26.5c0-51.2,36.3-67,83.1-67c2.7,0,7,0,7,0v42.2c-5.2-0.7-10-1-14.9-1
						c-12.6,0-20.3,1.7-20.3,17.9v7.9h32.9V247h-32.9v143h-54.9V247z"/>
				</g>
				<g>
					<g>
						<g>
							<path class="st3" d="M568.7,358.5h-43.1V390l-2.3-0.5c-45.8-9.3-73.2-44.6-73.2-94.3c0-45,29.4-82.3,73.1-92.9l2.4-0.6v32.1
								h43.1v-32.4l2.4,0.5c45.9,10.1,72.8,51.5,70.3,108.1l-0.1,1.9H511.9c1.7,23,15.6,36.6,37.4,36.6c14.5,0,26.5-7,31.2-18.4
								l0.5-1.2h57.9l-0.6,2.4c-8,31.3-31.9,52.1-67.2,58.5l-2.3,0.4V358.5z M579.5,275.4c-1.8-18.7-15.4-32.5-32.3-32.5
								c-17.9,0-31.2,12.4-35.1,32.5H579.5z"/>
						</g>
						<g>
							<path class="st1" d="M570.7,203.9c47.6,10.5,71.1,53.6,68.8,106.1H509.8c1,24.4,15,40.5,39.5,40.5c13.9,0,27.6-6.5,33-19.6
								h54.1c-8.5,33.4-35,51.5-65.7,57.1v-31.5h-47v31c-43.5-8.9-71.6-41.7-71.6-92.4c0-46.1,30.7-81.1,71.6-91v31.6h47V203.9
								 M509.8,277.4h71.8c-1-19.9-15-36.4-34.4-36.4C526.8,241,513.2,255.7,509.8,277.4 M566.8,199.1v4.8v28h-39.2v-27.7v-4.9
								l-4.8,1.2c-44.6,10.7-74.6,48.8-74.6,94.8c0,50.7,27.9,86.6,74.7,96.2l4.7,0.9v-4.8v-27.1h39.2v27.6v4.7l4.6-0.8
								c16.6-3.1,31.5-9.6,42.9-19c12.9-10.5,21.6-24.3,25.8-41l1.2-4.9h-5h-54.1h-2.6l-1,2.4c-5.3,12.7-18.7,17.2-29.4,17.2
								c-20.3,0-33-11.9-35.3-32.7h125.4h3.7l0.2-3.7c2.6-57.5-24.9-99.7-71.8-110L566.8,199.1L566.8,199.1z M514.6,273.5
								c4.3-18,16.2-28.6,32.7-28.6c15.2,0,27.5,12,30,28.6H514.6L514.6,273.5z"/>
						</g>
					</g>
				</g>
				<g>
					<path class="st1" d="M703.8,142.2v42.2c-5.2-0.7-10-1-14.9-1c-12.6,0-20.3,1.7-20.3,17.9v7.9h32.9V247h-32.9l0.1,143h-54.9
						l-0.1-143h-26.5v-37.8h26.5c0-51.2,36.3-67,83.1-67C699.8,142.2,703.8,142.2,703.8,142.2 M707.6,138.3h-3.9h-7
						c-56.1,0-85.3,22.5-86.9,67h-22.6h-3.9v3.9V247v3.9h3.9h22.6l0.1,139.2l0,3.9h3.9h54.9h3.9V390l-0.1-139.2h29h3.9V247v-37.8
						v-3.9h-3.9h-29v-4c0-12.8,4.5-14,16.5-14c4.6,0,9.3,0.3,14.3,1l4.4,0.6v-4.4v-42.2V138.3L707.6,138.3z"/>
				</g>
				<path class="st2" d="M357.8,153.3c-0.6-30.5-25.9-54.8-56.4-54.2c-30.5,0.6-54.8,25.9-54.2,56.4c0.4,19.5,10.9,36.5,26.4,46V390
					h57.8V201.5C347.5,191.6,358.2,173.6,357.8,153.3z M303.5,205.9c-28.5,0.6-52-22.1-52.6-50.5c-0.6-28.5,22.1-52,50.5-52.6
					c28.5-0.6,52,22.1,52.6,50.5C354.6,181.8,332,205.4,303.5,205.9z"/>
				<g>
					<g>
						<path class="st2" d="M215.8,392c-32.2,0-86.4-8.5-88.3-65.8l-0.1-2h59.1v1.9c0,7.7,2.9,13.9,8.8,18.4
							c4.8,3.7,12.2,5.8,20.2,5.8c8.7,0,25.3-3.5,25.3-16.9c0-11-13.8-14.1-23.9-16.4c-1-0.2-1.9-0.4-2.8-0.6
							c-5.5-1.4-11.4-2.7-17-3.8c-32.7-6.9-66.4-14.1-66.4-56.4c0-41.7,42.6-56.6,82.6-56.6c52.7,0,81.5,20.6,83.2,59.6l0.1,2h-57.4
							v-1.9c0-6.5-2.1-10.9-6.6-13.8c-4.2-2.7-10.2-4.2-17.3-4.2c-15.6,0-22.9,3.6-22.9,11.4c0,12,25.1,16.6,47.3,20.6
							c5.8,1.1,11.3,2.1,16.5,3.2c34.3,6.9,46.4,31.2,46.4,50C302.5,374.8,257.7,392,215.8,392z"/>
					</g>
					<g>
						<path class="st1" d="M213.1,201.5c38.8,0,79.3,11.3,81.3,57.7H241c0-7.6-2.7-12.4-7.5-15.5c-4.8-3.1-11.2-4.5-18.4-4.5
							c-9.5,0-24.8,1-24.8,13.4c0,16.8,38.8,19.9,65.3,25.8c35.7,7.2,44.9,33.3,44.9,48.1c0,47.7-44.9,63.5-84.7,63.5
							c-41.8,0-84.7-14.1-86.4-63.9h55.1c0,8.9,3.7,15.5,9.5,19.9c5.4,4.1,13.3,6.2,21.4,6.2c11.2,0,27.2-4.8,27.2-18.9
							c0-13.7-18-16.5-28.2-18.9c-36.4-9.3-82-10.3-82-58.4C132.5,213.2,178.4,201.5,213.1,201.5 M213.1,197.6
							c-40.8,0-84.5,15.4-84.5,58.5c0,43.9,36.1,51.6,68,58.3c5.6,1.2,11.5,2.4,16.9,3.8c1,0.2,1.9,0.4,2.9,0.7
							c11.8,2.6,22.4,5.7,22.4,14.5c0,11.9-15.3,15-23.3,15c-7.6,0-14.6-2-19.1-5.4c-5.3-4.1-8-9.8-8-16.8v-3.9h-3.9h-55.1h-4l0.1,4
							c0.8,24.2,10.9,42.3,30,53.8c15,9,35.8,13.8,60.3,13.8c42.8,0,88.6-17.7,88.6-67.4c0-4.7-1-17-9.8-29.2
							c-8.5-11.7-21.4-19.3-38.2-22.7c-5.1-1.1-10.6-2.1-16.5-3.2c-20.4-3.7-45.7-8.4-45.7-18.7c0-4.1,2.2-9.5,20.9-9.5
							c6.8,0,12.4,1.3,16.3,3.8c3.9,2.6,5.7,6.3,5.7,12.2v3.9h3.9h53.4h4.1l-0.2-4.1C296.5,218.8,267.1,197.6,213.1,197.6
							L213.1,197.6z"/>
					</g>
				</g>
				<g>
					<path class="st2" d="M426.2,271.9c-0.3-15.1-13.6-25.8-28.2-25.8c-32.3,0-37.4,27.8-37.4,52.5c0,23,9.9,46.7,34.4,46.7
						c20.1,0,30.3-11.7,33-30.6H484c-5.1,47.7-41.8,75.2-88.8,75.2c-53.1,0-92.5-36.8-92.5-91.4c0-56.7,35.7-97.2,92.5-97.2
						c43.9,0,83,23.3,87.1,70.4H426.2z"/>
				</g>
				<g>
					<path class="st1" d="M395.3,201.5c43.9,0,83,23.3,87.1,70.4h-56.1c-0.3-15.1-13.6-25.8-28.2-25.8c-32.3,0-37.4,27.8-37.4,52.5
						c0,23,9.9,46.7,34.4,46.7c20.1,0,30.3-11.7,33-30.6H484c-5.1,47.7-41.8,75.2-88.8,75.2c-53.1,0-92.5-36.8-92.5-91.4
						C302.8,242,338.5,201.5,395.3,201.5 M395.3,197.6c-57.7,0-96.4,40.6-96.4,101.1c0,27.2,9.8,51.7,27.5,68.9
						c17.5,17,41.9,26.3,68.9,26.3c51.2,0,87.5-30.9,92.6-78.7l0.5-4.3H484h-56.1h-3.4l-0.5,3.3c-2.6,18.3-12.2,27.2-29.1,27.2
						c-22.5,0-30.5-23.1-30.5-42.8c0-33.6,10.3-48.7,33.5-48.7c11.7,0,24,8.2,24.3,22l0.1,3.8h3.8h56.1h4.2l-0.4-4.2
						c-2-23.2-12.4-42.5-30.2-55.6C440.1,204.1,418.6,197.6,395.3,197.6L395.3,197.6z"/>
				</g>
				<g>
					<path class="st4" d="M547.3,241c-20.4,0-34,14.8-37.4,36.4h71.8C580.6,257.5,566.6,241,547.3,241z"/>
					<g>
						<path class="st1" d="M570.7,203.9c47.6,10.5,71.1,53.6,68.8,106.1H509.8c1,24.4,15,40.5,39.5,40.5c13.9,0,27.6-6.5,33-19.6
							h54.1c-8.5,33.4-35,51.5-65.7,57.1v-31.5h-47v31c-43.5-8.9-71.6-41.7-71.6-92.4c0-46.1,30.7-81.1,71.6-91v31.6h47V203.9
							 M509.8,277.4h71.8c-1-19.9-15-36.4-34.4-36.4C526.8,241,513.2,255.7,509.8,277.4 M566.8,199.1v4.8v28h-39.2v-27.7v-4.9
							l-4.8,1.2c-44.6,10.7-74.6,48.8-74.6,94.8c0,50.7,27.9,86.6,74.7,96.2l4.7,0.9v-4.8v-27.1h39.2v27.6v4.7l4.6-0.8
							c16.6-3.1,31.5-9.6,42.9-19c12.9-10.5,21.6-24.3,25.8-41l1.2-4.9h-5h-54.1h-2.6l-1,2.4c-5.3,12.7-18.7,17.2-29.4,17.2
							c-20.3,0-33-11.9-35.3-32.7h125.4h3.7l0.2-3.7c2.6-57.5-24.9-99.7-71.8-110L566.8,199.1L566.8,199.1z M514.6,273.5
							c4.3-18,16.2-28.6,32.7-28.6c15.2,0,27.5,12,30,28.6H514.6L514.6,273.5z"/>
					</g>
				</g>
			</g>
		</g>
		<g>
			<g>
				<g>
					<g>
						<rect x="534.5" y="177.4" class="st3" width="25.4" height="47.6"/>
						<path class="st1" d="M558,179.2v43.9h-21.7v-43.9H558 M561.6,175.6H558h-21.7h-3.6v3.6v43.9v3.6h3.6H558h3.6v-3.6v-43.9V175.6
							L561.6,175.6z"/>
					</g>
				</g>
			</g>
			<g>
				<g>
					<g>
						<rect x="534.5" y="367.5" class="st3" width="25.4" height="47.6"/>
						<path class="st1" d="M558,369.3v43.9h-21.7v-43.9H558 M561.6,365.6H558h-21.7h-3.6v3.6v43.9v3.6h3.6H558h3.6v-3.6v-43.9V365.6
							L561.6,365.6z"/>
					</g>
				</g>
			</g>
		</g>
		<path class="st1" d="M361.4,154.4c0-32.7-26.6-59.2-59.2-59.2S243,121.7,243,154.4c0,20.6,10.6,38.8,26.7,49.4v1.6V390v3.9h3.9
			h57.8h3.9V390V205.4v-1.9C351,192.8,361.4,174.8,361.4,154.4z M331.4,201.4v0.1v4.4V390h-57.8V206.2v-4.5v-0.2h-0.4
			c-15.8-9.7-26.3-27.2-26.3-47.1c0-30.6,24.8-55.3,55.3-55.3c30.6,0,55.3,24.8,55.3,55.3C357.5,174.2,347.1,191.6,331.4,201.4z"/>
	</g>
	<g>
		<path class="st2" d="M130.2,435.6v0.6c0,2,0.5,3.3,2.7,3.3c1.2,0,2.4-0.8,2.4-2.6c0-1.9-0.9-2.6-3.6-3.6c-3.6-1.3-5.3-2.9-5.3-6.4
			c0-4.1,2.4-6.2,6.2-6.2c3.6,0,6.2,1.6,6.2,5.7v0.6H135c0-2-0.7-3.1-2.2-3.1c-1.8,0-2.3,1.2-2.3,2.5c0,1.3,0.4,2.1,2.1,2.9l3.1,1.4
			c3.1,1.4,3.8,3,3.8,5.6c0,4.5-2.6,6.5-7,6.5c-4.6,0-6.4-2.3-6.4-6.2v-0.9H130.2z"/>
		<path class="st2" d="M142.3,421.7h3.9v4.6h2.3v2.8h-2.3v8.6c0,1.2,0.3,1.7,1.4,1.7c0.3,0,0.6,0,0.9-0.1v2.8
			c-0.8,0.1-1.6,0.2-2.5,0.2c-3.1,0-3.6-1-3.6-4.2V429h-2v-2.8h2V421.7z"/>
		<path class="st2" d="M157.6,440.3L157.6,440.3c-0.9,1.6-2.3,2.3-3.9,2.3c-2.4,0-3.9-1.4-3.9-4.5v-11.8h3.9v11
			c0,1.6,0.5,2.2,1.7,2.2c1.3,0,2.1-0.9,2.1-2.6v-10.6h3.9v15.9h-3.7V440.3z"/>
		<path class="st2" d="M171.8,440.5L171.8,440.5c-0.9,1.5-2,2.1-3.5,2.1c-3.2,0-4.7-2.5-4.7-8.4c0-5.9,1.5-8.4,4.7-8.4
			c1.5,0,2.5,0.6,3.3,1.9h0.1V421h3.9v21.1h-3.7V440.5z M169.5,439.4c1.7,0,2.1-1.8,2.1-5.2c0-3.5-0.3-5.2-2.1-5.2
			c-1.7,0-2,1.8-2,5.2C167.5,437.7,167.8,439.4,169.5,439.4z"/>
		<path class="st2" d="M181.4,434.8v1.3c0,1.9,0.5,3.7,1.9,3.7c1.3,0,1.8-1,2.1-3h3.5c-0.1,3.7-1.8,5.8-5.5,5.8
			c-5.7,0-5.9-4.6-5.9-8.5c0-4.3,0.8-8.2,6.1-8.2c4.6,0,5.6,3.2,5.6,8.1v0.9H181.4z M185.4,432.4c-0.1-2.4-0.4-3.8-2-3.8
			c-1.6,0-2,1.7-2,3.2v0.6H185.4z"/>
		<path class="st2" d="M191.2,426.2h3.7v1.9h0.1c0.8-1.6,2.2-2.3,3.9-2.3c2.4,0,3.9,1.4,3.9,4.5v11.8h-3.9v-11
			c0-1.6-0.5-2.2-1.7-2.2c-1.3,0-2.1,0.9-2.1,2.6v10.6h-3.9V426.2z"/>
		<path class="st2" d="M206.2,421.7h3.9v4.6h2.3v2.8h-2.3v8.6c0,1.2,0.3,1.7,1.4,1.7c0.3,0,0.6,0,0.9-0.1v2.8
			c-0.8,0.1-1.6,0.2-2.5,0.2c-3.1,0-3.6-1-3.6-4.2V429h-2v-2.8h2V421.7z"/>
		<path class="st2" d="M216.5,437v0.5c0,1.4,0.7,2.3,2,2.3c1.2,0,2-0.6,2-1.9c0-1-0.6-1.5-1.4-1.8l-2.7-1c-2.1-0.8-3.3-2.2-3.3-4.4
			c0-2.6,1.6-4.8,5.6-4.8c3.5,0,5.2,1.7,5.2,4.5v0.7h-3.5c0-1.6-0.5-2.4-1.7-2.4c-1,0-1.8,0.6-1.8,1.7c0,0.8,0.4,1.4,1.7,1.9
			l2.3,0.8c2.5,0.9,3.4,2.2,3.4,4.6c0,3.3-2.4,5-5.7,5c-4.4,0-5.6-2-5.6-5.1V437H216.5z"/>
		<path class="st2" d="M230.3,421v11.2h0.1l3.9-6h4.3l-4.4,6.3l5,9.7h-4.3l-3.3-6.5l-1.4,1.9v4.7h-3.9V421H230.3z"/>
		<path class="st2" d="M240.5,420.8h3.9v3.5h-3.9V420.8z M240.5,426.2h3.9v15.9h-3.9V426.2z"/>
		<path class="st2" d="M254.1,420.8h3.9v3.5h-3.9V420.8z M254.1,426.2h3.9v15.9h-3.9V426.2z"/>
		<path class="st2" d="M260.7,426.2h3.7v1.9h0.1c0.8-1.6,2.2-2.3,3.9-2.3c2.4,0,3.9,1.4,3.9,4.5v11.8h-3.9v-11
			c0-1.6-0.5-2.2-1.7-2.2c-1.3,0-2.1,0.9-2.1,2.6v10.6h-3.9V426.2z"/>
		<path class="st2" d="M280.3,425.8c4.7-0.1,6,2.8,6,8.4c0,5.5-1.5,8.4-6,8.4c-4.7,0.1-6-2.8-6-8.4
			C274.3,428.8,275.8,425.8,280.3,425.8z M280.3,439.8c1.6,0,2.1-1.6,2.1-5.6c0-4-0.5-5.6-2.1-5.6c-1.9,0-2.1,2.3-2.1,5.6
			C278.2,437.5,278.4,439.8,280.3,439.8z"/>
		<path class="st2" d="M295.9,426.2h3.9l-3.8,15.9h-4.5l-3.9-15.9h4.1l2.2,11.4h0.1L295.9,426.2z"/>
		<path class="st2" d="M300.7,431.1v-0.4c0-3.7,2.4-4.9,5.3-4.9c4.6,0,5.5,2,5.5,4.9v8.4c0,1.5,0.1,2.2,0.5,3.1h-3.7
			c-0.3-0.5-0.4-1.1-0.5-1.7h-0.1c-0.9,1.7-2,2.1-3.9,2.1c-2.7,0-3.7-2.4-3.7-4.6c0-3,1.2-4.2,3.8-5l2.2-0.6
			c1.2-0.3,1.6-0.8,1.6-1.9c0-1.2-0.5-2-1.8-2c-1.2,0-1.8,0.8-1.8,2.1v0.4H300.7z M307.9,434.2c-0.5,0.4-1.2,0.7-1.7,0.8
			c-1.6,0.4-2.2,1.2-2.2,2.6c0,1.2,0.4,2.2,1.5,2.2c1,0,2.4-0.7,2.4-2.5V434.2z"/>
		<path class="st2" d="M321.7,432c0-1.5-0.3-3.2-1.8-3.2c-1.9,0-2.2,1.8-2.2,5.5c0,3.9,0.3,5.6,2.1,5.6c1.3,0,1.9-1.2,1.9-3.7h3.7
			c0,4.2-1.7,6.5-5.8,6.5c-3.9,0-5.8-2-5.8-8.4c0-6.5,2.6-8.4,6.2-8.4c3.6,0,5.5,2.4,5.5,6.2H321.7z"/>
		<path class="st2" d="M327.6,420.8h3.9v3.5h-3.9V420.8z M327.6,426.2h3.9v15.9h-3.9V426.2z"/>
		<path class="st2" d="M339.7,425.8c4.7-0.1,6,2.8,6,8.4c0,5.5-1.5,8.4-6,8.4c-4.7,0.1-6-2.8-6-8.4
			C333.7,428.8,335.2,425.8,339.7,425.8z M339.7,439.8c1.6,0,2.1-1.6,2.1-5.6c0-4-0.5-5.6-2.1-5.6c-1.9,0-2.1,2.3-2.1,5.6
			C337.6,437.5,337.8,439.8,339.7,439.8z"/>
		<path class="st2" d="M347.8,426.2h3.7v1.9h0.1c0.8-1.6,2.2-2.3,3.9-2.3c2.4,0,3.9,1.4,3.9,4.5v11.8h-3.9v-11
			c0-1.6-0.5-2.2-1.7-2.2c-1.3,0-2.1,0.9-2.1,2.6v10.6h-3.9V426.2z"/>
		<path class="st2" d="M362.1,420.8h3.9v3.5h-3.9V420.8z M362.1,426.2h3.9v15.9h-3.9V426.2z"/>
		<path class="st2" d="M382.8,432c0-1.5-0.3-3.2-1.8-3.2c-1.9,0-2.2,1.8-2.2,5.5c0,3.9,0.3,5.6,2.1,5.6c1.3,0,1.9-1.2,1.9-3.7h3.7
			c0,4.2-1.7,6.5-5.8,6.5c-3.9,0-5.8-2-5.8-8.4c0-6.5,2.6-8.4,6.2-8.4c3.6,0,5.5,2.4,5.5,6.2H382.8z"/>
		<path class="st2" d="M391.9,434.8v1.3c0,1.9,0.5,3.7,1.9,3.7c1.3,0,1.8-1,2.1-3h3.5c-0.1,3.7-1.8,5.8-5.5,5.8
			c-5.7,0-5.9-4.6-5.9-8.5c0-4.3,0.8-8.2,6-8.2c4.6,0,5.6,3.2,5.6,8.1v0.9H391.9z M395.9,432.4c-0.1-2.4-0.4-3.8-2-3.8
			c-1.6,0-2,1.7-2,3.2v0.6H395.9z"/>
		<path class="st2" d="M401.6,426.2h3.7v1.9h0.1c0.8-1.6,2.2-2.3,3.9-2.3c2.4,0,3.9,1.4,3.9,4.5v11.8h-3.9v-11
			c0-1.6-0.5-2.2-1.7-2.2c-1.3,0-2.1,0.9-2.1,2.6v10.6h-3.9V426.2z"/>
		<path class="st2" d="M416.6,421.7h3.9v4.6h2.3v2.8h-2.3v8.6c0,1.2,0.3,1.7,1.4,1.7c0.3,0,0.6,0,0.9-0.1v2.8
			c-0.8,0.1-1.6,0.2-2.5,0.2c-3.1,0-3.6-1-3.6-4.2V429h-2v-2.8h2V421.7z"/>
		<path class="st2" d="M424.1,431.1v-0.4c0-3.7,2.4-4.9,5.3-4.9c4.6,0,5.5,2,5.5,4.9v8.4c0,1.5,0.1,2.2,0.5,3.1h-3.7
			c-0.3-0.5-0.4-1.1-0.5-1.7h-0.1c-0.9,1.7-2,2.1-3.9,2.1c-2.7,0-3.7-2.4-3.7-4.6c0-3,1.2-4.2,3.8-5l2.2-0.6
			c1.2-0.3,1.6-0.8,1.6-1.9c0-1.2-0.5-2-1.8-2c-1.2,0-1.8,0.8-1.8,2.1v0.4H424.1z M431.2,434.2c-0.5,0.4-1.2,0.7-1.7,0.8
			c-1.6,0.4-2.2,1.2-2.2,2.6c0,1.2,0.4,2.2,1.5,2.2c1,0,2.4-0.7,2.4-2.5V434.2z"/>
		<path class="st2" d="M437.7,426.2h3.7v2.1h0.1c0.8-1.5,1.9-2.5,3.5-2.5c0.2,0,0.5,0,0.7,0.1v3.9c-0.4,0-0.8-0.1-1.2-0.1
			c-1.4,0-2.9,0.7-2.9,2.9v9.6h-3.9V426.2z"/>
		<path class="st2" d="M465.3,421v3.5h-7.2v5h6.8v3.5h-6.8v5.7h7.5v3.5H454V421H465.3z"/>
		<path class="st2" d="M467.7,421h3.9v21.1h-3.9V421z"/>
		<path class="st2" d="M477.6,434.8v1.3c0,1.9,0.5,3.7,1.9,3.7c1.3,0,1.8-1,2.1-3h3.5c-0.1,3.7-1.8,5.8-5.5,5.8
			c-5.7,0-5.9-4.6-5.9-8.5c0-4.3,0.8-8.2,6.1-8.2c4.6,0,5.6,3.2,5.6,8.1v0.9H477.6z M481.6,432.4c-0.1-2.4-0.4-3.8-2-3.8
			c-1.6,0-2,1.7-2,3.2v0.6H481.6z"/>
		<path class="st2" d="M491.4,421v11.2h0.1l3.9-6h4.3l-4.4,6.3l5,9.7h-4.3l-3.3-6.5l-1.4,1.9v4.7h-3.9V421H491.4z"/>
		<path class="st2" d="M502.4,421.7h3.9v4.6h2.3v2.8h-2.3v8.6c0,1.2,0.3,1.7,1.4,1.7c0.3,0,0.6,0,0.9-0.1v2.8
			c-0.8,0.1-1.6,0.2-2.5,0.2c-3.1,0-3.6-1-3.6-4.2V429h-2v-2.8h2V421.7z"/>
		<path class="st2" d="M509.9,426.2h3.7v2.1h0.1c0.8-1.5,1.9-2.5,3.5-2.5c0.2,0,0.5,0,0.7,0.1v3.9c-0.4,0-0.8-0.1-1.2-0.1
			c-1.4,0-2.9,0.7-2.9,2.9v9.6h-3.9V426.2z"/>
		<path class="st2" d="M524.8,425.8c4.7-0.1,6,2.8,6,8.4c0,5.5-1.5,8.4-6,8.4c-4.7,0.1-6-2.8-6-8.4
			C518.8,428.8,520.3,425.8,524.8,425.8z M524.8,439.8c1.6,0,2.1-1.6,2.1-5.6c0-4-0.5-5.6-2.1-5.6c-1.9,0-2.1,2.3-2.1,5.6
			C522.7,437.5,522.9,439.8,524.8,439.8z"/>
		<path class="st2" d="M532.9,426.2h3.7v1.9h0.1c0.8-1.6,2.2-2.3,3.9-2.3c2.4,0,3.9,1.4,3.9,4.5v11.8h-3.9v-11
			c0-1.6-0.5-2.2-1.7-2.2c-1.3,0-2.1,0.9-2.1,2.6v10.6h-3.9V426.2z"/>
		<path class="st2" d="M549.8,437v0.5c0,1.4,0.7,2.3,2,2.3c1.2,0,2-0.6,2-1.9c0-1-0.6-1.5-1.4-1.8l-2.7-1c-2.1-0.8-3.3-2.2-3.3-4.4
			c0-2.6,1.6-4.8,5.6-4.8c3.5,0,5.2,1.7,5.2,4.5v0.7h-3.5c0-1.6-0.5-2.4-1.7-2.4c-1,0-1.8,0.6-1.8,1.7c0,0.8,0.4,1.4,1.7,1.9
			l2.3,0.8c2.5,0.9,3.4,2.2,3.4,4.6c0,3.3-2.4,5-5.7,5c-4.4,0-5.6-2-5.6-5.1V437H549.8z"/>
		<path class="st2" d="M563.6,421v11.2h0.1l3.9-6h4.3l-4.4,6.3l5,9.7h-4.3l-3.3-6.5l-1.4,1.9v4.7h-3.9V421H563.6z"/>
		<path class="st2" d="M579.1,425.8c4.7-0.1,6,2.8,6,8.4c0,5.5-1.5,8.4-6,8.4c-4.7,0.1-6-2.8-6-8.4
			C573.2,428.8,574.7,425.8,579.1,425.8z M579.1,439.8c1.6,0,2.1-1.6,2.1-5.6c0-4-0.5-5.6-2.1-5.6c-1.9,0-2.1,2.3-2.1,5.6
			C577.1,437.5,577.2,439.8,579.1,439.8z"/>
		<path class="st2" d="M598.6,426.2v15.1c0,4.2-1.8,6.2-6.3,6.2c-3.3,0-5.2-1.5-5.2-4.3h3.7c0,0.5,0.2,0.9,0.6,1.2
			c0.4,0.3,0.8,0.4,1.3,0.4c1.6,0,2.2-1.2,2.2-2.9V440h-0.1c-0.8,1.2-2,2-3.2,2c-3.1,0-4.7-2.2-4.7-8.1c0-3.7,0.5-8.1,4.8-8.1
			c1.1,0,2.4,0.5,3.1,2.2h0.1v-1.8H598.6z M592.8,438.8c1.6,0,2.1-1.9,2.1-4.6c0-3.9-0.5-5.3-2-5.3c-1.7,0-2,1.5-2,5.7
			C590.8,436.9,591.1,438.8,592.8,438.8z"/>
		<path class="st2" d="M609,429h-2v-2.8h2v-1.8c0-2.9,1.6-3.8,4.1-3.8c0.7,0,1.4,0,2.1,0.1v2.9c-0.3,0-0.5,0-0.8,0
			c-1.1,0-1.5,0.4-1.5,1.3v1.4h2.3v2.8h-2.3v13.1H609V429z"/>
		<path class="st2" d="M615.9,431.1v-0.4c0-3.7,2.4-4.9,5.3-4.9c4.6,0,5.5,2,5.5,4.9v8.4c0,1.5,0.1,2.2,0.5,3.1h-3.7
			c-0.3-0.5-0.4-1.1-0.5-1.7H623c-0.9,1.7-2,2.1-3.9,2.1c-2.7,0-3.7-2.4-3.7-4.6c0-3,1.2-4.2,3.8-5l2.2-0.6c1.2-0.3,1.6-0.8,1.6-1.9
			c0-1.2-0.5-2-1.8-2c-1.2,0-1.8,0.8-1.8,2.1v0.4H615.9z M623,434.2c-0.5,0.4-1.2,0.7-1.7,0.8c-1.6,0.4-2.2,1.2-2.2,2.6
			c0,1.2,0.4,2.2,1.5,2.2c1,0,2.4-0.7,2.4-2.5V434.2z"/>
		<path class="st2" d="M633.6,421v11.2h0.1l3.9-6h4.3l-4.4,6.3l5,9.7h-4.3l-3.3-6.5l-1.4,1.9v4.7h-3.9V421H633.6z"/>
		<path class="st2" d="M651.5,440.3L651.5,440.3c-0.9,1.6-2.3,2.3-3.9,2.3c-2.4,0-3.9-1.4-3.9-4.5v-11.8h3.9v11
			c0,1.6,0.5,2.2,1.7,2.2c1.3,0,2.1-0.9,2.1-2.6v-10.6h3.9v15.9h-3.7V440.3z"/>
		<path class="st2" d="M657.9,421h3.9v21.1h-3.9V421z"/>
		<path class="st2" d="M665.4,421.7h3.9v4.6h2.3v2.8h-2.3v8.6c0,1.2,0.3,1.7,1.4,1.7c0.3,0,0.6,0,0.9-0.1v2.8
			c-0.8,0.1-1.6,0.2-2.5,0.2c-3.1,0-3.6-1-3.6-4.2V429h-2v-2.8h2V421.7z"/>
		<path class="st2" d="M676.3,434.8v1.3c0,1.9,0.5,3.7,1.9,3.7c1.3,0,1.8-1,2.1-3h3.5c-0.1,3.7-1.8,5.8-5.5,5.8
			c-5.7,0-5.9-4.6-5.9-8.5c0-4.3,0.8-8.2,6-8.2c4.6,0,5.6,3.2,5.6,8.1v0.9H676.3z M680.3,432.4c-0.1-2.4-0.4-3.8-2-3.8
			c-1.6,0-2,1.7-2,3.2v0.6H680.3z"/>
		<path class="st2" d="M686.9,421.7h3.9v4.6h2.3v2.8h-2.3v8.6c0,1.2,0.3,1.7,1.4,1.7c0.3,0,0.6,0,0.9-0.1v2.8
			c-0.9,0.1-1.6,0.2-2.5,0.2c-3.1,0-3.6-1-3.6-4.2V429h-2v-2.8h2V421.7z"/>
		<path class="st2" d="M694.4,431.1v-0.4c0-3.7,2.4-4.9,5.3-4.9c4.6,0,5.5,2,5.5,4.9v8.4c0,1.5,0.1,2.2,0.5,3.1H702
			c-0.3-0.5-0.4-1.1-0.5-1.7h-0.1c-0.9,1.7-2,2.1-3.9,2.1c-2.7,0-3.7-2.4-3.7-4.6c0-3,1.2-4.2,3.8-5l2.2-0.6
			c1.2-0.3,1.6-0.8,1.6-1.9c0-1.2-0.5-2-1.8-2c-1.2,0-1.8,0.8-1.8,2.1v0.4H694.4z M701.5,434.2c-0.5,0.4-1.2,0.7-1.7,0.8
			c-1.6,0.4-2.2,1.2-2.2,2.6c0,1.2,0.4,2.2,1.5,2.2c1,0,2.4-0.7,2.4-2.5V434.2z"/>
	</g>
</g>
</svg>
