<?xml version="1.0" encoding="utf-8"?>
<!-- Generator: Adobe Illustrator 22.0.0, SVG Export Plug-In . SVG Version: 6.00 Build 0)  -->
<svg version="1.1" id="Layer_1" xmlns="http://www.w3.org/2000/svg" xmlns:xlink="http://www.w3.org/1999/xlink" x="0px" y="0px"
	 viewBox="0 0 2148 606.4" style="enable-background:new 0 0 2148 606.4;" xml:space="preserve">
<style type="text/css">
	.st0{fill:#00A666;}
</style>
<title>Artboard 27</title>
<g id="bc">
	<g>
		<polygon class="st0" points="970.6,342.2 946.1,342.2 946.1,490.1 1033.8,490.1 1033.8,468.4 970.6,468.4 		"/>
		<path class="st0" d="M789.1,342.2L770,362.6v107.1l19.1,20.4h61.6l19.1-20.4V362.6l-19.1-20.4H789.1z M845.4,468.4h-50.6V363.9
			h50.6V468.4z"/>
		<polygon class="st0" points="930.7,137.9 969.9,137.9 969.9,264.1 994.7,264.1 994.7,137.9 1034.2,137.9 1034.2,116.2 
			930.7,116.2 		"/>
		<polygon class="st0" points="864.1,242.4 795.1,242.4 795.1,199.9 849.7,199.9 849.7,178.1 795.1,178.1 795.1,137.9 864.1,137.9 
			864.1,116.2 770.4,116.2 770.4,264.1 864.1,264.1 		"/>
		<polygon class="st0" points="616.4,342.2 597.3,362.6 597.3,469.7 616.4,490.1 678,490.1 697,469.7 697,433.2 672.3,433.2 
			672.3,468.4 622,468.4 622,363.9 672.3,363.9 672.3,398.7 697,398.7 697,362.6 678,342.2 		"/>
		<path class="st0" d="M695,243.7v-42.9l-11.4-11.7l11.4-12.1v-40.5l-19.1-20.4h-78.7v148h78.7L695,243.7z M670.6,242.4h-48.9v-42.5
			h48.9V242.4z M670.6,178.1h-48.9v-40.2h48.9V178.1z"/>
		<polygon class="st0" points="1600.3,363.9 1639.5,363.9 1639.5,490.1 1664.3,490.1 1664.3,363.9 1703.8,363.9 1703.8,342.2 
			1600.3,342.2 		"/>
		<rect x="1777.1" y="342.2" class="st0" width="24.8" height="148"/>
		<path class="st0" d="M1525.3,179.8v-42.9l-19.1-20.4h-79v148h24.4v-58.9h21.8l31.1,58.9h28.1l-34.8-62.3L1525.3,179.8z
			 M1452,183.5v-45.5h48.9v45.5H1452z"/>
		<polygon class="st0" points="1936.5,466.4 1929.1,466.4 1902.6,342.2 1877.9,342.2 1911,490.1 1953.5,490.1 1988.7,342.2 
			1963.2,342.2 		"/>
		<polygon class="st0" points="2148,363.9 2148,342.2 2054.3,342.2 2054.3,490.1 2148,490.1 2148,468.4 2079.1,468.4 2079.1,425.9 
			2134,425.9 2134,404.1 2079.1,404.1 2079.1,363.9 		"/>
		<polygon class="st0" points="1257.5,264.1 1351.2,264.1 1351.2,242.4 1282.3,242.4 1282.3,199.9 1337.2,199.9 1337.2,178.1 
			1282.3,178.1 1282.3,137.9 1351.2,137.9 1351.2,116.2 1257.5,116.2 		"/>
		<polygon class="st0" points="1260.5,490.1 1354.2,490.1 1354.2,468.4 1285.3,468.4 1285.3,425.9 1340.2,425.9 1340.2,404.1 
			1285.3,404.1 1285.3,363.9 1354.2,363.9 1354.2,342.2 1260.5,342.2 		"/>
		<polygon class="st0" points="1087.7,137.9 1126.9,137.9 1126.9,264.1 1151.7,264.1 1151.7,137.9 1191.2,137.9 1191.2,116.2 
			1087.7,116.2 		"/>
		<polygon class="st0" points="1127.9,342.2 1103.5,342.2 1103.5,490.1 1190.9,490.1 1190.9,468.4 1127.9,468.4 		"/>
		<polygon class="st0" points="1449.7,342.2 1430.2,362.6 1430.2,469.7 1449.7,490.1 1511.3,490.1 1530.3,469.7 1530.3,433.2 
			1505.6,433.2 1505.6,468.4 1455,468.4 1455,363.9 1505.6,363.9 1505.6,398.7 1530.3,398.7 1530.3,362.6 1511.3,342.2 		"/>
	</g>
	<path class="st0" d="M256.1,57.6L501.5,303L256.1,548.7L10.7,303.3L256.1,57.6 M256.1,48.2L1,303.3l255.1,254.8L511.2,303
		L256.1,48.2L256.1,48.2z"/>
	<path class="st0" d="M149.6,365.9V240.7h68l16.7,17.4v34.1l-9.7,10l9.7,10v36.2l-16.7,17.4L149.6,365.9L149.6,365.9z M170.7,292.9
		h41.8v-33.8h-41.8V292.9z M170.7,347.5h41.8v-35.8h-41.8V347.5z"/>
	<path class="st0" d="M276.9,348.5v-90.4l16.4-17.4h53.2l16.4,17.4v30.5h-21.4v-29.5H298v88.4h43.5v-29.8h21.4v30.8l-16.4,17.4
		h-52.9L276.9,348.5z"/>
</g>
</svg>
