<?xml version="1.0" encoding="utf-8"?>
<!-- Generator: Adobe Illustrator 19.0.0, SVG Export Plug-In . SVG Version: 6.00 Build 0)  -->
<svg version="1.1" id="Layer_1" xmlns="http://www.w3.org/2000/svg" xmlns:xlink="http://www.w3.org/1999/xlink" x="0px" y="0px"
	 viewBox="0 0 157 152" style="enable-background:new 0 0 157 152;" xml:space="preserve">
<style type="text/css">
	.st0{fill-rule:evenodd;clip-rule:evenodd;fill:#000001;}
</style>
<g id="XMLID_241_">
	<path class="st0" d="M86.3,52.9c9.6,3.2,16.4,12.3,16.4,22.9c0,1.7-0.2,3.3-0.5,4.9h-4.9H90H67c1.9,4.5,6.4,7.7,11.5,7.7
		c3.6,0,6.8-1.5,9-3.9h13.6c-2.5,6.5-7.8,11.7-14.4,14.1v-5.5h-16v5.7c-9.6-3.2-16.4-12.3-16.4-22.9c0-10.5,6.7-19.4,16-22.8v5.5h16
		V52.9L86.3,52.9z M90,71c-1.9-4.5-6.4-7.7-11.5-7.7c-5.2,0-9.6,3.2-11.5,7.7H90z"/>
	<path class="st0" d="M78.5,23.8c14.4,0,27.4,5.8,36.9,15.3c9.4,9.4,15.3,22.5,15.3,36.9c0,14.4-5.8,27.4-15.3,36.9
		c-9.4,9.4-22.5,15.3-36.9,15.3c-14.4,0-27.4-5.8-36.9-15.3c-9.4-9.4-15.3-22.5-15.3-36.9c0-14.4,5.8-27.4,15.3-36.9
		C51.1,29.7,64.1,23.8,78.5,23.8L78.5,23.8z M83.7,35.4c20.1,2.6,35.6,19.7,35.6,40.5c0,11.7-4.9,22.3-12.9,29.7l4.9,6.6
		c0.6-0.5,1.2-1.1,1.7-1.6c8.8-8.8,14.3-21,14.3-34.5c0-13.5-5.5-25.7-14.3-34.5c-7.7-7.7-17.9-12.8-29.3-14V35.4L83.7,35.4z
		 M101.3,119.2l-1.2-1.6c-5.6,2.4-10.8,4-15.9,4.7v2.2C90.3,123.8,96.1,122,101.3,119.2L101.3,119.2z M73.3,124.6v-2.1
		c-5.2-0.6-10.3-2.1-15.5-4.6l-1.3,1.7C61.6,122.2,67.3,123.9,73.3,124.6L73.3,124.6z M46.3,112.7l4.9-6.6
		c-8.2-7.5-13.4-18.3-13.4-30.3c0-20.6,15.3-37.6,35.1-40.4l0-8c-11.2,1.3-21.3,6.4-28.9,14c-8.8,8.8-14.3,21-14.3,34.5
		c0,13.5,5.5,25.7,14.3,34.5C44.7,111.3,45.5,112,46.3,112.7L46.3,112.7z M105.6,106.3l-2.1-2.9l-5.4,3.2l2.2,3.6l3.5,5.6l-0.5,1.7
		l7.1-4.8L105.6,106.3L105.6,106.3z M95.2,104.2l-0.2,0.1l-0.1,0l-0.1,0l-0.2,0.1l0,0l-0.2,0.1l-0.1,0l-0.1,0.1l-0.2,0.1l0,0
		l-0.2,0.1l-0.1,0l-0.1,0.1l-0.1,0.1l0,0l-0.2,0.1l-0.1,0l-0.1,0.1l-0.1,0.1l0,0l-0.2,0.1l0,0l-0.1,0.1l-0.1,0.1l0,0l-0.2,0.1l0,0
		l-0.1,0.1l-0.1,0.1l-0.1,0l-0.2,0.1l0,0l-0.1,0.1l-0.1,0l-0.1,0l-0.2,0.1l0,0l-0.2,0.1l-0.1,0l-0.1,0l-0.2,0.1l0,0l-0.2,0.1l-0.1,0
		l-0.1,0l-0.2,0.1l0,0l-0.2,0.1l-0.1,0l-0.1,0l-0.2,0.1l0,0l-0.2,0.1l-0.1,0l-0.1,0l-0.1,0.1l0,0l-0.2,0.1l-0.1,0l-0.1,0l-0.1,0l0,0
		l-0.2,0.1l0,0l-0.1,0l-0.1,0l0,0l-0.2,0.1l0,0l-0.1,0l-0.1,0l-0.1,0l-0.2,0.1l0,0l-0.1,0l-0.1,0l-0.1,0l-0.2,0.1l0,0l-0.2,0l-0.1,0
		l-0.1,0l-0.2,0l0,0l-0.2,0l-0.1,0l-0.1,0l-0.2,0l0,0l-0.2,0l-0.1,0l-0.1,0l-0.2,0l0,0l-0.2,0l-0.1,0l-0.1,0l-0.2,0l0,0l-0.2,0
		l-0.1,0l-0.1,0l-0.1,0l-0.2,0l-0.1,0l-0.1,0v7.9v5c5.6-0.7,11.3-2.5,17.9-5.7L95.2,104.2L95.2,104.2z M73.3,121.3v-5v-7.9l-0.1,0
		l-0.1,0l-0.1,0l0,0l-0.2,0l-0.1,0l-0.1,0l-0.1,0l0,0l-0.2,0l-0.1,0l-0.1,0l-0.2,0l0,0l-0.2,0l-0.1,0l-0.1,0l-0.2,0l0,0l-0.2,0
		l-0.1,0l-0.3-0.1l0,0l-0.2,0l-0.1,0l-0.1,0l-0.2,0h0l-0.2,0l-0.1,0l-0.1,0l-0.2,0l0,0l-0.2,0l-0.1,0l-0.1,0l-0.2-0.1l0,0l-0.2-0.1
		l-0.1,0l-0.1,0l-0.2-0.1l0,0l-0.3-0.1l-0.1,0l-0.2-0.1l0,0L68,107l-0.1,0l-0.2-0.1l-0.1-0.1l-0.1,0l-0.1,0l-0.5-0.2l-0.1,0
		l-0.2-0.1l0,0l-0.1-0.1l-0.1-0.1l-0.3-0.1l-0.1-0.1l-0.1-0.1l0,0l-0.2-0.1l0,0l-0.1-0.1l-0.1-0.1l0,0l-0.2-0.1l-0.1,0l-0.3-0.1l0,0
		c-0.2-0.1-0.5-0.2-0.7-0.3l-0.1,0l-0.1-0.1l-0.2-0.1l0,0l-0.2-0.1l-0.1-0.1l-0.2-0.1l0,0l-0.2-0.1l-0.1,0l-0.1-0.1l-0.2-0.1l0,0
		l-0.2-0.1l-0.1,0l-0.1,0l-0.2-0.1l-1.1,2l-2.8,4.9l0,0l-2.4,4.3l2.1,1.1l0.1,0.1C63.1,119.1,68.2,120.7,73.3,121.3L73.3,121.3z
		 M59.5,106.7l-5.1-3.1l-2.4,3.3l-4.5,6.1l7.1,4.8l-0.5-1.8L59.5,106.7L59.5,106.7z M101.7,117.9l0.2-1.1l-0.8,0.4L101.7,117.9
		L101.7,117.9z M56.2,118.1l0.6-0.7l-0.7-0.4L56.2,118.1L56.2,118.1z M73.3,105.3v-9.5h10.9v9.5c13.8-2.7,24.3-14.8,24.3-29.4
		c0-14.8-10.7-27-24.7-29.5v9.5H72.8v-9.5C59,49.1,48.5,61.2,48.5,75.8C48.5,90.6,59.2,102.9,73.3,105.3z"/>
	<path class="st0" d="M78.5,3c20.2,0,38.4,8.2,51.6,21.4c13.2,13.2,21.4,31.5,21.4,51.6c0,20.2-8.2,38.4-21.4,51.6
		C116.9,140.8,98.7,149,78.5,149c-20.2,0-38.4-8.2-51.6-21.4C13.7,114.4,5.5,96.2,5.5,76c0-20.2,8.2-38.4,21.4-51.6
		C40.1,11.2,58.3,3,78.5,3L78.5,3z M127.7,26.8c-12.6-12.6-30-20.4-49.2-20.4c-19.2,0-36.6,7.8-49.2,20.4C16.7,39.4,8.9,56.8,8.9,76
		c0,19.2,7.8,36.6,20.4,49.2c12.6,12.6,30,20.4,49.2,20.4c19.2,0,36.6-7.8,49.2-20.4c12.6-12.6,20.4-30,20.4-49.2
		C148.1,56.8,140.3,39.4,127.7,26.8z"/>
	<path class="st0" d="M72.9,116.3l2.4-6.5l-2.1,0.4l0.4-1.1c0.5-0.1,1.1-0.2,1.7-0.4c0.6-0.2,1.1-0.4,1.5-0.7l0.3,0.1l-3.1,8.5
		L72.9,116.3L72.9,116.3z M78.4,118.5l-0.3-0.8c0.4,0,1-0.3,2-0.8c0.9-0.5,1.5-1,1.7-1.4c-0.4,0.2-0.9,0.2-1.5,0
		c-0.7-0.3-1.3-0.7-1.5-1.4c-0.3-0.6-0.3-1.4,0-2.2c0.3-0.8,0.8-1.4,1.4-1.7c0.6-0.3,1.3-0.4,2-0.1c1.8,0.7,2.3,2.2,1.4,4.7
		c-0.4,1-1.1,1.9-2.2,2.7C80.3,118.2,79.3,118.6,78.4,118.5L78.4,118.5z M82.8,113.3c0.4-1.2,0.2-2-0.8-2.3
		c-0.4-0.2-0.8-0.1-1.2,0.1c-0.4,0.2-0.6,0.6-0.8,1.1c-0.2,0.5-0.2,1-0.1,1.4c0.1,0.4,0.4,0.7,0.8,0.8
		C81.7,114.8,82.4,114.4,82.8,113.3z"/>
	<path class="st0" d="M74.2,109.7L75,110c-0.3,0.3-0.6,0.9-0.9,1.9c-0.3,1-0.4,1.7-0.4,2.2c0.2-0.4,0.6-0.8,1.1-1
		c0.7-0.3,1.4-0.3,2,0c0.6,0.3,1.1,0.9,1.4,1.7c0.3,0.8,0.4,1.6,0.1,2.2c-0.3,0.7-0.7,1.2-1.4,1.4c-1.8,0.7-3.2-0.1-4.2-2.6
		c-0.4-1-0.4-2.2-0.2-3.5C73,111.1,73.5,110.2,74.2,109.7L74.2,109.7z M74.4,116.4c0.5,1.2,1.2,1.6,2.2,1.2c0.4-0.2,0.7-0.4,0.8-0.8
		c0.1-0.4,0.1-0.9-0.1-1.4c-0.2-0.5-0.5-0.9-0.9-1.1c-0.4-0.2-0.8-0.2-1.2-0.1C74.2,114.5,73.9,115.3,74.4,116.4L74.4,116.4z
		 M78.4,112.7c0.7,1.8,1.4,2.9,2.1,3.3c0.7,0.4,1.5,0.5,2.4,0.1c0.9-0.3,1.4-1,1.6-2c0.2-1,0-2.1-0.6-3.5c-0.6-1.6-1.3-2.6-2-3
		c-0.7-0.5-1.5-0.5-2.3-0.2c-0.9,0.3-1.4,1-1.6,1.9C77.8,110.4,78,111.5,78.4,112.7L78.4,112.7z M79.6,112.3
		c-0.8-2.1-0.7-3.4,0.4-3.8c0.3-0.1,0.7-0.1,1,0c0.3,0.1,0.6,0.4,0.9,0.7c0.3,0.4,0.6,1,0.9,1.9c0.5,1.3,0.7,2.2,0.7,2.9
		c-0.1,0.6-0.4,1-0.9,1.3C81.5,115.6,80.5,114.6,79.6,112.3z"/>
	<path class="st0" d="M19.7,48.9c1.5,1.2,2.9,2.4,4,3.7c1.2,1.3,1.9,2.4,2.1,3.3c0.3,0.9,0.2,1.9-0.3,3l-1.4-0.6
		c0,0,0.1-0.1,0.1-0.3c0.2-0.5,0.3-0.9,0.2-1.3c0-0.4-0.2-0.8-0.5-1.2l-7.3,0.6l0.7-1.7l5.8-0.2c-1.1-1.2-2.5-2.5-4.2-3.7L19.7,48.9
		L19.7,48.9z M31.1,46.8l0.8-1.4L24,40.8l-0.8,1.4l3.1,1.8l-1.8,3.1l-3.1-1.8l-0.8,1.4l7.9,4.6l0.8-1.4l-3.6-2.1l1.8-3.1L31.1,46.8
		L31.1,46.8z M37.2,38.2l-1,1.3l-4.8-3.9l1.9,7.7l-0.4,0.5L25.7,38l1-1.3l4.8,3.9l-1.9-7.7l0.4-0.5L37.2,38.2L37.2,38.2z M40.6,34.9
		c0.7-0.7,1.2-1.4,1.3-2.2c0.1-0.8-0.1-1.5-0.7-2.1c-0.8-0.9-1.8-1.1-2.9-0.6c0.3-0.8,0.2-1.5-0.3-2c-0.5-0.5-1.1-0.8-1.8-0.7
		c-0.7,0.1-1.4,0.4-2,1.1c-0.2,0.2-0.8,0.8-1.8,1.8l6.2,6.7L40.6,34.9L40.6,34.9z M34.4,30c0.3-0.3,0.5-0.5,0.7-0.7
		c0.7-0.7,1.3-0.7,1.8-0.2c0.5,0.6,0.4,1.2-0.3,1.9c-0.1,0.1-0.3,0.3-0.6,0.5L34.4,30L34.4,30z M36.7,32.5l2.1,2.2
		c0.3-0.2,0.5-0.4,0.6-0.5c0.5-0.5,0.8-0.9,0.9-1.3c0.1-0.4-0.1-0.8-0.5-1.3c-0.3-0.4-0.7-0.5-1.1-0.5c-0.4,0-0.9,0.3-1.4,0.8
		C37.1,32.1,36.9,32.3,36.7,32.5L36.7,32.5z M41.1,24.4l1.2,1.8l2.5-1.7l0.8,1.1l-2.5,1.7l1.6,2.2l3.4-2.4l0.8,1.2l-4.7,3.3
		l-5.2-7.5l4.8-3.3l0.8,1.2L41.1,24.4L41.1,24.4z M50.1,23.7c0.3-0.1,0.5-0.2,0.7-0.3c2.2-1.1,2.8-2.6,1.9-4.5
		c-0.4-0.8-1-1.3-1.8-1.4c-0.8-0.1-1.8,0.2-3.1,0.8c-0.1,0-0.6,0.3-1.7,0.9l4.1,8.1l1.4-0.7L50.1,23.7L50.1,23.7z M48.1,19.8
		l1.3,2.6c0.3-0.1,0.5-0.2,0.6-0.3c0.7-0.3,1.1-0.7,1.3-1.1c0.2-0.4,0.2-0.8-0.1-1.3c-0.4-0.8-1.3-0.9-2.7-0.2
		C48.4,19.7,48.2,19.8,48.1,19.8L48.1,19.8z M58.8,18c0.6,0,1,0.1,1.4,0.4c0.4,0.3,0.7,0.7,0.9,1.2c0.3,0.8,0.3,1.6-0.1,2.3
		c-0.4,0.7-1.1,1.2-2.1,1.6c-1,0.4-2,0.5-2.8,0.3l0.1-1.6c0.8,0.2,1.5,0.2,2.3-0.1c0.5-0.2,0.9-0.5,1.1-0.8c0.2-0.4,0.2-0.7,0.1-1.1
		c-0.2-0.5-0.5-0.8-0.9-1c-0.4-0.1-1-0.1-1.6,0.2c-0.3,0.1-0.6,0.3-0.9,0.4l-0.5-1.2c0.3-0.1,0.6-0.2,0.9-0.3
		c0.5-0.2,0.9-0.5,1.1-0.8c0.2-0.3,0.2-0.7,0.1-1.1c-0.1-0.3-0.3-0.5-0.7-0.6c-0.3-0.1-0.7,0-1.1,0.1c-0.5,0.2-1,0.6-1.6,1.2l-1-1
		c0.7-0.7,1.4-1.2,2.2-1.5c0.8-0.3,1.6-0.4,2.2-0.2c0.6,0.2,1.1,0.6,1.4,1.3c0.2,0.4,0.2,0.8,0.1,1.2C59.3,17.4,59.1,17.7,58.8,18
		L58.8,18z M70.4,20.1l-1.6,0.3l-1.3-6l-3.4,7.1l-0.7,0.1l-1.9-9.1l1.6-0.3l1.3,6l3.4-7.1l0.7-0.1L70.4,20.1L70.4,20.1z M75.8,11.9
		l0.5,7.7l-1.6,0.1L74.1,12l-2.9,0.2l-0.1-1.4l7.5-0.5l0.1,1.4L75.8,11.9L75.8,11.9z M82.8,12.1l-0.1,2.1l3,0.2l-0.1,1.4l-3-0.2
		l-0.2,2.7l4.1,0.3L86.4,20l-5.7-0.4l0.6-9.1l5.8,0.4L87,12.4L82.8,12.1L82.8,12.1z M93.4,13.6l-1.6,7.5l-1.6-0.3l1.6-7.5L89,12.6
		l0.3-1.4l7.4,1.6l-0.3,1.4L93.4,13.6L93.4,13.6z M109.7,18c-1.2,1.5-2.5,2.8-3.9,3.9c-1.3,1.1-2.5,1.8-3.4,2
		c-0.9,0.2-1.9,0.1-2.9-0.4l0.6-1.4c0,0,0.1,0.1,0.3,0.1c0.5,0.2,0.9,0.3,1.3,0.3c0.4,0,0.8-0.2,1.2-0.4l-0.3-7.3l1.6,0.7l0,5.8
		c1.3-1.1,2.6-2.4,3.9-4.1L109.7,18L109.7,18z M114.2,32.2l2.5-3.2l-2.9-2.2l-2.5,3.2l-1.3-1l5.6-7.2l1.3,1l-2.2,2.8l2.9,2.2
		l2.2-2.8l1.3,1l-5.6,7.2L114.2,32.2L114.2,32.2z M121.8,39.6l6.7-6.4l-0.5-0.5l-7.8,0.9l4.4-4.3l-1.1-1.2l-6.7,6.4l0.5,0.5l7.8-0.9
		l-4.4,4.3L121.8,39.6L121.8,39.6z M128.5,49.4l-5.4-8.4l7.7-5l0.8,1.3l-6.5,4.2l1.5,2.3l6.5-4.2l0.8,1.3l-6.5,4.2l1.5,2.3l6.5-4.2
		l0.8,1.3L128.5,49.4L128.5,49.4z M140.2,54.2l-0.6-1.6c-2.1,0.3-4,0.4-5.6,0.2l4-4.2l-0.7-1.7l-4.9,5.5c-0.5-0.1-0.8-0.3-1.1-0.5
		c-0.3-0.2-0.6-0.6-0.8-1.1c-0.1-0.1-0.1-0.2-0.1-0.3l-1.4,0.6c0.4,1.1,1.1,1.9,1.9,2.3c0.8,0.4,2.1,0.7,3.8,0.9
		C136.5,54.4,138.3,54.4,140.2,54.2z"/>
	<path class="st0" d="M20.6,74.2l-2.1-0.1l-0.1,3l-1.4,0l0.1-3L14.3,74l-0.1,4.1l-1.4,0l0.2-5.8l9.1,0.3l-0.2,5.8l-1.4,0L20.6,74.2
		L20.6,74.2z M13.6,86.6L13.4,85l7.7-0.8l-0.2-1.8c-1.2,0-2.4-0.1-3.6-0.2c-1.1-0.1-2-0.4-2.7-0.7c-0.7-0.3-1.1-0.7-1.4-1.1
		c-0.3-0.4-0.5-1-0.5-1.6l1.5-0.2c0,0.3,0.1,0.5,0.2,0.7c0.1,0.2,0.3,0.4,0.6,0.6c0.3,0.2,0.8,0.4,1.6,0.5c0.8,0.2,1.7,0.3,2.7,0.4
		c1,0.1,2,0.1,3,0.1l0.5,4.6L13.6,86.6L13.6,86.6z M22,88.5L19.9,89l0.6,3l-1.3,0.3l-0.6-3l-2.7,0.6l0.9,4l-1.4,0.3l-1.2-5.6
		l8.9-1.9l1.2,5.7l-1.4,0.3L22,88.5L22,88.5z M18.3,101.9l1.4-0.5c0-0.1-0.1-0.1-0.1-0.2c-0.1-0.2-0.1-0.4,0-0.5
		c0.1-0.1,0.2-0.3,0.6-0.5c0.6-0.4,1.1-0.8,1.3-1.3c0.3-0.5,0.4-1,0.3-1.6c0.3,0.5,0.7,0.8,1.2,1c0.5,0.2,1,0.3,1.5,0.2
		c0.3-0.1,0.5-0.1,0.6,0c0.1,0,0.2,0.1,0.3,0.3c0,0.1,0.1,0.2,0.1,0.3l1.3-0.5c0-0.1-0.1-0.3-0.2-0.5c-0.2-0.5-0.5-0.9-0.8-1
		c-0.3-0.1-0.8-0.2-1.4,0c-0.7,0.1-1.2,0.1-1.7-0.2c-0.4-0.3-0.8-0.7-1-1.4l0-0.1l3.4-1.3l-0.6-1.5L16,95.7l0.6,1.5l3.9-1.5l0,0.1
		c0.3,0.7,0.3,1.3,0.1,1.8c-0.2,0.5-0.7,1-1.5,1.5c-0.5,0.3-0.9,0.7-1,1c-0.2,0.4-0.1,0.8,0.1,1.4C18.2,101.6,18.3,101.8,18.3,101.9
		L18.3,101.9z M27.6,103.5l-6.9,3.4l-0.7-1.5l6.9-3.4l-1.3-2.6l1.3-0.6l3.3,6.8l-1.3,0.6L27.6,103.5L27.6,103.5z M26.6,110
		c0.1,0.3,0.3,0.5,0.4,0.6c1.4,2,2.9,2.5,4.7,1.3c0.8-0.5,1.2-1.2,1.2-2c0-0.8-0.4-1.8-1.2-3c0-0.1-0.4-0.6-1.1-1.5l-7.6,5.1
		l0.9,1.3L26.6,110L26.6,110z M30.2,107.5c0.1,0.1,0.2,0.2,0.3,0.4c0.9,1.3,0.9,2.2,0.1,2.7c-0.5,0.3-0.9,0.4-1.3,0.3
		c-0.4-0.1-0.8-0.5-1.2-1.1c-0.1-0.1-0.2-0.3-0.3-0.6L30.2,107.5L30.2,107.5z M30.6,113.2c1-0.8,2.1-1.3,3.2-1.3
		c1.1,0,2.1,0.4,2.9,1.3c0.8,1,1.2,2,1,3.1c-0.2,1.1-0.8,2.1-2,3c-1.1,1-2.3,1.4-3.4,1.4c-1.1,0-2.1-0.5-3-1.5
		c-0.8-0.9-1.1-1.9-0.8-3C28.8,115.2,29.5,114.2,30.6,113.2L30.6,113.2z M31.7,114.5c-0.9,0.7-1.4,1.4-1.6,2
		c-0.2,0.6-0.1,1.2,0.4,1.7c0.5,0.6,1.1,0.9,1.8,0.9c0.7,0,1.5-0.4,2.3-1.1c1.6-1.4,2-2.7,0.9-3.9c-0.5-0.6-1-0.8-1.7-0.7
		C33.2,113.5,32.5,113.9,31.7,114.5L31.7,114.5z M37.3,126.7l1.2,1.1l6.1-6.8l-1.2-1.1l-2.4,2.7l-2.7-2.4l2.4-2.7l-1.2-1.1l-6.1,6.8
		l1.2,1.1l2.7-3.1l2.7,2.4L37.3,126.7L37.3,126.7z M50.1,125.1l-1.3,0.7c-0.1-0.5-0.5-1-1.1-1.4c-0.7-0.4-1.4-0.5-2.1-0.2
		c-0.8,0.3-1.4,0.8-1.9,1.6c-0.5,0.8-0.8,1.5-0.7,2.3c0,0.7,0.4,1.3,1,1.8c0.7,0.5,1.4,0.6,2.2,0.4l-0.1,1.5c-0.9,0.2-1.9,0-3-0.8
		c-1.1-0.7-1.7-1.6-1.8-2.7c-0.1-1.1,0.2-2.2,1-3.4c0.7-1.1,1.7-1.8,2.9-2.2c1.2-0.3,2.2-0.1,3.3,0.6
		C49.2,123.7,49.8,124.4,50.1,125.1L50.1,125.1z M52.6,136.1l0.7-1.3c-0.1,0-0.1,0-0.2-0.1c-0.2-0.1-0.3-0.2-0.3-0.3
		c0-0.1,0-0.4,0.1-0.7c0.2-0.7,0.2-1.4,0.1-1.9c-0.1-0.5-0.4-1-0.9-1.4c0.6,0.1,1.1,0.1,1.6-0.1c0.5-0.2,0.9-0.5,1.3-0.9
		c0.2-0.3,0.4-0.4,0.5-0.4c0.1,0,0.2,0,0.4,0.1c0.1,0.1,0.2,0.1,0.2,0.1l0.7-1.3c-0.1-0.1-0.3-0.2-0.5-0.3c-0.5-0.3-0.9-0.3-1.3-0.2
		c-0.3,0.1-0.7,0.4-1.1,0.9c-0.4,0.5-0.9,0.9-1.4,1c-0.5,0.1-1.1,0-1.7-0.3l-0.1-0.1l1.6-3.2l-1.4-0.7l-4.1,8.1l1.4,0.7l1.9-3.7
		l0.1,0c0.7,0.3,1.1,0.8,1.3,1.3c0.2,0.5,0.1,1.2-0.1,2.1c-0.2,0.6-0.2,1.1-0.1,1.5c0.1,0.4,0.5,0.7,1,1
		C52.3,135.9,52.4,136,52.6,136.1L52.6,136.1z M60.8,138.7l-1.5-0.5l2-5.8l-6.6,4.4l-0.6-0.2l3-8.8l1.5,0.5l-2,5.8l6.6-4.4l0.6,0.2
		L60.8,138.7L60.8,138.7z M72.2,132.3c1.2,0.2,2,0.7,2.6,1.5c0.6,0.7,0.8,1.7,0.7,2.7c-0.1,1.1-0.6,1.9-1.3,2.5
		c-0.8,0.6-1.7,0.9-2.9,0.9l-0.1,1l-1.6-0.2l0.1-1c-1.2-0.2-2-0.7-2.6-1.5c-0.6-0.7-0.8-1.7-0.7-2.8c0.1-1.1,0.6-1.9,1.3-2.5
		c0.8-0.6,1.7-0.9,2.9-0.9l0.1-1l1.6,0.2L72.2,132.3L72.2,132.3z M71.4,138.7c0.7,0,1.3-0.2,1.8-0.6c0.4-0.4,0.7-1,0.8-1.8
		c0.1-0.7,0-1.3-0.4-1.8c-0.3-0.5-0.8-0.8-1.5-1L71.4,138.7L71.4,138.7z M69.9,138.5l0.6-5.2c-0.7,0-1.3,0.2-1.8,0.6
		c-0.4,0.4-0.7,1-0.8,1.8c-0.1,0.7,0,1.3,0.4,1.8C68.7,138,69.2,138.3,69.9,138.5L69.9,138.5z M81.8,141l1.8-0.1l-4-9.1l-0.7,0
		l-3.3,9.4l1.8-0.1l0.6-1.9l3.1-0.1L81.8,141L81.8,141z M79.3,134.7l1.2,3.3l-2.2,0.1L79.3,134.7L79.3,134.7z M91.1,140.1
		c-0.1,0-0.3,0.1-0.5,0.1c-0.6,0.1-1,0-1.3-0.3c-0.3-0.2-0.6-0.7-0.8-1.3c-0.3-0.8-0.6-1.4-1.1-1.8c-0.4-0.3-1-0.4-1.8-0.4l-0.1,0
		l0.5,4.1l-1.6,0.2l-1.1-9.1l1.6-0.2l0.4,3.6l0.1,0c0.7-0.1,1.3-0.3,1.6-0.7c0.4-0.4,0.6-0.9,0.6-1.6c0-0.6,0.2-1.1,0.4-1.4
		c0.2-0.3,0.6-0.5,1.2-0.6c0.2,0,0.4,0,0.6,0l0.2,1.4c0,0-0.1,0-0.3,0c-0.2,0-0.3,0.1-0.4,0.2c-0.1,0.1-0.1,0.3-0.1,0.6
		c0,0.5-0.2,1-0.5,1.5c-0.3,0.4-0.8,0.7-1.3,0.9c0.6,0.1,1.1,0.3,1.5,0.7c0.4,0.4,0.7,0.9,1,1.6c0.1,0.4,0.2,0.6,0.3,0.7
		c0.1,0.1,0.2,0.1,0.5,0.1c0.1,0,0.2,0,0.2-0.1L91.1,140.1L91.1,140.1z M96.8,129l-1.6,0.5c0.1,2.1-0.1,4-0.4,5.6l-3.8-4.4l-1.7,0.5
		l5,5.4c-0.2,0.4-0.4,0.8-0.6,1.1c-0.3,0.3-0.7,0.5-1.2,0.6c-0.1,0-0.2,0.1-0.3,0.1l0.4,1.4c1.1-0.3,2-0.9,2.5-1.6
		c0.5-0.8,1-2,1.3-3.7C96.6,132.8,96.8,131,96.8,129L96.8,129z M106.8,134.8l-1.5,0.6l-2.9-7.2l-1.6,0.7c0.3,1.2,0.6,2.4,0.8,3.5
		c0.2,1.1,0.2,2.1,0.1,2.8c-0.1,0.7-0.3,1.3-0.7,1.7c-0.3,0.4-0.8,0.7-1.4,0.9l-0.6-1.4c0.3-0.1,0.5-0.2,0.6-0.4
		c0.2-0.1,0.3-0.4,0.4-0.7c0.1-0.3,0.1-0.9,0.1-1.7c0-0.8-0.2-1.7-0.4-2.7c-0.2-1-0.4-2-0.7-2.9l4.3-1.7L106.8,134.8L106.8,134.8z
		 M107.9,125.4l2.6-1.6l-0.7-1.2l-6.5,3.9l0.7,1.2l2.5-1.5l4,6.6l1.4-0.8L107.9,125.4L107.9,125.4z M112,122.8l1.3,1.7l2.3-1.9
		l0.9,1.1l-2.3,1.9l1.7,2.1l3.2-2.6l0.9,1.1l-4.5,3.6l-5.7-7.1l4.5-3.7l0.9,1.1L112,122.8L112,122.8z M118.8,117l2.2-2.1l-1-1
		l-5.4,5.3l1,1l2.1-2l5.3,5.5l1.2-1.1L118.8,117L118.8,117z M126.3,105.6c1.2,1.5,2.3,3,3.1,4.5c0.8,1.5,1.3,2.8,1.3,3.7
		c0.1,0.9-0.2,1.9-0.9,2.8l-1.2-0.9c0,0,0.1-0.1,0.2-0.2c0.3-0.4,0.5-0.9,0.5-1.2c0-0.4,0-0.8-0.2-1.3l-7.3-1.1l1-1.5l5.7,1.1
		c-0.8-1.5-1.9-3-3.3-4.6L126.3,105.6L126.3,105.6z M138.5,101.9l0.6-1.5l-8.3-3.7l-0.6,1.5l3.3,1.5L132,103l-3.3-1.5l-0.7,1.5
		l8.3,3.7l0.7-1.5l-3.8-1.7l1.5-3.3L138.5,101.9L138.5,101.9z M142,92l-0.5,1.5l-5.8-1.9l4.5,6.5l-0.2,0.7l-8.8-2.9l0.5-1.5l5.8,1.9
		l-4.5-6.5l0.2-0.7L142,92L142,92z M143.9,80.2l-9.1-1l-0.2,1.5l7.7,0.8l-0.3,2.7l-7.7-0.8l-0.2,1.5l7.7,0.8l-0.3,2.7l-7.7-0.8
		l-0.2,1.5l9.1,1L143.9,80.2L143.9,80.2z M134.9,71.8c1.9,0.4,3.6,1,5.2,1.8c1.6,0.7,2.7,1.4,3.3,2.1c0.6,0.7,0.9,1.6,1,2.8
		l-1.5,0.1c0,0,0-0.1,0-0.3c0-0.5-0.1-1-0.3-1.3c-0.2-0.3-0.5-0.6-0.9-0.9l-6.5,3.5l-0.1-1.8l5.2-2.6c-1.5-0.7-3.3-1.3-5.4-1.7
		L134.9,71.8z"/>
</g>
<g id="XMLID_242_">
</g>
<g id="XMLID_243_">
</g>
<g id="XMLID_244_">
</g>
<g id="XMLID_245_">
</g>
<g id="XMLID_246_">
</g>
<g id="XMLID_247_">
</g>
<g id="XMLID_248_">
</g>
<g id="XMLID_249_">
</g>
<g id="XMLID_250_">
</g>
<g id="XMLID_251_">
</g>
<g id="XMLID_252_">
</g>
<g id="XMLID_253_">
</g>
<g id="XMLID_254_">
</g>
<g id="XMLID_255_">
</g>
<g id="XMLID_256_">
</g>
</svg>
