<?xml version="1.0" encoding="utf-8"?>
<!-- Generator: Adobe Illustrator 26.3.1, SVG Export Plug-In . SVG Version: 6.00 Build 0)  -->
<svg version="1.1" id="Layer_1" xmlns:xodm="http://www.corel.com/coreldraw/odm/2003"
	 xmlns="http://www.w3.org/2000/svg" xmlns:xlink="http://www.w3.org/1999/xlink" x="0px" y="0px" viewBox="0 0 1295.8 2120.9"
	 style="enable-background:new 0 0 1295.8 2120.9;" xml:space="preserve">
<style type="text/css">
	.st0{fill-rule:evenodd;clip-rule:evenodd;fill:#6F9ED4;}
	.st1{fill-rule:evenodd;clip-rule:evenodd;fill:#336699;}
	.st2{fill-rule:evenodd;clip-rule:evenodd;fill:#002266;}
</style>
<g id="Layer_x0020_1">
	<path class="st0" d="M0,520.8c0,204.3,81.7,317.6,203.1,426.1c44.1,39.4,224.9,153.5,283.6,191.4c105.4,68,229.6,137.5,332.5,205.1
		c31.4,20.7,50.4,30.2,77.7,55.6c23.7,22,45.5,39.5,68.1,69.4c89.5,118.7,101.5,283.5,4.7,397.2c-7.1,8.3-12.8,14.1-19.7,22
		c-57.5,66.1-180.2,112.5-275,112.5c-126.8,0-240.1-24.4-339.2-89.9c-24.7-16.4-56.6-37.2-76.5-56.9
		c-83.9-83.1-104.5-127.8-142.1-245.3c-7-21.7-25-84.9-25.5-107.8c-49.4,0-75-7.1-75,12.5v608.3H75c0.5-22.7,11-59.4,19.3-76.6
		c29-60,82.5-37.1,124.2-25.2c22.4,6.4,42.2,12.1,61.6,17.6c151,42.4,240,84.2,407.4,84.2c90.6,0,176.8-20.1,241.7-45.8
		c33-13.1,67.4-30,97.6-48.2c18.2-11,25.7-16.2,42.2-28.6c129.9-97.4,226.8-252.6,226.8-427.4c0-114.8-23.2-204-78.3-292.5
		c-45.9-73.8-94.4-121.2-165-168.3l-160.9-105.8c-125.8-83.7-276.3-163-415.8-250.8c-28.8-18.1-52.2-34.2-81.4-51.9
		c-33.9-20.6-71.2-70.6-99.6-100.4c-10.2-10.7-21-24.9-29-37.6c-35.5-56.4-32.4-95.7-32.4-159.3c0-56.2,36.9-116.1,68.4-156.6
		C351.8,183,465.8,125,554.2,125c124,0,218.7,17.7,314.3,89.9c12.5,9.4,21.9,15.3,32.7,25.7c11.6,11.2,19.8,20,31.2,31.3
		c39.4,39.1,71.1,89.2,96.9,140.6c39,77.7,56.5,166.6,62.5,179.2l47.6-0.8c3.2-0.3,7.3-0.4,8.6-0.5c12.5-0.9,6.2,0.1,18.8-2.8V0
		c-92.4,0-38.4-3.3-76.3,73.7c-45.4,92.2-172.3,12.8-238-13.6C611-36.7,334.8-13.4,159.3,163.5c-52.3,52.7-95.2,114-123.1,185.2
		C18.6,394,0,460.3,0,520.8L0,520.8z"/>
	<path class="st1" d="M466.7,366.7c118.1,62.5,108.6,100.9,44.6,215.4c-10.8,19.2-18.8,34.2-30.2,53.1c-11.2,18.6-19.9,35.8-31,52.3
		c11.5,3.1,19.8,11.8,30.8,19.2c23.3,15.5,73.6,54.2,98.3,60c13-24.5,108.2-181.3,112.5-200c66.7,0,182.7,68.2,236.5,121.9
		c28.7,28.6,56.6,65.3,74.7,104.5c33.7,72.9,34.7,116.7,34.7,194.5c0,25.3-4.2,30.4-4.2,54.2c20.7,13.9,137.7,95.6,154.2,100
		c1.2-52.5,17.8-71.1,7.7-174.4c-10.3-105.6-58.1-186.4-127.5-255.8C994,637.8,934.3,600.7,847.6,548.2
		c-20.9-12.6-40.8-24.3-60.4-35.5c-50.6-29-284.2-169.6-308.1-175.2C474.8,356.2,470.9,350.9,466.7,366.7L466.7,366.7z"/>
	<path class="st1" d="M537.5,1537.5c-68.5,0-87.7-13.4-137.5-25c-10.5,15.7-30.1,32.7-41.7,50c147.4,78,323.1,104.4,480.6,34.8
		c36.8-16.2,110.8-57.4,131.9-88.9L816.7,1425c-34.6,30.1-72,57.3-119,76.8C649.6,1521.7,603.8,1537.5,537.5,1537.5z"/>
	<path class="st2" d="M66.7,1387.5c8.3,12.3,41.2,29.9,57,38.8c63.4,35.3,125.8,77.9,188.8,111.2c10.9-7.3,50-36.1,50-50
		c0-26.1-21.3,0-54.2,0c-23,0-58.7-20-74.8-29.3c-82-47.2-83-28.7,5.3-190.2l55.7-106.8c35.6-65.9,73.4,12.4,66.8-26.5
		c-2-11.6-113.2-75.1-128-76.3c3.3,39.6,42,3.6-1.4,90.3l-116.9,224.8c-6.6,8.1-11.1,9.2-23.4,9.5
		C69.8,1383.4,84.3,1375.7,66.7,1387.5z"/>
</g>
</svg>
