<svg xmlns="http://www.w3.org/2000/svg" xmlns:xlink="http://www.w3.org/1999/xlink" viewBox="0 0 196 117.89"><defs><style>.cls-1{fill:none;}.cls-2{clip-path:url(#clip-path);}.cls-3{clip-path:url(#clip-path-2);}.cls-4{fill:url(#radial-gradient);}.cls-5{font-size:77.36px;fill:#e0e0e0;font-family:NexaLight, Nexa Light;letter-spacing:0.04em;}.cls-6{fill:#d92827;}.cls-7{fill:#73716f;}.cls-8{fill:#d92a27;}.cls-9{fill:#d82a27;}.cls-10{fill:#d72a27;}.cls-11{fill:#da2927;}.cls-12{fill:#d52a28;}.cls-13{fill:#d72b27;}.cls-14{fill:#d62b27;}.cls-15{fill:#dc2927;}.cls-16{fill:#d92927;}.cls-17{fill:#d62b28;}.cls-18{fill:#d42a28;}.cls-19{fill:#d72b28;}.cls-20{fill:#d52c27;}.cls-21{fill:#d52b28;}.cls-22{fill:#d62a27;}.cls-23{fill:#d52c28;}.cls-24{fill:#d62c28;}.cls-25{fill:#d52c29;}.cls-26{fill:#d52a27;}.cls-27{fill:#d32c27;}.cls-28{fill:#d52b27;}.cls-29{fill:#d92928;}.cls-30{fill:#d42c28;}.cls-31{fill:#d32e28;}.cls-32{fill:#d42d28;}.cls-33{fill:#d22b28;}.cls-34{fill:#cf2f28;}.cls-35{fill:#d12d28;}.cls-36{fill:#cf3530;}.cls-37{fill:#f5ebe9;}.cls-38{fill:#f7f4f3;}.cls-39{fill:#f7ece6;}.cls-40{fill:#f4f4f2;}.cls-41{fill:#f9f6f5;}.cls-42{fill:#f4e0d6;}.cls-43{fill:#eacfc5;}</style><clipPath id="clip-path"><polygon id="_Clipping_Path_" data-name="&lt;Clipping Path&gt;" class="cls-1" points="-101.33 -351.58 -400.36 -283.76 -699.38 -351.58 -699.38 -423.07 -101.33 -423.07 -101.33 -351.58"/></clipPath><clipPath id="clip-path-2"><rect class="cls-1" x="-819.63" y="-474.31" width="854.65" height="316.47"/></clipPath><radialGradient id="radial-gradient" cx="193.94" cy="-594.5" r="2041.06" gradientTransform="translate(-315.6 317.13) rotate(90)" gradientUnits="userSpaceOnUse"><stop offset="0" stop-color="#fff"/><stop offset="0.39" stop-color="#fbfbfb"/><stop offset="0.8" stop-color="#efefee"/><stop offset="1" stop-color="#e6e6e5"/></radialGradient></defs><title>sumf</title><g id="Remastered"><g id="Header"><g id="_Clip_Group_" data-name="&lt;Clip Group&gt;"><g class="cls-2"><g class="cls-3"><rect id="_Path_" data-name="&lt;Path&gt;" class="cls-4" x="-1076.08" y="-859.63" width="1340.73" height="1340.76"/><text class="cls-5" transform="translate(-913.21 -477.82)">010010000011001001001010<tspan x="0" y="72.34">10110110010101110100010100</tspan><tspan x="0" y="144.67">11110101011100010010001101</tspan><tspan x="0" y="217.01">01000110010101010100101101</tspan><tspan x="0" y="289.34">00110111010101011000001100</tspan><tspan x="0" y="361.68">1010111001000101100000100</tspan><tspan x="0" y="434.01">0000100100011011010010110</tspan><tspan x="0" y="506.35">0011010100101001101100010</tspan><tspan x="0" y="578.68">000001101010010100101000</tspan><tspan x="0" y="651.02">100000001101110010010000</tspan><tspan x="0" y="723.35">10110000101010101101100001</tspan><tspan x="0" y="795.69">011101001001101111010010111</tspan><tspan x="0" y="868.03">000100000 </tspan><tspan x="0" y="940.36">0110101001011001010010000</tspan></text></g></g></g></g><g id="sumf_logo" data-name="sumf logo"><path id="_Path_2" data-name="&lt;Path&gt;" class="cls-6" d="M5.14,113.91c1.16-1.29,2.33-2.58,3.48-3.87q4.34-4.85,8.47-9.86c3.46-4.19,6.78-8.49,9.83-13A93.89,93.89,0,0,0,35,73.07a54.44,54.44,0,0,0,3.57-10.53,31.47,31.47,0,0,0-.63-16.37A52.2,52.2,0,0,0,34,37c-2.24-4.19-4.83-8.17-7.44-12.14C23,19.42,19.4,14.07,16,8.58c-.46-.75-.9-1.51-1.43-2.39a48.39,48.39,0,0,1,5.93,3.6,97.61,97.61,0,0,1,19,17.75,82.75,82.75,0,0,1,8.63,12.37,47.14,47.14,0,0,1,5.3,13.23A21.87,21.87,0,0,1,52,66.79a67.67,67.67,0,0,1-6.2,11q-2.56,3.78-5.42,7.32A131.5,131.5,0,0,1,29.19,97.33a100,100,0,0,1-14.91,12.06,43.33,43.33,0,0,1-8.49,4.42l-.58.19Z"/><path id="_Path_3" data-name="&lt;Path&gt;" class="cls-7" d="M144.92,40.12l-3.62,3.94c-1.49,1.64-3,3.26-4.47,4.91-.33.37-.45.37-.63-.12-1-2.71-2-5.41-3.06-8.12a1.21,1.21,0,0,0-.31-.59c-.4,1.47-.8,2.9-1.18,4.34-.71,2.65-1.43,5.31-2.12,8a.62.62,0,0,1-.74.53q-3.66,0-7.33,0c-.55,0-.6-.16-.47-.64q2.51-9.21,5-18.43c.57-2.11,1.15-4.22,1.68-6.35.14-.58.4-.73,1-.72,2.34,0,4.68,0,7,0a1,1,0,0,1,1.12.8c.88,2.71,1.82,5.41,2.74,8.1a1.15,1.15,0,0,0,.14.23l.57-.62,7.13-8.12a.81.81,0,0,1,.66-.38H157a2.11,2.11,0,0,1,.28.05q-.91,3.38-1.81,6.72-2.52,9.36-5,18.73c-.12.45-.29.62-.79.62-2.44,0-4.89,0-7.33,0-.75,0-.74,0-.55-.7q1.61-5.93,3.19-11.85A1.37,1.37,0,0,0,144.92,40.12Z"/><path id="_Path_4" data-name="&lt;Path&gt;" class="cls-7" d="M103.88,26.86c1.26,0,2.52,0,3.79,0,.49,0,.62.09.48.61-1.2,4.36-2.36,8.74-3.53,13.11a11.41,11.41,0,0,0-.27,1.46,3.13,3.13,0,0,0,3.21,3.74A4.24,4.24,0,0,0,112,42.69c.76-2,1.19-4,1.75-6.07.85-3.11,1.68-6.22,2.51-9.33a.47.47,0,0,1,.55-.43q4,0,8,0c.34,0,.47.05.36.46-1.45,5.29-2.85,10.6-4.32,15.9a16.13,16.13,0,0,1-3.24,6.22,11.85,11.85,0,0,1-7.47,3.79,19,19,0,0,1-7.76-.26c-3.64-.92-6.09-3.08-6.78-6.89a15.65,15.65,0,0,1,.58-7c1.06-3.86,2.09-7.73,3.12-11.6a.71.71,0,0,1,.85-.64C101.35,26.89,102.61,26.86,103.88,26.86Z"/><path id="_Path_5" data-name="&lt;Path&gt;" class="cls-7" d="M85,26.32a18.34,18.34,0,0,1,10.8,3.55c.43.32.37.49.06.84-1.38,1.62-2.75,3.25-4.09,4.91-.38.46-.61.52-1.11.15a11.74,11.74,0,0,0-6.53-2.44,5,5,0,0,0-1.54.11,1,1,0,0,0-.77.8.93.93,0,0,0,.57.95,35.63,35.63,0,0,0,3.51,1.4,16.52,16.52,0,0,1,5.37,2.88,5.87,5.87,0,0,1,2,4.08c.29,4.49-2.56,8.12-7.16,9.29a18.89,18.89,0,0,1-17-3.66c-.38-.29-.51-.48-.11-.93,1.44-1.65,2.84-3.34,4.22-5,.3-.37.48-.37.83-.09a15,15,0,0,0,6.07,3.1,10.44,10.44,0,0,0,2.84.21,1.73,1.73,0,0,0,.82-.27,1,1,0,0,0,.08-1.69,12,12,0,0,0-2.52-1.16,44.17,44.17,0,0,1-5-2.15c-3.93-2.15-4.12-6.24-2.51-9.37A9.76,9.76,0,0,1,79.92,27,17.25,17.25,0,0,1,85,26.32Z"/><path id="_Path_6" data-name="&lt;Path&gt;" class="cls-7" d="M171,26.86c3.42,0,6.84,0,10.26,0,.53,0,.74.06.56.68-.59,2.08-1.14,4.18-1.69,6.28-.11.44-.34.51-.75.51H167.4c-.43,0-.66.07-.75.56a16.77,16.77,0,0,1-.6,2.21c-.16.47,0,.55.42.55q5.44,0,10.87,0c.76,0,.76,0,.56.72-.49,1.82-1,3.63-1.45,5.45a.68.68,0,0,1-.79.62c-3.67,0-7.33,0-11,0-.47,0-.63.15-.74.58-.63,2.47-1.31,4.92-1.94,7.38-.12.45-.28.63-.79.63-2.52,0-5.05,0-7.58,0-.44,0-.51-.1-.39-.53q3.33-12.36,6.63-24.73c.16-.62.38-.89,1.1-.88C164.28,26.89,167.62,26.87,171,26.86Z"/><path id="_Path_7" data-name="&lt;Path&gt;" class="cls-7" d="M75.48,7.6A5.24,5.24,0,0,1,75,9.33a26.17,26.17,0,0,1-7.5,10c-2.59,2.19-5.34,4.19-7.79,6.54a11.26,11.26,0,0,0-3.63,6.55,25.15,25.15,0,0,0,0,6.13c.4,3.77,1.17,7.47,1.95,11.36l-.86-1c-.26-.32-.52-.64-.77-1a49.55,49.55,0,0,1-5.88-9,19.85,19.85,0,0,1-2.17-7.64A13.15,13.15,0,0,1,51.73,22a33.67,33.67,0,0,1,9.1-7.21A112.77,112.77,0,0,1,73,8.66Z"/><path id="_Path_8" data-name="&lt;Path&gt;" class="cls-6" d="M40.12,3.89a10.36,10.36,0,0,1,6.79,3.43,10.21,10.21,0,0,1,3,6.88,7.12,7.12,0,0,1-7,7.5c-5.64.17-10.86-4.53-11.14-10C31.58,7.18,34.75,3.87,40.12,3.89Z"/><path id="_Path_9" data-name="&lt;Path&gt;" class="cls-8" d="M131.91,62.78c.61-.73,1.25-1.43,1.82-2.18a1.53,1.53,0,0,1,1.51-.71,12.36,12.36,0,0,0,1.51,0c-.45.54-.81,1-1.18,1.39s-.86,1-1.32,1.48a.49.49,0,0,0-.05.74c.75,1.07,1.5,2.13,2.21,3.22.32.48.44.28.6-.1.85-2,1.73-4.06,2.56-6.11a1,1,0,0,1,1-.7A1.46,1.46,0,0,1,142.35,61c.76,2,1.64,4,2.5,6,.18.41,0,.46-.31.45a3.21,3.21,0,0,0-.62,0c-.78.13-1.32-.07-1.47-.93,0-.35-.3-.44-.63-.43a15.43,15.43,0,0,1-1.8,0,.74.74,0,0,0-.9.68c-.1.56-.41.72-1,.7-1.08,0-2.16,0-3.23,0a.83.83,0,0,1-.82-.42c-.43-.68-.92-1.32-1.34-2-.22-.36-.34-.24-.59,0-.54.44-.43,1-.42,1.6,0,.86,0,.86-.83.85-1.25,0-1.26,0-1.26-1.26,0-1.91,0-3.81,0-5.71,0-.4.09-.54.5-.55,1.59,0,1.59-.06,1.57,1.55v1.28Z"/><path id="_Path_10" data-name="&lt;Path&gt;" class="cls-9" d="M109.47,63.51c0,1.11,0,2.23,0,3.34,0,.4-.12.57-.57.56-1.46,0-1.47,0-1.47-1.44,0-1.82,0-3.64,0-5.46,0-.49.18-.59.64-.64a2,2,0,0,1,2,1,18.48,18.48,0,0,0,2.36,2.79V61.72c0-.47,0-.95,0-1.42s.14-.41.43-.42c1.6,0,1.6,0,1.6,1.57,0,1.78,0,3.56,0,5.34,0,.48-.14.59-.62.64a2,2,0,0,1-2-1c-.69-1-1.52-2-2.29-3Z"/><path id="_Path_11" data-name="&lt;Path&gt;" class="cls-10" d="M159.94,63.66V61.08c0-1.19,0-1.19,1.16-1.18.86,0,.86,0,.86.85,0,2,0,4.09,0,6.14,0,.41-.13.49-.52.53a2,2,0,0,1-2.06-1,21.49,21.49,0,0,0-2.43-3c0,1,0,2,0,3s.16.9-.93.91-1.12,0-1.12-1.11c0-1.94,0-3.89,0-5.83,0-.43.14-.51.56-.58A2.08,2.08,0,0,1,157.68,61c.64,1,1.4,1.82,2.1,2.73Z"/><path id="_Path_12" data-name="&lt;Path&gt;" class="cls-11" d="M94.05,59.88a8,8,0,0,1,3,.42,3.47,3.47,0,0,1,2.17,3.42A3.58,3.58,0,0,1,97,67c-1.5.58-3.06.33-4.6.39-.29,0-.27-.2-.27-.38,0-2.28,0-4.55,0-6.82,0-.34.19-.31.39-.31Z"/><path id="_Path_13" data-name="&lt;Path&gt;" class="cls-12" d="M100.31,63.65c0-1.1,0-2.19,0-3.29,0-.34.1-.47.45-.47,1.7,0,3.4,0,5.1,0,.36,0,.44.14.45.48,0,1.3.06,1.29-1.22,1.28-.78,0-1.57,0-2.36,0-.53,0-.38.35-.4.63s0,.52.4.51c.89,0,1.78,0,2.67,0,.39,0,.55.09.54.51,0,1.35.14,1.1-1.11,1.12-.69,0-1.37,0-2,0-.51,0-.45.28-.45.59s-.08.67.47.65c1,0,2,0,3,0,.41,0,.58.08.57.54,0,1.22,0,1.22-1.18,1.22-1.43,0-2.86,0-4.29,0-.48,0-.59-.14-.58-.59,0-1,0-2.11,0-3.17Z"/><path id="_Path_14" data-name="&lt;Path&gt;" class="cls-9" d="M83.92,62.42c0-.7,0-1.41,0-2.11,0-.33.1-.41.42-.42C86,59.79,86,59.78,86,61.43c0,1,0,1.94,0,2.92a1.2,1.2,0,0,0,.75,1.18,1.39,1.39,0,0,0,1.51-.18,1.37,1.37,0,0,0,.47-1.16c0-1.24,0-2.49,0-3.73,0-.42.12-.57.56-.58,1.55,0,1.55-.06,1.54,1.49,0,1,0,2,0,3a3,3,0,0,1-3,3.1c-1.45.09-2.79-.12-3.58-1.56a3.43,3.43,0,0,1-.37-1.61c0-.64,0-1.28,0-1.92Z"/><path id="_Path_15" data-name="&lt;Path&gt;" class="cls-13" d="M153.65,62.55c-.05.7,0,1.54-.08,2.39a2.91,2.91,0,0,1-2.75,2.56,5.11,5.11,0,0,1-1.61,0,2.92,2.92,0,0,1-2.49-2.9c-.05-1.41,0-2.82,0-4.23,0-.32.12-.41.44-.43,1.67-.12,1.67-.13,1.66,1.55,0,.93,0,1.86,0,2.79a1.35,1.35,0,0,0,1.56,1.43,1.22,1.22,0,0,0,1.16-1.29c0-1.3,0-2.61,0-3.91,0-.43.11-.57.55-.58,1.57,0,1.57-.05,1.56,1.53Z"/><path id="_Path_16" data-name="&lt;Path&gt;" class="cls-9" d="M179,67.41c-.69.21-1.14-.16-1.32-1-.06-.31-.25-.43-.58-.41A6.64,6.64,0,0,1,176,66c-.85-.09-1.55,0-1.72,1,0,.28-.25.33-.51.32s-.7,0-1,0c-.72,0-.73,0-.46-.65.52-1.22,1-2.44,1.55-3.66.4-.93.81-1.85,1.18-2.79a.64.64,0,0,1,.69-.46c1.49,0,1.48,0,2.07,1.36q1.14,2.71,2.29,5.42c.33.79.33.78-.51.79Z"/><path id="_Path_17" data-name="&lt;Path&gt;" class="cls-9" d="M125.49,59.83a4.34,4.34,0,0,1,2.6.67c.28.17.38.33.12.62s-.41.73-.72.92-.66-.24-1-.32a3,3,0,0,0-1.33-.2c-.25.06-.49.14-.53.44s.21.45.44.52c.6.2,1.23.35,1.84.54,1.28.41,1.84,1.1,1.78,2.19a2.33,2.33,0,0,1-2,2.19,5.27,5.27,0,0,1-4.13-.83c-.26-.18-.38-.37-.08-.62.06,0,.1-.13.16-.19.63-.78.63-.78,1.54-.34a3.1,3.1,0,0,0,1.79.36c.29,0,.59-.08.64-.46s-.22-.46-.48-.55c-.67-.2-1.36-.35-2-.6-1.25-.5-1.73-1.25-1.56-2.28a2.4,2.4,0,0,1,2.3-2.06C125,59.81,125.26,59.83,125.49,59.83Z"/><path id="_Path_18" data-name="&lt;Path&gt;" class="cls-14" d="M73,59.8a4.62,4.62,0,0,1,2.54.68c.33.2.39.39.14.69s-.4.74-.71.91-.67-.27-1-.37a3.25,3.25,0,0,0-1.27-.2c-.28,0-.53.14-.56.47s.21.44.45.51c.63.2,1.28.35,1.9.55,1.19.39,1.71,1.05,1.69,2.08a2.17,2.17,0,0,1-1.79,2.21,5.24,5.24,0,0,1-4.27-.7c-.33-.2-.5-.42-.11-.74a1.12,1.12,0,0,0,.19-.24c.55-.69.54-.68,1.35-.27a3.49,3.49,0,0,0,1.85.41c.33,0,.64-.11.7-.48s-.22-.45-.5-.53a18.2,18.2,0,0,1-2.06-.64A2,2,0,0,1,70,61.81a2.41,2.41,0,0,1,2.19-2C72.46,59.81,72.73,59.82,73,59.8Z"/><path id="_Path_19" data-name="&lt;Path&gt;" class="cls-15" d="M118.71,59.91c.93,0,1.86,0,2.79,0,.35,0,.45.11.46.46,0,1.36.05,1.36-1.31,1.36a3.09,3.09,0,0,1-.43,0c-.42,0-.52.14-.52.54,0,1.51,0,3,0,4.53,0,.49-.13.63-.62.62-1.42,0-1.42,0-1.43-1.4,0-1.23,0-2.45,0-3.67,0-.51-.17-.66-.64-.62s-.78,0-1.18,0-.47-.14-.47-.48c0-1.68-.11-1.33,1.27-1.35h2Z"/><path id="_Path_20" data-name="&lt;Path&gt;" class="cls-16" d="M79.77,59.89c.91,0,1.82,0,2.73,0,.38,0,.59.06.58.54,0,1.29,0,1.29-1.3,1.3a3.09,3.09,0,0,1-.43,0c-.42-.06-.53.14-.52.53,0,1.52,0,3,0,4.54,0,.48-.12.63-.62.62-1.44,0-1.44,0-1.44-1.42,0-1.22,0-2.44,0-3.66,0-.51-.16-.67-.63-.61a2.16,2.16,0,0,1-.44,0c-.38,0-1,.16-1.11-.09a4,4,0,0,1-.07-1.52c0-.32.26-.2.42-.2h2.8Z"/><path id="_Path_21" data-name="&lt;Path&gt;" class="cls-10" d="M171.54,62.74c0,.82,0,1.65,0,2.48a2.37,2.37,0,0,1-1.87,2.19,3.28,3.28,0,0,1-3.24-.88.86.86,0,0,1-.07-.1c-.22-.29.07-.47.22-.52.42-.17.47-1,1.13-.67.09,0,.15.13.24.19a1.06,1.06,0,0,0,1.1.18,1,1,0,0,0,.48-.94c0-1.2,0-2.4,0-3.6s0-1.18,1.17-1.17c.86,0,.86,0,.87.85v2Z"/><path id="_Path_22" data-name="&lt;Path&gt;" class="cls-17" d="M73.81,73.23l-1.15,1.69c-.53-.49-.72-1.19-1.26-1.68a8.65,8.65,0,0,0-.09,2.2c0,.64-.41.42-.7.44S70,76,70,75.43c0-1.36,0-2.73,0-4.1,0-.35.11-.43.45-.46a1.29,1.29,0,0,1,1.52.8,11.56,11.56,0,0,0,.69,1.14l.94-1.5a1.65,1.65,0,0,1,1.6-.4c.17.11.13.29.13.45,0,1.37,0,2.74,0,4.1,0,.6-.39.42-.66.42s-.71.19-.69-.4c0-.74,0-1.47,0-2.21Z"/><path id="_Path_23" data-name="&lt;Path&gt;" class="cls-18" d="M177.37,73.53c0-.82,0-1.46,0-2.09s.38-.54.75-.56.67,0,.65.54c0,1.24,0,2.48,0,3.72,0,.25.2.68-.21.73s-.9.21-1.24-.28-1-1.24-1.45-1.86c-.1-.14-.23-.26-.46-.52,0,.84,0,1.54,0,2.23s-.39.44-.7.45-.71.15-.69-.47c0-1.26,0-2.52,0-3.78,0-.25-.15-.66.15-.7s.94-.27,1.32.21Z"/><path id="_Path_24" data-name="&lt;Path&gt;" class="cls-19" d="M99.82,73.53c0-.83,0-1.48,0-2.13s.29-.54.65-.51.76-.15.74.5c0,1.26,0,2.52,0,3.78,0,.24.18.64-.19.69s-.86.22-1.2-.21c-.51-.66-1-1.3-1.54-2-.09-.12-.2-.24-.41-.49,0,.84,0,1.54,0,2.23s-.41.44-.71.45-.71.15-.69-.47c0-1.26,0-2.52,0-3.78,0-.25-.19-.68.21-.72s.91-.24,1.26.22C98.51,71.89,99.11,72.63,99.82,73.53Z"/><path id="_Path_25" data-name="&lt;Path&gt;" class="cls-20" d="M81,73.38c0-.7,0-1.4,0-2.1,0-.25,0-.41.32-.4a18.36,18.36,0,0,1,2.23.05,2.36,2.36,0,0,1,2.21,2.58,2.47,2.47,0,0,1-2.59,2.37c-.57,0-1.15,0-1.73,0-.36,0-.47-.14-.46-.48,0-.68,0-1.36,0-2Z"/><path id="_Path_26" data-name="&lt;Path&gt;" class="cls-21" d="M114.17,70.77a2.62,2.62,0,1,1,0,5.23,2.56,2.56,0,0,1-2.66-2.53A2.63,2.63,0,0,1,114.17,70.77Z"/><path id="_Path_27" data-name="&lt;Path&gt;" class="cls-22" d="M165.43,63.65c0,1.08,0,2.16,0,3.23,0,.41-.11.53-.52.53-1.57,0-1.57,0-1.58-1.52,0-1.82,0-3.65,0-5.47,0-.42.14-.52.53-.54,1.56-.05,1.56-.06,1.56,1.48v2.29Z"/><path id="_Path_28" data-name="&lt;Path&gt;" class="cls-23" d="M122.32,74.16c0,1.2-.15,1.45-1.33,1.73a2.76,2.76,0,0,1-3-.86,2.51,2.51,0,0,1-.28-2.85,2.88,2.88,0,0,1,4.14-.89c.2.16.21.26.06.49-.32.51-.64.67-1.22.36a1.19,1.19,0,0,0-1.52.33,1.49,1.49,0,0,0-.13,1.73,1.43,1.43,0,0,0,1.53.58c.27-.07.46-.17.45-.49s-.28-.31-.49-.29c-.4,0-.54-.1-.53-.52s.2-.52.57-.5a7,7,0,0,0,1.12,0c.49,0,.7.12.62.62A3.49,3.49,0,0,0,122.32,74.16Z"/><path id="_Path_29" data-name="&lt;Path&gt;" class="cls-24" d="M191.26,72.6a12.18,12.18,0,0,1,0,1.48A2,2,0,0,1,189.37,76a2.21,2.21,0,0,1-2.77-2.39c0-.75,0-1.49,0-2.24,0-.33.09-.5.45-.46a2.09,2.09,0,0,0,.5,0c.38,0,.5.12.49.49,0,.83,0,1.66,0,2.48a.89.89,0,0,0,1.25.85,1,1,0,0,0,.59-1.07c0-.74,0-1.49,0-2.23s.5-.45.84-.52.6.1.57.54a11.59,11.59,0,0,0,0,1.18Z"/><path id="_Path_30" data-name="&lt;Path&gt;" class="cls-13" d="M76.21,73.35c0-.68,0-1.36,0-2,0-.32.1-.42.42-.42,1.06,0,2.11,0,3.17,0,.51,0,.43.31.44.61s0,.61-.47.58-1.12,0-1.68,0c-.27,0-.53,0-.53.39s.29.37.55.38c.45,0,.91,0,1.36,0s.53.14.52.54,0,.59-.49.56-1,0-1.55,0c-.3,0-.4.13-.39.41s.06.42.38.41c.64,0,1.29,0,1.93,0,.46,0,.42.26.42.55s.09.63-.43.62c-1.07,0-2.15,0-3.22,0-.33,0-.44-.11-.43-.44,0-.7,0-1.4,0-2.11Z"/><path id="_Path_31" data-name="&lt;Path&gt;" class="cls-25" d="M172.45,72.7c0,.41,0,.83,0,1.24a2.32,2.32,0,0,1-4.59.16c-.08-.95,0-1.91-.05-2.86,0-.28.12-.34.37-.36,1-.1,1-.08,1,.94,0,.62,0,1.24,0,1.86s.36,1.07.94,1.06.89-.34.92-1.09,0-1.49,0-2.23.47-.49.83-.54.64,0,.6.51,0,.87,0,1.31Z"/><path id="_Path_32" data-name="&lt;Path&gt;" class="cls-26" d="M138.37,75.82a1.89,1.89,0,0,1-2.47-1.17c-.1-.2-.22-.55-.48-.46a.68.68,0,0,0-.43.75v.12c0,.81-.29,1-1.13.83-.19,0-.24-.11-.24-.28,0-1.46,0-2.93,0-4.4,0-.23.09-.34.32-.33s.46,0,.69,0,.39.14.38.41c0,.47,0,.94,0,1.58a9.51,9.51,0,0,0,1.06-1.21c.52-.9,1.3-.82,2.19-.74a8.66,8.66,0,0,1-1.39,1.64c-.38.38-.32.65,0,1C137.35,74.3,137.84,75,138.37,75.82Z"/><path id="_Path_33" data-name="&lt;Path&gt;" class="cls-21" d="M108.16,72.81a3.31,3.31,0,0,0,1-1,1.85,1.85,0,0,1,2.25-.81,5.73,5.73,0,0,1-1,1.26c-.71.82-.72.8-.11,1.71l1.24,1.86c-1.09.32-1.5.18-2.09-.67a6.58,6.58,0,0,0-.42-.61c-.1-.14-.17-.41-.39-.33a.65.65,0,0,0-.39.46,1.68,1.68,0,0,0,0,.55c.08.55-.1.74-.68.73s-.73-.16-.71-.73q.06-1.89,0-3.78c0-.7.45-.47.78-.51s.66,0,.62.49S108.16,72.27,108.16,72.81Z"/><path id="_Path_34" data-name="&lt;Path&gt;" class="cls-27" d="M152.59,73.36c0-.68,0-1.37,0-2,0-.32.1-.43.43-.43,1,0,2.11,0,3.16,0,.44,0,.46.22.44.54s.09.69-.47.64-1,0-1.55,0c-.28,0-.66-.12-.65.4s.41.35.68.36a12.34,12.34,0,0,0,1.36,0c.49,0,.35.33.38.6s0,.49-.37.48-.87,0-1.3,0-.76-.22-.75.42.47.38.76.4c.52,0,1,0,1.55,0s.35.4.38.65,0,.52-.38.52c-1.08,0-2.16,0-3.23,0-.38,0-.45-.17-.45-.49,0-.68,0-1.37,0-2Z"/><path id="_Path_35" data-name="&lt;Path&gt;" class="cls-28" d="M143.31,72.63a8.87,8.87,0,0,1-.07,1.61A1.93,1.93,0,0,1,141.48,76a2.23,2.23,0,0,1-2.87-2.34c0-.74,0-1.49,0-2.23,0-.38.1-.51.49-.5,1.1,0,.91-.14.93.89,0,.64,0,1.29,0,1.93s.33,1,.95,1,.87-.3.91-1,0-1.53,0-2.29c0-.42.08-.58.53-.56,1,.05.86-.15.88.89C143.32,72,143.31,72.31,143.31,72.63Z"/><path id="_Path_36" data-name="&lt;Path&gt;" class="cls-29" d="M133.09,75.9c-.39,0-.68,0-1,0a.58.58,0,0,1-.71-.5c-.07-.34-.27-.42-.58-.41a6.17,6.17,0,0,1-.86,0c-.45,0-.8,0-.9.57,0,.28-1.21.49-1.43.29s0-.23,0-.33c.62-1.47,1.25-2.92,1.85-4.39.18-.41.52-.28.8-.28s.62-.13.79.28C131.73,72.69,132.39,74.24,133.09,75.9Z"/><path id="_Path_37" data-name="&lt;Path&gt;" class="cls-19" d="M166.67,75.9c-.4,0-.71,0-1,0a.55.55,0,0,1-.66-.49c-.06-.37-.27-.45-.61-.42a4.94,4.94,0,0,1-.86,0c-.44,0-.77,0-.85.55,0,.26-.23.36-.49.34s-.66,0-1,0a6.58,6.58,0,0,1,.64-1.71c.37-1,.83-1.89,1.18-2.86.2-.55.6-.44,1-.47a.68.68,0,0,1,.79.5C165.37,72.84,166,74.31,166.67,75.9Z"/><path id="_Path_38" data-name="&lt;Path&gt;" class="cls-23" d="M183.77,76a3.57,3.57,0,0,1-1.73-.54c-.16-.1-.52-.21-.23-.48s.27-.85.84-.54a2.7,2.7,0,0,0,1.35.41c.22,0,.48,0,.55-.29s-.2-.37-.41-.44c-.41-.13-.83-.22-1.24-.36a1.34,1.34,0,0,1-1-1.25,1.44,1.44,0,0,1,.91-1.47,3,3,0,0,1,2.68.17c.16.08.53.19.25.46s-.23.87-.82.6a3.39,3.39,0,0,0-1.06-.31.4.4,0,0,0-.5.26c-.08.27.14.37.33.44.44.17.93.19,1.36.4a1.34,1.34,0,0,1,1,1.42,1.45,1.45,0,0,1-1.15,1.37A2.89,2.89,0,0,1,183.77,76Z"/><path id="_Path_39" data-name="&lt;Path&gt;" class="cls-14" d="M104,76a3.84,3.84,0,0,1-1.93-.56c-.15-.1-.48-.22-.22-.45s.28-.86.83-.57a3.26,3.26,0,0,0,1.35.41c.24,0,.54,0,.59-.3s-.23-.36-.44-.43L103,73.75a1.43,1.43,0,0,1-1.08-1.28A1.57,1.57,0,0,1,103,71a3,3,0,0,1,2.51.19c.18.1.58.17.31.51s-.29.87-.88.55A2,2,0,0,0,104,72c-.23,0-.55,0-.6.3s.24.36.45.42a7.34,7.34,0,0,1,1.47.44,1.28,1.28,0,0,1,.8,1.34,1.43,1.43,0,0,1-.95,1.32A3.12,3.12,0,0,1,104,76Z"/><path id="_Path_40" data-name="&lt;Path&gt;" class="cls-24" d="M91.06,70.78a2.87,2.87,0,0,1,2.1.7c.24.2.29.35,0,.58s-.71.67-1.28.16a1.08,1.08,0,0,0-1.48.29,1.59,1.59,0,0,0,.06,1.85,1.19,1.19,0,0,0,1.58.16c.23-.14.38-.42.74-.17.77.52.76.8-.11,1.31a2.82,2.82,0,0,1-3.08-.27,2.68,2.68,0,0,1-.77-2.82A2.56,2.56,0,0,1,91.06,70.78Z"/><path id="_Path_41" data-name="&lt;Path&gt;" class="cls-30" d="M123.81,73.34c0-.66,0-1.32,0-2,0-.34.08-.49.44-.48,1,0,2.07,0,3.1,0,.67,0,.41.46.47.76s-.16.49-.5.48c-.58,0-1.16,0-1.74,0-.36,0-.39.16-.4.45s.09.45.42.43c.52,0,1,0,1.55,0s.46.18.42.49.17.72-.43.68c-.43,0-.87,0-1.3,0s-.73.17-.65.69a1.61,1.61,0,0,1,0,.31c0,.9.14.75-.78.79-.52,0-.64-.17-.61-.64C123.84,74.62,123.81,74,123.81,73.34Z"/><path id="_Path_42" data-name="&lt;Path&gt;" class="cls-31" d="M149.79,70.88c.58,0,1.16,0,1.73,0s.47.23.43.53.23.68-.38.71c-1.13.06-1.13.08-1.13,1.2,0,.71,0,1.41,0,2.11,0,.32-.05.48-.43.49-.95,0-.95,0-.95-.9s0-1.61,0-2.42c0-.37-.09-.54-.48-.48a1.61,1.61,0,0,1-.31,0,.7.7,0,0,1-.71-1.06c.09-.21.27-.16.42-.16Z"/><path id="_Path_43" data-name="&lt;Path&gt;" class="cls-32" d="M159.35,70.88c.5,0,1,0,1.49,0s.67.1.68.63-.25.62-.71.61c-.9,0-.82-.13-.82.82s0,1.66,0,2.48c0,.34-.08.47-.45.48-.94,0-.94,0-.94-.91,0-.8,0-1.61,0-2.42,0-.34-.08-.51-.45-.46a2.29,2.29,0,0,1-.37,0c-.67,0-.9-.36-.69-1,.08-.24.24-.2.39-.2.62,0,1.24,0,1.86,0Z"/><path id="_Path_44" data-name="&lt;Path&gt;" class="cls-33" d="M144.13,73.41V71.3c0-.67.5-.37.8-.41s.63-.08.61.43c0,1,0,1.94,0,2.91,0,.38.11.51.49.49s1,0,1.55,0,.4.26.37.53.2.66-.37.65c-1,0-2,0-3,0-.34,0-.42-.12-.41-.44,0-.68,0-1.36,0-2Z"/><path id="_Path_45" data-name="&lt;Path&gt;" class="cls-34" d="M87.91,73.42c0,.66,0,1.33,0,2,0,.37-.08.51-.48.5-.91,0-.91,0-.91-.93,0-1.19,0-2.39,0-3.59,0-.7.46-.45.8-.49s.63,0,.6.49C87.88,72.06,87.91,72.74,87.91,73.42Z"/><path id="_Path_46" data-name="&lt;Path&gt;" class="cls-35" d="M95.51,73.44c0,.64,0,1.28,0,1.93,0,.39-.08.54-.51.54-.89,0-.89,0-.89-.9,0-1.2,0-2.4,0-3.6,0-.61.33-.54.7-.53s.76-.12.72.51S95.51,72.76,95.51,73.44Z"/><path id="_Path_47" data-name="&lt;Path&gt;" class="cls-24" d="M179.69,73.38c0-.68,0-1.37,0-2,0-.35.13-.47.48-.45,1.12,0,.91-.12.92.91s0,2.28,0,3.42c0,.55-.16.71-.7.7s-.77-.07-.71-.67S179.69,74,179.69,73.38Z"/><path id="_Path_48" data-name="&lt;Path&gt;" class="cls-36" d="M182.5,69.48c.07,0,.1-.1.12-.09a4.52,4.52,0,0,0,2.55,0c-.37.42-.4,1.06-1.09,1.17C183.16,70.69,182.89,70,182.5,69.48Z"/><path id="_Path_49" data-name="&lt;Path&gt;" class="cls-37" d="M140.89,62.4c.23.59.45,1.11.66,1.64.11.28,0,.39-.3.42-1.25.12-1.32.05-.85-1.08A2.51,2.51,0,0,1,140.89,62.4Z"/><path id="_Path_50" data-name="&lt;Path&gt;" class="cls-38" d="M94.16,63.61V62.12c0-.17,0-.34.24-.37,1.52-.15,2.84.41,2.67,2.19a1.76,1.76,0,0,1-1.87,1.61c-1,.06-1,.06-1-1Z"/><path id="_Path_51" data-name="&lt;Path&gt;" class="cls-39" d="M176.15,62.39c.26.64.48,1.17.69,1.72,0,.1.08.28-.08.3a3.67,3.67,0,0,1-1.28,0c-.14,0-.12-.16-.09-.25A10.83,10.83,0,0,1,176.15,62.39Z"/><path id="_Path_52" data-name="&lt;Path&gt;" class="cls-40" d="M82.41,73.37a1.61,1.61,0,0,1,0-.31c0-.31-.18-.78.14-.9a1.41,1.41,0,0,1,1.4.28,1.33,1.33,0,0,1,.22,1.64,1.75,1.75,0,0,1-1.58.62c-.2-.06-.17-.21-.18-.34v-1Z"/><path id="_Path_53" data-name="&lt;Path&gt;" class="cls-41" d="M114.19,74.75a1.29,1.29,0,0,1-1.3-1.36A1.26,1.26,0,0,1,114.18,72a1.37,1.37,0,0,1,1.29,1.39A1.33,1.33,0,0,1,114.19,74.75Z"/><path id="_Path_54" data-name="&lt;Path&gt;" class="cls-42" d="M130.28,72.48c.17.42.26.69.39.94.2.42.05.53-.37.54s-.67,0-.41-.52C130,73.19,130.11,72.91,130.28,72.48Z"/><path id="_Path_55" data-name="&lt;Path&gt;" class="cls-43" d="M163.87,72.65a2.25,2.25,0,0,1,.37.7c.26.51.09.64-.43.62s-.55-.13-.35-.51S163.62,72.87,163.87,72.65Z"/></g></g></svg>