<?xml version="1.0" encoding="utf-8"?>
<!-- Generator: Adobe Illustrator 19.0.0, SVG Export Plug-In . SVG Version: 6.00 Build 0)  -->
<svg version="1.1" id="Layer_1" xmlns="http://www.w3.org/2000/svg" xmlns:xlink="http://www.w3.org/1999/xlink" x="0px" y="0px"
	 viewBox="0 0 304 152" style="enable-background:new 0 0 304 152;" xml:space="preserve">
<style type="text/css">
	.st0{opacity:0.2;fill-rule:evenodd;clip-rule:evenodd;fill:#595A5C;}
	.st1{fill-rule:evenodd;clip-rule:evenodd;fill:url(#SVGID_1_);}
	.st2{fill-rule:evenodd;clip-rule:evenodd;fill:#CF2549;}
	.st3{opacity:0.6;}
	.st4{fill:#8E1842;}
	.st5{fill-rule:evenodd;clip-rule:evenodd;fill:#8E1842;}
	.st6{fill:#FFFFFF;}
	.st7{fill-rule:evenodd;clip-rule:evenodd;fill:#FFFFFF;}
	.st8{opacity:0.1;fill-rule:evenodd;clip-rule:evenodd;fill:#FFFFFF;}
	.st9{fill:#CF2549;}
</style>
<g id="XMLID_1_">
	<path id="XMLID_160_" class="st0" d="M153.1,123.6c-6.9,4.9-70.1,15.8-74.6,16.8c-2.3,0.3-22.1,3.6-26.6,0.4
		c-4.6-3.2,16.5-7.2,18.9-7.6C73.1,132.8,160,118.7,153.1,123.6z"/>
	<g>
		<linearGradient id="SVGID_1_" gradientUnits="userSpaceOnUse" x1="56.3647" y1="15.5855" x2="124.1098" y2="132.9234">
			<stop  offset="0" style="stop-color:#E04050"/>
			<stop  offset="0.2512" style="stop-color:#CF2549"/>
			<stop  offset="0.6798" style="stop-color:#921930"/>
		</linearGradient>
		<path class="st1" d="M151.8,117c-0.5-0.2-0.7-0.2-0.7-0.3c-5-7.1-11.8-8.2-19.5-5.9c-12,3.6-24,7.5-36.1,10.9
			c-10.3,2.9-20.6,5.9-31.1,7.6c-20,3.3-36.6-6.8-44.2-26.1c-4.2-10.4-5.1-21.4-6.4-32.4c-0.3-2.7-0.5-5.5-0.6-8.2
			C12.5,45.9,18.6,36.1,33.5,29c25.7-12.3,53.1-17.3,81.2-19.1c16.9-1,30,6.5,38.4,22c5.4,10,5.4,20.5,3.4,31.2
			C155,71.8,153,80.4,151,89c-1.7,7.6-1.7,15.1,0,22.7C151.4,113.3,151.5,115,151.8,117z"/>
	</g>
	<g>
		<path class="st2" d="M151,113.1c-0.4-0.2-0.6-0.2-0.7-0.3c-4.7-6.6-11-7.5-18.3-5.3c-11.3,3.4-22.6,7.1-34,10.3
			c-9.7,2.7-19.4,5.5-29.3,7.2c-18.8,3.2-34.3-6.2-41.4-23.9c-3.8-9.6-4.6-19.8-5.8-29.9c-0.3-2.5-0.4-5-0.5-7.6
			C20.6,48,26.4,38.9,40.5,32.3c24.2-11.5,50.1-16.3,76.5-18c15.9-1.1,28.2,5.9,36,20.2c5,9.2,4.9,19,3,28.8c-1.6,8-3.5,16-5.4,24
			c-1.7,7-1.7,14-0.2,21C150.7,109.8,150.8,111.4,151,113.1z"/>
		<g class="st3">
			<path class="st4" d="M79.2,78.1c1.3-0.4,2.5-0.6,3.5-0.5c1,0,1.9,0.3,2.6,0.7c0.7,0.4,1.3,1,1.8,1.8c0.5,0.8,0.9,1.7,1.2,2.7
				l3.2,10.4c-0.6,0.3-1.4,0.8-2.6,1.3c-1.2,0.6-2.5,1.1-4.1,1.6c-1,0.3-2,0.5-2.9,0.6c-0.9,0.1-1.7,0-2.5-0.3
				c-0.7-0.2-1.4-0.7-1.9-1.3c-0.6-0.6-1-1.4-1.3-2.4c-0.3-1-0.4-1.9-0.2-2.7c0.2-0.8,0.5-1.5,1-2.1c0.5-0.6,1.2-1.2,2-1.6
				c0.8-0.5,1.7-0.8,2.6-1.1c0.4-0.1,0.9-0.3,1.4-0.3c0.5-0.1,1-0.2,1.6-0.2l-0.2-0.7c-0.1-0.5-0.3-0.9-0.6-1.3
				c-0.2-0.4-0.5-0.7-0.9-0.9c-0.4-0.2-0.8-0.4-1.3-0.4c-0.5,0-1.1,0.1-1.8,0.3c-0.9,0.3-1.7,0.6-2.5,1c-0.7,0.4-1.3,0.7-1.7,1
				l-1.5-3.1c0.4-0.3,1.1-0.7,2-1.2C77.1,78.8,78.1,78.4,79.2,78.1z M84.1,92.8c1.2-0.4,2.1-0.7,2.7-1.1l-1.4-4.4
				c-0.2,0-0.6,0-1,0.1c-0.4,0.1-0.9,0.2-1.4,0.3c-0.4,0.1-0.9,0.3-1.3,0.5c-0.4,0.2-0.8,0.5-1.1,0.7c-0.3,0.3-0.5,0.6-0.6,1
				c-0.1,0.4-0.1,0.8,0,1.3c0.3,0.9,0.8,1.5,1.5,1.7C82.3,93.1,83.1,93.1,84.1,92.8z"/>
			<path class="st4" d="M110.8,86.9c-0.7,0.5-1.6,1-2.8,1.6c-1.1,0.6-2.4,1.1-3.7,1.5c-1.4,0.4-2.6,0.6-3.8,0.5
				c-1.2-0.1-2.3-0.4-3.3-0.9c-1-0.5-1.9-1.3-2.6-2.3c-0.8-1-1.3-2.2-1.8-3.5c-0.4-1.4-0.6-2.6-0.6-3.8c0-1.2,0.2-2.3,0.6-3.3
				c0.4-1,1-1.8,1.8-2.6c0.8-0.7,1.8-1.3,3-1.6c0.8-0.3,1.6-0.4,2.3-0.4c0.7,0,1.3,0,1.8,0.1l-2.6-8.2l3.8-1.9L110.8,86.9z
				 M96.9,82.4c0.5,1.7,1.4,3,2.5,3.7c1.1,0.7,2.4,0.9,3.9,0.4c0.6-0.2,1.2-0.4,1.6-0.6c0.4-0.2,0.8-0.4,1-0.5l-3.1-9.8
				c-0.4-0.1-1-0.2-1.6-0.2c-0.6,0-1.3,0.1-1.9,0.3c-1.4,0.5-2.3,1.3-2.7,2.5C96.3,79.3,96.4,80.7,96.9,82.4z"/>
			<path class="st4" d="M113.5,62.4c0.2,0.7,0.2,1.4-0.2,2c-0.3,0.6-0.8,1-1.5,1.2c-0.7,0.2-1.3,0.2-1.9-0.1c-0.6-0.3-1-0.8-1.3-1.5
				c-0.2-0.8-0.2-1.4,0.2-2c0.3-0.6,0.9-1,1.5-1.2c0.7-0.2,1.3-0.2,1.9,0.1C112.9,61.1,113.3,61.6,113.5,62.4z M120,84.6l-4,1.2
				l-5.3-17.1l4-1.2L120,84.6z"/>
			<g>
				<g id="XMLID_165_">
					<path id="XMLID_169_" class="st4" d="M58.4,100.5c-1-0.8-2-1.6-2.9-2.4c-0.9-0.7-1.8-1.4-2.7-2l-4,0l3.5,10.9l0,0
						c1.5,1.4,2.7,1.1,5.1,0.4c2.3-0.7,4.5-1.3,6.2-2.8c-0.8-0.7-1.4-1.2-2.2-1.9C60.3,102,59.4,101.4,58.4,100.5z"/>
					<path id="XMLID_168_" class="st4" d="M52.8,80.8c-1.4-0.3-3.4-0.1-5.8,0.7c-0.5,0.2-1,0.3-1.4,0.5c-0.4,0.2-0.8,0.3-1.2,0.5
						l2.8,9l2.1-0.7c2.8-0.9,4.7-1.9,5.7-3c1-1.1,1.2-2.5,0.7-4.2C55.2,82,54.2,81.1,52.8,80.8z"/>
					<path id="XMLID_167_" class="st4" d="M63.6,87.4c-0.6,1.8-1.8,3.4-3.5,4.9c0.9,0.6,1.9,1.3,3,2.2c1.1,0.8,2.1,1.7,3.2,2.7
						c0.7,0.6,1.3,1.2,2,1.9c1.6-3.6,1.9-7.8,0.6-11.9c-1.3-4.2-4-7.5-7.5-9.6c0.8,1,1.5,2.3,1.9,3.7C64.2,83.6,64.2,85.6,63.6,87.4
						z"/>
					<path id="XMLID_166_" class="st4" d="M36,97.3c1.4,4.4,4.3,7.8,8,9.9l-7.1-22.5C35.1,88.5,34.6,93,36,97.3z"/>
				</g>
			</g>
			<g>
				<g id="XMLID_212_">
					<path id="XMLID_219_" class="st5" d="M131.6,78.3c-4.9-1.3-7.8-6.2-6.6-11c1.2-4.9,6.2-7.9,11.1-6.6c4.9,1.3,7.8,6.2,6.6,11
						C141.6,76.6,136.5,79.6,131.6,78.3z M135.6,62.4c-3.8-1-7.8,1.4-8.8,5.3c-1,3.8,1.4,7.9,5.1,8.8c4,1.1,8-1.2,9.1-5.2
						C142,67.4,139.7,63.5,135.6,62.4z"/>
					<path id="XMLID_218_" class="st5" d="M131.3,63.6c0.6-0.2,1.1-0.3,1.7-0.5c0.2,0.6,0.3,1.1,0.5,1.7c-0.6,0.2-1.1,0.3-1.7,0.5
						C131.6,64.7,131.5,64.3,131.3,63.6z"/>
					<path id="XMLID_217_" class="st5" d="M136,73.6c0.2,0.6,0.3,1.1,0.5,1.7c-0.6,0.2-1.1,0.3-1.7,0.5c-0.2-0.5-0.3-1-0.5-1.6
						C134.9,74,135.3,73.8,136,73.6z"/>
					<path id="XMLID_216_" class="st5" d="M139.8,71.8c-0.5-0.1-1-0.2-1.5-0.4c0.1-0.5,0.3-1.1,0.4-1.7c0.5,0.1,1,0.2,1.5,0.4
						C140.1,70.7,139.9,71.3,139.8,71.8z"/>
					<path id="XMLID_215_" class="st5" d="M128,67.1c0.6,0.1,1,0.2,1.6,0.4c-0.1,0.5-0.3,1.1-0.4,1.7c-0.5-0.1-1-0.2-1.6-0.3
						C127.8,68.2,127.9,67.7,128,67.1z"/>
					<path id="XMLID_214_" class="st5" d="M128.8,73.4c0.5-0.5,0.8-0.8,1.3-1.3c0.4,0.4,0.8,0.8,1.2,1.2c-0.4,0.4-0.7,0.8-1.2,1.3
						C129.7,74.3,129.3,73.9,128.8,73.4z"/>
					<path id="XMLID_213_" class="st5" d="M136.4,65.6c0.5-0.5,0.9-0.9,1.3-1.3c0.4,0.4,0.8,0.8,1.2,1.3c-0.4,0.4-0.8,0.8-1.2,1.2
						C137.3,66.4,136.9,66,136.4,65.6z"/>
				</g>
			</g>
			<path class="st4" d="M38.7,74.7c1.2-0.4,2-0.7,2.4-1.1c0.4-0.4,0.5-0.9,0.3-1.6c-0.2-0.5-0.6-0.9-1.4-1.1
				c-0.8-0.2-1.9-0.3-3.3-0.4c-1.1-0.1-2.2-0.2-3.1-0.3c-1-0.1-1.8-0.4-2.6-0.8c-0.8-0.4-1.4-0.9-2-1.6c-0.6-0.7-1-1.6-1.4-2.7
				c-0.7-2.2-0.4-4.1,0.8-5.9c1.2-1.7,3.2-3.1,6-3.9c1.4-0.4,2.8-0.7,4.1-0.9c1.4-0.1,2.5-0.2,3.3-0.1l0.4,5.4c-0.8,0-1.7,0-2.7,0.1
				c-1,0.1-2,0.3-3.1,0.6c-2,0.6-2.9,1.5-2.5,2.7c0.1,0.3,0.2,0.5,0.3,0.7c0.1,0.2,0.4,0.3,0.7,0.4c0.3,0.1,0.7,0.2,1.3,0.3
				c0.5,0.1,1.2,0.1,2,0.2c1.6,0.1,2.9,0.2,4,0.5c1.1,0.2,2,0.6,2.7,1c0.7,0.4,1.3,1,1.8,1.6c0.4,0.7,0.8,1.5,1.1,2.4
				c0.7,2.3,0.4,4.2-1,5.9c-1.3,1.7-3.6,3-6.7,4c-2,0.6-3.8,1-5.2,1.1c-1.5,0.1-2.5,0.1-3.1,0l-0.6-5.6c1.2,0.1,2.5,0.1,3.7,0
				C36.4,75.3,37.6,75.1,38.7,74.7z"/>
			<path class="st4" d="M74.1,67.9c-1,0.7-2.3,1.4-4,2.2c-1.7,0.8-3.4,1.5-5.4,2.1c-2,0.6-3.7,0.9-5.1,0.7c-1.5-0.1-2.7-0.5-3.8-1.2
				c-1.1-0.7-1.9-1.7-2.7-2.9c-0.7-1.2-1.3-2.6-1.8-4.2l-4-12.8l6.5-2l3.7,12c0.7,2.1,1.4,3.5,2.2,4.3c0.8,0.8,2,0.9,3.5,0.4
				c0.5-0.1,1-0.3,1.5-0.5c0.5-0.2,1-0.4,1.3-0.6l-5.5-17.7l6.5-2L74.1,67.9z"/>
			<path class="st4" d="M98.2,48.7c0.6,1.8,0.8,3.5,0.9,5c0,1.6-0.2,3-0.7,4.4c-0.5,1.3-1.3,2.4-2.4,3.4c-1.1,1-2.4,1.7-4,2.2
				c-0.9,0.3-1.8,0.5-2.6,0.5c-0.8,0.1-1.7,0.1-2.5,0l2.7,8.6l-6.5,2l-9.4-30.2c0.5-0.4,1.1-0.7,1.9-1.1c0.7-0.4,1.5-0.8,2.2-1.2
				c0.8-0.4,1.6-0.7,2.4-1.1c0.8-0.3,1.6-0.6,2.4-0.9c1.9-0.6,3.7-0.8,5.3-0.7c1.7,0.1,3.2,0.5,4.5,1.2c1.3,0.7,2.5,1.7,3.5,3
				C96.9,45.3,97.7,46.9,98.2,48.7z M91.7,50.9c-0.6-2-1.6-3.5-2.9-4.4c-1.3-0.9-2.8-1.1-4.6-0.6c-0.6,0.2-1.1,0.4-1.6,0.6
				c-0.5,0.2-0.9,0.4-1.2,0.5l3.7,11.7c0.5,0.1,1.1,0.2,1.8,0.2c0.7,0,1.4-0.1,2.1-0.4C92.1,57.7,93,55.1,91.7,50.9z"/>
			<path class="st4" d="M102.2,47.7c-0.6-2-0.9-3.9-0.7-5.6c0.1-1.7,0.6-3.3,1.3-4.6c0.7-1.3,1.6-2.5,2.8-3.4
				c1.2-0.9,2.4-1.6,3.8-2.1c3.3-1,6.1-0.8,8.7,0.6c2.5,1.4,4.4,4,5.6,7.9c0.1,0.4,0.2,0.8,0.3,1.3c0.1,0.5,0.2,0.9,0.3,1.2
				l-14.8,4.6c0.6,1.3,1.5,2.2,2.9,2.6c1.3,0.4,3,0.4,4.8-0.2c1.2-0.4,2.3-0.8,3.4-1.4c1.1-0.6,1.9-1.1,2.6-1.7l2.5,5
				c-0.3,0.3-0.7,0.6-1.2,1c-0.5,0.4-1.1,0.7-1.8,1.1c-0.7,0.4-1.4,0.7-2.2,1c-0.8,0.3-1.6,0.6-2.4,0.9c-2.1,0.6-4,0.9-5.7,0.8
				c-1.7-0.1-3.2-0.6-4.6-1.3c-1.3-0.8-2.5-1.8-3.4-3.1C103.5,50.8,102.7,49.3,102.2,47.7z M116.7,40.4c-0.2-0.5-0.5-1.1-0.8-1.5
				c-0.3-0.5-0.7-0.9-1.2-1.2c-0.5-0.3-1-0.5-1.6-0.6c-0.6-0.1-1.3,0-2,0.2c-0.7,0.2-1.3,0.5-1.8,1c-0.4,0.4-0.8,0.9-1,1.4
				c-0.2,0.5-0.3,1.1-0.4,1.7c0,0.6,0,1.2,0.1,1.8L116.7,40.4z"/>
			<path class="st4" d="M140.8,29.2c-0.6,0-1.4,0.1-2.2,0.2c-0.8,0.1-1.7,0.3-2.6,0.5c-0.4,0.1-0.9,0.3-1.4,0.6
				c-0.5,0.3-0.9,0.5-1.2,0.6l5.5,17.5l-6.5,2l-6.8-21.7c1-0.8,2.3-1.6,3.8-2.4c1.5-0.9,3.2-1.6,5.1-2.2c0.3-0.1,0.8-0.2,1.3-0.3
				c0.5-0.1,1-0.2,1.5-0.3c0.5-0.1,1-0.1,1.6-0.2c0.5-0.1,1-0.1,1.4,0L140.8,29.2z"/>
			<path class="st5" d="M137,57.1c-6.5-1.5-12.7,1.8-15.1,8c-2.2,5.8,0.3,12.6,5.9,15.6c0.4,0.2,1.5,0.6,2.5,0.9
				c0.2,0.3,0.4,0.8,0.3,1.3c-2.2,0.7-5.1,1.2-5.9,1.4c-1.6,0.5-3.2,0.8-4.8,1.2c-1.5,0.4-1.9,1.4-1.6,2.9c0.3,1.6,1.4,2.3,3.4,2.2
				c2.4-0.2,4.8-0.5,7.3-0.6c0.9,0,1.8,0.4,2.6,0.6c0,0.3,0,0.6,0,1c-1.1,0.3-2.2,0.8-3.4,0.9c-3.1,0.3-4,1.3-3.9,4.4
				c0.1,1.4,0.2,2.7,0.2,4.1c-0.1,3.1-2.5,4.8-5.2,3.8c-1.3-0.5-1.8-1.2-0.9-2.4c1.1-1.4,2.3-2.8,3.3-4.2c1.4-1.9,1.5-4.1,0.4-5.7
				c-1.1-1.6-3.1-2.4-5.4-1.7c-1.6,0.4-3,1.2-4.6,1.8c-1.2-2.1-2-2.5-3.8-1.9c-1.6,0.6-2.5,1.9-2,3.5c0.9,2.7,3.1,1.2,5,1.4
				c-0.5,3.3-2.2,5.5-5.3,6.5c-1.6,0.5-3.6,0.8-5.2,0.4c-1.6-0.3-2.9-1.6-4.2-2.4c0.2,2.4,1.7,3.9,4.6,4.2c5.6,0.5,9.4-2.3,10.6-7.8
				c0.2-0.7,0.3-1.6,0.8-2.1c1.8-1.9,4.1-2.6,6.7-2c3.3,0.8,3.8,2.4,1.7,5c-1,1.2-2.2,2.4-2.9,3.8c-0.8,1.4-1.1,3.1,0.1,4.5
				c1.3,1.4,3,1,4.5,0.3c0.8-0.4,1.6-1.5,1.8-2.4c0.3-1.2,0.2-2.6,0.1-3.9c-0.3-4.7,0.6-5.9,5-5.9c1.5,0,2.3-0.9,2.3-2.4
				c0.1-1.9-0.6-2.9-2.2-3.1c-1-0.1-2,0-3,0.1c-1.7,0.2-3.4,0.5-5.1,0.5c-0.9,0-1.8-0.5-2.7-0.7c0-0.2,0-0.5,0-0.7
				c1.7-0.5,3.5-0.8,5.2-1.4c1.7-0.6,5.5-0.9,6.8-2.1c0.2-0.2,0.4-0.4,0.6-0.5c0,0,0,0,0.1,0c0.8-0.6,1.2-1.1,1.6-1.4
				c6.2,0.4,12.2-4,13.3-10C147.7,65.2,143.6,58.6,137,57.1z M107,93.8c1.2-2,3-2.2,4.6-0.2L107,93.8z M143.4,71.7
				c-1.3,5.3-6.4,8.4-11.7,7.2c-5.3-1.3-8.5-6.4-7.2-11.7c1.3-5.3,6.5-8.4,11.8-7.1C141.5,61.4,144.6,66.6,143.4,71.7z"/>
		</g>
		<g>
			<path class="st6" d="M78.8,76.9c1.3-0.4,2.5-0.6,3.5-0.5c1,0,1.9,0.3,2.6,0.7c0.7,0.4,1.3,1,1.8,1.8c0.5,0.8,0.9,1.7,1.2,2.7
				l3.2,10.4c-0.6,0.3-1.4,0.8-2.6,1.3c-1.2,0.6-2.5,1.1-4.1,1.6c-1,0.3-2,0.5-2.9,0.6c-0.9,0.1-1.7,0-2.5-0.3
				c-0.7-0.2-1.4-0.7-1.9-1.3c-0.6-0.6-1-1.4-1.3-2.4c-0.3-1-0.4-1.9-0.2-2.7c0.2-0.8,0.5-1.5,1-2.1c0.5-0.6,1.2-1.2,2-1.6
				c0.8-0.5,1.7-0.8,2.6-1.1c0.4-0.1,0.9-0.3,1.4-0.3c0.5-0.1,1-0.2,1.6-0.2L84,82.7c-0.1-0.5-0.3-0.9-0.6-1.3
				c-0.2-0.4-0.5-0.7-0.9-0.9c-0.4-0.2-0.8-0.4-1.3-0.4c-0.5,0-1.1,0.1-1.8,0.3c-0.9,0.3-1.7,0.6-2.5,1c-0.7,0.4-1.3,0.7-1.7,1
				l-1.5-3.1c0.4-0.3,1.1-0.7,2-1.2C76.7,77.7,77.7,77.3,78.8,76.9z M83.7,91.6c1.2-0.4,2.1-0.7,2.7-1.1l-1.4-4.4
				c-0.2,0-0.6,0-1,0.1c-0.4,0.1-0.9,0.2-1.4,0.3c-0.4,0.1-0.9,0.3-1.3,0.5c-0.4,0.2-0.8,0.5-1.1,0.7c-0.3,0.3-0.5,0.6-0.6,1
				c-0.1,0.4-0.1,0.8,0,1.3c0.3,0.9,0.8,1.5,1.5,1.7C81.8,92,82.7,91.9,83.7,91.6z"/>
			<path class="st6" d="M110.4,85.8c-0.7,0.5-1.6,1-2.8,1.6c-1.1,0.6-2.4,1.1-3.7,1.5c-1.4,0.4-2.6,0.6-3.8,0.5
				c-1.2-0.1-2.3-0.4-3.3-0.9c-1-0.5-1.9-1.3-2.6-2.3c-0.8-1-1.3-2.2-1.8-3.5c-0.4-1.4-0.6-2.6-0.6-3.8c0-1.2,0.2-2.3,0.6-3.3
				c0.4-1,1-1.8,1.8-2.6c0.8-0.7,1.8-1.3,3-1.6c0.8-0.3,1.6-0.4,2.3-0.4c0.7,0,1.3,0,1.8,0.1l-2.6-8.2l3.8-1.9L110.4,85.8z
				 M96.5,81.2c0.5,1.7,1.4,3,2.5,3.7c1.1,0.7,2.4,0.9,3.9,0.4c0.6-0.2,1.2-0.4,1.6-0.6c0.4-0.2,0.8-0.4,1-0.5l-3.1-9.8
				c-0.4-0.1-1-0.2-1.6-0.2c-0.6,0-1.3,0.1-1.9,0.3c-1.4,0.5-2.3,1.3-2.7,2.5C95.9,78.1,95.9,79.5,96.5,81.2z"/>
			<path class="st6" d="M113.1,61.2c0.2,0.7,0.2,1.4-0.2,2c-0.3,0.6-0.8,1-1.5,1.2c-0.7,0.2-1.3,0.2-1.9-0.1c-0.6-0.3-1-0.8-1.3-1.5
				c-0.2-0.8-0.2-1.4,0.2-2c0.3-0.6,0.9-1,1.5-1.2c0.7-0.2,1.3-0.2,1.9,0.1C112.4,59.9,112.9,60.4,113.1,61.2z M119.6,83.5l-4,1.2
				l-5.3-17.1l4-1.2L119.6,83.5z"/>
			<g>
				<g id="XMLID_170_">
					<path id="XMLID_174_" class="st6" d="M57.9,99.4c-1-0.8-2-1.6-2.9-2.4c-0.9-0.7-1.8-1.4-2.7-2l-4,0l3.5,10.9l0,0
						c1.5,1.4,2.7,1.1,5.1,0.4c2.3-0.7,4.5-1.3,6.2-2.8c-0.8-0.7-1.4-1.2-2.2-1.9C59.8,100.8,58.9,100.2,57.9,99.4z"/>
					<path id="XMLID_173_" class="st6" d="M52.3,79.6c-1.4-0.3-3.4-0.1-5.8,0.7c-0.5,0.2-1,0.3-1.4,0.5c-0.4,0.2-0.8,0.3-1.2,0.5
						l2.8,9l2.1-0.7c2.8-0.9,4.7-1.9,5.7-3c1-1.1,1.2-2.5,0.7-4.2C54.8,80.9,53.8,79.9,52.3,79.6z"/>
					<path id="XMLID_172_" class="st6" d="M63.2,86.3c-0.6,1.8-1.8,3.4-3.5,4.9c0.9,0.6,1.9,1.3,3,2.2c1.1,0.8,2.1,1.7,3.2,2.7
						c0.7,0.6,1.3,1.2,2,1.9c1.6-3.6,1.9-7.8,0.6-11.9c-1.3-4.2-4-7.5-7.5-9.6c0.8,1,1.5,2.3,1.9,3.7C63.7,82.4,63.8,84.5,63.2,86.3
						z"/>
					<path id="XMLID_171_" class="st6" d="M35.5,96.2c1.4,4.4,4.3,7.8,8,9.9l-7.1-22.5C34.7,87.4,34.2,91.9,35.5,96.2z"/>
				</g>
			</g>
			<g>
				<g id="XMLID_222_">
					<path id="XMLID_229_" class="st7" d="M131.2,77.2c-4.9-1.3-7.8-6.2-6.6-11c1.2-4.9,6.2-7.9,11.1-6.6c4.9,1.3,7.8,6.2,6.6,11
						C141.1,75.4,136.1,78.4,131.2,77.2z M135.2,61.3c-3.8-1-7.8,1.4-8.8,5.3c-1,3.8,1.4,7.9,5.1,8.8c4,1.1,8-1.2,9.1-5.2
						C141.6,66.3,139.2,62.3,135.2,61.3z"/>
					<path id="XMLID_228_" class="st7" d="M130.8,62.5c0.6-0.2,1.1-0.3,1.7-0.5c0.2,0.6,0.3,1.1,0.5,1.7c-0.6,0.2-1.1,0.3-1.7,0.5
						C131.2,63.6,131,63.1,130.8,62.5z"/>
					<path id="XMLID_227_" class="st7" d="M135.6,72.4c0.2,0.6,0.3,1.1,0.5,1.7c-0.6,0.2-1.1,0.3-1.7,0.5c-0.2-0.5-0.3-1-0.5-1.6
						C134.4,72.8,134.9,72.7,135.6,72.4z"/>
					<path id="XMLID_226_" class="st7" d="M139.3,70.7c-0.5-0.1-1-0.2-1.5-0.4c0.1-0.5,0.3-1.1,0.4-1.7c0.5,0.1,1,0.2,1.5,0.4
						C139.6,69.6,139.5,70.1,139.3,70.7z"/>
					<path id="XMLID_225_" class="st7" d="M127.6,65.9c0.6,0.1,1,0.2,1.6,0.4c-0.1,0.5-0.3,1.1-0.4,1.7c-0.5-0.1-1-0.2-1.6-0.3
						C127.3,67.1,127.4,66.6,127.6,65.9z"/>
					<path id="XMLID_224_" class="st7" d="M128.4,72.3c0.5-0.5,0.8-0.8,1.3-1.3c0.4,0.4,0.8,0.8,1.2,1.2c-0.4,0.4-0.7,0.8-1.2,1.3
						C129.3,73.1,128.9,72.7,128.4,72.3z"/>
					<path id="XMLID_223_" class="st7" d="M136,64.4c0.5-0.5,0.9-0.9,1.3-1.3c0.4,0.4,0.8,0.8,1.2,1.3c-0.4,0.4-0.8,0.8-1.2,1.2
						C136.8,65.2,136.4,64.9,136,64.4z"/>
				</g>
			</g>
			<path class="st6" d="M38.3,73.6c1.2-0.4,2-0.7,2.4-1.1c0.4-0.4,0.5-0.9,0.3-1.6c-0.2-0.5-0.6-0.9-1.4-1.1
				c-0.8-0.2-1.9-0.3-3.3-0.4c-1.1-0.1-2.2-0.2-3.1-0.3c-1-0.1-1.8-0.4-2.6-0.8c-0.8-0.4-1.4-0.9-2-1.6c-0.6-0.7-1-1.6-1.4-2.7
				c-0.7-2.2-0.4-4.1,0.8-5.9c1.2-1.7,3.2-3.1,6-3.9c1.4-0.4,2.8-0.7,4.1-0.9c1.4-0.1,2.5-0.2,3.3-0.1l0.4,5.4c-0.8,0-1.7,0-2.7,0.1
				c-1,0.1-2,0.3-3.1,0.6c-2,0.6-2.9,1.5-2.5,2.7c0.1,0.3,0.2,0.5,0.3,0.7c0.1,0.2,0.4,0.3,0.7,0.4c0.3,0.1,0.7,0.2,1.3,0.3
				c0.5,0.1,1.2,0.1,2,0.2c1.6,0.1,2.9,0.2,4,0.5c1.1,0.2,2,0.6,2.7,1c0.7,0.4,1.3,1,1.8,1.6c0.4,0.7,0.8,1.5,1.1,2.4
				c0.7,2.3,0.4,4.2-1,5.9c-1.3,1.7-3.6,3-6.7,4c-2,0.6-3.8,1-5.2,1.1c-1.5,0.1-2.5,0.1-3.1,0L31,74.3c1.2,0.1,2.5,0.1,3.7,0
				C36,74.1,37.2,73.9,38.3,73.6z"/>
			<path class="st6" d="M73.7,66.8c-1,0.7-2.3,1.4-4,2.2c-1.7,0.8-3.4,1.5-5.4,2.1c-2,0.6-3.7,0.9-5.1,0.7c-1.5-0.1-2.7-0.5-3.8-1.2
				c-1.1-0.7-1.9-1.7-2.7-2.9c-0.7-1.2-1.3-2.6-1.8-4.2l-4-12.8l6.5-2l3.7,12c0.7,2.1,1.4,3.5,2.2,4.3c0.8,0.8,2,0.9,3.5,0.4
				c0.5-0.1,1-0.3,1.5-0.5c0.5-0.2,1-0.4,1.3-0.6l-5.5-17.7l6.5-2L73.7,66.8z"/>
			<path class="st6" d="M97.8,47.6c0.6,1.8,0.8,3.5,0.9,5c0,1.6-0.2,3-0.7,4.4c-0.5,1.3-1.3,2.4-2.4,3.4c-1.1,1-2.4,1.7-4,2.2
				c-0.9,0.3-1.8,0.5-2.6,0.5c-0.8,0.1-1.7,0.1-2.5,0l2.7,8.6l-6.5,2l-9.4-30.2c0.5-0.4,1.1-0.7,1.9-1.1c0.7-0.4,1.5-0.8,2.2-1.2
				c0.8-0.4,1.6-0.7,2.4-1.1c0.8-0.3,1.6-0.6,2.4-0.9c1.9-0.6,3.7-0.8,5.3-0.7c1.7,0.1,3.2,0.5,4.5,1.2c1.3,0.7,2.5,1.7,3.5,3
				C96.4,44.1,97.2,45.7,97.8,47.6z M91.2,49.8c-0.6-2-1.6-3.5-2.9-4.4c-1.3-0.9-2.8-1.1-4.6-0.6c-0.6,0.2-1.1,0.4-1.6,0.6
				c-0.5,0.2-0.9,0.4-1.2,0.5l3.7,11.7c0.5,0.1,1.1,0.2,1.8,0.2c0.7,0,1.4-0.1,2.1-0.4C91.6,56.5,92.5,54,91.2,49.8z"/>
			<path class="st6" d="M101.8,46.5c-0.6-2-0.9-3.9-0.7-5.6c0.1-1.7,0.6-3.3,1.3-4.6c0.7-1.3,1.6-2.5,2.8-3.4
				c1.2-0.9,2.4-1.6,3.8-2.1c3.3-1,6.1-0.8,8.7,0.6c2.5,1.4,4.4,4,5.6,7.9c0.1,0.4,0.2,0.8,0.3,1.3c0.1,0.5,0.2,0.9,0.3,1.2
				l-14.8,4.6c0.6,1.3,1.5,2.2,2.9,2.6c1.3,0.4,3,0.4,4.8-0.2c1.2-0.4,2.3-0.8,3.4-1.4c1.1-0.6,1.9-1.1,2.6-1.7l2.5,5
				c-0.3,0.3-0.7,0.6-1.2,1c-0.5,0.4-1.1,0.7-1.8,1.1c-0.7,0.4-1.4,0.7-2.2,1c-0.8,0.3-1.6,0.6-2.4,0.9c-2.1,0.6-4,0.9-5.7,0.8
				c-1.7-0.1-3.2-0.6-4.6-1.3c-1.3-0.8-2.5-1.8-3.4-3.1C103,49.7,102.3,48.2,101.8,46.5z M116.3,39.3c-0.2-0.5-0.5-1.1-0.8-1.5
				c-0.3-0.5-0.7-0.9-1.2-1.2c-0.5-0.3-1-0.5-1.6-0.6c-0.6-0.1-1.3,0-2,0.2c-0.7,0.2-1.3,0.5-1.8,1c-0.4,0.4-0.8,0.9-1,1.4
				c-0.2,0.5-0.3,1.1-0.4,1.7c0,0.6,0,1.2,0.1,1.8L116.3,39.3z"/>
			<path class="st6" d="M140.4,28c-0.6,0-1.4,0.1-2.2,0.2c-0.8,0.1-1.7,0.3-2.6,0.5c-0.4,0.1-0.9,0.3-1.4,0.6
				c-0.5,0.3-0.9,0.5-1.2,0.6l5.5,17.5l-6.5,2l-6.8-21.7c1-0.8,2.3-1.6,3.8-2.4c1.5-0.9,3.2-1.6,5.1-2.2c0.3-0.1,0.8-0.2,1.3-0.3
				c0.5-0.1,1-0.2,1.5-0.3c0.5-0.1,1-0.1,1.6-0.2c0.5-0.1,1-0.1,1.4,0L140.4,28z"/>
			<path class="st7" d="M136.5,56c-6.5-1.5-12.7,1.8-15.1,8c-2.2,5.8,0.3,12.6,5.9,15.6c0.4,0.2,1.5,0.6,2.5,0.9
				c0.2,0.3,0.4,0.8,0.3,1.3c-2.2,0.7-5.1,1.2-5.9,1.4c-1.6,0.5-3.2,0.8-4.8,1.2c-1.5,0.4-1.9,1.4-1.6,2.9c0.3,1.6,1.4,2.3,3.4,2.2
				c2.4-0.2,4.8-0.5,7.3-0.6c0.9,0,1.8,0.4,2.6,0.6c0,0.3,0,0.6,0,1c-1.1,0.3-2.2,0.8-3.4,0.9c-3.1,0.3-4,1.3-3.9,4.4
				c0.1,1.4,0.2,2.7,0.2,4.1c-0.1,3.1-2.5,4.8-5.2,3.8c-1.3-0.5-1.8-1.2-0.9-2.4c1.1-1.4,2.3-2.8,3.3-4.2c1.4-1.9,1.5-4.1,0.4-5.7
				c-1.1-1.6-3.1-2.4-5.4-1.7c-1.6,0.4-3,1.2-4.6,1.8c-1.2-2.1-2-2.5-3.8-1.9c-1.6,0.6-2.5,1.9-2,3.5c0.9,2.7,3.1,1.2,5,1.4
				c-0.5,3.3-2.2,5.5-5.3,6.5c-1.6,0.5-3.6,0.8-5.2,0.4c-1.6-0.3-2.9-1.6-4.2-2.4c0.2,2.4,1.7,3.9,4.6,4.2c5.6,0.5,9.4-2.3,10.6-7.8
				c0.2-0.7,0.3-1.6,0.8-2.1c1.8-1.9,4.1-2.6,6.7-2c3.3,0.8,3.8,2.4,1.7,5c-1,1.2-2.2,2.4-2.9,3.8c-0.8,1.4-1.1,3.1,0.1,4.5
				c1.3,1.4,3,1,4.5,0.3c0.8-0.4,1.6-1.5,1.8-2.4c0.3-1.2,0.2-2.6,0.1-3.9c-0.3-4.7,0.6-5.9,5-5.9c1.5,0,2.3-0.9,2.3-2.4
				c0.1-1.9-0.6-2.9-2.2-3.1c-1-0.1-2,0-3,0.1c-1.7,0.2-3.4,0.5-5.1,0.5c-0.9,0-1.8-0.5-2.7-0.7c0-0.2,0-0.5,0-0.7
				c1.7-0.5,3.5-0.8,5.2-1.4c1.7-0.6,5.5-0.9,6.8-2.1c0.2-0.2,0.4-0.4,0.6-0.5c0,0,0,0,0.1,0c0.8-0.6,1.2-1.1,1.6-1.4
				c6.2,0.4,12.2-4,13.3-10C147.2,64,143.2,57.5,136.5,56z M106.6,92.7c1.2-2,3-2.2,4.6-0.2L106.6,92.7z M142.9,70.6
				c-1.3,5.3-6.4,8.4-11.7,7.2c-5.3-1.3-8.5-6.4-7.2-11.7c1.3-5.3,6.5-8.4,11.8-7.1C141,60.2,144.2,65.4,142.9,70.6z"/>
		</g>
		<path class="st8" d="M27.4,101.1c-3.8-9.6-4.6-19.8-5.8-29.9c-0.3-2.5-0.4-5-0.5-7.6C20.6,48,26.4,38.9,40.5,32.3
			c24.2-11.5,50.1-16.3,76.5-18C132.9,13.2,34.5,118.8,27.4,101.1z"/>
	</g>
	<g>
		<path class="st9" d="M175.7,41.5h0.3c0.4,0.1,0.6,0.2,0.6,0.5c-0.2,4.5-0.4,7.9-0.4,10.1v0.2h0.1c1.3-7.1,4.8-10.7,10.4-10.7
			c0.4,0,0.6,0.2,0.6,0.7c0,0.6-0.4,0.8-1.3,0.8c-1.6,0.1-3.1,0.6-4.3,1.5c-1.5,1.1-2.7,3.2-3.4,6c-0.5,1.7-1,4.7-1.5,9.1
			c-0.2,2.3-0.4,3.5-0.6,3.5c-0.2,0.1-0.4,0.1-0.5,0.1h-0.1c-0.5,0-0.7-0.5-0.7-1.4c-0.1-2.7-0.2-5.4-0.2-8.1
			c0.1-7.7,0.3-11.7,0.5-12.1C175.4,41.6,175.6,41.5,175.7,41.5z"/>
		<path class="st9" d="M194.4,39.8c2.5,0,4.2,1.6,5.2,4.9c0.3,1.3,0.4,2.6,0.4,3.9c0,1.1-0.2,5.7-0.6,13.6c0,0.8-0.2,1.1-0.7,1.1
			h-0.1c-0.5-0.1-0.7-0.3-0.7-0.6c0-0.8,0.1-2.1,0.2-3.9c-2.1,3.1-4.1,4.6-6,4.6c-1.9,0-3.3-1.4-4.2-4.1c-0.1-0.4-0.2-0.8-0.2-1.1
			v-0.6c0-2,1.2-4.1,3.5-6.4c1.9-1.5,3.7-2.3,5.3-2.3h0.2c0.7,0,1.4,0.2,1.9,0.5l0.1-0.3c0-3.9-1-6.4-2.9-7.4
			c-0.6-0.2-1.1-0.3-1.4-0.3c-1.4,0-2.8,1-4.5,3c-0.5,0.9-0.8,1.8-0.9,2.6c0,0.3,0.1,0.5,0.1,0.8c-0.2,0.5-0.4,0.7-0.7,0.7h-0.3
			c-0.4,0-0.6-0.4-0.6-1.3c0-2.2,1.1-4.2,3.4-6C192,40.2,193.2,39.8,194.4,39.8z M189.1,57.8c0,1.5,0.6,2.8,1.8,3.8
			c0.3,0.2,0.6,0.3,1,0.3h0.1c1.4,0,3.3-1.7,5.4-5.2c0.6-1,0.8-1.7,0.8-2l0.2-3.4c-0.5-0.7-1.2-1-1.9-1h-0.1c-2,0-4,1.4-6.3,4.2
			C189.5,55.7,189.1,56.8,189.1,57.8z"/>
		<path class="st9" d="M214.2,39.4c0.5,0.1,0.8,0.3,0.8,0.8c0,1,0,2.3-0.1,4.2c0,7.5,0.2,13.7,0.6,18.6c0,0.2-0.2,0.4-0.6,0.5h-0.2
			c-0.6,0-0.9-0.6-0.9-1.7c0-0.2,0-0.4-0.1-0.6c-1.1,1.1-2.4,1.6-4.1,1.6H209c-2.3,0-4.5-0.9-6.4-2.6c-1.1-1.2-1.7-2.6-1.7-4.1
			c0-2.1,1.4-4.3,4.1-6.6c2.1-1.4,4-2.1,5.5-2.1h0.4c0.9,0,1.7,0.2,2.4,0.7V40C213.4,39.7,213.7,39.5,214.2,39.4z M202.5,56.2
			c0,2.1,1.5,3.7,4.5,4.8c0.9,0.2,1.5,0.3,2,0.3h0.4c2.4,0,3.8-1.2,4.2-3.5c-0.1-4.9-0.2-7.3-0.3-7.3c-0.5-1-1.2-1.6-2.3-1.6h-0.3
			c-1.8,0-3.8,1-6,3C203.3,53.4,202.5,54.8,202.5,56.2z"/>
		<path class="st9" d="M217.8,40.3c1.3,0.2,2,0.6,2,1.2v0.3c0,1-0.3,1.7-0.9,1.9c-0.1,0-0.1,0.1-0.3,0.1h-0.3
			c-0.7,0-1.3-0.6-1.7-1.8c0-0.1-0.1-0.3-0.1-0.5C216.5,40.8,217,40.4,217.8,40.3z M218.4,46.5c0.6,0,0.9,0.5,0.9,1.5
			c0.1,1.9,0.5,6.9,0.9,15c-0.1,0.3-0.3,0.5-0.8,0.5c-0.6,0-0.8-0.6-0.8-1.8L217.7,47C217.8,46.7,218,46.5,218.4,46.5z"/>
		<path class="st9" d="M227.6,38.7h0.3c2.5,0,4.7,2.2,6.4,6.6c0.9,2.7,1.4,5.4,1.4,8c0,3.5-1,6.4-3,8.8c-0.9,0.9-1.9,1.4-3,1.4h-0.3
			c-2.2,0-4.1-1.5-5.9-4.6c-1-2.4-1.5-4-1.5-4.7c-0.5-2.4-0.7-4.7-0.7-6.7c0-3.9,1.1-6.5,3.4-7.7C225.7,39,226.7,38.7,227.6,38.7z
			 M222.8,47.3c0,4.5,0.9,8.5,2.7,11.8c1.4,1.8,2.7,2.8,4.1,2.8c1.7,0,3.1-1.8,4.2-5.3c0.3-1.2,0.4-2.3,0.4-3.5v-0.3
			c0-3.4-1-6.8-2.9-10.2c-1.1-1.6-2.3-2.4-3.6-2.4c-1.3,0-2.5,0.7-3.7,2.1C223.2,43.4,222.8,45.1,222.8,47.3z"/>
		<path class="st9" d="M239.3,57.5c1.5,0.6,2.2,1.7,2.2,3.2v0.4c0,1-0.6,1.8-1.8,2.3c-0.1,0-0.3,0.1-0.4,0.1h-0.3
			c-1.1,0-1.8-0.7-2.2-2.1l-0.1-0.8c0-1.4,0.6-2.4,1.9-3C238.7,57.6,238.9,57.5,239.3,57.5z M238.3,60.4v0.1c0.1,1,0.5,1.5,0.9,1.5
			c0.4,0,0.6-0.3,0.8-1c0-0.8-0.3-1.5-0.9-1.9C238.6,59.3,238.3,59.8,238.3,60.4z"/>
		<path class="st9" d="M169.3,66.6c1.3,0.2,2,0.6,2,1.2v0.3c0,1-0.3,1.7-0.9,1.9c-0.1,0-0.1,0.1-0.3,0.1h-0.3
			c-0.7,0-1.3-0.6-1.7-1.8c0-0.1-0.1-0.3-0.1-0.5C168.1,67.2,168.5,66.8,169.3,66.6z M169.9,72.8c0.6,0,0.9,0.5,0.9,1.5
			c0.1,1.9,0.5,6.9,0.9,15c-0.1,0.3-0.3,0.5-0.8,0.5c-0.6,0-0.8-0.6-0.8-1.8l-0.9-14.6C169.3,73,169.6,72.8,169.9,72.8z"/>
		<path class="st9" d="M173.2,66.7c0.5,0,0.9,0.7,1.1,2.1c0.3,0.7,0.6,2,0.8,3.9h0.1c0.2-1,1-2.2,2.3-3.8c1.5-1.3,3-1.9,4.5-1.9
			c2.9,0,4.9,2.7,5.9,8.2c0.5,3,0.7,6.6,0.7,10.7v2c-0.1,0.4-0.3,0.6-0.6,0.6h-0.3c-0.4-0.1-0.6-0.3-0.6-0.6
			c0-9.1-0.8-14.8-2.3-17.3c-0.7-1.5-1.6-2.2-2.8-2.2c-1,0-2.1,0.5-3.4,1.6c-1.9,1.8-2.9,4.6-2.9,8.4c0,2.1,0.5,5.7,1.4,10.6v0.1
			c0,0.3-0.3,0.6-0.9,0.7c-0.5,0-0.8-0.7-1-2.2c-0.8-4-1.1-7.3-1.1-9.9c-0.3-3.5-0.7-6.2-1.2-8c-0.5-1.4-0.7-2.2-0.7-2.3v-0.1
			C172.4,66.9,172.7,66.7,173.2,66.7z"/>
		<path class="st9" d="M195.7,66.1h0.3c0.6,0,0.8,0.6,0.8,1.7c0.2,1.8,0.4,4.4,0.4,7.9v0.7h0.1c2-0.4,3.5-0.9,4.7-1.4h0.2
			c0.5,0.1,0.7,0.4,0.7,0.7V76c0,0.5-1.4,1.1-4.3,1.7c0,0-0.5,0.2-1.4,0.4v2.8c0,3.2,0.1,6,0.4,8.4c-0.2,0.3-0.4,0.5-0.6,0.5h-0.3
			c-0.6,0-0.8-0.6-0.8-1.9c-0.2-1.8-0.3-4.8-0.3-9v-0.4c-1.4,0.3-3,0.9-4.8,1.6c-0.6-0.1-0.8-0.4-0.8-0.8v-0.1
			c0-0.4,0.6-0.8,1.8-1.1c1-0.4,2.3-0.8,3.9-1.1v-2.2c0-3.1-0.2-5.7-0.5-7.9C195.2,66.3,195.4,66.1,195.7,66.1z"/>
		<path class="st9" d="M213.6,69h0.5c2.7,0,4.9,1.6,6.7,4.7c0.3,0.6,0.5,1,0.5,1.1v0.1c0,0.4-0.9,1.1-2.8,2.2
			c-0.9,0.6-3.5,1.9-7.9,4c-1.4,0.7-2.7,1.5-3.7,2.3v0.1c1.8,3.1,4.1,4.7,6.7,4.7c2.5,0,4.5-1.5,6.3-4.5c0.1-0.1,0.3-0.2,0.4-0.2
			h0.2c0.4,0,0.6,0.3,0.7,0.8c-1.1,2.3-2.6,4-4.7,4.8c-0.9,0.4-1.7,0.6-2.6,0.6h-0.6c-2.5,0-4.8-1.4-7-4.2c-1.5-2.2-2.2-4.3-2.2-6.3
			v-0.8c0-2.9,1.7-5.6,5-8.1C210.7,69.5,212.2,69,213.6,69z M205.5,78.9c0,0.8,0.2,1.8,0.7,3.1h0.1c1.6-1.1,4.3-2.6,8.4-4.4
			c1.9-0.9,3.6-1.9,4.8-3c-1.3-2.7-3.2-4.1-5.6-4.1s-4.7,1.3-6.9,4C206,76.2,205.5,77.6,205.5,78.9z"/>
		<path class="st9" d="M223.3,67.9h0.3c0.4,0.1,0.6,0.2,0.6,0.5c-0.2,4.5-0.4,7.9-0.4,10.1v0.2h0.1c1.3-7.1,4.8-10.7,10.4-10.7
			c0.4,0,0.6,0.2,0.6,0.7c0,0.6-0.4,0.8-1.3,0.8c-1.6,0.1-3.1,0.6-4.3,1.5c-1.5,1.1-2.7,3.2-3.4,6c-0.5,1.7-1,4.7-1.5,9.1
			c-0.2,2.3-0.4,3.5-0.6,3.5c-0.2,0.1-0.4,0.1-0.5,0.1h-0.1c-0.5,0-0.7-0.5-0.7-1.4c-0.1-2.7-0.2-5.4-0.2-8.1
			c0.1-7.7,0.3-11.7,0.5-12.1C223,68,223.2,67.9,223.3,67.9z"/>
		<path class="st9" d="M236.8,66.7c0.5,0,0.9,0.7,1.1,2.1c0.3,0.7,0.6,2,0.8,3.9h0.1c0.2-1,1-2.2,2.3-3.8c1.5-1.3,3-1.9,4.5-1.9
			c2.9,0,4.9,2.7,5.9,8.2c0.5,3,0.7,6.6,0.7,10.7v2c-0.1,0.4-0.3,0.6-0.6,0.6h-0.3c-0.4-0.1-0.6-0.3-0.6-0.6
			c0-9.1-0.8-14.8-2.3-17.3c-0.7-1.5-1.6-2.2-2.8-2.2c-1,0-2.1,0.5-3.4,1.6c-1.9,1.8-2.9,4.6-2.9,8.4c0,2.1,0.5,5.7,1.4,10.6v0.1
			c0,0.3-0.3,0.6-0.9,0.7c-0.5,0-0.8-0.7-1-2.2c-0.8-4-1.1-7.3-1.1-9.9c-0.3-3.5-0.7-6.2-1.2-8c-0.5-1.4-0.7-2.2-0.7-2.3v-0.1
			C236,66.9,236.3,66.7,236.8,66.7z"/>
		<path class="st9" d="M262.8,69h0.5c2.7,0,4.9,1.6,6.7,4.7c0.3,0.6,0.5,1,0.5,1.1v0.1c0,0.4-0.9,1.1-2.8,2.2
			c-0.9,0.6-3.5,1.9-7.9,4c-1.4,0.7-2.7,1.5-3.7,2.3v0.1c1.8,3.1,4.1,4.7,6.7,4.7c2.5,0,4.5-1.5,6.3-4.5c0.1-0.1,0.3-0.2,0.4-0.2
			h0.2c0.4,0,0.6,0.3,0.7,0.8c-1.1,2.3-2.6,4-4.7,4.8c-0.9,0.4-1.7,0.6-2.6,0.6h-0.6c-2.5,0-4.8-1.4-7-4.2c-1.5-2.2-2.2-4.3-2.2-6.3
			v-0.8c0-2.9,1.7-5.6,5-8.1C259.9,69.5,261.4,69,262.8,69z M254.7,78.9c0,0.8,0.2,1.8,0.7,3.1h0.1c1.6-1.1,4.3-2.6,8.4-4.4
			c1.9-0.9,3.6-1.9,4.8-3c-1.3-2.7-3.2-4.1-5.6-4.1c-2.4,0-4.7,1.3-6.9,4C255.2,76.2,254.7,77.6,254.7,78.9z"/>
		<path class="st9" d="M277.5,66.1h0.3c0.6,0,0.8,0.6,0.8,1.7c0.2,1.8,0.4,4.4,0.4,7.9v0.7h0.1c2-0.4,3.5-0.9,4.7-1.4h0.2
			c0.5,0.1,0.7,0.4,0.7,0.7V76c0,0.5-1.4,1.1-4.3,1.7c0,0-0.5,0.2-1.4,0.4v2.8c0,3.2,0.1,6,0.4,8.4c-0.2,0.3-0.4,0.5-0.6,0.5h-0.3
			c-0.6,0-0.8-0.6-0.8-1.9c-0.2-1.8-0.3-4.8-0.3-9v-0.4c-1.4,0.3-3,0.9-4.8,1.6c-0.6-0.1-0.8-0.4-0.8-0.8v-0.1
			c0-0.4,0.6-0.8,1.8-1.1c1-0.4,2.3-0.8,3.9-1.1v-2.2c0-3.1-0.2-5.7-0.5-7.9C277,66.3,277.2,66.1,277.5,66.1z"/>
		<path class="st9" d="M288.6,83.9c1.5,0.6,2.2,1.7,2.2,3.2v0.4c0,1-0.6,1.8-1.8,2.3c-0.1,0-0.3,0.1-0.4,0.1h-0.3
			c-1.1,0-1.8-0.7-2.2-2.1L286,87c0-1.4,0.6-2.4,1.9-3C288,83.9,288.2,83.9,288.6,83.9z M287.6,86.8v0.1c0.1,1,0.5,1.5,0.9,1.5
			c0.4,0,0.6-0.3,0.8-1c0-0.8-0.3-1.5-0.9-1.9C287.9,85.7,287.6,86.1,287.6,86.8z"/>
		<path class="st9" d="M173.8,93.2h0.3c1.6,0,2.7,1.7,3.2,5.2c0.2,1.5,0.3,3,0.3,4.5c0,4.3-0.4,8.6-1.2,12.9
			c-0.2,0.2-0.4,0.4-0.7,0.4c-0.4,0-0.7-0.3-0.8-0.8c0.7-4.2,1.1-8.4,1.1-12.6v-0.2c0-4.1-0.5-6.6-1.6-7.6c-0.2-0.1-0.3-0.2-0.4-0.2
			h-0.3c-0.8,0-1.5,0.7-2.2,2c-0.8,2-1.1,4.1-1.1,6.5c0.3,2.5,0.5,4.8,0.5,7.1v0.1c0,0.9-0.1,1.4-0.4,1.4c0,0.1-0.1,0.1-0.4,0.1
			c-0.5,0-0.8-0.6-0.9-1.7c-0.2-2.2-0.3-4.1-0.3-5.6v-0.9c0-1.5-0.5-3.4-1.5-5.8c-0.4-0.5-0.7-0.8-1-0.8h-0.2c-1,0-1.6,1.1-2,3.2
			c-0.1,0.8-0.1,1.3-0.1,1.6c0,1.6,0.4,4.8,1.3,9.6v0.2c-0.1,0.5-0.3,0.7-0.7,0.7h-0.2c-0.4,0-0.8-0.7-1-2c-0.6-2.1-1.2-5.3-1.7-9.4
			c-0.2-2-0.3-3.1-0.3-3.3c0-0.4,0.2-0.6,0.7-0.7h0.1c0.6,0,0.8,0.5,0.8,1.4h0.1c0.6-1.8,1.6-2.8,2.9-2.8h0.3c1.3,0,2.3,1,3.1,2.9
			h0.1c0.4-1.9,1-3.2,1.9-4.2C172.1,93.6,173,93.2,173.8,93.2z"/>
		<path class="st9" d="M185.7,92.5c2.5,0,4.2,1.6,5.2,4.9c0.3,1.3,0.4,2.6,0.4,3.9c0,1.1-0.2,5.7-0.6,13.6c0,0.8-0.2,1.1-0.7,1.1
			h-0.1c-0.5-0.1-0.7-0.3-0.7-0.6c0-0.8,0.1-2.1,0.2-3.9c-2.1,3.1-4.1,4.6-6,4.6c-1.9,0-3.3-1.4-4.2-4.1c-0.1-0.4-0.2-0.8-0.2-1.1
			v-0.6c0-2,1.2-4.1,3.5-6.4c1.9-1.5,3.7-2.3,5.3-2.3h0.2c0.7,0,1.4,0.2,1.9,0.5l0.1-0.3c0-3.9-1-6.4-2.9-7.4
			c-0.6-0.2-1.1-0.3-1.4-0.3c-1.4,0-2.8,1-4.5,3c-0.5,0.9-0.8,1.8-0.9,2.6c0,0.3,0.1,0.5,0.1,0.8c-0.2,0.5-0.4,0.7-0.7,0.7h-0.3
			c-0.4,0-0.6-0.4-0.6-1.3c0-2.2,1.1-4.2,3.4-6C183.3,92.9,184.5,92.5,185.7,92.5z M180.4,110.5c0,1.5,0.6,2.8,1.8,3.8
			c0.3,0.2,0.6,0.3,1,0.3h0.1c1.4,0,3.3-1.7,5.4-5.2c0.6-1,0.8-1.7,0.8-2l0.2-3.4c-0.5-0.7-1.2-1-1.9-1h-0.1c-2,0-4,1.4-6.3,4.2
			C180.7,108.4,180.4,109.5,180.4,110.5z"/>
		<path class="st9" d="M206.3,92.8c1.6,0,2.8,0.6,3.6,1.9c0.1,0.4,0.2,0.7,0.2,0.8c0.3,5.5,0.5,8.7,0.5,9.5c0,5.6-1.8,9.2-5.4,10.6
			c-1,0.3-1.8,0.5-2.7,0.5c-2.4,0-4.7-0.9-6.9-2.6c-2.2-2-3.3-4.1-3.3-6.3v-0.4c0-1.2,0.2-2.1,0.6-2.6c0.1-0.1,0.3-0.1,0.5-0.2
			c0.5,0.1,0.8,0.3,0.8,0.7v0.1c-0.2,0.8-0.3,1.5-0.3,1.9v0.2c0,2.6,1.5,4.8,4.6,6.6c1.5,0.7,2.8,1,3.9,1c2.8,0,4.8-1.5,5.9-4.4
			c0.5-1.3,0.7-2.9,0.7-4.8v-0.2c-0.5,0.5-1.2,0.8-2.1,0.8c-2.3,0-4.4-1.6-6.3-4.9c-0.5-1.1-0.8-2.2-0.8-3.2c0-2.3,1.6-3.9,4.7-5
			C205.3,92.9,205.8,92.8,206.3,92.8z M201.5,98v0.3c0,1.8,1.1,3.6,3.3,5.5c0.9,0.5,1.6,0.7,2,0.7h0.2c1.2,0,1.8-1.2,1.8-3.6v-0.6
			c-0.1-2.8-0.2-4.4-0.2-4.9c-0.6-0.7-1.4-1-2.3-1c-1.7,0-3.1,0.7-4.3,2.1C201.7,97,201.5,97.5,201.5,98z"/>
		<path class="st9" d="M218.8,92.5c2.5,0,4.2,1.6,5.2,4.9c0.3,1.3,0.4,2.6,0.4,3.9c0,1.1-0.2,5.7-0.6,13.6c0,0.8-0.2,1.1-0.7,1.1
			H223c-0.5-0.1-0.7-0.3-0.7-0.6c0-0.8,0.1-2.1,0.2-3.9c-2.1,3.1-4.1,4.6-6,4.6c-1.9,0-3.3-1.4-4.2-4.1c-0.1-0.4-0.2-0.8-0.2-1.1
			v-0.6c0-2,1.2-4.1,3.5-6.4c1.9-1.5,3.7-2.3,5.3-2.3h0.2c0.7,0,1.4,0.2,1.9,0.5l0.1-0.3c0-3.9-1-6.4-2.9-7.4
			c-0.6-0.2-1.1-0.3-1.4-0.3c-1.4,0-2.8,1-4.5,3c-0.5,0.9-0.8,1.8-0.9,2.6c0,0.3,0.1,0.5,0.1,0.8c-0.2,0.5-0.4,0.7-0.7,0.7h-0.3
			c-0.4,0-0.6-0.4-0.6-1.3c0-2.2,1.1-4.2,3.4-6C216.4,92.9,217.6,92.5,218.8,92.5z M213.5,110.5c0,1.5,0.6,2.8,1.8,3.8
			c0.3,0.2,0.6,0.3,1,0.3h0.1c1.4,0,3.3-1.7,5.4-5.2c0.6-1,0.8-1.7,0.8-2l0.2-3.4c-0.5-0.7-1.2-1-1.9-1h-0.1c-2,0-4,1.4-6.3,4.2
			C213.9,108.4,213.5,109.5,213.5,110.5z"/>
		<path class="st9" d="M230.2,92.2c2,0.1,3.2,0.2,3.6,0.2c1.4,0,2.2-0.1,2.5-0.1c3.3,0,5,0.2,5,0.7c0.1,0,0.1,0.1,0.1,0.4
			c-0.5,2.3-2.5,5.7-6,10.3c-4.4,5.1-7.1,8.8-7.9,11h0.1c2.7,0,7.2-0.3,13.4-0.8c0.3,0.1,0.5,0.3,0.5,0.6v0.3c0,0.4-0.3,0.6-0.9,0.7
			c-5.5,0.5-9.4,0.8-11.9,0.8h-2.2c-0.6-0.1-0.9-0.3-0.9-0.7v-0.1c0.6-2,2.6-5,5.9-9.2c4.6-5.3,7.3-9.4,8.2-12.2h-0.1
			c-1-0.1-1.9-0.1-3-0.2c-0.4,0-0.8,0.1-1.2,0.1h-2c-2.4,0-3.5-0.2-3.5-0.5c-0.1-0.2-0.2-0.4-0.2-0.5
			C229.6,92.5,229.8,92.2,230.2,92.2z"/>
		<path class="st9" d="M243.7,93c1.3,0.2,2,0.6,2,1.2v0.3c0,1-0.3,1.7-0.9,1.9c-0.1,0-0.1,0.1-0.3,0.1h-0.3c-0.7,0-1.3-0.6-1.7-1.8
			c0-0.1-0.1-0.3-0.1-0.5C242.5,93.5,242.9,93.1,243.7,93z M244.3,99.2c0.6,0,0.9,0.5,0.9,1.5c0.1,1.9,0.5,6.9,0.9,15
			c-0.1,0.3-0.3,0.5-0.8,0.5c-0.6,0-0.8-0.6-0.8-1.8l-0.9-14.6C243.7,99.4,243.9,99.2,244.3,99.2z"/>
		<path class="st9" d="M247.6,93c0.5,0,0.9,0.7,1.1,2.1c0.3,0.7,0.6,2,0.8,3.9h0.1c0.2-1,1-2.2,2.3-3.8c1.5-1.3,3-1.9,4.5-1.9
			c2.9,0,4.9,2.7,5.9,8.2c0.5,3,0.7,6.6,0.7,10.7v2c-0.1,0.4-0.3,0.6-0.6,0.6h-0.3c-0.4-0.1-0.6-0.3-0.6-0.6
			c0-9.1-0.8-14.8-2.3-17.3c-0.7-1.5-1.6-2.2-2.8-2.2c-1,0-2.1,0.5-3.4,1.6c-1.9,1.8-2.9,4.6-2.9,8.4c0,2.1,0.5,5.7,1.4,10.6v0.1
			c0,0.3-0.3,0.6-0.9,0.7c-0.5,0-0.8-0.7-1-2.2c-0.8-4-1.1-7.3-1.1-9.9c-0.3-3.5-0.7-6.2-1.2-8c-0.5-1.4-0.7-2.2-0.7-2.3v-0.1
			C246.8,93.3,247.1,93,247.6,93z"/>
		<path class="st9" d="M266.7,110.2c1.5,0.6,2.2,1.7,2.2,3.2v0.4c0,1-0.6,1.8-1.8,2.3c-0.1,0-0.3,0.1-0.4,0.1h-0.3
			c-1.1,0-1.8-0.7-2.2-2.1l-0.1-0.8c0-1.4,0.6-2.4,1.9-3C266.1,110.3,266.3,110.2,266.7,110.2z M265.7,113.1v0.1
			c0.1,1,0.5,1.5,0.9,1.5c0.4,0,0.6-0.3,0.8-1c0-0.8-0.3-1.5-0.9-1.9C266,112,265.7,112.5,265.7,113.1z"/>
	</g>
</g>
<g id="XMLID_16_">
</g>
<g id="XMLID_17_">
</g>
<g id="XMLID_20_">
</g>
<g id="XMLID_21_">
</g>
<g id="XMLID_22_">
</g>
<g id="XMLID_23_">
</g>
</svg>
