<?xml version="1.0" encoding="utf-8"?>
<!-- Generator: Adobe Illustrator 19.0.0, SVG Export Plug-In . SVG Version: 6.00 Build 0)  -->
<svg version="1.1" id="Layer_1" xmlns="http://www.w3.org/2000/svg" xmlns:xlink="http://www.w3.org/1999/xlink" x="0px" y="0px"
	 viewBox="0 0 314 152" style="enable-background:new 0 0 314 152;" xml:space="preserve">
<style type="text/css">
	.st0{fill:#9B4A23;}
	.st1{fill:#1C4584;}
	.st2{fill:#737374;}
</style>
<g>
	<polygon id="XMLID_81_" class="st0" points="41,39.5 41,39.5 56.4,66.4 17.4,81 	"/>
	<polygon id="XMLID_80_" class="st1" points="58.5,70.1 58.5,70.1 75,99.1 7.1,99.1 	"/>
	<g id="XMLID_79_">
		<path id="XMLID_83_" class="st2" d="M123.4,89.7h-6.8l-3.4-9.5H98.5l-3.2,9.5h-6.8l14-37.4h7L123.4,89.7z M111.6,75.1l-5.2-14.9
			c-0.2-0.5-0.3-1.3-0.5-2.3h-0.1c-0.2,1-0.3,1.8-0.5,2.3l-5.1,14.9H111.6z"/>
		<path id="XMLID_86_" class="st2" d="M134,85.7h-0.1V102h-6.1V63h6.1v4.7h0.1c2.1-3.6,5.1-5.3,9.1-5.3c3.4,0,6,1.2,7.9,3.6
			c1.9,2.4,2.8,5.6,2.8,9.6c0,4.5-1.1,8-3.2,10.7s-5.1,4-8.8,4C138.5,90.2,135.8,88.7,134,85.7z M133.8,75.2v3.3
			c0,1.9,0.6,3.6,1.9,5s2.8,2,4.7,2c2.2,0,4-0.9,5.3-2.6s1.9-4.2,1.9-7.3c0-2.6-0.6-4.7-1.8-6.2c-1.2-1.5-2.8-2.2-4.8-2.2
			c-2.2,0-3.9,0.8-5.2,2.3C134.5,71,133.8,72.9,133.8,75.2z"/>
		<path id="XMLID_89_" class="st2" d="M182.7,78h-18.2c0.1,2.5,0.8,4.4,2.3,5.7s3.5,2,6,2c2.9,0,5.5-0.9,7.9-2.6V88
			c-2.4,1.5-5.7,2.3-9.7,2.3c-3.9,0-7-1.2-9.3-3.6c-2.2-2.4-3.4-5.8-3.4-10.2c0-4.2,1.2-7.5,3.7-10.2c2.5-2.6,5.5-3.9,9.2-3.9
			c3.7,0,6.5,1.2,8.5,3.5c2,2.3,3,5.6,3,9.8V78z M176.8,73.7c0-2.2-0.5-3.9-1.5-5.1c-1-1.2-2.4-1.8-4.2-1.8c-1.7,0-3.2,0.6-4.4,1.9
			c-1.2,1.3-2,2.9-2.2,5H176.8z"/>
		<path id="XMLID_92_" class="st2" d="M210.8,63l-8.9,13.5l8.8,13.2h-7l-4.7-8.3c-0.3-0.5-0.6-1.1-1-1.9h-0.1
			c-0.1,0.2-0.4,0.8-1.1,1.9l-4.8,8.3h-7l9.1-13.1L185.4,63h7l4.6,8.7c0.3,0.6,0.7,1.3,1,2h0.1l6-10.7H210.8z"/>
		<path id="XMLID_112_" class="st2" d="M214.2,88.2v-6.4c0.6,0.5,1.3,1,2,1.4c0.8,0.4,1.6,0.8,2.5,1.1s1.8,0.5,2.7,0.7
			c0.9,0.2,1.7,0.2,2.5,0.2c2.6,0,4.6-0.4,5.8-1.3s1.9-2.1,1.9-3.8c0-0.9-0.2-1.7-0.6-2.3c-0.4-0.7-1-1.2-1.8-1.8
			c-0.8-0.5-1.7-1.1-2.7-1.6s-2.1-1-3.3-1.6c-1.3-0.7-2.5-1.4-3.6-2.1c-1.1-0.7-2-1.5-2.9-2.3c-0.8-0.8-1.4-1.8-1.9-2.9
			c-0.5-1.1-0.7-2.3-0.7-3.7c0-1.8,0.4-3.3,1.2-4.6c0.8-1.3,1.8-2.4,3.1-3.2c1.3-0.8,2.8-1.5,4.4-1.9c1.7-0.4,3.3-0.6,5.1-0.6
			c3.9,0,6.8,0.4,8.6,1.3v6.1c-2.1-1.5-4.9-2.3-8.2-2.3c-0.9,0-1.8,0.1-2.8,0.3c-0.9,0.2-1.7,0.5-2.5,0.9c-0.7,0.4-1.3,0.9-1.8,1.5
			c-0.5,0.6-0.7,1.4-0.7,2.3c0,0.8,0.2,1.6,0.5,2.2c0.3,0.6,0.9,1.2,1.5,1.7c0.7,0.5,1.5,1,2.5,1.5s2.1,1,3.4,1.6
			c1.3,0.7,2.5,1.4,3.7,2.1c1.2,0.7,2.2,1.6,3.1,2.5c0.9,0.9,1.6,1.9,2.1,3c0.5,1.1,0.8,2.4,0.8,3.8c0,1.9-0.4,3.5-1.1,4.8
			c-0.8,1.3-1.8,2.4-3.1,3.2c-1.3,0.8-2.8,1.4-4.5,1.8c-1.7,0.4-3.5,0.5-5.4,0.5c-0.6,0-1.4,0-2.3-0.1c-0.9-0.1-1.8-0.2-2.8-0.4
			s-1.9-0.4-2.7-0.7S214.7,88.5,214.2,88.2z"/>
		<path id="XMLID_114_" class="st2" d="M260.5,90.3c-2.7,0-5.1-0.5-7.3-1.4c-2.2-0.9-4.1-2.2-5.6-3.9c-1.5-1.7-2.8-3.7-3.6-6
			s-1.3-4.9-1.3-7.7c0-3,0.4-5.7,1.3-8.1c0.9-2.4,2.1-4.5,3.7-6.2c1.6-1.7,3.5-3.1,5.8-4c2.3-0.9,4.8-1.4,7.6-1.4
			c2.6,0,5,0.5,7.2,1.4c2.2,0.9,4,2.2,5.5,3.9c1.5,1.7,2.7,3.7,3.6,6s1.3,4.9,1.3,7.6c0,3.7-0.6,6.9-1.9,9.7c-1.2,2.8-3,5-5.2,6.7
			l10.9,7.8h-9.5l-6.7-5.2c-0.9,0.2-1.8,0.4-2.8,0.6C262.5,90.2,261.5,90.3,260.5,90.3z M260.7,57.1c-1.7,0-3.3,0.3-4.7,1
			c-1.4,0.7-2.6,1.6-3.7,2.8c-1,1.2-1.8,2.7-2.4,4.4s-0.8,3.6-0.8,5.7c0,2.1,0.3,4,0.8,5.7c0.5,1.7,1.3,3.2,2.3,4.4
			c1,1.2,2.2,2.1,3.6,2.8s2.9,1,4.6,1c1.8,0,3.4-0.3,4.8-0.9c1.4-0.6,2.6-1.5,3.6-2.7s1.8-2.6,2.3-4.3c0.5-1.7,0.8-3.6,0.8-5.8
			c0-2.2-0.3-4.2-0.8-6c-0.5-1.7-1.3-3.2-2.2-4.4c-1-1.2-2.2-2.1-3.6-2.7C264.1,57.4,262.5,57.1,260.7,57.1z"/>
		<path id="XMLID_125_" class="st2" d="M306.2,89.7h-20.7V52.3h6.2v32.2h14.5V89.7z"/>
	</g>
</g>
<g id="XMLID_82_">
</g>
<g id="XMLID_127_">
</g>
<g id="XMLID_128_">
</g>
<g id="XMLID_129_">
</g>
<g id="XMLID_130_">
</g>
<g id="XMLID_131_">
</g>
<g id="XMLID_132_">
</g>
<g id="XMLID_133_">
</g>
<g id="XMLID_134_">
</g>
<g id="XMLID_135_">
</g>
<g id="XMLID_136_">
</g>
<g id="XMLID_137_">
</g>
<g id="XMLID_138_">
</g>
<g id="XMLID_139_">
</g>
<g id="XMLID_140_">
</g>
</svg>
