<?xml version="1.0" encoding="utf-8"?>
<!-- Generator: Adobe Illustrator 19.0.0, SVG Export Plug-In . SVG Version: 6.00 Build 0)  -->
<svg version="1.1" id="Layer_1" xmlns="http://www.w3.org/2000/svg" xmlns:xlink="http://www.w3.org/1999/xlink" x="0px" y="0px"
	 viewBox="0 0 314 152" style="enable-background:new 0 0 314 152;" xml:space="preserve">
<style type="text/css">
	.st0{fill:#072845;}
</style>
<g>
	<path class="st0" d="M4.5,54.8c0-1,0.3-1.8,0.9-2.5c0.6-0.7,1.5-1,2.7-1c1.2,0,2.1,0.3,2.7,1c0.6,0.7,1,1.5,1,2.5
		c0,1-0.3,1.8-1,2.5c-0.6,0.7-1.5,1-2.7,1c-1.2,0-2.1-0.3-2.7-1C4.8,56.6,4.5,55.7,4.5,54.8z M11.4,91H4.9V62.3h6.5V91z"/>
	<path class="st0" d="M24.4,62.3l0.2,3.3c2.1-2.6,4.9-3.9,8.4-3.9c6,0,9,3.4,9.1,10.3v19h-6.5V72.4c0-1.8-0.4-3.2-1.2-4.1
		c-0.8-0.9-2.1-1.3-3.9-1.3c-2.6,0-4.5,1.2-5.8,3.5V91h-6.5V62.3H24.4z"/>
	<path class="st0" d="M47.6,76.4c0-4.5,1.1-8,3.2-10.7c2.1-2.7,4.9-4,8.4-4c3.3,0,5.9,1.1,7.7,3.4l0.3-2.9h5.8v27.9
		c0,3.8-1.2,6.8-3.5,8.9c-2.3,2.2-5.5,3.3-9.5,3.3c-2.1,0-4.2-0.4-6.2-1.3c-2-0.9-3.5-2-4.6-3.4l3.1-3.9c2,2.4,4.4,3.5,7.3,3.5
		c2.1,0,3.8-0.6,5.1-1.7c1.2-1.2,1.9-2.9,1.9-5.1v-1.9c-1.9,2.1-4.3,3.1-7.4,3.1c-3.4,0-6.1-1.3-8.3-4
		C48.6,84.9,47.6,81.2,47.6,76.4z M54,77c0,2.9,0.6,5.2,1.8,6.8c1.2,1.7,2.8,2.5,4.9,2.5c2.6,0,4.5-1.1,5.8-3.4V70.3
		c-1.2-2.2-3.1-3.3-5.7-3.3c-2.1,0-3.8,0.8-5,2.5C54.6,71.2,54,73.7,54,77z"/>
	<path class="st0" d="M97.6,83.7c0-1.6-0.6-2.8-1.9-3.8c-1.3-1-3.2-1.7-5.7-2.2c-2.6-0.5-4.5-1.2-5.9-1.9c-1.4-0.7-2.5-1.6-3.1-2.6
		c-0.7-1-1-2.2-1-3.7c0-2.3,0.9-4.1,2.8-5.6c1.9-1.5,4.3-2.2,7.3-2.2c3.2,0,5.8,0.8,7.7,2.4c1.9,1.6,2.9,3.7,2.9,6.2h-3.2
		c0-1.7-0.7-3.1-2.1-4.2c-1.4-1.1-3.2-1.7-5.3-1.7c-2.1,0-3.8,0.5-5,1.4c-1.3,0.9-1.9,2.1-1.9,3.6c0,1.4,0.5,2.5,1.6,3.3
		c1.1,0.8,3,1.5,5.8,2.2c2.8,0.7,4.9,1.4,6.3,2.1c1.4,0.7,2.4,1.6,3.1,2.7c0.7,1,1,2.3,1,3.8c0,2.4-1,4.4-2.9,5.8
		c-2,1.5-4.5,2.2-7.7,2.2c-3.4,0-6.1-0.8-8.2-2.4c-2.1-1.6-3.1-3.7-3.1-6.2h3.2c0.1,1.9,0.9,3.3,2.4,4.3c1.4,1,3.4,1.6,5.7,1.6
		c2.2,0,4-0.5,5.4-1.5C96.9,86.4,97.6,85.2,97.6,83.7z"/>
	<path class="st0" d="M106.2,76.2c0-2.8,0.5-5.3,1.6-7.5c1.1-2.2,2.6-3.9,4.5-5.2c2-1.2,4.2-1.8,6.7-1.8c3.8,0,6.9,1.3,9.3,4
		c2.4,2.7,3.6,6.2,3.6,10.7v0.7c0,2.8-0.5,5.3-1.6,7.5c-1.1,2.2-2.6,3.9-4.5,5.1c-2,1.2-4.2,1.8-6.7,1.8c-3.8,0-6.9-1.3-9.3-4
		c-2.4-2.7-3.6-6.2-3.6-10.7V76.2z M109.4,77.1c0,3.4,0.9,6.3,2.7,8.5s4.1,3.3,7,3.3c2.9,0,5.2-1.1,7-3.3c1.8-2.2,2.7-5.1,2.7-8.7
		v-0.6c0-2.2-0.4-4.2-1.2-6c-0.8-1.8-2-3.2-3.4-4.2c-1.5-1-3.2-1.5-5.1-1.5c-2.8,0-5.2,1.1-6.9,3.3c-1.8,2.2-2.7,5.1-2.7,8.7V77.1z"
		/>
	<path class="st0" d="M140.8,91V64.9H136v-2.6h4.8v-3.5c0-2.9,0.7-5.2,2.2-6.8c1.5-1.6,3.6-2.4,6.3-2.4c1.2,0,2.3,0.1,3.4,0.4
		l-0.2,2.6c-0.9-0.2-1.9-0.3-2.9-0.3c-1.8,0-3.1,0.5-4.1,1.6c-1,1.1-1.5,2.6-1.5,4.7v3.6h6.9v2.6H144V91H140.8z"/>
	<path class="st0" d="M161.5,54.9v7.4h6v2.6h-6v19.2c0,1.6,0.3,2.8,0.9,3.6c0.6,0.8,1.5,1.2,2.9,1.2c0.5,0,1.4-0.1,2.6-0.3l0.1,2.6
		c-0.8,0.3-2,0.4-3.4,0.4c-2.2,0-3.8-0.6-4.8-1.9c-1-1.3-1.5-3.1-1.5-5.6V64.9H153v-2.6h5.3v-7.4H161.5z"/>
	<path class="st0" d="M180.9,84.4l0.5,2.5l0.6-2.6l6.9-22h2.7l6.8,21.8l0.7,3l0.6-2.8l5.9-22.1h3.3L200.7,91h-2.7l-7.4-22.8
		l-0.3-1.6l-0.3,1.6L182.6,91h-2.7l-8.4-28.8h3.3L180.9,84.4z"/>
	<path class="st0" d="M233.2,91c-0.3-0.9-0.5-2.2-0.6-4c-1.1,1.5-2.5,2.6-4.3,3.4c-1.7,0.8-3.6,1.2-5.5,1.2c-2.8,0-5-0.8-6.7-2.3
		c-1.7-1.5-2.6-3.5-2.6-5.9c0-2.8,1.2-5,3.5-6.6c2.3-1.6,5.6-2.4,9.7-2.4h5.8V71c0-2.1-0.6-3.7-1.9-4.9c-1.3-1.2-3.1-1.8-5.5-1.8
		c-2.2,0-4.1,0.6-5.5,1.7c-1.5,1.1-2.2,2.5-2.2,4.1l-3.2,0c0-2.3,1.1-4.3,3.2-5.9c2.1-1.7,4.7-2.5,7.8-2.5c3.2,0,5.7,0.8,7.6,2.4
		c1.9,1.6,2.8,3.8,2.9,6.7v13.6c0,2.8,0.3,4.9,0.9,6.2V91H233.2z M223.2,88.8c2.1,0,4-0.5,5.7-1.5c1.7-1,2.9-2.4,3.7-4.1v-6.3h-5.7
		c-3.2,0-5.7,0.6-7.4,1.7c-1.8,1.1-2.7,2.7-2.7,4.6c0,1.6,0.6,3,1.8,4C219.8,88.2,221.3,88.8,223.2,88.8z"/>
	<path class="st0" d="M257.5,65c-0.7-0.1-1.4-0.2-2.2-0.2c-2,0-3.7,0.6-5,1.7c-1.4,1.1-2.4,2.7-2.9,4.8V91h-3.2V62.3h3.1l0.1,4.6
		c1.7-3.4,4.4-5.1,8.1-5.1c0.9,0,1.6,0.1,2.1,0.3L257.5,65z"/>
	<path class="st0" d="M273.2,91.6c-2.4,0-4.7-0.6-6.6-1.8c-2-1.2-3.5-2.9-4.6-5c-1.1-2.2-1.6-4.6-1.6-7.2v-1.1
		c0-2.8,0.5-5.3,1.6-7.5c1.1-2.2,2.6-4,4.5-5.2c1.9-1.3,4-1.9,6.2-1.9c3.5,0,6.3,1.2,8.3,3.6c2,2.4,3.1,5.6,3.1,9.8v1.8h-20.5v0.6
		c0,3.3,0.9,6,2.8,8.2c1.9,2.2,4.2,3.3,7.1,3.3c1.7,0,3.2-0.3,4.5-0.9c1.3-0.6,2.5-1.6,3.6-3l2,1.5C281,89.9,277.6,91.6,273.2,91.6z
		 M272.6,64.4c-2.4,0-4.4,0.9-6,2.6c-1.6,1.8-2.6,4.1-3,7.1h17.3v-0.3c-0.1-2.8-0.9-5-2.4-6.8C277,65.3,275,64.4,272.6,64.4z"/>
	<path class="st0" d="M309.5,93.7h-23.4V91h23.4V93.7z"/>
</g>
<g id="XMLID_114_">
</g>
<g id="XMLID_117_">
</g>
<g id="XMLID_121_">
</g>
<g id="XMLID_125_">
</g>
<g id="XMLID_126_">
</g>
<g id="XMLID_127_">
</g>
<g id="XMLID_128_">
</g>
<g id="XMLID_129_">
</g>
<g id="XMLID_130_">
</g>
<g id="XMLID_131_">
</g>
<g id="XMLID_132_">
</g>
<g id="XMLID_133_">
</g>
<g id="XMLID_134_">
</g>
<g id="XMLID_135_">
</g>
<g id="XMLID_136_">
</g>
</svg>
