<svg id="Layer_1" data-name="Layer 1" xmlns="http://www.w3.org/2000/svg" viewBox="0 0 716 105.74"><defs><style>.cls-1{fill:#2e3c51;}</style></defs><title>younify</title><path class="cls-1" d="M259.66,93.79A12.44,12.44,0,0,1,255,86.86q-1.06-4.14-1.07-15V24.65c0-2.25.35-3.85,1.06-4.8s2.1-1.71,4.17-2.26V15.4H237v2.19a7.62,7.62,0,0,1,4.17,2.22c.71.93,1.06,2.54,1.06,4.84V74.19q0,11.16,1.61,16.49a19.36,19.36,0,0,0,2.27,4.89h16.35a17.88,17.88,0,0,1-2.78-1.78"/><path class="cls-1" d="M491.72,24.64c0-2.29.36-3.9,1.07-4.83A7.62,7.62,0,0,1,497,17.59V15.4H474.79v2.19A7.62,7.62,0,0,1,479,19.81c.71.93,1.06,2.54,1.06,4.83V95.57h11.7Z"/><path class="cls-1" d="M537.91,64.21h37.47c2.3,0,3.91.36,4.84,1.06a7.56,7.56,0,0,1,2.21,4.17h2.19V50h-2.19c-.54,2.1-1.28,3.49-2.21,4.19s-2.54,1.05-4.84,1.05H537.91V24.35h57.64c2.24,0,3.84.34,4.8,1s1.71,2.1,2.25,4.19h2.19V10.17H602.6a7.45,7.45,0,0,1-2.25,4.17c-1,.71-2.55,1.06-4.8,1.06H521v2.19a7.62,7.62,0,0,1,4.17,2.22c.71.93,1.06,2.54,1.06,4.84V95.57h11.71Z"/><path class="cls-1" d="M63,66.73,87.3,32.36a82.3,82.3,0,0,1,8.53-10.55,18.25,18.25,0,0,1,6.81-4.22V15.38l-23.37,0v2.19q3.65.5,3.64,3.28,0,1.72-2.24,5.09L58.21,57.66,34.08,25.88a8.8,8.8,0,0,1-2.23-5.17q0-2.55,3.62-3.12V15.38l-26,0v2.19a14.89,14.89,0,0,1,5.83,3.2,75.36,75.36,0,0,1,7.63,9L51.26,66.73V95.57H63Z"/><path class="cls-1" d="M323.52,92q2.13-5.17,2.14-17.8V24.64c0-2.29.35-3.9,1.06-4.83a7.62,7.62,0,0,1,4.17-2.22V15.4H310.62v2.19c2.08.55,3.46,1.3,4.17,2.26s1.06,2.55,1.06,4.79V71.81q0,10-.81,14a13.53,13.53,0,0,1-3.37,6.69,16.94,16.94,0,0,1-4.18,3.09h14.18A23.27,23.27,0,0,0,323.52,92"/><path class="cls-1" d="M129.32,87.39a35.42,35.42,0,0,1-10.67-26.08,35.46,35.46,0,0,1,10.67-26.09q12.23-12.3,32.26-12.3,20.28.16,32.59,12.3,10.68,10.43,10.67,26.58a34.84,34.84,0,0,1-10.67,25.59,39.38,39.38,0,0,1-11.83,8.18h19.77a48.12,48.12,0,0,0,7.14-8.18A44.28,44.28,0,0,0,217.12,62q0-22.22-16-35.76-15-12.79-39.54-12.79-14,.15-24.2,4Q122.46,23,114.16,35.22a45.67,45.67,0,0,0-7.79,26.09q0,20.85,15.1,34.26h19.68a39.25,39.25,0,0,1-11.83-8.18"/><path class="cls-1" d="M666.83,66.73l24.35-34.37a82.3,82.3,0,0,1,8.53-10.55,18.13,18.13,0,0,1,6.8-4.22V15.38l-23.36,0v2.19q3.63.5,3.63,3.28,0,1.72-2.23,5.09l-22.46,31.7L638,25.88a8.84,8.84,0,0,1-2.22-5.17q0-2.55,3.61-3.12V15.38l-26,0v2.19a14.75,14.75,0,0,1,5.83,3.2,74.41,74.41,0,0,1,7.63,9l28.31,36.92V95.57h11.7Z"/><path class="cls-1" d="M368.05,29.73l59.07,65.78.05.06h18.42V24.64c0-2.29.36-3.9,1.07-4.83a7.63,7.63,0,0,1,4.16-2.22V15.4H430.56v2.19a7.62,7.62,0,0,1,4.17,2.22c.71.93,1.06,2.54,1.06,4.83V88.46l-54.07-60.7c-2.08-2.29-3.12-4.27-3.12-5.9q0-2.88,4.27-4.27V15.4H353v2.19a7.62,7.62,0,0,1,4.17,2.22c.71.93,1.06,2.54,1.06,4.83V95.57h9.8Z"/></svg>