<svg id="Layer_1" data-name="Layer 1" xmlns="http://www.w3.org/2000/svg" xmlns:xlink="http://www.w3.org/1999/xlink" viewBox="0 0 931.26 188.3"><defs><style>.cls-1{fill:none;}.cls-2{clip-path:url(#clip-path);}.cls-3{font-size:109px;fill:#f0efef;font-family:NexaLight, Nexa Light;letter-spacing:0.04em;}.cls-4{fill:#6b6c6c;}.cls-5{fill:#8ab65b;}</style><clipPath id="clip-path"><rect class="cls-1" x="983.77" y="38.89" width="1190.55" height="1683.78"/></clipPath></defs><title>Holycode</title><g id="Poster1"><g class="cls-2"><g id="_Group_" data-name="&lt;Group&gt;"><text class="cls-3" transform="translate(803.79 -40.78)">010010000011001001001010101101100101 <tspan x="0" y="86">01110100010100111101010111000100100 </tspan><tspan x="0" y="172">01101010001100101010101001011010011 </tspan><tspan x="0" y="258">0111010101011000001100010101110010 </tspan><tspan x="0" y="344">00101100000100000010010001101101001 </tspan><tspan x="0" y="430">011000110101001010011011000100000</tspan><tspan x="0" y="516">01101010010100101000100000001101110 </tspan><tspan x="0" y="602">01001000010110000101010101101100001 </tspan><tspan x="0" y="688">011101001001101111010010111000100000 </tspan><tspan x="0" y="774">0110101001011001010010000001110011 </tspan><tspan x="0" y="860">011101010111000001010010101110010 </tspan><tspan x="0" y="946">00101100100010000001010001101101001 </tspan><tspan x="0" y="1032">011000110101001010110011000100000 </tspan><tspan x="0" y="1118">011010100101001010010000001101110</tspan><tspan x="0" y="1204">01001000011000010110101101100001 </tspan><tspan x="0" y="1290">011101000011011110110111000100000 </tspan><tspan x="0" y="1376">01101010011001010010000001110011 </tspan><tspan x="0" y="1462">011101010110100000110010101110010 </tspan><tspan x="0" y="1548">0010110010001100111001101101001 </tspan><tspan x="0" y="1634">0110001101001010110011000100000 </tspan><tspan x="0" y="1720">0110101001001010010100101101110</tspan></text></g></g></g><g id="HolyCode"><path class="cls-4" d="M27.51,102.69c0-17,.29-34.11-.15-51.15C27.2,45,29,42.1,35.74,43.12a20.32,20.32,0,0,0,5.67,0c6.43-.9,9,1.29,8.61,8.21-.57,11.65.11,23.36-.27,35-.19,5.92,1.25,8.43,7.76,8.18,12.93-.48,25.89-.31,38.83-.06,4.93.1,6.65-1.59,6.55-6.53-.27-12.31.26-24.64-.23-36.94-.26-6.35,1.86-8.65,8-7.91a43.21,43.21,0,0,0,8.51,0c4.69-.39,5.94,1.9,5.93,6.19q-.13,54.47,0,108.93c0,4.68-1.88,6.25-6.2,5.75a15.06,15.06,0,0,0-1.9,0c-14.26.24-14.26.24-14.26-13.63,0-10.1-.35-20.22.13-30.3.29-6-1.85-7.57-7.55-7.41q-19.39.56-38.83,0c-5.62-.16-6.92,2-6.79,7.15.31,12-.29,24,.26,36,.31,6.8-2,9.15-8.53,8.24a25.3,25.3,0,0,0-6.62,0c-5.76.74-7.61-1.49-7.49-7.36C27.74,138.69,27.51,120.69,27.51,102.69Z"/><path class="cls-4" d="M455.38,104.2c-.07-45,35.79-72.92,77-59.75,16.41,5.25,26.53,16.27,30,33.37,1,4.65,0,6.47-4.88,6.13a78.32,78.32,0,0,0-11.36,0c-3.94.29-5.72-1.49-6.54-5.11-2.51-11.12-9.55-17.6-20.79-19.08C506.06,58.08,495,61.43,487,72.18c-11.34,15.32-11.65,46.61-.75,62.15,8.07,11.5,19.7,14.11,32.65,12.47,11.74-1.48,19.51-8,23-19.61,1.42-4.78,12.5-7.82,19.44-5,6.12,2.44,1.91,7,.94,10.3-7.32,24.83-32.43,37.92-61.61,32.39C471.17,159.24,455.44,138.19,455.38,104.2Z"/><path class="cls-4" d="M837.46,103.19c0-17.69.19-35.38-.11-53.06-.09-5.38,1.57-7.14,7-7.07,20.21.26,40.43.4,60.64-.05,7.87-.17,6.64,4.59,6.65,9.24s1.11,9.47-6.72,9.12c-12.93-.56-25.9,0-38.85-.24-4.91-.11-6.32,1.44-6.48,6.43C858.68,94,858.53,94,884.83,94h6.63c9.22,0,12.79,5.45,9.79,14.31-1.21,3.56-3.87,2.66-6.17,2.69-9.79.11-19.59.2-29.37,0-4.4-.1-6.61,1.25-6,5.89.09.62,0,1.26,0,1.89.41,8.78-3.59,20,1.49,25.7,5.27,5.88,16.71,1.41,25.44,1.9a133,133,0,0,0,18.94,0c6.8-.59,9.48,1.15,9.22,8.66-.23,6.61-1.17,9.44-8.75,9.23-20.2-.57-40.43-.42-60.64-.06-6.13.11-8.23-1.52-8.09-7.87C837.72,138.58,837.46,120.88,837.46,103.19Z"/><path class="cls-4" d="M146.43,101.89a63.77,63.77,0,0,1,8.95-34.39c2.29-4,3.28-5.39,8.8-2.13,9.8,5.79,11.3,11.3,7.3,21.75-4.22,11-2.93,23,1.32,34.3,6.41,17,19.89,25.61,37.45,24.09,15.86-1.38,28-12.56,31-29.73,2.7-15.52,2.57-31-7.41-44.43-2.44-3.28-1.36-4.39,1.46-6.47,13.65-10,15.3-9.72,23.25,5.56,12.61,24.25,8.53,57.4-9.37,76C232.05,164.3,203.14,169.58,180,158.6,156.22,147.29,146.92,127.11,146.43,101.89Z"/><path class="cls-4" d="M405.06,92.93c6.61-12.62,12.56-23.94,18.46-35.28C432,41.36,432,41.36,452.06,44.18c-10.27,19.09-20.12,38-30.6,56.56-4.18,7.41-6.27,14.77-5.87,23.29.52,11-.14,22.12.24,33.16.19,5.52-1.82,6.86-7.07,6.93-15.49.22-16.7.34-15.21-15.37,2.44-25.67-3.4-48.33-18.5-69.21-6.8-9.41-11.55-20.27-17.61-30.24-3.17-5.22-1.58-5.66,3.72-6.33,12.5-1.58,20.4,2.22,25.35,14.61C391.24,69.44,398.33,80.35,405.06,92.93Z"/><path class="cls-4" d="M309.53,95c0,14.83.21,29.66-.11,44.48-.11,5.4,1.62,7.15,7,7,12.29-.33,24.62.25,36.9-.22,8.23-.31,6,5.21,6.23,9.49.25,4.53.71,8.52-6.41,8.36-19.87-.46-39.75-.3-59.63-.06-5.09.06-6.36-1.77-6.33-6.6q.26-54,0-107.9c0-5,1.54-7,6.48-6.47a32.4,32.4,0,0,0,7.56,0c6.65-.92,8.68,1.72,8.46,8.38C309.2,66,309.53,80.52,309.53,95Z"/><path class="cls-4" d="M687.09,104.3c-11.7-9-10.34-21.8-10.78-33.94-.22-6-1.18-10.31-8.5-11-7.14-.7-3.33-6.77-4-10.47-.83-4.75,2.64-4.64,6-4.58,12.33.24,19.45,6,21.51,18.18.89,5.24.9,10.65,1.15,16,.36,7.78.78,15.26,10.46,17.77,4.8,1.25,2.52,5.79,2.81,8.93s.83,6.33-3.7,7.36c-7.64,1.75-9.17,7.84-9.51,14.51-.36,6.91-.06,13.91-1,20.75-1.65,11.83-12.72,18.8-24.33,16.47-4.41-.89-3.66-3.86-3.42-6.39.32-3.24-2.33-8.51,3.95-8.72,7.54-.25,8.26-4.8,8.46-10.8C676.64,126.15,675.27,113.28,687.09,104.3Z"/><path class="cls-4" d="M615.78,44.31c3.2.22,7.92-1.31,7,4.48-.59,3.82,3.73,10.28-4.75,10.76-5.66.32-7,3.93-7.45,9-1,12,1.71,25.07-9.36,34.34-1.28,1.07-.84,2.19.24,3.08,10.23,8.44,8.3,20.49,9.13,31.59.45,6,.37,11,8.61,11.79,6.74.66,3,6.95,3.62,10.72.68,4.26-2.66,4-5.59,4.16-14.09.66-21.84-6.28-22.62-20.59-.32-6,0-12-.45-18s-2.31-11.47-9-13c-5.14-1.14-4.21-4.81-4-8.09.21-3.1-1.86-7.3,3.3-8.58,8.12-2,9.37-8.55,9.8-15.4.4-6.29-.07-12.67.75-18.9C596.62,49.66,603.05,44.56,615.78,44.31Z"/><path class="cls-5" d="M164.31,56.42c33.3,11,62.27,5.46,85.61-21.38,2.46,10.46-9.11,23.44-28.4,30.64C196.68,75,172,71,164.31,56.42Z"/><path class="cls-4" d="M229.91,45.17c-15.89,12-44.7,15-58.32,6.22C186,38.9,212.17,36.11,229.91,45.17Z"/><path class="cls-4" d="M246.37,29.87c-22.84-21-72-9-80.75,19.36-3.8-5.74-1.85-10.37,1-14.73,11.94-18.39,53.51-28.12,72.12-16.95C242.88,20.05,246.16,23.19,246.37,29.87Z"/><path class="cls-5" d="M650.7,104c-.57,4.11-2.63,7.21-7,7.45s-7.12-2.59-7.36-6.79,2.35-7.09,6.71-7.36S649.77,99.88,650.7,104Z"/><path class="cls-5" d="M190.43,97.16c4.24.64,7,3.13,6.82,7.36s-3.05,6.84-7.45,6.69-6.92-3.06-6.73-7.27S186,97.27,190.43,97.16Z"/><path class="cls-5" d="M228.89,104.37c-.5,4.42-2.84,7-7.37,6.83-4-.19-6.41-2.7-6.5-6.67-.11-4.42,2.36-7.22,6.84-7.29S228.59,100,228.89,104.37Z"/><path class="cls-5" d="M672.51,104.7c-.54,4.45-3.09,6.82-7.57,6.46-4-.32-6.31-3-6.26-6.91.06-4.4,2.62-7.1,7.13-7S672.44,100.21,672.51,104.7Z"/><path class="cls-5" d="M620.86,97.15c4.4.3,7.18,2.7,7.29,7a6.42,6.42,0,0,1-6.26,7c-4.45.36-7.44-2.09-7.79-6.44S616.44,97.83,620.86,97.15Z"/><path class="cls-4" d="M814.79,88.43c-4.89-25.55-21.52-41.05-47.3-44.25C754,42.5,740.39,43.75,726.86,43c-6.47-.34-7.86,2.15-7.8,8.15.27,29.33,0,58.67.22,88,.06,8.05-3.68,18.81,1.85,23.38,4.65,3.85,15,.8,22.85.8v.29c6.62,0,13.28.46,19.86-.08,25.4-2.09,43.81-16.69,49.79-39.53A80.06,80.06,0,0,0,814.79,88.43Zm-21.28,20.51a53.74,53.74,0,0,1-4.65,16.91,62,62,0,0,1-3.51,6.61,19.47,19.47,0,0,1-3.14,3.83c-.37.36-.77.7-1.17,1.05s-1.1.89-1.69,1.32a34.53,34.53,0,0,1-4,2.51c-.57.32-1.16.62-1.76.91-9.32,4.6-21.37,6.6-29.3,4.31-2.33-.66-3.06-1.9-3.26-3.33a5.49,5.49,0,0,1-.07-.91,4.17,4.17,0,0,1,0-.5q0-.5,0-1c0-.34,0-.68,0-1-.08-12,0-24,0-36s.18-24-.08-36h0a14.45,14.45,0,0,1,0-1.78,8.35,8.35,0,0,1,.21-1.31,6.21,6.21,0,0,1,.29-.83A3.66,3.66,0,0,1,743,62l.45-.24.45-.18a8.19,8.19,0,0,1,1.82-.39l.82-.07.9,0a124.93,124.93,0,0,1,13.33.43l1.44.16a44,44,0,0,1,9.58,2.17c.44.16.86.32,1.29.5.84.34,1.67.73,2.48,1.15.41.21.8.43,1.2.66a26.7,26.7,0,0,1,3.41,2.37c.36.3.71.61,1.06.93a26.42,26.42,0,0,1,2,2.07c.33.37.64.76.95,1.16A27.36,27.36,0,0,1,786,75.26c.28.45.56.92.82,1.4s.53,1,.78,1.5.47,1,.7,1.54a63.58,63.58,0,0,1,3.28,8.66,55.14,55.14,0,0,1,2,10.49A52.33,52.33,0,0,1,793.51,108.94Z"/></g></svg>