<svg id="Layer_1" data-name="Layer 1" xmlns="http://www.w3.org/2000/svg" xmlns:xlink="http://www.w3.org/1999/xlink" viewBox="0 0 183.87 183.87"><defs><style>.cls-1{fill:url(#linear-gradient);}.cls-2{fill:url(#linear-gradient-2);}.cls-3{fill:#6e6e71;}.cls-4{fill:url(#linear-gradient-3);}.cls-5{fill:url(#linear-gradient-4);}.cls-6{fill:#97c93d;}.cls-7{fill:url(#linear-gradient-5);}.cls-8{fill:url(#linear-gradient-6);}.cls-9{fill:url(#linear-gradient-7);}</style><linearGradient id="linear-gradient" x1="59.75" y1="58.35" x2="59.75" y2="89.41" gradientUnits="userSpaceOnUse"><stop offset="0.27" stop-color="#333132"/><stop offset="1" stop-color="#888689"/></linearGradient><linearGradient id="linear-gradient-2" x1="56.69" y1="50.14" x2="93.21" y2="29.85" gradientUnits="userSpaceOnUse"><stop offset="0.5" stop-color="#333132"/><stop offset="1" stop-color="#888689"/></linearGradient><linearGradient id="linear-gradient-3" x1="92.67" y1="36.84" x2="134.45" y2="36.84" gradientUnits="userSpaceOnUse"><stop offset="0" stop-color="#467637"/><stop offset="1" stop-color="#68ab45"/></linearGradient><linearGradient id="linear-gradient-4" x1="113.56" y1="66.94" x2="134.45" y2="66.94" xlink:href="#linear-gradient-3"/><linearGradient id="linear-gradient-5" x1="57.59" y1="85.26" x2="93.27" y2="106.78" xlink:href="#linear-gradient-2"/><linearGradient id="linear-gradient-6" x1="88.74" y1="98.06" x2="129.77" y2="98.06" gradientTransform="matrix(1, -0.03, 0.03, 1, 1.72, 3.59)" xlink:href="#linear-gradient-3"/><linearGradient id="linear-gradient-7" x1="22.7" y1="148.51" x2="33.19" y2="148.51" gradientTransform="matrix(1, -0.03, 0.03, 1, 1.72, 3.59)" xlink:href="#linear-gradient-3"/></defs><title>quantox</title><polygon class="cls-1" points="49.3 90.93 70.19 79.17 49.3 42.95 49.3 90.93"/><polygon class="cls-2" points="49.3 42.95 70.19 54.87 91.08 18.81 49.3 42.95"/><polygon class="cls-3" points="70.19 79.17 70.19 54.87 49.3 42.95 70.19 79.17"/><polygon class="cls-3" points="70.19 54.87 91.08 42.95 91.08 18.81 70.19 54.87"/><polygon class="cls-4" points="92.67 18.81 113.56 54.87 134.45 42.95 92.67 18.81"/><polygon class="cls-5" points="113.56 79.17 134.45 90.92 134.45 42.95 113.56 79.17"/><polygon class="cls-6" points="113.56 54.87 113.56 79.17 134.45 42.95 113.56 54.87"/><polygon class="cls-6" points="92.67 42.95 113.56 54.87 92.67 18.81 92.67 42.95"/><polygon class="cls-7" points="91.02 93.1 70.39 80.75 49.35 92.61 90.77 117.08 91.02 93.1"/><polygon class="cls-3" points="49.35 92.61 91.02 93.1 70.39 80.75 49.35 92.61"/><polygon class="cls-6" points="134.4 92.6 113.46 80.77 92.73 93.14 134.36 116.5 134.4 92.6"/><polygon class="cls-8" points="113.46 80.77 134.36 116.5 92.73 93.14 113.46 80.77"/><path class="cls-6" d="M22.27,163.46a2.22,2.22,0,0,1-1.58.54,2.18,2.18,0,0,1-1.5-.52,1.58,1.58,0,0,1-.52-1.16h.93a.88.88,0,0,0,.26.61,1.49,1.49,0,0,0,1.71,0,.63.63,0,0,0,.2-.48c0-.37-.28-.54-.59-.59s-.78-.08-1.11-.14a1.38,1.38,0,0,1-1.28-1.4,1.42,1.42,0,0,1,.44-1,2.16,2.16,0,0,1,1.47-.53,2.06,2.06,0,0,1,1.4.49,1.51,1.51,0,0,1,.51,1.07h-.93a.85.85,0,0,0-.22-.5,1.16,1.16,0,0,0-.77-.26,1.14,1.14,0,0,0-.81.27.6.6,0,0,0-.17.42.53.53,0,0,0,.51.55c.32,0,.76.08,1.09.13a1.45,1.45,0,0,1,1.38,1.45A1.4,1.4,0,0,1,22.27,163.46Z"/><path class="cls-6" d="M26.74,163.43a2.12,2.12,0,0,1-2.89,0,3.59,3.59,0,0,1,0-4.06,2.12,2.12,0,0,1,2.89,0,3.59,3.59,0,0,1,0,4.06ZM26.09,160a1.11,1.11,0,0,0-.79-.33,1.14,1.14,0,0,0-.8.33,3.06,3.06,0,0,0,0,2.88,1.14,1.14,0,0,0,.8.33,1.11,1.11,0,0,0,.79-.33,3.06,3.06,0,0,0,0-2.88Z"/><path class="cls-6" d="M29.17,159.72v1.34h2.28v.83H29.17v2h-.91v-5h3.46v.82Z"/><path class="cls-6" d="M34.27,159.74v4.17h-.91v-4.17H31.87v-.84h3.88v.84Z"/><path class="cls-6" d="M40.84,163.91h-.91l-1-3.46-1,3.46h-.92l-1-5h.87l.7,3.48,1-3.41h.76l1,3.41L41,158.9h.84Z"/><path class="cls-6" d="M45.42,163.91l-.33-1h-2l-.33,1h-.92l1.76-5h1l1.76,5ZM44.09,160l-.71,2.12h1.43Z"/><path class="cls-6" d="M49.82,163.91,49,162h-1.1v1.9H47v-5h2.11a1.55,1.55,0,0,1,1.74,1.55,1.46,1.46,0,0,1-.92,1.41l.92,2Zm-.75-4.22h-1.2v1.5h1.21c.52,0,.82-.27.82-.74A.77.77,0,0,0,49.07,159.69Z"/><path class="cls-6" d="M51.61,163.91v-5h3.57v.82H52.53v1.17h2.34v.82H52.53v1.37h2.65v.83Z"/><path class="cls-6" d="M60.89,163.37a1.91,1.91,0,0,1-1.41.54H57.53v-5h1.95a2,2,0,0,1,1.41.53,3.58,3.58,0,0,1,0,3.94Zm-.7-3.37a1,1,0,0,0-.71-.28h-1v3.37h1a1,1,0,0,0,.71-.29,2.9,2.9,0,0,0,0-2.8Z"/><path class="cls-6" d="M62.37,163.91v-5h3.57v.82H63.28v1.17h2.34v.82H63.28v1.37h2.66v.83Z"/><path class="cls-6" d="M68.88,163.91h-1l-1.66-5h1l1.21,3.82,1.21-3.82h.92Z"/><path class="cls-6" d="M71.12,163.91v-5h3.57v.82H72v1.17h2.34v.82H72v1.37h2.66v.83Z"/><path class="cls-6" d="M75.56,163.91v-5h.91V163H78.8v.87Z"/><path class="cls-6" d="M82.5,163.43a2,2,0,0,1-1.44.57,2,2,0,0,1-1.45-.57,3.59,3.59,0,0,1,0-4.06,2.06,2.06,0,0,1,1.45-.57,2,2,0,0,1,1.44.57,3.54,3.54,0,0,1,0,4.06ZM81.85,160a1.11,1.11,0,0,0-.79-.33,1.1,1.1,0,0,0-.79.33,3.06,3.06,0,0,0,0,2.88,1.1,1.1,0,0,0,.79.33,1.11,1.11,0,0,0,.79-.33,3.06,3.06,0,0,0,0-2.88Z"/><path class="cls-6" d="M86,162.11H84.92v1.8H84v-5h2a1.61,1.61,0,1,1,0,3.21Zm0-2.42h-1v1.62h1c.61,0,.88-.32.88-.8A.77.77,0,0,0,86,159.69Z"/><path class="cls-6" d="M92.58,163.91v-3.58l-1.3,3.51h-.67l-1.3-3.55v3.62h-.88v-5h1.23L91,162.47l1.32-3.57h1.16v5Z"/><path class="cls-6" d="M94.64,163.91v-5h3.57v.82H95.55v1.17h2.34v.82H95.55v1.37h2.66v.83Z"/><path class="cls-6" d="M102.15,163.91,100,160.47v3.44h-.9v-5h1l2.14,3.39V158.9h.89v5Z"/><path class="cls-6" d="M106.11,159.74v4.17h-.91v-4.17h-1.48v-.84h3.87v.84Z"/><path class="cls-6" d="M112.84,163.91l-.35-.39a2.17,2.17,0,0,1-1.42.52,1.55,1.55,0,0,1-1.67-1.52,1.6,1.6,0,0,1,.89-1.38,1.52,1.52,0,0,1-.53-1.09,1.38,1.38,0,0,1,2.75,0,1.52,1.52,0,0,1-.94,1.34l.87.95a1.84,1.84,0,0,0,.13-.62c0-.23,0-.46,0-.61h1.29v.7h-.58a2.29,2.29,0,0,1-.3,1.12l.92,1Zm-2-2.21c-.33.19-.59.36-.59.79a.8.8,0,0,0,.89.78A1.13,1.13,0,0,0,112,163Zm.32-2.18a.51.51,0,0,0-.56.52c0,.32.27.56.47.77.31-.17.65-.33.65-.75A.52.52,0,0,0,111.13,159.52Z"/><path class="cls-6" d="M116.25,163.91v-5h.92v5Z"/><path class="cls-6" d="M120.2,159.74v4.17h-.91v-4.17H117.8v-.84h3.88v.84Z"/><path class="cls-6" d="M126.79,163.41a2,2,0,0,1-1.44.59,2,2,0,0,1-1.42-.56,3.65,3.65,0,0,1,0-4.07,2,2,0,0,1,1.42-.57,2,2,0,0,1,1.44.58,1.83,1.83,0,0,1,.48,1.09h-.94a.9.9,0,0,0-.22-.53,1,1,0,0,0-.76-.31,1.07,1.07,0,0,0-.77.33,3.24,3.24,0,0,0,0,2.89,1.07,1.07,0,0,0,.77.33.92.92,0,0,0,1-.87h.94A1.83,1.83,0,0,1,126.79,163.41Z"/><path class="cls-6" d="M131.28,163.43a2.1,2.1,0,0,1-2.88,0,3.54,3.54,0,0,1,0-4.06,2.1,2.1,0,0,1,2.88,0,3.54,3.54,0,0,1,0,4.06Zm-.65-3.47a1.1,1.1,0,0,0-.79-.33,1.11,1.11,0,0,0-.79.33,3.06,3.06,0,0,0,0,2.88,1.11,1.11,0,0,0,.79.33,1.1,1.1,0,0,0,.79-.33,3.06,3.06,0,0,0,0-2.88Z"/><path class="cls-6" d="M135.87,163.91l-2.17-3.44v3.44h-.9v-5h1l2.14,3.39V158.9h.9v5Z"/><path class="cls-6" d="M141.22,163.46a2.24,2.24,0,0,1-1.59.54,2.18,2.18,0,0,1-1.5-.52,1.62,1.62,0,0,1-.52-1.16h.93a.92.92,0,0,0,.26.61,1.24,1.24,0,0,0,.85.27,1.19,1.19,0,0,0,.86-.27.6.6,0,0,0,.2-.48c0-.37-.28-.54-.59-.59s-.78-.08-1.11-.14a1.38,1.38,0,0,1-1.27-1.4,1.41,1.41,0,0,1,.43-1,2.2,2.2,0,0,1,1.48-.53,2.08,2.08,0,0,1,1.4.49,1.55,1.55,0,0,1,.51,1.07h-.94a.85.85,0,0,0-.22-.5,1.29,1.29,0,0,0-1.57,0,.56.56,0,0,0-.17.42.53.53,0,0,0,.51.55c.31,0,.76.08,1.08.13a1.45,1.45,0,0,1,1.38,1.45A1.44,1.44,0,0,1,141.22,163.46Z"/><path class="cls-6" d="M144.28,164a1.83,1.83,0,0,1-2-2V158.9h.91V162c0,.71.33,1.2,1.06,1.2s1.05-.49,1.05-1.2V158.9h.91V162A1.83,1.83,0,0,1,144.28,164Z"/><path class="cls-6" d="M147.27,163.91v-5h.92V163h2.32v.87Z"/><path class="cls-6" d="M152.27,159.74v4.17h-.91v-4.17h-1.48v-.84h3.88v.84Z"/><path class="cls-6" d="M154.39,163.91v-5h.92v5Z"/><path class="cls-6" d="M159.55,163.91l-2.17-3.44v3.44h-.89v-5h1l2.14,3.39V158.9h.9v5Z"/><path class="cls-6" d="M164.88,163.91l-.1-.55a1.48,1.48,0,0,1-1.26.64,1.89,1.89,0,0,1-1.49-.56,2.7,2.7,0,0,1-.65-2,2.55,2.55,0,0,1,.65-2,2.15,2.15,0,0,1,1.49-.59,2.06,2.06,0,0,1,1.48.58,1.52,1.52,0,0,1,.46,1h-.93a.77.77,0,0,0-.22-.46,1,1,0,0,0-.8-.31,1.19,1.19,0,0,0-.82.34,2.12,2.12,0,0,0-.39,1.44,2.19,2.19,0,0,0,.4,1.47,1.15,1.15,0,0,0,.81.32,1,1,0,0,0,.75-.29,1.3,1.3,0,0,0,.32-1h-1.19v-.76h2.08v2.75Z"/><path d="M60.56,146.64q0,6.47-8.9,6.47a21.14,21.14,0,0,1-4.45-.41,8.86,8.86,0,0,1-3.06-1.21,5,5,0,0,1-1.77-2,6.59,6.59,0,0,1-.57-2.83v-8h4.4v8a3.58,3.58,0,0,0,.21,1.32,1.76,1.76,0,0,0,.8.87,4.71,4.71,0,0,0,1.66.47,22.88,22.88,0,0,0,2.78.14,12.63,12.63,0,0,0,2.13-.15,3.71,3.71,0,0,0,1.37-.49,1.94,1.94,0,0,0,.73-.88,3.29,3.29,0,0,0,.23-1.28v-8h4.44Z"/><path d="M67.41,152.87l2.67-3.67H75c.46,0,.86,0,1.2,0-.2-.25-.43-.58-.69-1l-.76-1.1-2.56-3.78-6.71,9.48H60.26L69.42,140a4.77,4.77,0,0,1,1.13-1.11,2.9,2.9,0,0,1,1.73-.5,3,3,0,0,1,1.68.46A4.3,4.3,0,0,1,75.1,140L84,152.87Z"/><path d="M100.08,153.11a2.74,2.74,0,0,1-.84-.14,2.54,2.54,0,0,1-.93-.63l-8.75-7.86v8.39h-4V141a3.37,3.37,0,0,1,.2-1.21,2.44,2.44,0,0,1,.54-.84,2.11,2.11,0,0,1,.77-.47,3,3,0,0,1,.91-.15,2.67,2.67,0,0,1,.82.14,3.21,3.21,0,0,1,1,.63L98.48,147v-8.39h4v11.83a3.47,3.47,0,0,1-.2,1.22,2.53,2.53,0,0,1-.54.84,2,2,0,0,1-.78.48A2.86,2.86,0,0,1,100.08,153.11Z"/><path d="M122.87,138.59,120,142.3h-5.1v10.57h-4.42V142.3h-6.7l2.86-3.71Z"/><path d="M132.18,138.35c3.47,0,6.08.6,7.82,1.78a7.31,7.31,0,0,1,0,11.21c-1.73,1.18-4.35,1.77-7.83,1.77s-6.12-.59-7.85-1.77-2.59-3.06-2.59-5.62a6.26,6.26,0,0,1,2.6-5.59C126.08,139,128.69,138.35,132.18,138.35Zm0,11a24.67,24.67,0,0,0,2.81-.13,5.12,5.12,0,0,0,1.87-.55,2.35,2.35,0,0,0,1-1.12,5.62,5.62,0,0,0,0-3.74,2.37,2.37,0,0,0-1-1.11,5.13,5.13,0,0,0-1.87-.53,24.4,24.4,0,0,0-2.81-.14,24.72,24.72,0,0,0-2.82.14,5.19,5.19,0,0,0-1.87.53,2.42,2.42,0,0,0-1,1.11,5.62,5.62,0,0,0,0,3.74,2.4,2.4,0,0,0,1,1.12,5.18,5.18,0,0,0,1.87.55A25,25,0,0,0,132.18,149.39Z"/><path d="M29.32,138.12q5.2,0,7.83,1.77a7.33,7.33,0,0,1,0,11.21q-2.61,1.77-7.84,1.77t-7.85-1.77q-2.59-1.77-2.59-5.61a6.3,6.3,0,0,1,2.6-5.6Q24.09,138.12,29.32,138.12Zm0,11a24.72,24.72,0,0,0,2.82-.14,5,5,0,0,0,1.87-.54,2.4,2.4,0,0,0,1-1.13,4.44,4.44,0,0,0,.32-1.86,4.49,4.49,0,0,0-.32-1.87,2.31,2.31,0,0,0-1-1.11,5.19,5.19,0,0,0-1.87-.54,24.72,24.72,0,0,0-2.82-.14,24.72,24.72,0,0,0-2.82.14,5.19,5.19,0,0,0-1.87.54,2.31,2.31,0,0,0-1,1.11,4.49,4.49,0,0,0-.32,1.87,4.44,4.44,0,0,0,.32,1.86,2.4,2.4,0,0,0,1,1.13,5,5,0,0,0,1.87.54A24.72,24.72,0,0,0,29.32,149.16Z"/><path d="M164.21,138.59l-4.51,4.12-1.26,1.14c-.34.31-.63.57-.87.77l-.61.51-.44.36a4.29,4.29,0,0,1,.43.32c.15.12.36.31.62.54l1,.89,1.45,1.34,4.57,4.29h-6.24l-4.87-4.71-5,4.71h-5.49l4.65-4.29,1.37-1.25.92-.82c.24-.21.44-.38.61-.51l.43-.34-.42-.33c-.16-.12-.36-.3-.6-.52L149,144c-.37-.33-.83-.76-1.39-1.29l-4.37-4.1h6.12l4.55,4.44,4.59-4.44Z"/><polygon class="cls-6" points="38.72 149.6 34.92 147.47 28.07 149.14 38.71 155.09 38.72 149.6"/><polygon class="cls-9" points="34.92 147.47 38.71 155.09 28.07 149.14 34.92 147.47"/></svg>