<svg xmlns="http://www.w3.org/2000/svg" viewBox="0 0 359.45 138.13"><defs><style>.cls-1{fill:#f8ab1b;}.cls-2{fill:#3a5d68;}.cls-3{fill:#507e8c;}.cls-4{fill:#385b67;}.cls-5{fill:#eeeef0;}.cls-6,.cls-7{fill:none;}.cls-6{stroke:#eeeef0;stroke-miterlimit:10;stroke-width:7px;}</style></defs><title>Asset 5</title><g id="Layer_2" data-name="Layer 2"><g id="Layer_1-2" data-name="Layer 1"><path class="cls-1" d="M271.6.82a70.59,70.59,0,0,1,28.86,11.36A67,67,0,0,1,318.12,30a72,72,0,0,1,10.71,24.39A43.86,43.86,0,0,1,330,63.19s-2.16,1.56-4.67,3.28c-1.11-25.72-19.18-49.9-43.55-58.21s-53.47-.19-70,19.55S192.42,77.65,205,100.14a66.57,66.57,0,0,0,39.12,31,60.29,60.29,0,0,0,35.76-.26c11.86-4,21.89-12,30.87-20.48,4.42-4.18,8.57-8.62,12.83-13,4.51-4.59,13.67-14,13.67-14l5.84-5.77-4.89-5,21.29-8.29L351.2,86l-4.81-5s-13.53,13.53-20.26,20.67c-8,8.45-16.07,16.9-25.61,23.6a64.23,64.23,0,0,1-10.72,6.33,69,69,0,0,1-54.08,1.9,69.15,69.15,0,0,1-34-99.85A70.47,70.47,0,0,1,237.49,4.18,68.1,68.1,0,0,1,271.6.82Z"/><path class="cls-2" d="M0,61a6.5,6.5,0,0,1,4.38-.32c.93.15,1,1,1.28,1.68q3,8.84,6.05,17.69c.42,1.23.85,2.45,1.29,3.72.62-.29.58-.92.74-1.38,2.25-6.61,4.47-13.23,6.72-19.84.24-.71.24-1.66,1.25-1.88a7.12,7.12,0,0,1,3.7,0c.4.13.44.49.44.86a5.05,5.05,0,0,1-.42,1.74q-4.36,12.18-8.74,24.36c-.59,1.63-.78,1.76-2.48,1.84-4.22.21-4.22.21-5.64-3.76Q4.48,74.34.39,62.94c-.1-.27-.07-.61-.39-.77Z"/><path class="cls-3" d="M202.86,62.91a59.45,59.45,0,0,1,2.69-12.56c7.5-20.71,22-33.74,43.58-37.94a55.72,55.72,0,0,1,41.27,8.13,56.93,56.93,0,0,1,10.75,9.14,63.85,63.85,0,0,1,8.28,11.7c5,8.71,5.62,15.22,5.62,15.22a12.11,12.11,0,0,0-1.72.08c-4.09,1-6.12,5.81-6.63,9.87-.13,1-1.83,1.38-2.67,1.63-5,1.51-10.27,2-15.25,3.54a1.6,1.6,0,0,1-2-.6,11.06,11.06,0,0,0-17,0,1.49,1.49,0,0,1-1.9.53c-4.69-1.53-9.4-3-14.13-4.42a2,2,0,0,1-1.67-2A11.13,11.13,0,0,0,237.47,56a11,11,0,0,0-7.54,8.71A1.35,1.35,0,0,1,228.64,66q-7,1.44-14,3a1.27,1.27,0,0,1-1.65-.69,10.73,10.73,0,0,0-8.64-5.18A3.92,3.92,0,0,1,202.86,62.91Z"/><path class="cls-4" d="M315.19,78.17s-.74,3.67-1.27,5.32c-7.09,22.17-22,36.07-44.87,40.27-28.69,5.26-54.92-12.09-63.54-38-.06-.19-.11-.38-.17-.58a11.18,11.18,0,0,0,9.09-8.86c.19-.78.07-1.75.69-1.88,4.73-1,10-1.14,14.72-2.22a1.57,1.57,0,0,1,2,.71,11.11,11.11,0,0,0,17.72.73,1.39,1.39,0,0,1,1.76-.52c4.84,1.56,10.39,1.76,15.26,3.23A2.16,2.16,0,0,1,268.3,78c.69,6,4.31,11.5,10.24,11.41a11.29,11.29,0,0,0,10.87-10.21,1.48,1.48,0,0,1,1.24-1.5q7.24-2.17,14.44-4.46c.94-.3,2-1.24,2.66-.37C309.66,75.54,315.19,78.17,315.19,78.17Z"/><path class="cls-2" d="M153.35,73.16c0,2.53,0,6,0,8.49,0,2.1,0,4.2,0,6.3,0,1.11-.43,1.49-1.47,1.57-3.29.27-3.48.12-3.48-3.14q0-18.52,0-37c0-1.8.14-1.95,1.92-2.07a8,8,0,0,1,1.2,0c1.65.14,1.81.32,1.81,2q0,11.55,0,23.11c.61.15,7.77-8,10.77-11.29,1.1-.74,3.37-.65,4.93-.41.75.11,1.47.14.39,1.38-.53.56-6.83,7.14-9.74,10-.67.65-.6,1-.08,1.69q5.12,6.56,10.16,13.17c.44.57,1.19,1.15.83,2s-1.38.65-2.15.68c-3.92.15-2.54.46-4.65-2.22C160.64,83.27,153.45,73.13,153.35,73.16Z"/><path class="cls-2" d="M43.62,76c-2.7,0-5.4,0-8.1,0-1.06,0-1.32.37-1.16,1.31.11.64.09,1.3.21,1.94.78,4.2,3.48,6.47,7.8,6.66A20,20,0,0,0,51,84.23c1.61-.67,2-.36,2.07,1.4s-.24,2.14-1.78,2.72a21.72,21.72,0,0,1-13.08,1.06,10.64,10.64,0,0,1-8.06-7.5,21,21,0,0,1,.15-13.69A12.84,12.84,0,0,1,49.12,61.9c3,2,4.39,4.94,4.86,8.4a22.55,22.55,0,0,1,.19,3.44c0,1.66-.66,2.24-2.3,2.26C49.12,76,46.37,76,43.62,76Zm-2-3.64h4.79c3.13,0,3.17,0,2.41-3.13a6.17,6.17,0,0,0-4.61-5c-5.15-1.31-9.49,1.94-9.87,7.33-.06.8.3.78.85.78Z"/><path class="cls-2" d="M130.24,76c-2.75,0-5.49,0-8.24,0-.87,0-1.18.26-1,1.11s.17,1.69.35,2.52c.83,3.85,3.38,6,7.35,6.25a19.64,19.64,0,0,0,8.9-1.6c1.69-.7,2.1-.4,2.12,1.45a2.43,2.43,0,0,1-1.7,2.65,22.08,22.08,0,0,1-13.37,1,10.45,10.45,0,0,1-7.7-7.09,20.42,20.42,0,0,1,.38-14.92c3-7,12.28-9.63,18.63-5.36,3.06,2.06,4.32,5.12,4.75,8.62a23,23,0,0,1,.1,3.29c0,1.48-.63,2.06-2.13,2.08C135.84,76,133,76,130.24,76Zm-1.91-3.64h6.59c.45,0,.92.06.89-.65-.17-5.36-3.24-8.52-8.83-7.57-3.3.56-5.41,3.3-6,7.19-.11.78,0,1.07.88,1C124,72.33,126.19,72.36,128.33,72.36Z"/><path class="cls-2" d="M98.7,73.91c0-2.7,0-5.4,0-8.1,0-.78-.22-1.08-1-1a20.56,20.56,0,0,1-2.1,0c-1.26,0-1.6-.33-1.69-1.57A6.85,6.85,0,0,1,94,61.74a1.13,1.13,0,0,1,1.32-1.1c.85,0,1.7,0,2.55,0,.65,0,.88-.19.86-.85,0-1.65.06-3.3,0-4.95-.06-1.14.5-1.52,1.47-1.64.2,0,.4,0,.6,0,2.73-.11,3,.14,3,2.86,0,1.2,0,2.4,0,3.6,0,.78.24,1,1,1,1.8-.05,3.6,0,5.4,0,1,0,1.47.43,1.49,1.41,0,.45,0,.9,0,1.35a1.3,1.3,0,0,1-1.52,1.43c-1.75,0-3.5,0-5.25,0-.79,0-1.16.14-1.15,1,0,5,0,10,.06,15,.08,4.29,2.13,5.64,6.17,4.27,1.47-.5,1.63-.39,1.7,1.17.1,2.35-.32,2.91-2.61,3.38a12.45,12.45,0,0,1-4.77,0A6.29,6.29,0,0,1,99,84.24a44.11,44.11,0,0,1-.31-7.63C98.68,75.71,98.7,74.81,98.7,73.91Z"/><path class="cls-2" d="M66.27,64.9c1.12-1.07,2-2.17,3-3.1a7,7,0,0,1,7.15-1.3A1.49,1.49,0,0,1,77.65,62c0,.3,0,.6,0,.9,0,2.72-.06,2.78-2.7,2.09a4.71,4.71,0,0,0-4.71,1.16A22.91,22.91,0,0,0,67,70.28,2.89,2.89,0,0,0,66.75,72q0,7.72,0,15.44c0,1.83-.15,2-1.91,2.06-3,.13-3.07.07-3.07-3q0-12,0-24c0-1.91.2-2.11,2.14-2.11a11.15,11.15,0,0,1,1.34.11,1.05,1.05,0,0,1,1,1.21C66.25,62.83,66.27,63.86,66.27,64.9Z"/><path class="cls-4" d="M88.28,75.09c0,4.24,0,8.49,0,12.73,0,1.47-.14,1.59-1.63,1.69-3.18.21-3.3.11-3.3-3q0-12,0-24c0-1.8.11-1.91,1.92-2.06h.45c2.34,0,2.56.18,2.56,2.49Q88.28,69,88.28,75.09Z"/><path class="cls-2" d="M88.86,52.32c0,2.26-.76,3-3.11,2.95s-3-.71-3-3,.75-3,3.11-2.95S88.87,50,88.86,52.32Z"/><circle class="cls-5" cx="241.05" cy="66.61" r="11.49"/><circle class="cls-5" cx="278.93" cy="77.98" r="11.49"/><line class="cls-6" x1="203.3" y1="73.94" x2="241.05" y2="66.61"/><line class="cls-6" x1="241.05" y1="66.61" x2="278.93" y2="77.98"/><line class="cls-6" x1="278.93" y1="77.98" x2="311.6" y2="68.81"/><path class="cls-5" d="M205.3,85.29a11.48,11.48,0,0,0-1.66-22.84c-.25,0-.49,0-.73,0-.17,1.81-.27,3.65-.27,5.51A57.18,57.18,0,0,0,205.3,85.29Z"/><path class="cls-5" d="M305.32,67.13a11.48,11.48,0,0,0,9.84,11.36,57.06,57.06,0,0,0-.24-22.68A11.48,11.48,0,0,0,305.32,67.13Z"/><path class="cls-7" d="M321.63,80.13"/></g></g></svg>