<?xml version="1.0" encoding="utf-8"?>
<!-- Generator: Adobe Illustrator 22.0.0, SVG Export Plug-In . SVG Version: 6.00 Build 0)  -->
<svg version="1.1" id="Layer_1" xmlns="http://www.w3.org/2000/svg" xmlns:xlink="http://www.w3.org/1999/xlink" x="0px" y="0px"
	 viewBox="0 0 1128 675.5" style="enable-background:new 0 0 1128 675.5;" xml:space="preserve">
<style type="text/css">
	.st0{clip-path:url(#SVGID_2_);fill:#1D1D1B;}
	.st1{clip-path:url(#SVGID_2_);fill:#FFFFFF;}
	.st2{clip-path:url(#SVGID_2_);fill:#D2D2D1;}
	.st3{clip-path:url(#SVGID_2_);fill:#E50914;}
</style>
<g>
	<defs>
		<rect id="SVGID_1_" y="82.5" width="1128" height="488"/>
	</defs>
	<clipPath id="SVGID_2_">
		<use xlink:href="#SVGID_1_"  style="overflow:visible;"/>
	</clipPath>
	<path class="st0" d="M514.8,297.3c1.7-1.2,3.6-1.7,5.7-1.7c2.5,0,4.8,0.8,6.7,2.4c1.9,1.6,2.8,3.8,2.8,6.6c0,1.2-0.3,2.8-0.9,4.6
		l-23.3,63c-0.8,2.2-2.2,3.8-4.2,5c-2,1.2-4.3,1.8-6.8,1.8c-2.5,0-4.7-0.6-6.7-1.8c-2-1.2-3.4-2.9-4.2-5l-15-43l-15.7,43
		c-0.9,2.2-2.3,3.8-4.3,5c-2,1.2-4.2,1.8-6.6,1.8c-2.5,0-4.7-0.6-6.7-1.8c-2-1.2-3.4-2.9-4.2-5l-23.4-63c-0.5-1.5-0.8-3-0.8-4.4
		c0-2.9,1-5.1,3.1-6.8c2-1.7,4.4-2.5,7.1-2.5c2.2,0,4.1,0.6,6,1.7c1.8,1.1,3.1,2.8,3.9,5l15.9,45.6l16.8-45.6c0.8-2.2,2-3.8,3.8-5
		c1.7-1.2,3.6-1.7,5.7-1.7c2.1,0,4,0.6,5.7,1.7c1.7,1.2,2.9,2.9,3.7,5.1l15.7,46.5l16.6-46.7C511.8,300.1,513.1,298.5,514.8,297.3"
		/>
	<path class="st0" d="M544.7,375.5c-1.7-1.7-2.5-4.1-2.5-7.3v-61.9c0-3.2,0.8-5.6,2.5-7.3c1.7-1.7,4.1-2.5,7.3-2.5H592
		c3.3,0,5.8,0.7,7.5,2.1c1.7,1.4,2.5,3.4,2.5,6c0,5.6-3.4,8.3-10.1,8.3h-29.2v15.5h26.9c6.7,0,10.1,2.7,10.1,8.2
		c0,2.6-0.8,4.6-2.5,6c-1.7,1.4-4.2,2.1-7.5,2.1h-26.9v16.9H592c6.7,0,10.1,2.8,10.1,8.3c0,2.6-0.8,4.6-2.5,6
		c-1.7,1.4-4.2,2.1-7.5,2.1H552C548.8,378,546.4,377.2,544.7,375.5"/>
	<path class="st0" d="M681.5,343c2.5,3.4,3.8,7.7,3.8,12.7c0,4.5-1.2,8.4-3.5,11.8c-2.4,3.4-5.7,6-10.1,7.8
		c-4.4,1.9-9.5,2.8-15.3,2.8h-30.8c-3.2,0-5.6-0.8-7.3-2.5c-1.7-1.7-2.5-4.1-2.5-7.3v-61.9c0-3.2,0.9-5.6,2.5-7.3
		c1.7-1.7,4.1-2.5,7.3-2.5h29.6c8.6,0,15.4,1.9,20.4,5.7c5.1,3.8,7.6,9,7.6,15.5c0,4.2-1.1,7.9-3.4,11.1c-2.2,3.2-5.4,5.5-9.4,7
		C675.3,337.1,679,339.6,681.5,343 M636.5,328.5h15.2c4,0,6.9-0.6,8.8-1.9c1.9-1.2,2.8-3.2,2.8-5.9c0-2.9-0.9-4.9-2.8-6.3
		c-1.9-1.3-4.8-2-8.8-2h-15.2V328.5z M662.8,359.9c1.8-1.4,2.7-3.6,2.7-6.7c0-3.1-0.9-5.3-2.7-6.7c-1.8-1.4-4.8-2-9.1-2h-17.3v17.4
		h17.3C658,361.9,661,361.2,662.8,359.9"/>
	<path class="st0" d="M702.4,375.5c-1.7-1.7-2.5-4.1-2.5-7.3v-61.9c0-3.2,0.8-5.6,2.5-7.3c1.7-1.7,4.1-2.5,7.3-2.5h40.1
		c3.3,0,5.8,0.7,7.5,2.1c1.7,1.4,2.5,3.4,2.5,6c0,5.6-3.4,8.3-10.1,8.3h-29.2v15.5h26.9c6.7,0,10.1,2.7,10.1,8.2
		c0,2.6-0.8,4.6-2.5,6c-1.7,1.4-4.2,2.1-7.5,2.1h-26.9v16.9h29.2c6.7,0,10.1,2.8,10.1,8.3c0,2.6-0.8,4.6-2.5,6
		c-1.7,1.4-4.2,2.1-7.5,2.1h-40.1C706.5,378,704,377.2,702.4,375.5"/>
	<path class="st0" d="M776,375.5c-1.7-1.7-2.5-4.2-2.5-7.4v-61.8c0-3.2,0.9-5.7,2.8-7.6c1.9-1.9,4.5-2.8,7.7-2.8
		c3.3,0,5.9,0.9,7.9,2.8c1.9,1.9,2.9,4.4,2.9,7.6v54.5h26.6c6.7,0,10.1,2.9,10.1,8.7c0,2.9-0.8,5.1-2.5,6.5
		c-1.7,1.4-4.2,2.1-7.6,2.1h-38.1C780.1,378,777.7,377.2,776,375.5"/>
	<path class="st0" d="M845,375.9c-1.9-1.9-2.8-4.5-2.8-7.7v-61.9c0-3.2,0.9-5.7,2.8-7.6c1.9-1.9,4.5-2.8,7.7-2.8
		c3.3,0,5.9,0.9,7.9,2.8c1.9,1.9,2.9,4.4,2.9,7.6v61.9c0,3.2-1,5.8-2.9,7.7c-1.9,1.9-4.6,2.8-7.9,2.8
		C849.5,378.7,846.9,377.8,845,375.9"/>
	<path class="st0" d="M951.8,298.7c1.9,1.9,2.8,4.4,2.8,7.5v61.9c0,3.2-0.9,5.7-2.8,7.6c-1.9,1.9-4.2,2.9-7.2,2.9
		c-3.5,0-6.1-1.2-7.9-3.5l-35.2-43.9v36.8c0,3.2-0.9,5.7-2.7,7.6c-1.8,1.9-4.2,2.9-7.2,2.9c-2.9,0-5.3-1-7.2-2.9
		c-1.9-1.9-2.8-4.5-2.8-7.6v-61.9c0-3.1,0.9-5.6,2.8-7.5c1.9-1.9,4.2-2.9,7.2-2.9c3.3,0,5.9,1.2,7.8,3.5l35.2,43.8v-36.8
		c0-3.2,0.9-5.7,2.7-7.6c1.8-1.9,4.2-2.8,7.1-2.8C947.5,295.8,949.9,296.8,951.8,298.7"/>
	<path class="st0" d="M1041.3,369c0,2.6-1,4.9-3.1,6.9c-2,2-4.3,3-6.9,3c-2.7,0-5.1-1.2-7.1-3.5l-19.9-23.8l-20.3,23.8
		c-2,2.3-4.3,3.5-6.9,3.5c-2.5,0-4.8-1-6.9-3c-2-2-3.1-4.3-3.1-6.9c0-2.2,0.8-4.3,2.4-6.3l22.2-25.7l-21.6-25.1
		c-1.7-2-2.5-4.1-2.5-6.3c0-2.6,1-4.9,3.1-6.9c2-2,4.4-3,7-3c2.7,0,5.1,1.2,7.1,3.5l19.6,23.2l19.5-23.2c1.9-2.3,4.1-3.5,6.8-3.5
		c2.6,0,5,1,7,3c2,2,3.1,4.3,3.1,6.9c0,2.2-0.8,4.3-2.4,6.3l-21.6,25.1l22.1,25.7C1040.5,364.5,1041.3,366.7,1041.3,369"/>
	<path class="st0" d="M636.8,420.2c0.7,0.7,1.1,1.6,1.1,2.8v9.7c0,1.9-0.1,3.3-0.4,4.3c-0.3,1-0.8,1.8-1.5,2.3
		c-0.7,0.6-1.8,1-3.3,1.5c-1.5,0.4-3.1,0.7-4.8,0.9c-1.8,0.2-3.4,0.3-4.9,0.3c-4.3,0-8-0.8-11.2-2.4c-3.2-1.6-5.6-3.9-7.2-7
		c-1.7-3-2.5-6.6-2.5-10.8c0-4.1,0.8-7.7,2.5-10.7c1.7-3,4.1-5.4,7.2-7c3.1-1.6,6.7-2.5,10.8-2.5c2.6,0,4.9,0.3,7,0.9
		c2.1,0.6,4,1.6,5.8,2.8c0.6,0.4,1.1,0.9,1.4,1.5c0.3,0.5,0.4,1.2,0.4,2c0,1.2-0.3,2.1-1,2.9c-0.6,0.8-1.4,1.2-2.3,1.2
		c-0.6,0-1.1-0.1-1.5-0.3c-0.4-0.2-1-0.5-1.6-0.9c-1.4-0.7-2.7-1.3-3.9-1.6c-1.2-0.3-2.5-0.5-3.9-0.5c-3.5,0-6.2,1-7.9,3
		c-1.7,2-2.6,5-2.6,9.1c0,4.2,0.9,7.3,2.7,9.4c1.8,2,4.6,3,8.3,3c1.8,0,3.6-0.2,5.3-0.6v-7.3h-4c-1.2,0-2.2-0.3-2.8-0.9
		c-0.7-0.6-1-1.5-1-2.6c0-1.1,0.3-2,1-2.6c0.7-0.6,1.6-0.9,2.8-0.9h9.2C635.1,419.2,636,419.5,636.8,420.2"/>
	<path class="st0" d="M694.4,437.2c0,1.2-0.5,2.2-1.4,3c-1,0.8-2,1.2-3.3,1.2h-31.6c-1.3,0-2.4-0.4-3.4-1.2c-1-0.8-1.5-1.8-1.5-3
		c0-0.5,0.2-1.2,0.5-2.1l14.8-30.3c0.5-1,1.3-1.8,2.2-2.3c1-0.5,2-0.8,3.1-0.8c1.1,0,2.2,0.3,3.1,0.8s1.7,1.3,2.2,2.3l14.8,30.3
		C694.3,435.8,694.4,436.5,694.4,437.2 M674,412.9l-9.2,20.2H683L674,412.9z"/>
	<path class="st0" d="M748.6,403.2c0.9,0.9,1.3,2.1,1.3,3.6v30.4c0,1.4-0.4,2.5-1.2,3.4c-0.8,0.8-1.9,1.2-3.2,1.2
		c-1.3,0-2.4-0.4-3.2-1.2c-0.8-0.8-1.3-1.9-1.3-3.4v-16.4l-6.4,11.7c-0.6,1.2-1.3,2-2,2.5c-0.7,0.5-1.5,0.8-2.5,0.8
		c-1,0-1.8-0.3-2.5-0.8c-0.7-0.5-1.4-1.4-2-2.5l-6.3-11.4v16.1c0,1.4-0.4,2.5-1.3,3.3c-0.8,0.8-1.9,1.3-3.3,1.3
		c-1.3,0-2.4-0.4-3.2-1.2c-0.8-0.8-1.3-1.9-1.3-3.4v-30.4c0-1.5,0.5-2.7,1.4-3.6c0.9-0.9,2.1-1.4,3.5-1.4c1,0,1.9,0.3,2.7,0.9
		c0.8,0.6,1.5,1.4,2.1,2.5l10.3,19.3l10.2-19.3c1.2-2.2,2.7-3.4,4.7-3.4C746.5,401.8,747.7,402.2,748.6,403.2"/>
	<path class="st0" d="M770.4,440.2c-0.8-0.8-1.2-2-1.2-3.5v-29.9c0-1.5,0.4-2.7,1.2-3.5c0.8-0.8,2-1.2,3.5-1.2h19.3
		c1.6,0,2.8,0.3,3.6,1c0.8,0.7,1.2,1.6,1.2,2.9c0,2.7-1.6,4-4.9,4h-14.1v7.5h13c3.2,0,4.9,1.3,4.9,4c0,1.3-0.4,2.2-1.2,2.9
		c-0.8,0.7-2,1-3.6,1h-13v8.2h14.1c3.2,0,4.9,1.3,4.9,4c0,1.3-0.4,2.2-1.2,2.9c-0.8,0.7-2,1-3.6,1H774
		C772.4,441.4,771.3,441,770.4,440.2"/>
	<path class="st0" d="M821.3,441c-2.6-0.6-4.6-1.6-6.3-2.7c-0.6-0.5-1.1-1-1.4-1.5c-0.3-0.5-0.4-1.2-0.4-2c0-1.1,0.3-2.1,1-2.9
		c0.7-0.8,1.5-1.2,2.3-1.2c0.5,0,0.9,0.1,1.4,0.2c0.4,0.1,1,0.4,1.7,0.8c1.5,0.9,3,1.5,4.6,1.8c1.5,0.4,3.2,0.6,5.1,0.6
		c2.2,0,3.9-0.3,5-1c1.1-0.7,1.7-1.6,1.7-2.9c0-0.9-0.5-1.6-1.6-2.2c-1.1-0.6-3.1-1.2-6.1-1.8c-3.7-0.8-6.6-1.7-8.7-2.8
		c-2.1-1.1-3.5-2.4-4.4-3.8c-0.8-1.5-1.3-3.3-1.3-5.3c0-2.4,0.7-4.5,2.1-6.5c1.4-1.9,3.4-3.5,5.8-4.6c2.5-1.1,5.3-1.6,8.4-1.6
		c2.7,0,5.1,0.3,7.3,0.9c2.1,0.6,4.1,1.5,5.8,2.8c0.7,0.5,1.1,1,1.4,1.5c0.3,0.5,0.4,1.2,0.4,2c0,1.1-0.3,2.1-1,2.9
		c-0.7,0.8-1.4,1.2-2.3,1.2c-0.5,0-0.9-0.1-1.3-0.2c-0.4-0.1-1-0.4-1.7-0.9c-0.2-0.1-0.7-0.4-1.6-0.9c-0.9-0.5-1.9-0.8-3.1-1.1
		c-1.2-0.3-2.5-0.4-3.8-0.4c-1.9,0-3.4,0.4-4.6,1.1c-1.2,0.7-1.7,1.7-1.7,2.9c0,0.7,0.2,1.3,0.6,1.7c0.4,0.4,1.2,0.9,2.3,1.3
		c1.1,0.4,2.8,0.9,5,1.3c3.6,0.8,6.4,1.7,8.4,2.8c2,1.1,3.5,2.4,4.4,3.8c0.9,1.5,1.3,3.2,1.3,5.1c0,2.5-0.7,4.6-2.1,6.5
		s-3.3,3.3-5.8,4.4c-2.5,1-5.4,1.5-8.6,1.5C826.6,441.9,823.8,441.6,821.3,441"/>
	<path class="st1" d="M352.9,341.5l-22.3-17c-9.9-30.6-30.8-55.6-57.7-70.9c11.1,1.9,23-1.2,31.9-9.4c13.5-12.3,16.1-32.1,7.4-47.3
		c-0.6-1.3-1.4-2.6-2.3-3.7c-0.8-1-1.6-1.9-2.5-2.9c-12.8-14-30.2-22.3-49.2-23.2c-19-0.9-37.1,5.6-51.2,18.4
		c-15.4,14-23.6,34-23.2,54.3C126.6,252.2,84,303.4,84,363.5c0,69.7,56.7,126.4,126.4,126.4c54.8,0,103.5-35.7,120.2-87.5l22.3-17
		c6.9-5.2,10.9-13.2,10.9-21.9C363.8,354.8,359.8,346.8,352.9,341.5"/>
	<path class="st2" d="M253.4,428.4c-54,5-101.8-34.8-106.8-88.7c-2.1-22.3,3.5-43.6,14.6-61.2c-32.1,18.6-52.2,54.6-48.6,94
		c5,54,52.8,93.7,106.8,88.7c31.7-2.9,58.4-20.6,74.1-45.6C281.6,422.6,268,427.1,253.4,428.4"/>
	<path class="st3" d="M342.9,354.8l-26.7-20.2c-12.1-44.4-51.6-77.7-99.1-80.6c-1.8-9,1-18.7,8.3-25.3c10.8-9.8,27.5-9.2,37.5,1.4
		c0,0,0,0,0,0c-0.3-0.3-0.4-0.6-0.7-1c0.4,0.5,0.7,1,1.1,1.5c8,8.8,21.5,9.4,30.3,1.5c8.8-8,9.4-21.5,1.5-30.3
		c0.7,0.7,1.2,1.5,1.8,2.3c0.1,0,0.1-0.1,0.2-0.1c-0.6-0.8-1.2-1.5-1.9-2.2c-20.2-22.2-54.6-23.9-76.9-3.7
		c-16.1,14.6-21.3,36.6-15.4,56.1c-57,3.9-102.2,51.5-102.2,109.4c0,60.5,49.2,109.7,109.7,109.7c50.5,0,93.1-34.3,105.8-80.8
		l26.7-20.2C348.6,367.8,348.6,359.2,342.9,354.8 M123.7,363.5c0-2.8,0.1-5.6,0.4-8.3c0.1,0,0.1,0,0.2,0c3.5-0.2,7.1,0.3,10.6,0.5
		c3.5,0.5,7,1.2,10.4,1.9l5.1,1.5c1.7,0.5,3.4,1,5,1.8c13.1,5.3,24.4,14,33.1,24.4c8.6,10.6,14.6,22.7,18.2,35.2
		c1.1,3.1,1.5,6.3,2.3,9.5c0.5,3.2,0.9,6.4,1.3,9.6c0.1,3.2,0.4,6.5,0.4,9.7c0,0.3,0,0.5,0,0.8c-0.2,0-0.3,0-0.5,0
		C162.6,450.1,123.7,411.2,123.7,363.5 M237.3,445.8c-0.1-2.9-0.3-5.8-0.4-8.8c-0.6-4.2-1.2-8.4-2.1-12.6l-1.8-6.1
		c-0.6-2-1.2-4.1-2-6c-6.1-15.9-16.3-29.8-28.8-40.6c-12.7-10.6-27.4-18.2-42.7-22.6c-1.9-0.7-3.8-1.1-5.8-1.5l-5.8-1.3
		c-3.9-0.7-7.9-1.1-11.8-1.6l-10.1-0.4c8.7-38.6,43.3-67.6,84.5-67.6c47.8,0,86.6,38.9,86.6,86.6C297,401.8,271.9,434.4,237.3,445.8
		"/>
	<path class="st3" d="M247.2,310.1c-13.2,0-23.8,10.7-23.8,23.8c0,13.2,10.7,23.8,23.8,23.8c13.2,0,23.8-10.7,23.8-23.8
		C271.1,320.8,260.4,310.1,247.2,310.1"/>
	<path class="st1" d="M243.6,328.2c0,5.2,4.2,9.4,9.4,9.4s9.4-4.2,9.4-9.4c0-5.2-4.2-9.4-9.4-9.4S243.6,323.1,243.6,328.2"/>
</g>
</svg>
