<svg width="100%" height="100%" viewBox="0 0 300 84" fill="none" xmlns="http://www.w3.org/2000/svg">
    <path d="M121.131 29.378C118.384 26.4878 113.59 25.2195 109.714 25.2195C104.852 25.2195 100.904 27.2634 100.904 30.6463C100.904 35.1561 105.203 36.0024 111.547 36.567C121.271 37.4134 130.505 41.1463 130.505 52.5646C130.505 63.5597 120.356 68.3524 109.714 68.4219C101.186 68.4939 92.3055 65.1817 88.147 58.2731L94.7019 51.4365C98.5079 56.2999 104.781 58.4146 109.784 58.4146C115.635 58.4146 119.652 56.089 119.652 52.5646C119.723 48.4073 116.41 46.5036 109.714 45.9402C99.2823 44.9536 89.9799 42.3451 90.1214 30.717C90.1921 20.9207 99.4945 15.7061 109.643 15.7061C117.256 15.7061 122.964 17.3963 128.038 23.317L121.131 29.378Z" fill="#E3006A"/>
    <path d="M142.937 22.4718V32.1974H151.747V40.6547H142.867V53.762C142.867 57.4291 144.91 58.4157 146.812 58.4157C148.011 58.4157 149.914 58.1328 151.042 57.5694L153.367 66.0267C150.831 67.0133 148.787 67.4377 146.038 67.5767C138.497 67.9303 132.788 64.6181 132.788 53.762V23.5998L142.937 22.4718Z" fill="#E3006A"/>
    <path d="M163.994 49.3922C163.994 55.1703 168.082 58.5544 173.156 58.5544C178.865 58.5544 182.389 54.113 182.389 49.7435C182.389 44.7398 179.217 40.1581 173.156 40.1581C168.082 40.1581 163.994 43.6118 163.994 49.3922ZM182.74 31.9837H192.255V66.7996H183.093L182.529 62.43C180.205 66.0947 175.2 67.5057 171.817 67.5752C161.387 67.6459 153.845 60.8788 153.845 49.3922C153.845 37.8325 161.809 31.0666 172.099 31.2081C176.468 31.2081 180.556 32.8996 182.389 36.002L182.74 31.9837Z" fill="#E3006A"/>
    <path d="M233.098 22.4718V32.1974H241.908V40.6547H233.028V53.762C233.028 57.4291 235.071 58.4157 236.974 58.4157C238.172 58.4157 240.075 58.1328 241.203 57.5694L243.528 66.0267C240.992 67.0133 238.948 67.4377 236.199 67.5767C228.658 67.9303 222.949 64.6181 222.949 53.762V23.5998L233.098 22.4718Z" fill="#E3006A"/>
    <path d="M256.826 31.9841V50.378C256.826 55.7354 259.152 58.4854 264.015 58.4854C268.737 58.5549 271.909 54.4671 271.909 49.9561V31.9841H281.916V66.8H272.754L272.402 62.2195C269.3 66.378 265.353 67.5756 261.126 67.5061C253.303 67.5061 246.606 63.9817 246.606 50.45V31.9841H256.826Z" fill="#E3006A"/>
    <path d="M288.138 22.7519C288.138 30.3641 299.626 30.3641 299.626 22.7519C299.626 15.1397 288.138 15.1397 288.138 22.7519ZM298.851 31.9141V68.4933C299.133 82.3763 287.787 84.9848 278.906 79.8397L281.795 72.4385C285.672 74.4128 288.772 74.2019 288.772 68.775V31.9141H298.851Z" fill="#E3006A"/>
    <path d="M219.76 31.3751C219.055 31.2678 218.329 31.2105 217.569 31.2105C213.693 31.2105 210.592 32.6203 208.266 35.8629L207.491 32.0569H198.047V66.802H208.196V48.6886C208.196 43.4739 211.931 40.6556 216.301 40.6556C217.562 40.6556 218.69 40.8825 219.76 41.2983V31.3751Z" fill="#E3006A"/>
    <path d="M41.3317 0.535767C18.5049 0.535767 0 19.0406 0 41.8675C0 64.6943 18.5049 83.2004 41.3317 83.2004C64.1585 83.2004 82.6646 64.6943 82.6646 41.8675C82.6646 19.0406 64.1585 0.535767 41.3317 0.535767Z" fill="#E3006A"/>
    <path d="M41.3317 46.3273V66.5407L59.5719 36.3309H41.3317V16.1175L23.0914 46.3273H41.3317Z" fill="white"/>
</svg>
