<?xml version="1.0" standalone="no"?>
<!DOCTYPE svg PUBLIC "-//W3C//DTD SVG 20010904//EN"
 "http://www.w3.org/TR/2001/REC-SVG-20010904/DTD/svg10.dtd">
<svg version="1.0" xmlns="http://www.w3.org/2000/svg"
 width="2480.000000pt" height="2480.000000pt" viewBox="0 0 2480.000000 2480.000000"
 preserveAspectRatio="xMidYMid meet">
<metadata>
Created by potrace 1.11, written by Peter Selinger 2001-2013
</metadata>
<g transform="translate(0.000000,2480.000000) scale(0.100000,-0.100000)"
fill="#000000" stroke="none">
<path d="M11945 16059 c-1135 -23 -2303 -189 -2911 -414 -300 -111 -508 -251
-578 -388 -77 -152 -53 -290 78 -448 78 -95 199 -190 461 -364 233 -155 276
-188 259 -204 -5 -5 -450 -311 -989 -681 -539 -369 -990 -683 -1003 -698 -40
-47 -168 -319 -265 -567 -109 -276 -216 -569 -382 -1045 -64 -184 -152 -436
-196 -560 -242 -676 -279 -829 -279 -1141 0 -227 31 -389 110 -572 130 -300
229 -422 1322 -1618 504 -552 915 -1005 913 -1007 -1 -1 -127 28 -279 66
l-276 70 0 -1669 c0 -918 3 -1669 8 -1669 4 0 220 52 479 117 l473 118 2 472
3 472 381 -477 380 -478 665 -111 c365 -61 665 -110 666 -109 1 1 -308 374
-687 828 -380 455 -690 830 -690 834 0 5 813 983 1233 1483 81 96 145 176 143
178 -6 6 -1330 -218 -1336 -226 -3 -4 -174 -220 -380 -479 l-375 -471 -3 472
-2 473 -148 37 c-81 21 -165 43 -186 48 l-39 11 6 155 c4 86 8 157 9 158 2 1
1642 5 3646 8 l3642 6 0 -89 0 -90 -711 0 c-565 0 -710 -3 -706 -12 2 -7 57
-223 122 -480 l118 -468 359 0 358 0 0 -1190 c0 -655 3 -1190 8 -1190 4 -1
217 52 474 117 l468 118 0 1073 0 1072 360 0 359 0 10 38 c5 20 57 226 116
457 58 231 108 428 111 438 5 16 -16 17 -338 18 -189 1 -485 4 -659 8 l-315 6
664 745 c641 719 1042 1179 1186 1359 207 260 315 486 347 728 16 119 6 369
-20 508 -42 228 -71 321 -349 1120 -380 1093 -562 1535 -774 1875 -124 200
-102 183 -1068 821 -476 314 -871 577 -879 584 -11 11 -3 21 50 59 35 26 139
92 231 148 260 158 379 257 483 402 71 99 98 175 99 271 1 96 -27 166 -95 240
-72 78 -475 272 -744 358 -369 119 -943 215 -1735 291 -514 50 -898 65 -1405
55z m351 -413 c43 -13 197 -65 342 -115 144 -50 299 -98 344 -107 128 -26 214
-15 598 77 159 38 183 41 268 36 163 -9 262 -74 262 -171 0 -98 -120 -537
-273 -997 -187 -562 -228 -641 -447 -860 -281 -281 -660 -509 -988 -593 -174
-45 -421 -40 -573 12 -122 42 -337 148 -449 222 -430 283 -719 707 -933 1365
-62 190 -144 477 -173 605 -64 282 -5 407 201 418 63 3 120 -3 270 -31 369
-70 375 -71 535 -71 97 0 172 4 200 12 36 11 472 150 645 207 58 19 82 18 171
-9z m3334 -3659 c41 -9 98 -28 126 -42 65 -32 138 -109 171 -181 81 -178 97
-576 53 -1329 -29 -486 -113 -1822 -130 -2065 -50 -710 -73 -1248 -63 -1482
l6 -118 -3615 0 -3615 0 -6 343 c-7 356 -20 609 -62 1257 -14 212 -36 576 -50
810 -14 234 -36 607 -50 830 -64 1045 -68 1349 -21 1591 49 256 168 370 417
397 35 4 1572 7 3414 6 3104 0 3355 -1 3425 -17z"/>
<path d="M11426 11361 c-3 -5 -17 -59 -30 -120 -18 -83 -21 -113 -12 -120 6
-5 17 -7 23 -3 12 7 53 184 53 227 0 24 -23 35 -34 16z"/>
<path d="M10986 11351 c-10 -15 47 -233 62 -239 32 -12 33 17 4 129 -20 81
-33 115 -44 117 -9 2 -19 -1 -22 -7z"/>
<path d="M11706 11114 c-69 -90 -79 -114 -47 -114 19 0 151 163 151 187 0 7
-9 13 -19 13 -12 0 -43 -31 -85 -86z"/>
<path d="M10642 11165 c5 -23 131 -173 151 -178 36 -10 16 36 -49 114 -42 50
-73 79 -86 79 -12 0 -18 -6 -16 -15z"/>
<path d="M11106 11024 c-187 -45 -342 -188 -407 -374 -18 -52 -22 -87 -22
-175 0 -125 19 -198 79 -296 33 -54 154 -179 174 -179 6 0 10 -23 10 -51 0
-50 1 -52 78 -127 111 -110 161 -220 178 -392 l7 -70 -132 0 -131 0 0 -84 0
-85 58 -35 c63 -38 149 -122 181 -176 l21 -35 0 86 c0 274 115 564 289 734
l41 39 0 96 c0 95 0 96 29 113 43 25 143 136 174 194 36 67 67 191 67 268 0
77 -31 200 -67 268 -15 29 -61 86 -103 127 -86 87 -147 122 -256 150 -89 23
-184 24 -268 4z m254 -35 c80 -18 169 -68 239 -135 109 -103 164 -230 164
-379 0 -149 -55 -276 -164 -379 -108 -103 -215 -145 -365 -146 -141 0 -267 53
-369 155 -280 280 -166 742 215 872 72 25 201 30 280 12z"/>
<path d="M11160 10953 c-59 -9 -149 -49 -206 -89 -103 -72 -176 -192 -193
-315 -9 -68 -7 -79 13 -79 8 0 17 24 24 66 31 190 164 329 357 374 93 22 97
59 5 43z"/>
<path d="M11918 10858 c-93 -50 -115 -72 -84 -84 20 -8 221 98 221 116 0 29
-41 19 -137 -32z"/>
<path d="M10411 10877 c-5 -7 -7 -18 -3 -24 11 -17 210 -105 222 -98 23 14 6
37 -45 60 -30 14 -79 36 -109 50 -42 19 -57 21 -65 12z"/>
<path d="M15105 10589 c-356 -34 -580 -195 -649 -464 -8 -33 -18 -95 -22 -137
l-7 -77 -80 -3 -80 -3 58 -40 c224 -154 371 -429 404 -759 12 -121 14 -209 5
-243 -6 -23 -9 -23 -155 -23 l-149 0 0 -65 0 -65 141 0 142 0 -7 -41 c-19
-121 -108 -281 -213 -387 l-63 -62 0 -80 0 -80 280 0 280 0 0 735 0 735 170 0
170 0 0 190 0 190 -171 0 -171 0 4 89 c7 152 38 176 231 176 l127 0 0 213 0
212 -77 -1 c-43 -1 -118 -6 -168 -10z"/>
<path d="M11893 10494 c-11 -28 19 -35 132 -28 120 7 125 8 125 30 0 22 -248
21 -257 -2z"/>
<path d="M10405 10483 c-64 -4 -91 -15 -79 -35 3 -4 61 -8 130 -8 124 0 125 0
122 23 -3 19 -9 22 -53 23 -27 0 -81 -1 -120 -3z"/>
<path d="M13640 9995 l0 -225 110 0 110 0 0 225 0 225 -110 0 -110 0 0 -225z"/>
<path d="M10135 9979 c-313 -40 -531 -172 -606 -367 -27 -70 -37 -221 -19
-305 27 -133 115 -244 246 -310 88 -45 197 -77 404 -122 386 -84 448 -112 465
-215 9 -51 -21 -118 -67 -153 -56 -43 -114 -59 -213 -60 -100 0 -164 19 -228
67 -42 32 -87 116 -87 163 l0 33 -280 0 -280 0 0 -42 c1 -164 109 -356 257
-454 258 -171 759 -203 1088 -70 l80 32 3 492 2 491 -65 20 c-36 11 -140 34
-233 52 -312 58 -447 105 -495 170 -23 32 -25 100 -3 133 45 69 245 96 378 50
62 -21 105 -68 120 -132 l13 -52 142 0 143 0 0 230 0 231 -72 34 c-170 80
-452 114 -693 84z"/>
<path d="M12036 9979 c-144 -21 -286 -74 -395 -148 l-61 -42 0 -764 0 -765 43
-31 c68 -50 197 -108 303 -136 88 -23 117 -26 264 -26 147 0 176 3 265 26 163
44 285 109 393 211 78 73 78 74 33 149 -53 86 -89 173 -116 282 l-23 90 -108
0 -107 0 -12 -50 c-26 -118 -101 -208 -198 -241 -32 -11 -83 -18 -133 -18 -68
0 -90 4 -136 27 -92 45 -153 128 -195 262 -24 81 -25 328 0 427 45 183 136
274 298 299 169 26 317 -62 351 -210 l11 -51 122 0 122 0 17 62 c21 77 84 208
130 272 26 37 33 54 26 66 -5 10 -42 48 -83 86 -82 77 -208 149 -322 184 -146
44 -344 60 -489 39z"/>
<path d="M13414 9931 c-141 -48 -273 -131 -371 -233 l-43 -44 40 -78 c37 -75
71 -196 84 -298 l6 -48 -170 0 c-94 0 -170 -3 -170 -7 0 -5 -5 -46 -10 -93 -6
-47 -7 -124 -4 -172 l7 -88 182 0 182 0 -9 -67 c-17 -133 -66 -272 -132 -379
l-25 -41 52 -50 c110 -107 216 -170 365 -217 46 -14 87 -26 93 -26 5 0 9 64 9
155 l0 155 245 0 245 0 0 -159 0 -159 62 14 c85 20 211 72 281 117 l57 37 0
205 0 205 -140 0 c-132 0 -140 -1 -151 -21 -22 -42 -94 -111 -139 -134 -198
-100 -453 -27 -545 156 -24 47 -54 159 -55 202 0 16 31 17 515 17 l515 0 0
300 0 299 -137 3 -138 3 -3 222 -2 222 -52 16 c-28 8 -55 15 -60 15 -4 0 -8
-72 -8 -160 l0 -160 -245 0 -245 0 -2 160 -3 159 -81 -28z m434 -356 c63 -19
125 -65 175 -130 38 -51 77 -154 77 -206 l0 -29 -370 0 c-203 0 -370 3 -370 8
1 24 31 115 54 160 85 168 262 248 434 197z"/>
<path d="M14160 9715 l0 -185 135 0 135 0 0 -325 0 -325 130 0 130 0 0 93 c0
294 -97 563 -269 749 -53 58 -221 178 -248 178 -10 0 -13 -38 -13 -185z"/>
<path d="M10942 9613 l3 -208 104 -3 104 -3 -6 60 c-8 78 -41 173 -79 233 -33
53 -103 128 -118 128 -7 0 -9 -71 -8 -207z"/>
<path d="M11484 9694 c-121 -146 -191 -300 -225 -494 -16 -94 -17 -316 0 -395
37 -180 114 -337 221 -452 l45 -47 3 363 c1 199 1 523 0 719 l-3 356 -41 -50z"/>
<path d="M12922 9548 c-46 -71 -83 -149 -106 -226 l-15 -52 140 0 c90 0 139 4
139 10 0 36 -36 176 -61 237 -43 103 -49 105 -97 31z"/>
<path d="M10940 8669 l0 -460 31 18 c58 34 148 138 184 213 45 96 58 163 53
284 -3 91 -7 108 -39 176 -20 41 -55 96 -78 122 -38 43 -124 108 -143 108 -4
0 -8 -207 -8 -461z"/>
<path d="M12796 8793 c18 -109 106 -318 148 -352 12 -10 19 -2 45 42 17 30 42
83 55 119 26 69 57 213 48 223 -3 3 -72 5 -154 5 l-149 0 7 -37z"/>
<path d="M14430 8473 l1 -188 58 63 c61 65 119 163 151 257 l19 55 -115 0
-114 0 0 -187z"/>
<path d="M11243 8558 c-26 -138 -129 -290 -256 -377 -44 -30 -47 -35 -47 -76
l0 -45 295 0 295 0 0 89 0 88 -65 67 c-74 77 -131 160 -171 252 -16 35 -31 64
-34 64 -3 0 -11 -28 -17 -62z"/>
<path d="M13640 8045 l0 -225 110 0 110 0 0 225 0 225 -110 0 -110 0 0 -225z"/>
<path d="M12175 6479 c-369 -35 -639 -253 -761 -613 -55 -161 -54 -127 -54
-1473 0 -1181 1 -1245 18 -1241 9 3 223 56 474 119 l458 114 2 475 3 475 472
3 473 2 2 -477 3 -478 460 -117 c253 -64 468 -117 478 -117 17 -1 17 58 14
1292 -3 1449 2 1343 -78 1515 -90 194 -223 328 -421 422 -113 53 -238 88 -366
100 -123 11 -1057 11 -1177 -1z m1085 -1069 l0 -120 -472 2 -473 3 -3 118 -3
117 476 0 475 0 0 -120z"/>
<path d="M1933 6362 l-463 -117 0 -1430 0 -1430 473 -118 c259 -65 475 -117
480 -117 4 0 7 268 7 595 l0 595 473 -2 472 -3 3 -594 c2 -558 3 -593 20 -589
9 3 223 56 475 119 l457 114 0 1431 0 1432 -465 116 c-256 64 -469 116 -475
116 -6 0 -11 -206 -12 -592 l-3 -593 -472 -3 -473 -2 0 595 c0 560 -1 595 -17
594 -10 0 -226 -53 -480 -117z"/>
<path d="M5433 6465 c-132 -24 -226 -63 -338 -138 -185 -125 -303 -312 -372
-587 -15 -58 -17 -200 -20 -1327 -2 -695 0 -1263 4 -1263 4 0 221 52 481 117
l472 118 0 477 0 478 473 -2 472 -3 3 -475 2 -475 473 -118 c259 -65 475 -117
480 -117 11 0 8 2397 -3 2514 -39 403 -272 666 -695 787 -79 23 -86 23 -720
26 -495 1 -656 -1 -712 -12z m1175 -1052 l-3 -118 -472 -3 -473 -2 0 120 0
120 475 0 476 0 -3 -117z"/>
<path d="M18485 6465 c-415 -65 -767 -338 -959 -745 -91 -194 -169 -476 -196
-705 -48 -421 78 -954 307 -1299 152 -229 407 -428 649 -504 131 -41 214 -53
414 -59 292 -7 469 26 668 126 336 169 556 441 696 863 153 460 153 886 -1
1348 -88 267 -199 457 -363 621 -193 195 -426 314 -692 353 -127 19 -407 20
-523 1z m382 -950 c71 -21 129 -64 185 -136 60 -77 110 -179 139 -284 27 -99
38 -355 20 -462 -29 -169 -110 -341 -206 -438 -89 -88 -244 -119 -386 -76 -59
19 -81 31 -123 74 -96 96 -170 249 -202 417 -19 96 -19 314 0 410 36 189 129
368 231 446 80 60 230 82 342 49z"/>
<path d="M20550 4815 c0 -1579 1 -1665 18 -1664 9 0 224 53 477 117 l460 117
5 590 5 589 471 -589 470 -590 460 -114 c252 -63 467 -116 477 -119 16 -4 17
80 17 1663 0 1583 -1 1667 -17 1663 -10 -3 -224 -56 -475 -119 l-458 -114 0
-587 c0 -324 -3 -588 -7 -587 -5 0 -219 264 -477 587 l-469 588 -471 117
c-259 65 -474 117 -478 117 -5 0 -8 -749 -8 -1665z"/>
</g>
</svg>
