<svg id="Layer_1" data-name="Layer 1" xmlns="http://www.w3.org/2000/svg" xmlns:xlink="http://www.w3.org/1999/xlink" viewBox="0 0 714 191.02"><defs><style>.cls-1{fill:none;}.cls-2{clip-path:url(#clip-path);}.cls-3{font-size:109px;fill:#f0efef;font-family:NexaLight, Nexa Light;letter-spacing:0.04em;}.cls-4{fill:#1a4a9c;}.cls-5{fill:#f16724;}</style><clipPath id="clip-path"><rect class="cls-1" x="736.29" y="-1058.36" width="1190.55" height="1683.78"/></clipPath></defs><title>emisia</title><g id="Poster1"><g class="cls-2"><g id="_Group_" data-name="&lt;Group&gt;"><text class="cls-3" transform="translate(556.31 -1138.03)">010010000011001001001010101101100101 <tspan x="0" y="86">01110100010100111101010111000100100 </tspan><tspan x="0" y="172">01101010001100101010101001011010011 </tspan><tspan x="0" y="258">0111010101011000001100010101110010 </tspan><tspan x="0" y="344">00101100000100000010010001101101001 </tspan><tspan x="0" y="430">011000110101001010011011000100000</tspan><tspan x="0" y="516">01101010010100101000100000001101110 </tspan><tspan x="0" y="602">01001000010110000101010101101100001 </tspan><tspan x="0" y="688">011101001001101111010010111000100000 </tspan><tspan x="0" y="774">0110101001011001010010000001110011 </tspan><tspan x="0" y="860">011101010111000001010010101110010 </tspan><tspan x="0" y="946">00101100100010000001010001101101001 </tspan><tspan x="0" y="1032">011000110101001010110011000100000 </tspan><tspan x="0" y="1118">011010100101001010010000001101110</tspan><tspan x="0" y="1204">01001000011000010110101101100001 </tspan><tspan x="0" y="1290">011101000011011110110111000100000 </tspan><tspan x="0" y="1376">01101010011001010010000001110011 </tspan><tspan x="0" y="1462">011101010110100000110010101110010 </tspan><tspan x="0" y="1548">0010110010001100111001101101001 </tspan><tspan x="0" y="1634">0110001101001010110011000100000 </tspan><tspan x="0" y="1720">0110101001001010010100101101110</tspan></text></g></g></g><path class="cls-4" d="M100.67,0C87.56,19.38,79.28,47.8,79.28,79.46s8.28,60.09,21.39,79.47c-22.18-17.32-35.91-46.45-35.91-79.47S78.49,17.32,100.67,0Z"/><path class="cls-4" d="M68,21.89c-10.37,14-16.92,34.63-16.92,57.57S57.63,123,68,137A70.54,70.54,0,0,1,38.94,79.46,70.53,70.53,0,0,1,68,21.89Z"/><path class="cls-4" d="M38.24,42.34c-6.47,9-10.56,22.33-10.56,37.12s4.09,28.08,10.56,37.13c-11-8.09-18.15-21.7-18.15-37.13S27.29,50.43,38.24,42.34Z"/><path class="cls-5" d="M114.36,32.09c13.11,19.38,21.38,47.8,21.38,79.47s-8.27,60.08-21.38,79.46c22.18-17.32,35.91-46.45,35.91-79.46S136.54,49.41,114.36,32.09Z"/><path class="cls-5" d="M147,54C157.4,68,164,88.61,164,111.56S157.4,155.09,147,169.13A71.57,71.57,0,0,0,147,54Z"/><path class="cls-5" d="M176.79,74.43c6.47,9,10.56,22.33,10.56,37.13s-4.09,28.07-10.56,37.12c11-8.09,18.14-21.7,18.14-37.12S187.74,82.52,176.79,74.43Z"/><path class="cls-4" d="M677.71,80.14V70.91h-3.45V69.68h8.29v1.23h-3.46v9.23Zm6.21,0V69.68H686l2.47,7.41c.24.69.39,1.2.5,1.55.12-.38.31-.94.56-1.68l2.5-7.28h1.87V80.14h-1.34V71.39l-3,8.75h-1.25l-3-8.9v8.9Z"/><path class="cls-4" d="M295.09,68.82H245.14C239,68.82,232,71.9,232,78.08v34.81c0,6.18,6.94,9.26,13.12,9.26H304.6v-7.34H261.08c-3.19,0-4.81-1.62-4.81-4.81V98.8l38.82,0c6.18,0,13.12-3.08,13.12-9.26V78.08C308.21,71.9,301.27,68.82,295.09,68.82ZM284.27,86.65c0,3.19-1.62,4.81-4.81,4.81H256.27V81c0-3.19,1.62-4.81,4.81-4.81h18.38c3.19,0,4.81,1.62,4.81,4.81Z"/><path class="cls-4" d="M423.64,68.82H388.56c-4.8,0-10.05,1.87-12.15,5.6-2.11-3.73-7.36-5.6-12.16-5.6H329.17c-6.18,0-13.12,3.08-13.12,9.26v44.07H340.3V81c0-3.19,1.62-4.81,4.81-4.81h14.64c3.19,0,4.81,1.62,4.81,4.81v41.18h23.69V81c0-3.19,1.62-4.81,4.81-4.81H407.7c3.19,0,4.82,1.62,4.82,4.81v41.18h24.25V78.08C436.77,71.9,429.83,68.82,423.64,68.82Z"/><path class="cls-4" d="M468.85,122.15V68.82H457.73c-6.19,0-13.13,3.08-13.13,9.26v44.07Z"/><path class="cls-4" d="M539.23,91.94H505.44c-3.19,0-4.81-1.62-4.81-4.81V81c0-3.19,1.62-4.81,4.81-4.81h44V68.82H489.81c-6.18,0-13.12,3.08-13.12,9.26v12c0,6.18,6.94,9.26,13.12,9.26h33.8c3.19,0,4.81,1.62,4.81,4.81V110c0,3.19-1.62,4.81-4.81,4.81H476.69v7.34h62.54c6.19,0,13.13-3.08,13.13-9.26V101.21C552.36,95,545.42,91.94,539.23,91.94Z"/><path class="cls-4" d="M584.44,122.2V68.87H573.32c-6.19,0-13.13,3.08-13.13,9.26V122.2Z"/><path class="cls-4" d="M605.4,122.15h50c6.18,0,13.12-3.08,13.12-9.26V78.08c0-6.18-6.94-9.26-13.12-9.26H595.89v7.34h43.52c3.19,0,4.81,1.62,4.81,4.81v11.2l-38.82,0c-6.18,0-13.12,3.08-13.12,9.26v11.5C592.28,119.07,599.22,122.15,605.4,122.15Zm10.82-17.82c0-3.19,1.62-4.81,4.81-4.81h23.19V110c0,3.19-1.62,4.81-4.81,4.81H621c-3.19,0-4.81-1.62-4.81-4.81Z"/></svg>