<svg id="Layer_1" data-name="Layer 1" xmlns="http://www.w3.org/2000/svg" xmlns:xlink="http://www.w3.org/1999/xlink" viewBox="0 0 816.14 256.49"><defs><style>.cls-1{fill:none;}.cls-2{clip-path:url(#clip-path);}.cls-3{font-size:109px;fill:#f0efef;font-family:NexaLight, Nexa Light;letter-spacing:0.04em;}.cls-4{fill:#f58322;}.cls-5{fill:#08a650;}.cls-6{fill:#eb242a;}.cls-7{fill:#0f99d6;}.cls-8{fill:#f5c224;}.cls-9{fill:#fffffd;}</style><clipPath id="clip-path"><rect class="cls-1" x="806.82" y="323.62" width="1190.55" height="1683.78"/></clipPath></defs><title>GameBox</title><g id="Poster1"><g class="cls-2"><g id="_Group_" data-name="&lt;Group&gt;"><text class="cls-3" transform="translate(626.84 243.95)">010010000011001001001010101101100101 <tspan x="0" y="86">01110100010100111101010111000100100 </tspan><tspan x="0" y="172">01101010001100101010101001011010011 </tspan><tspan x="0" y="258">0111010101011000001100010101110010 </tspan><tspan x="0" y="344">00101100000100000010010001101101001 </tspan><tspan x="0" y="430">011000110101001010011011000100000</tspan><tspan x="0" y="516">01101010010100101000100000001101110 </tspan><tspan x="0" y="602">01001000010110000101010101101100001 </tspan><tspan x="0" y="688">011101001001101111010010111000100000 </tspan><tspan x="0" y="774">0110101001011001010010000001110011 </tspan><tspan x="0" y="860">011101010111000001010010101110010 </tspan><tspan x="0" y="946">00101100100010000001010001101101001 </tspan><tspan x="0" y="1032">011000110101001010110011000100000 </tspan><tspan x="0" y="1118">011010100101001010010000001101110</tspan><tspan x="0" y="1204">01001000011000010110101101100001 </tspan><tspan x="0" y="1290">011101000011011110110111000100000 </tspan><tspan x="0" y="1376">01101010011001010010000001110011 </tspan><tspan x="0" y="1462">011101010110100000110010101110010 </tspan><tspan x="0" y="1548">0010110010001100111001101101001 </tspan><tspan x="0" y="1634">0110001101001010110011000100000 </tspan><tspan x="0" y="1720">0110101001001010010100101101110</tspan></text></g></g></g><g id="GameBox"><path class="cls-4" d="M677.28,256.18c-3.73,1.21-6.19-1.45-8.87-3.08-29.66-18.07-59.21-36.3-88.94-54.25-5.07-3-7.33-6.52-7.56-12.65-1.61-43.59-3.63-87.17-5.52-130.75-.28-6.39,3-6.6,7.69-4.45,8,3.64,16.08,7.17,25.25,8.79L568.66,43.62c10-6.41,20.69-8.84,30.73-12.56,27.55-10.21,55.31-19.84,82.89-29.94,3.27-1.2,5.68-1.7,9.1-.15,35,15.8,70,31.34,105,47,1,.45,1.69,1.51,3.32,3L771.6,63.94c8.64,1.08,15-4,22.18-6.63,2.6-1,5.2-3.33,8-1.52,3.14,2,1.13,5.1.85,7.81-4.28,41.83-8.88,83.64-12.49,125.53-.81,9.38-4,14.47-12.33,18.72-30.9,15.78-61.4,32.35-92,48.63-5.18-1.14-4-5.29-4.08-8.77-.14-7.69-.17-15.38-.24-23.07,1.33-34.72,3-69.43,3.8-104.15.25-10.38,3.87-16.36,13.62-20.39,20.38-8.44,40.34-17.9,60.42-27,2.86-1.31,6.77-1.67,8.6-7.7-25.31,10.7-49,20.4-72.42,30.76-8.6,3.82-16,3.49-24.33-.76-21.63-11-42.27-24.24-65.12-29.48,21.38,11.37,43.85,23.47,66.49,35.26,5.26,2.74,8.43,6.21,8.27,12.29q-1.39,55.14-2.78,110.29C676,234.49,677.15,245.35,677.28,256.18ZM652.36,47.77c4.46-4,7.87,3.95,12.32,1,14.44-9.49,31.63-11.51,47.43-17.29,2.48-.91,5.89-1.31,5.09-5.56-8.75-3.25-17.08,1.14-24.69,3.38-14,4.15-28.62,8.25-40,18.66a23.29,23.29,0,0,0-18.08,5.23,5.3,5.3,0,0,0-1.64,4.07c.36,2.67,2.9,2.72,4.77,2.23C644.18,57.78,648.77,53.36,652.36,47.77Zm95.3,80.65c-3.3-1.8-2.54-4.69-3.6-6.65-2.1-3.87.73-12.71-7.73-10.39-6,1.64-14.68,3.89-7.46,14.42,3.53,5.14,4.1,12.22,6.52,18.22,2.85,7,2,13.19,0,20.72-4.81,18.18-11.92,35.63-17.28,54.72,20.57-6.35,20.24-23.15,22.36-38.46.45-3.27.48-7.64,4.64-6.23,2.25.75,8.24,1.9,6.52,6.84-2.14,6.16,1.2,10.91,2.46,17.49,8.8-7.4,15.94-12.23,8.87-25.93s-12.69-29.15-3.74-45.7C764.6,117.58,767,106.12,771,94.7,750.88,98.39,756.08,118.11,747.66,128.42Zm-128-30c4.93,6.58-2.32,13.28,4.88,17.07,13.43,7.08,4.25,20.05,7.86,29.68.57,1.52-1.31,2.46-3.13,2.83-13.42,2.77-7,8.31-1.71,13.41s8.21,27.38,3,31.05c-4.7,3.3-6.65,6.84-3.76,10.74a12.31,12.31,0,0,0,13.05,4.72c4.9-1.33,4.6-5.39,5.15-9.72,2.61-20.67-1.39-41.41,1.35-62.09C648.39,120.46,638.43,105.72,619.66,98.43Zm-16.12-9.9c0,27.78-.95,55.19.58,82.47.47,8.41-5,23,12.93,25-.7-31.68-2.81-62.81-2.16-94C615.06,93.73,609.09,89.42,603.54,88.53Zm37.9-24.17c17.65,7.91,32.33,9.6,46.46.52,4.33-2.78,8.76-3.32,13.07-5,13.82-5.37,28.23-9.37,41.25-16.77,2.93-1.66,5.09-3.66,2.71-6.51-3.79-4.53-8.9-7.46-15.07-5.78-2.57.7-8.39,1.49-6.77,4.24,5.74,9.77-4.52,9.66-7.38,10.8-14.8,5.92-30.41,9.8-45.13,15.87-4.66,1.91-9.46,2.75-12.26.77C652.37,58.3,649,62.6,641.44,64.36Z"/><path class="cls-5" d="M438.7,164.59c-19.43,4.72-22.26,3.55-33.71-14-6.91-10.6-13.64-21.31-20.71-31.8-1.87-2.78-2.69-7.21-7.84-6.87,2.8,17.57,5.85,35,8.26,52.53,1.53,11,.52,21.36-11.88,26.56-12.14,5.1-19.89-.83-27.51-9.44C333,167.64,320.05,154.3,305,142.06c5.07,14.88,10.25,29.74,15.17,44.67,2.46,7.43,4.28,15-.18,22.45-8.08,13.6-24.41,13.78-32.68.08-3.7-6.14-6.66-12.74-10-19.13.57-15.94-8.56-29.51-11-44.73-1-13.17-4.42-25.74-9.31-37.95-3-4.9-2.26-10.46-2.83-15.78,2.8-4,5.18-8.32,8.47-11.83,10.05-10.69,26.4-10.66,36.93.4,12.1,12.69,23.57,26,35.48,38.87,2.62,2.83,4.26,7,10.07,8.13.46-14.13-4.34-27.09-5.75-40.43-.68-6.47-2.46-12.82-3.14-19.28-1.29-12.48,5.07-22.68,16.62-26.91s20.78-.35,27.74,9.25q31.56,43.55,62.91,87.25C447.8,147.32,448.63,156.91,438.7,164.59Z"/><path class="cls-6" d="M146.05,183.23c-15.82,11.88-32.32,21.68-53,22.46-39.95,1.52-77.72-30.16-80.17-72C10.61,95.6,31.93,66.38,76,57.83c10.86-2.11,21.84-3.65,32.66.17,9.54,3.37,17.09,8.87,15.48,20.4-1.57,11.21-9.87,14-19.8,13.77-10.58-.2-21.18-1.39-31.56,2.21-15.37,5.33-23.68,18.13-21.43,34.17,2.05,14.63,7.18,27.84,20.11,36.36,11.41,7.52,23.7,9.1,35.79,1.85,10.88-6.52,17.74-15.6,14.39-30.19-5.8,2.35-11.16,5.16-16.86,6.69-9.91,2.65-18,0-21.54-10.53-3.35-10.11-.14-17.48,10.08-21.58s20.23-8.79,30.53-12.69C137.47,93.3,146,97,153.14,110c5.42,10,5.43,21.2,8,31.83C160.67,157.32,154.41,170.66,146.05,183.23Z"/><path class="cls-7" d="M438.7,164.59c9.93-7.68,9.1-17.27,4.86-27.47,6.19-18.19,8.35-37.27,12.33-55.94,5.28-24.75,11.08-29.31,36.17-25.59a371.56,371.56,0,0,1,37.22,7c12.08,3.07,17,10.8,14.7,20.23-2.45,10-11,14.52-23.16,12.11-5.2-1-10.62-1.8-15.4-3.91-11.64-5.13-14.49.15-16,10.78-1,7.05,1.63,8.48,7.1,9.54,8,1.55,16.16,2.68,23.79,5.34,7.92,2.75,13,8.61,11.25,17.91-1.68,8.8-7.31,13.35-16.17,14-9.14.67-18.07-1.09-26.5-4.07-10.31-3.66-8.32,5-9.72,9.28s-5.06,10.4,4.32,11.9A245.61,245.61,0,0,1,512,172.22c8,2.29,14.5,7.05,12.6,16.68-2,10.08-9,16.76-19.18,15.06a505.26,505.26,0,0,1-59.68-13.3C431.76,186.53,437.62,174.29,438.7,164.59Z"/><path class="cls-8" d="M677.28,256.18c-.13-10.83-1.27-21.69.74-32.48l3.45.94c.07,7.69.1,15.38.24,23.07.06,3.48-1.1,7.63,4.08,8.77C682.83,259.51,680,258.51,677.28,256.18Z"/><path class="cls-9" d="M747.66,128.42c8.42-10.31,3.22-30,23.33-33.72-4,11.42-6.39,22.88-11.74,32.77-9,16.55-3.32,32,3.74,45.7s-.07,18.53-8.87,25.93c-1.26-6.58-4.6-11.33-2.46-17.49,1.72-4.94-4.27-6.09-6.52-6.84-4.16-1.41-4.19,3-4.64,6.23-2.12,15.31-1.79,32.11-22.36,38.46,5.36-19.09,12.47-36.54,17.28-54.72,2-7.53,2.82-13.68,0-20.72-2.42-6-3-13.08-6.52-18.22-7.22-10.53,1.44-12.78,7.46-14.42,8.46-2.32,5.63,6.52,7.73,10.39C745.12,123.73,744.36,126.62,747.66,128.42Z"/><path class="cls-9" d="M619.66,98.43c18.77,7.29,28.73,22,26.66,37.69-2.74,20.68,1.26,41.42-1.35,62.09-.55,4.33-.25,8.39-5.15,9.72a12.31,12.31,0,0,1-13.05-4.72c-2.89-3.9-.94-7.44,3.76-10.74,5.24-3.67,2.19-26.08-3-31.05s-11.71-10.64,1.71-13.41c1.82-.37,3.7-1.31,3.13-2.83-3.61-9.63,5.57-22.6-7.86-29.68C617.34,111.71,624.59,105,619.66,98.43Z"/><path class="cls-9" d="M681.47,224.64,678,223.7q1.4-55.12,2.78-110.28c.16-6.08-3-9.55-8.27-12.29C649.89,89.34,627.42,77.24,606,65.87c22.85,5.24,43.49,18.48,65.12,29.48,8.35,4.25,15.73,4.58,24.33.76,23.41-10.36,47.11-20.06,72.42-30.76-1.83,6-5.74,6.39-8.6,7.7-20.08,9.15-40,18.61-60.42,27.05-9.75,4-13.37,10-13.62,20.39C684.44,155.21,682.8,189.92,681.47,224.64Z"/><path class="cls-9" d="M603.54,88.53c5.55.89,11.52,5.2,11.35,13.49-.65,31.19,1.46,62.32,2.16,94-17.89-2-12.46-16.61-12.93-25C602.59,143.72,603.54,116.31,603.54,88.53Z"/><path class="cls-9" d="M641.44,64.36c7.59-1.76,10.93-6.06,16.88-1.86,2.8,2,7.6,1.14,12.26-.77,14.72-6.07,30.33-9.95,45.13-15.87,2.86-1.14,13.12-1,7.38-10.8-1.62-2.75,4.2-3.54,6.77-4.24,6.17-1.68,11.28,1.25,15.07,5.78,2.38,2.85.22,4.85-2.71,6.51-13,7.4-27.43,11.4-41.25,16.77-4.31,1.68-8.74,2.22-13.07,5C673.77,74,659.09,72.27,641.44,64.36Z"/><path class="cls-9" d="M652.55,48c11.34-10.41,25.94-14.51,40-18.66,7.61-2.24,15.94-6.63,24.69-3.38.8,4.25-2.61,4.65-5.09,5.56-15.8,5.78-33,7.8-47.43,17.29-4.45,2.93-7.86-5-12.32-1Z"/><path class="cls-9" d="M652.36,47.77c-3.59,5.59-8.18,10-14.76,11.74-1.87.49-4.41.44-4.77-2.23a5.3,5.3,0,0,1,1.64-4.07A23.29,23.29,0,0,1,652.55,48Z"/><path class="cls-9" d="M266.37,145.4c-2.78-12.73-8.25-24.8-9.3-38C262,119.66,265.39,132.23,266.37,145.4Z"/><path class="cls-8" d="M266.37,145.4c-2.78-12.73-8.25-24.8-9.3-38-3-4.89-2.27-10.45-2.84-15.77-3.88-3.57-3.63-8.84-5.41-13.27-4.59-11.44-10.36-22-24.34-22.78S201.67,63,195.81,74.85c-4.53,9.15-8.32,18.7-13.32,27.58-7.34,13-11,28.06-21.36,39.43-.46,15.46-6.72,28.8-15.09,41.37,1.74,10.42,10.18,13.31,18.49,15.09a14.23,14.23,0,0,0,16.77-9.53c4.84-16.17,15.61-16.95,29-14a41.61,41.61,0,0,0,12.16,1.05c11.55-1,18.33,2.91,19.89,15.38,1.36,10.89,9.71,14.43,19.6,14.34s14.75-5.75,15.34-15.39C277.9,174.19,268.77,160.62,266.37,145.4Zm-48.31,5c-14.9-.6-15.66-1-8.75-14.16,3.62-6.91.8-19.72,9.87-19.87,5-.08,4.32,13.44,7,20.56C231.42,150.71,231.25,151,218.06,150.42Z"/></g></svg>