<svg id="Layer_1" data-name="Layer 1" xmlns="http://www.w3.org/2000/svg" viewBox="0 0 1036.09 471.05"><defs><style>.cls-1{fill:#58acd8;}.cls-2{fill:#514f4f;}.cls-3{fill:#fefeff;}</style></defs><title>helloworld</title><g id="HelloWorld"><path class="cls-1" d="M8.93,123.6C17.13,107,30.49,102,48.73,102.35c52.18,1,104.4.31,156.6.35,22,0,33.57,11.5,33.61,33.46q.13,80.63.18,161.24c0,25-10.28,35.49-35,35.47-51.82,0-103.64-.73-155.44.17-18.24.32-31.6-4.64-39.8-21.25Zm92,123.81c-9-9.8-15.34-17.61-22.63-24.47-4.93-4.64-3.27-7.24.65-11,9-8.54,17.52-17.5,26.44-26.08,6.93-6.66,1.54-10.63-2.65-15.34-4.51-5.06-8.27-5.74-13.39-.51C76.08,183.59,62.69,197,48.83,210c-6.69,6.24-5.31,10.48.63,16,12.42,11.63,24.19,24,36.61,35.6,4.81,4.51,7,8.66,3.56,14.9-4.23,7.73-1.12,11.41,6.78,14.5,8.63,3.39,11.75.14,14.41-7.23,6-16.71,12.43-33.29,18.77-49.88,5.43-14.24,11-28.43,17.37-44.92,8.76,9.19,15.73,16.93,23.2,24.15,3.75,3.63,3.37,5.9-.18,9.29-9.25,8.8-18,18.09-27.29,26.87-6.25,5.91-2.85,9.94,1.7,14.43s8.37,7.42,14.34,1.22q19.71-20.48,40.48-39.93c6.27-5.88,5-9.89-.57-15.15-12.37-11.68-24.1-24-36.58-35.61-5.23-4.85-7.4-9.28-3.82-15.89,3.84-7.1,1.36-11-6.15-13.91-7.76-3-12.42-2.06-14.9,6.3-1.31,4.43-3.22,8.69-4.85,13C122.3,190.48,112.27,217.19,100.92,247.41Z"/><path class="cls-1" d="M639.52,199c-5.41,20.1-10.41,37.47-14.65,55-1.5,6.22-3.62,9.1-10.59,9.21-7.14.11-10.25-2.26-12-9.1-5.76-22.83-12.29-45.46-18-68.31-.84-3.35-7.09-9.49,1.06-10.94,6.14-1.09,14.74-4.14,16.75,7.83,2.48,14.81,6.66,29.34,10.23,44,.49,2-.17,4.78,4.25,6.08,4.25-15.87,8.68-31.6,12.61-47.46,1.59-6.42,2.85-11.14,11.5-11.21,8.42-.07,9.14,4.83,10.6,10.57,4.37,17.11,8.93,34.17,14.29,54.61,4.88-20.42,8.84-37.64,13.21-54.76.87-3.44.26-8.4,5-9.6,3.66-.93,8-1.74,11.21.65s.17,5.72-.53,8.47c-5.94,23.17-12.21,46.25-18,69.46-1.61,6.42-3.79,9.79-11.46,9.81-8,0-9.56-4.32-11.1-10.31C649.53,235.91,644.85,218.87,639.52,199Z"/><path class="cls-2" d="M345.63,219.32c0,11.6-.62,23.24.21,34.78.61,8.56-3.39,9.11-10.14,9.17-6.55.06-10.12-.8-9.36-8.65.74-7.66-.06-15.46.23-23.18.2-5.46-.71-8.1-7.4-8.34-25.24-.91-24.81-1.21-25.58,24.08-.16,5.22,6.25,14.61-6.24,16-9.51,1-13.59-1.07-13.09-12.13,1-22.76.66-45.62.12-68.42-.18-7.69,2.8-8.92,9.45-8.82s11.54.44,10.21,9.14c-.59,3.77-.1,7.72-.1,11.58,0,15.83,0,15.83,16,15.83,16.53,0,16.53,0,16.53-16.62,0-3.86.47-7.8-.1-11.58-1.24-8.32,3.64-8.33,9.67-8.29s10.28,0,9.76,8.36C345.06,194.54,345.63,207,345.63,219.32Z"/><path class="cls-2" d="M457.15,219.51c0,12.34-.37,24.7.14,37,.31,7.6-4.39,6.48-9,6.56-4.8.09-9,.61-8.91-6.73.34-25.07.41-50.16,0-75.22-.15-8.18,4.64-7,9.67-7.25,5.49-.28,8.52.74,8.25,7.42C456.79,194,457.15,206.78,457.15,219.51Z"/><path class="cls-2" d="M494.33,218.81c0,12.35-.37,24.71.14,37,.28,6.74-2.85,7.58-8.29,7.32-5.09-.23-9.77.87-9.63-7.26.44-25.07.38-50.15,0-75.22-.11-7.42,4.22-6.76,9-6.73s9.22-.83,8.92,6.68C494,193.34,494.33,206.08,494.33,218.81Z"/><path class="cls-1" d="M845.08,218.85c0,12-.35,24,.14,36,.28,7.09-2.91,8.27-9,8.31-6.28,0-9-1.56-8.94-8.44q.5-36,0-72c-.09-6.93,2.88-8.38,9.06-8.41,6.35,0,9.11,1.74,8.86,8.55C844.77,194.83,845.08,206.85,845.08,218.85Z"/><path class="cls-1" d="M780.58,229.58c0-7.7-.14-15.4,0-23.1.08-3.18-1.4-7.82,3.56-8.4,3.8-.44,9.14-2.72,11.22,2.54,2,4.95,3.64,3.73,6.23,1a15.64,15.64,0,0,1,2.62-2.26c3.93-2.6,8.17-5,12.92-3.1,3.72,1.46,2.09,5.31,2.27,8.18.41,6.63-5.37,5.48-8.94,6.53-8.2,2.4-12.07,7.73-12.15,16.05-.09,9.62-.36,19.26,0,28.87.25,6.87-3.69,7.26-8.83,7.16-4.87-.1-9.32.23-9-6.92C780.87,247.3,780.58,238.44,780.58,229.58Z"/><path class="cls-2" d="M1010.74,221.16a46.1,46.1,0,0,1,7.66,2.53c3,1.51,7.44,3.93,5.58,7.46-2.27,4.33-6.18,2.59-9.41-.58s-7.45-3.92-9.73.48c-2.93,5.62,2.65,5.73,5.91,7.07.71.3,1.42.62,2.15.87,6.49,2.22,14.2,3.28,14.26,12.54,0,5.67-3.5,9.39-8.62,11.14-8.41,2.88-16.74,3-24.07-3-1.72-1.42-3.45-3.59-2.14-6.05,1.57-3,4.79-2.41,7.21-1.78,1.6.41,2.61,2.76,4.17,3.81,3.07,2.06,6.53,2.63,9.82.64,1.11-.66,2.38-2.42,2.26-3.53-.47-4.32-4.36-4.84-7.59-5.94-1.09-.37-2.25-.53-3.34-.9-6.46-2.18-13.22-4.91-11.9-13.19C994.36,223.93,1001.82,222,1010.74,221.16Z"/><path class="cls-2" d="M964.62,242.14c0-3.84.24-7.7,0-11.51-.61-7.95,3.59-10.63,9.34-6.24,5.12,3.9,5.52-1.84,8.32-2.2,2.3-.29,4.87-1.58,5.9,1.22.87,2.33,1.55,6.05-2.2,6.56-11.86,1.61-10.12,10.5-10.38,18.4-.09,2.68,0,5.37,0,8.06,0,3.46.62,6.78-4.95,6.78s-6.17-2.93-6-7.26C964.76,251.35,964.62,246.74,964.62,242.14Z"/><path class="cls-2" d="M953.73,257.44c.36,3.51-.62,5.8-4.87,5.67-3.52-.11-7.05.44-6.71-5,.21-3.33.36-6.09,4.8-6C950.65,252.19,954.05,252.27,953.73,257.44Z"/><path class="cls-3" d="M100.92,247.41c11.35-30.22,21.38-56.93,31.42-83.64,1.63-4.34,3.54-8.6,4.85-13,2.48-8.36,7.14-9.3,14.9-6.3,7.51,2.9,10,6.81,6.15,13.91-3.58,6.61-1.41,11,3.82,15.89,12.48,11.56,24.21,23.93,36.58,35.61,5.57,5.26,6.84,9.27.57,15.15q-20.73,19.44-40.48,39.93c-6,6.2-9.76,3.3-14.34-1.22s-7.95-8.52-1.7-14.43c9.26-8.78,18-18.07,27.29-26.87,3.55-3.39,3.93-5.66.18-9.29-7.47-7.22-14.44-15-23.2-24.15-6.38,16.49-11.94,30.68-17.37,44.92-6.34,16.59-12.75,33.17-18.77,49.88-2.66,7.37-5.78,10.62-14.41,7.23-7.9-3.09-11-6.77-6.78-14.5,3.41-6.24,1.25-10.39-3.56-14.9C73.65,250,61.88,237.63,49.46,226c-5.94-5.56-7.32-9.8-.63-16C62.69,197,76.08,183.59,89.34,170c5.12-5.23,8.88-4.55,13.39.51,4.19,4.71,9.58,8.68,2.65,15.34C96.46,194.47,87.9,203.43,78.94,212c-3.92,3.73-5.58,6.33-.65,11C85.58,229.8,92,237.61,100.92,247.41Z"/><path class="cls-1" d="M924.72,183.2c.07-6.31-1.66-8.91-8.45-8.95-6.95-.05-8.67,2.81-8.26,9,.38,5.76.08,11.57.08,18.46-24.68-12.81-42.6-3.85-47.42,21.79-1.2,6.34-.4,12.31,1,18.34,4.7,20.26,20.93,28.5,39.59,19.67,4-1.88,5.93-1.3,9.79.64,8.5,4.28,13.51.36,13.54-9.29C924.66,229.64,924.45,206.42,924.72,183.2ZM906.65,245c-2.62,5.8-6.81,9.11-13.48,9s-10.75-3.62-12.7-9.78a46,46,0,0,1-.89-26.18c1.89-7.22,6.08-12.29,13.43-12.07,8.17.23,13.39,5.62,14.7,13.83.6,3.76.11,7.69.11,11.54C907.9,235.88,908.64,240.57,906.65,245Z"/><path class="cls-2" d="M423,244.13c-4-2.25-11-5.21-14.44.53-4.72,8-10.79,11.14-19.18,8.5-9.51-3-10.4-11.3-10.48-20.56,13.32,0,26.42-.19,39.51.09,5.41.12,7.3-1.08,6.89-7.14-1.16-17.15-10.72-28.45-26.47-29.89-19.73-1.81-33.13,7.32-37,25.23-4.35,20.19,3.08,36.58,19.09,42.11,15.2,5.24,32.5,1,39.77-10.12C422.38,250.24,426.58,246.16,423,244.13ZM394,206.5c8.46-.14,14.35,4.78,13.71,12.26-.76,8.72-9.43,1.55-14,4.76-3.92-3.61-13,4.59-13.1-5.74C380.51,210.18,386.4,206.62,394,206.5Z"/><path class="cls-2" d="M541.8,195.55c-21.56.13-32.59,11.85-32.56,34.58,0,22.2,11.9,34.95,32.61,35,21.51.05,33.27-12.54,33.22-35.56C575,207.44,563.26,195.42,541.8,195.55Zm.2,58.33c-10,0-14.74-8.22-14.21-24.58a74.3,74.3,0,0,1,1.33-10.25c1.23-7.12,4.65-12.24,12.62-12.46,8.53-.22,12.36,4.94,13.69,12.61.59,3.39.93,6.82,1.12,8.18C556.74,245.84,551.9,253.94,542,253.88Z"/><path class="cls-1" d="M765.69,228.89c-.4-21.39-12.31-33.33-33.2-33.26-21.41.06-32.87,12.17-32.87,34.71,0,21.69,12.55,34.81,33.17,34.71C754,265,766.12,251.61,765.69,228.89Zm-18.41,6.94c-2.06,8.47-2.38,18.45-15.13,18.13-12-.3-12.4-9.87-14-18-1.2-6.06-.27-12.26,1.49-18.31,1.89-6.53,5.45-11.62,12.49-11.8,7.42-.2,12.18,4.27,13.76,11.62.89,4.11,1.44,8.3,2.15,12.45l-.7.1C747.35,232,747.73,234,747.28,235.83Z"/></g></svg>