<svg id="Layer_1" data-name="Layer 1" xmlns="http://www.w3.org/2000/svg" viewBox="0 0 1036.09 471.05"><defs><style>.cls-1{fill:#fff;}</style></defs><title>mvp</title><g id="MVP"><path d="M1033.05,323.71l-579.76,0h-7.4V148.08h225.8v87.08c2.17.13,3.78.32,5.39.32q175.74,0,351.48,0c1.49,0,3-.19,4.49-.28ZM468.26,166.44v52.29h8.52V183.9l.9-.08c3.3,5.46,6.59,10.93,10.2,16.9l10.27-17.06,1,.39V218.7h8.33V166.55c-5.48-1.75-9.13-.56-11.59,4.69-2.15,4.58-5.1,8.77-8.09,13.78-3.1-5.21-6-9.33-8.11-13.84C477.26,165.81,473.47,165,468.26,166.44Zm19.57,119.87c3.57,5.95,6.88,10.94,9.61,16.22,2,4,5.37,3,8.22,2.52,1-.18,2.08-3.25,2.1-5,.17-14.23.11-28.46.09-42.7,0-1.59-.14-3.19-.21-4.6h-8.8V289l-11-18.47c-3.69,6.15-7,11.62-10.24,17.08l-1.06-.24V252.7h-8.32v52.18c5.57,1.45,9.27.26,11.66-5.05C481.88,295.44,484.76,291.47,487.83,286.31ZM624,283.82c16.7-3.16,19.13-1.27,19.14,14.43,0,8,.2,8.17,8.73,6.33-1-8.65,2.6-17.94-4-26,.75-1.11,1.6-2.16,2.23-3.32,4.89-9,.45-21.35-8.81-22.43-8.35-1-16.91-.2-25.37-.2V305H624Zm-42.18-5.51-.43,0c0-2.85.12-5.7,0-8.54-.55-11-7.64-17.89-18.71-18.25-12-.38-19.7,5.69-20.58,17.11a127.68,127.68,0,0,0,.16,21.06c.87,9.72,7.41,15.67,16.71,16.23,11.93.7,19-3.58,21.36-13.67C581.4,287.71,581.38,283,581.85,278.31Zm319.07.1.34,0c0,3.18-.15,6.37,0,9.55.55,9.64,6.79,16.78,15.34,17.74,13,1.45,21-2.67,22.9-13.84a88.48,88.48,0,0,0,.27-26.4c-1.28-9.4-8.47-13.92-18.6-14-10.47-.08-17.05,4.43-19.27,14C901,269.63,901.22,274.08,900.92,278.41Zm-34.32,26.7V252.57h-8.45v21.51H835.81V252.72h-7.92V305h8.23v-21.3h22.29v21.45Zm-77.09-52.79H771.38c-11.87,0-16.44,4.73-16.12,16.57.25,9.11,4.86,13.87,14,14.34,2,.11,4,0,6,0,5.61.1,7.52,1.73,7.52,6.4s-2.36,7-7.7,7c-6,0-11.95,0-18,0v8.59c7.48,0,14.5.2,21.51-.08A12.27,12.27,0,0,0,789.85,298c6-12.26-.76-23.51-14.23-23.54-1.18,0-2.35,0-3.53,0-5.52-.05-8.51-2.53-8.44-7s2.68-6.37,8.32-6.42c5.81-.05,11.61,0,17.54,0Zm194,52.87V283.8c6.39-.37,12.11-.21,17.65-1.14,6.78-1.14,9.84-6,9.9-14.12.08-9-2.72-14.5-9.67-15.24-8.67-.93-17.5-.23-26.29-.23v52.12ZM688.15,252.58v52.47h7.75l-1.06-.94,8.95-17.41c2.91,4.87,5.68,8.65,7.54,12.84,2.49,5.64,6.39,7.06,12.63,5.28-4.33-7.44-8.44-14.84-12.91-22-1.84-2.95-1.91-5.13,0-8.11,4.58-7.1,8.74-14.48,13.15-21.89-6.29-1.57-10.05,0-12.87,5.69-4.24,8.57-9.47,16.64-14.28,24.93l-1.07-.34V252.58ZM620.84,197c3.13,0,5.46,0,7.8,0,2.51,0,5,.1,7.52-.07,7.24-.49,11.72-5,12.56-12.57,1-8.52-2.33-16.29-8.68-17.18-9-1.26-18.14-1-27.62-1.47v53.08h8.42ZM540.31,166.8c4.94,16.62,10,33.19,14.72,49.83,1,3.59,3.57,2.1,5.62,2.43,2.49.41,3.93-.45,4.67-3.13,2.95-10.61,6.11-21.16,9.19-31.72,1.7-5.85,3.42-11.7,5.15-17.62-8.15-1.16-8.16-1.16-10.12,5.55-1.21,4.17-2.35,8.35-3.58,12.51-1.86,6.31-3.77,12.6-6,20.14-3.46-11.77-6.52-22.16-9.56-32.56C548.3,165.2,548.12,165.08,540.31,166.8Z"/><path d="M172.06,422.28c-9-1.69-18.2-2.7-27-5.18C69.31,395.74,21.22,346.86,6.45,269.48c-19-99.31,43-192.25,140.86-215.69,101.38-24.29,204.55,42,225,144.64,19.91,99.86-42,196.31-141,219.41-7.92,1.85-16,3-24,4.44Zm17.49-11.8A174.73,174.73,0,1,0,15,235.66,174.61,174.61,0,0,0,189.55,410.48Z"/><path class="cls-1" d="M468.26,166.44c5.21-1.46,9-.63,11.47,4.74,2.07,4.51,5,8.63,8.11,13.84,3-5,5.94-9.2,8.09-13.78,2.46-5.25,6.11-6.44,11.59-4.69V218.7h-8.33V184.05l-1-.39-10.27,17.06c-3.61-6-6.9-11.44-10.2-16.9l-.9.08v34.83h-8.52Z"/><path class="cls-1" d="M487.83,286.31c-3.07,5.16-5.95,9.13-7.93,13.52-2.39,5.31-6.09,6.5-11.66,5.05V252.7h8.32v34.66l1.06.24c3.28-5.46,6.55-10.93,10.24-17.08l11,18.47V252.74h8.8c.07,1.41.21,3,.21,4.6,0,14.24.08,28.47-.09,42.7,0,1.76-1.1,4.83-2.1,5-2.85.51-6.18,1.43-8.22-2.52C494.71,297.25,491.4,292.26,487.83,286.31Z"/><path class="cls-1" d="M624,283.82V305H615.9V252.67c8.46,0,17-.77,25.37.2,9.26,1.08,13.7,13.39,8.81,22.43-.63,1.16-1.48,2.21-2.23,3.32,6.65,8,3.06,17.31,4,26-8.53,1.84-8.73,1.68-8.73-6.33C643.16,282.55,640.73,280.66,624,283.82Zm.26-22.7v13.31c4.52,0,8.69.14,12.85,0s5.85-2.69,5.88-6.63-1.78-6.44-5.87-6.6S628.83,261.12,624.29,261.12Z"/><path class="cls-1" d="M581.85,278.31c-.47,4.64-.45,9.4-1.51,13.9C578,302.3,570.91,306.58,559,305.88c-9.3-.56-15.84-6.51-16.71-16.23a127.68,127.68,0,0,1-.16-21.06c.88-11.42,8.55-17.49,20.58-17.11,11.07.36,18.16,7.24,18.71,18.25.14,2.84,0,5.69,0,8.54Zm-32,0c.44,3.6.5,7.16,1.37,10.49,1.42,5.46,5.59,8.74,10.23,8.78a10.53,10.53,0,0,0,10.55-9,85.7,85.7,0,0,0,.09-19.41c-.55-5.17-5.37-8.63-10.16-8.81a10.72,10.72,0,0,0-10.7,8.16C550.39,271.67,550.33,275.06,549.9,278.29Z"/><path class="cls-1" d="M900.92,278.41c.3-4.33,0-8.78,1-13,2.22-9.54,8.8-14,19.27-14,10.13.08,17.32,4.6,18.6,14a88.48,88.48,0,0,1-.27,26.4c-1.91,11.17-9.93,15.29-22.9,13.84-8.55-1-14.79-8.1-15.34-17.74-.18-3.18,0-6.37,0-9.55Zm32,.42c-.62-4-.68-7.79-1.87-11.17-1.61-4.58-5.2-7.4-10.32-7.28-4.86.12-9.14,2.82-9.65,7.28a94.76,94.76,0,0,0,.27,22.64c.58,4.56,4.77,7.2,9.65,7.21a9.87,9.87,0,0,0,9.81-7.23C932,286.55,932.26,282.5,932.9,278.83Z"/><path class="cls-1" d="M866.6,305.11h-8.19V283.66H836.12V305h-8.23V252.72h7.92v21.36h22.34V252.57h8.45Z"/><path class="cls-1" d="M789.51,252.32v8.73c-5.93,0-11.73,0-17.54,0-5.64.05-8.25,2.1-8.32,6.42s2.92,6.92,8.44,7c1.18,0,2.35,0,3.53,0,13.47,0,20.24,11.28,14.23,23.54a12.27,12.27,0,0,1-11.24,7.18c-7,.28-14,.08-21.51.08v-8.59c6,0,12,0,18,0,5.34,0,7.7-2.2,7.7-7s-1.91-6.3-7.52-6.4c-2,0-4,.07-6,0-9.09-.47-13.7-5.23-14-14.34-.32-11.84,4.25-16.55,16.12-16.57Z"/><path class="cls-1" d="M983.47,305.19h-8.41V253.07c8.79,0,17.62-.7,26.29.23,6.95.74,9.75,6.23,9.67,15.24-.06,8.09-3.12,13-9.9,14.12-5.54.93-11.26.77-17.65,1.14Zm.22-30.75c4.71,0,9,.22,13.35-.06,3.9-.25,5.46-3.2,5.46-6.63,0-3.21-1.45-6.11-5.14-6.35-4.45-.29-8.94-.07-13.67-.07Z"/><path class="cls-1" d="M688.15,252.58H696v30.51l1.07.34c4.81-8.29,10-16.36,14.28-24.93,2.82-5.7,6.58-7.26,12.87-5.69-4.41,7.41-8.57,14.79-13.15,21.89-1.92,3-1.85,5.16,0,8.11,4.47,7.17,8.58,14.57,12.91,22-6.24,1.78-10.14.36-12.63-5.28-1.86-4.19-4.63-8-7.54-12.84l-8.95,17.41,1.06.94h-7.75Z"/><path class="cls-1" d="M620.84,197v21.79h-8.42V165.69c9.48.43,18.66.21,27.62,1.47,6.35.89,9.64,8.66,8.68,17.18-.84,7.53-5.32,12.08-12.56,12.57-2.5.17-5,.06-7.52.07C626.3,197,624,197,620.84,197Zm.23-8.94c4.73,0,9.22.24,13.66-.08,3.54-.25,5.07-2.75,5.19-6.21s-1.24-6.29-4.68-6.66c-4.7-.5-9.5-.12-14.17-.12Z"/><path class="cls-1" d="M540.31,166.8c7.81-1.72,8-1.6,10.05,5.43,3,10.4,6.1,20.79,9.56,32.56,2.27-7.54,4.18-13.83,6-20.14,1.23-4.16,2.37-8.34,3.58-12.51,2-6.71,2-6.71,10.12-5.55-1.73,5.92-3.45,11.77-5.15,17.62-3.08,10.56-6.24,21.11-9.19,31.72-.74,2.68-2.18,3.54-4.67,3.13-2-.33-4.58,1.16-5.62-2.43C550.26,200,545.25,183.42,540.31,166.8Z"/><path d="M624.29,261.12c4.54,0,8.7-.13,12.86,0s5.89,2.62,5.87,6.6-1.8,6.45-5.88,6.63-8.33,0-12.85,0Z"/><path d="M549.9,278.29c.43-3.23.49-6.62,1.38-9.78a10.72,10.72,0,0,1,10.7-8.16c4.79.18,9.61,3.64,10.16,8.81a85.7,85.7,0,0,1-.09,19.41,10.53,10.53,0,0,1-10.55,9c-4.64,0-8.81-3.32-10.23-8.78C550.4,285.45,550.34,281.89,549.9,278.29Z"/><path d="M932.9,278.83c-.64,3.67-.89,7.72-2.11,11.45a9.87,9.87,0,0,1-9.81,7.23c-4.88,0-9.07-2.65-9.65-7.21a94.76,94.76,0,0,1-.27-22.64c.51-4.46,4.79-7.16,9.65-7.28,5.12-.12,8.71,2.7,10.32,7.28C932.22,271,932.28,274.81,932.9,278.83Z"/><path d="M983.69,274.44V261.33c4.73,0,9.22-.22,13.67.07,3.69.24,5.14,3.14,5.14,6.35,0,3.43-1.56,6.38-5.46,6.63C992.74,274.66,988.4,274.44,983.69,274.44Z"/><path d="M621.07,188V175c4.67,0,9.47-.38,14.17.12,3.44.37,4.8,3.21,4.68,6.66s-1.65,6-5.19,6.21C630.29,188.28,625.8,188,621.07,188Z"/><path d="M189.51,191.78l85.73-95.31,10,6.74C269.48,120.74,254,138,238.9,154.83l28.79,27.26,30.56-33.56C339,194.62,342.36,277.7,292.53,330.1l-7.94-8.46c22.05-25.33,33.34-54.54,32.92-87.9a124.92,124.92,0,0,0-20.39-67.23L189.52,286.16,82.18,166.82C55.73,204.64,49.69,270.3,94.27,321.54L86.9,330C42.59,286.54,34.35,203,81,147.78l30.62,33.92,28.48-26.89-46.25-51.5,9.88-6.85Zm0,17.88-40.23-44.61c-10.41,5.83-18.44,13.48-25.41,22.43-2.5,3.2-2.59,5.26.33,8.45,20.91,22.9,41.58,46,62.34,69.05.94,1,2,2,3.17,3.06l68.66-75.63a80.16,80.16,0,0,0-28.68-27.36Z"/><path d="M101.27,204.46c3.33,3.66,6.09,6.32,8.33,9.36.77,1.05.55,3.11.25,4.59-8.38,41.57,14.94,82.09,54.72,95,58.76,19,117-32.9,104.85-93.51-1.15-5.74.28-8.3,8-14.33,10.56,25.84,7.36,66.78-20.88,95.21-26.35,26.54-58.29,33.64-95.72,24.41l63.52,70.35c-4.7.83-8.39,1.93-12.1,2-1.7,0-3.75-1.76-5.08-3.23q-35.32-38.89-70.49-77.92c-7-7.71-14.41-15-20.72-23.26C95.68,266.67,91.6,237.32,101.27,204.46Z"/><path d="M163.45,146a96.56,96.56,0,0,1,52-.08,112.62,112.62,0,0,1-7.62,8.5c-1,.92-3,1.05-4.5,1.07-9.16.08-18.32.14-27.48-.07a9.85,9.85,0,0,1-5.58-2C168,151.5,166.18,149,163.45,146Z"/></g></svg>