<?xml version="1.0" encoding="utf-8"?>
<!-- Generator: Adobe Illustrator 19.0.0, SVG Export Plug-In . SVG Version: 6.00 Build 0)  -->
<svg version="1.1" id="Layer_1" xmlns="http://www.w3.org/2000/svg" xmlns:xlink="http://www.w3.org/1999/xlink" x="0px" y="0px"
	 viewBox="0 0 304 152" style="enable-background:new 0 0 304 152;" xml:space="preserve">
<style type="text/css">
	.st0{fill-rule:evenodd;clip-rule:evenodd;fill:#FFCB05;}
	.st1{fill-rule:evenodd;clip-rule:evenodd;fill:#0068A6;}
	.st2{fill-rule:evenodd;clip-rule:evenodd;fill:#00AEEF;}
</style>
<g id="XMLID_27_">
	<polygon id="XMLID_50_" class="st0" points="197.5,42.6 196.8,45 194.8,41.1 186.4,36.7 183.6,38 185.5,44.2 120.8,75.3 
		120.8,83.9 194.4,72.7 197.5,82.7 214.1,51.3 	"/>
	<polygon id="XMLID_49_" class="st1" points="159.2,39.2 120.8,60.3 120.8,67.3 167.9,45.3 	"/>
	<polygon id="XMLID_48_" class="st1" points="183.6,38 186.4,36.7 191.4,34.4 194.8,41.1 196.8,45 197.5,42.6 204.1,22.8 
		181.9,15.5 186.3,24.3 169.1,33.8 169.6,44.5 	"/>
	<polygon id="XMLID_47_" class="st2" points="153.6,35.2 159.2,39.2 167.9,45.3 169.7,46.5 169.6,44.5 169.1,33.8 168,12.1 
		122.9,9.9 137.3,23.1 120.8,34.6 120.8,53.8 	"/>
	<path id="XMLID_46_" class="st1" d="M43.6,84.1l-14.4-24c-0.7-1.2-1.5-2.8-2.3-4.7h-0.1c0.2,2.1,0.3,3.8,0.3,5.1v23.7H14.9V33.9
		h12.2l12.8,21c0.7,1.2,1.5,2.7,2.4,4.6h0.1c-0.2-2-0.3-3.6-0.3-4.8V33.9h12.1v50.3H43.6z"/>
	<path class="st1" d="M79.9,64.3c-1.3,0.1-2.5,0.3-3.7,0.5c-1.1,0.3-2.1,0.7-2.9,1.2c-0.8,0.5-1.4,1.2-1.9,2.1
		c-0.4,0.9-0.7,2-0.7,3.4c0,2,0.5,3.5,1.6,4.4c1.1,0.9,2.6,1.4,4.5,1.4c1.3,0,2.3-0.2,3-0.5V64.3L79.9,64.3z M86.1,84
		c-2.8,0.6-6.1,0.8-9.8,0.8c-6,0-10.5-1-13.7-3.1c-3.1-2.1-4.7-5.3-4.7-9.6c0-2.5,0.6-4.6,1.8-6.3c1.2-1.7,2.8-3,4.8-4.1
		c2-1.1,4.4-1.9,7-2.4c2.7-0.5,5.4-0.9,8.4-1.2v-1.5c0-1.6-0.5-2.6-1.6-3.2c-1.1-0.6-2.6-0.8-4.5-0.8c-1.9,0-3.8,0.2-5.7,0.7
		c-1.9,0.5-3.6,1.1-5,1.7l-2.8-7.8c1.5-0.6,3.6-1.3,6.3-2c2.7-0.7,6-1.1,9.9-1.1c2.4,0,4.6,0.3,6.6,0.8c2,0.5,3.7,1.4,5.1,2.6
		c1.4,1.2,2.5,2.8,3.3,4.7c0.8,1.9,1.2,4.3,1.2,7.1v22.6C91.2,82.7,88.9,83.5,86.1,84z"/>
	<path class="st1" d="M112.2,33.4c0,0.9-0.2,1.7-0.5,2.4c-0.4,0.8-0.9,1.4-1.5,2c-0.6,0.6-1.4,1-2.3,1.3c-0.9,0.3-1.8,0.5-2.8,0.5
		c-1,0-2-0.2-2.9-0.5c-0.9-0.3-1.6-0.8-2.3-1.3c-0.7-0.6-1.2-1.2-1.5-2c-0.4-0.8-0.5-1.6-0.5-2.4c0-0.9,0.2-1.7,0.5-2.4
		c0.4-0.8,0.9-1.4,1.5-2c0.7-0.6,1.4-1,2.3-1.3c0.9-0.3,1.8-0.5,2.8-0.5c1,0,2,0.2,2.8,0.5c0.9,0.3,1.6,0.8,2.3,1.4
		c0.7,0.6,1.2,1.3,1.5,2C112,31.7,112.2,32.6,112.2,33.4L112.2,33.4z M110.5,87.8c-1,2.7-2.3,5-4.1,6.9c-1.8,1.9-3.9,3.4-6.3,4.4
		c-2.5,1-5.2,1.6-8.1,1.6v-9.2c1.1-0.3,2-0.7,2.7-1.2c0.8-0.5,1.4-1.1,1.9-1.9c0.5-0.8,0.9-1.9,1.1-3.1c0.2-1.2,0.4-2.8,0.4-4.7
		l0-35.8H112v33.9C112,82.1,111.5,85.1,110.5,87.8z"/>
	<path id="XMLID_41_" class="st2" d="M40.5,127.7c0,2-0.4,3.9-1.2,5.7c-0.8,1.8-1.9,3.3-3.3,4.6c-1.4,1.3-3.1,2.3-5,3.1
		c-1.9,0.7-4.1,1.1-6.4,1.1c-2.9,0-5.4-0.2-7.4-0.7c-2-0.5-3.7-1.1-5-2l2.9-9c0.7,0.5,1.6,0.9,2.9,1.4c1.3,0.5,2.6,0.7,4,0.7
		c1.5,0,2.7-0.3,3.5-1c0.8-0.7,1.2-1.6,1.2-2.8c0-1.1-0.4-2.1-1.2-2.9c-0.8-0.8-2.2-1.7-4.2-2.7c-1.7-0.8-3.1-1.7-4.2-2.7
		c-1.1-1-2-2-2.7-3.1c-0.7-1.1-1.1-2.2-1.4-3.4c-0.3-1.2-0.4-2.3-0.4-3.4c0-2,0.3-3.9,1-5.6c0.7-1.8,1.7-3.3,3-4.6
		c1.3-1.3,2.9-2.3,4.7-3.1c1.8-0.8,3.9-1.1,6.2-1.1c2.6,0,4.8,0.3,6.7,0.8c1.8,0.5,3.3,1.2,4.5,1.9l-2.6,7.8
		c-0.8-0.5-1.7-0.9-2.9-1.3c-1.1-0.4-2.3-0.6-3.7-0.6c-3,0-4.4,1.3-4.4,3.8c0,1.3,0.4,2.3,1.3,3.1c0.9,0.8,2.2,1.7,4.1,2.5
		c2.1,1,3.8,2.1,5.1,3.2c1.3,1.1,2.3,2.2,3,3.3c0.7,1.1,1.1,2.3,1.4,3.5C40.4,125.3,40.5,126.4,40.5,127.7z"/>
	<path id="XMLID_40_" class="st2" d="M60,141.7c-1,0.3-2.2,0.4-3.7,0.4c-2,0-3.7-0.3-5.1-0.8c-1.5-0.6-2.7-1.3-3.6-2.3
		c-1-1-1.7-2.1-2.1-3.5c-0.5-1.3-0.7-2.7-0.7-4.3v-16.8h-3.6v-8.1h3.6v-7.2l12.4-3.1v10.3h5.1v8.1h-5.1v15.8c0,1.3,0.2,2.2,0.7,2.8
		c0.5,0.5,1.1,0.8,2.1,0.8c0.5,0,0.9,0,1.2-0.1c0.3-0.1,0.7-0.2,1.2-0.4v7.6C61.7,141.2,61,141.4,60,141.7z"/>
	<path id="XMLID_39_" class="st2" d="M90.7,141.4c-2.6,0.5-5.7,0.7-9.2,0.7c-5.3,0-9.2-1-11.9-2.9c-2.7-1.9-4-5.1-4-9.7v-23.2H78
		v24.1c0,0.9,0.3,1.6,0.8,2.3c0.5,0.7,1.5,1,2.9,1c1.3,0,2.3-0.2,3.2-0.6v-26.9h12.4v33C95.5,140.3,93.3,140.9,90.7,141.4z"/>
	<path class="st2" d="M121.2,113c-0.3-0.1-0.6-0.2-0.9-0.2c-0.3,0-0.7-0.1-1.1-0.1c-2.2,0-3.8,0.9-4.8,2.8c-1,1.8-1.5,4.5-1.5,8
		c0,7.2,2,10.8,6.1,10.8c1,0,1.7-0.1,2.1-0.3L121.2,113L121.2,113z M127.4,141.4c-2.3,0.5-5.1,0.7-8.5,0.7c-2.7,0-5.2-0.4-7.4-1.1
		c-2.2-0.7-4.1-1.9-5.7-3.4c-1.6-1.5-2.8-3.4-3.7-5.7c-0.9-2.3-1.3-5-1.3-8c0-2.7,0.4-5.2,1.2-7.4c0.8-2.2,1.9-4.1,3.2-5.7
		c1.4-1.6,3-2.8,4.9-3.6c1.9-0.9,4-1.3,6.2-1.3c2.2,0,3.8,0.2,5,0.5l0-16.2h12.4v49.1C131.7,140.3,129.7,141,127.4,141.4z"/>
	<path class="st2" d="M153.2,112.8c-1.8,0-3.2,0.8-4.2,2.4c-1,1.6-1.3,4-1.1,7l10-1.5C157.9,115.5,156.3,112.8,153.2,112.8
		L153.2,112.8z M148.8,128.1c0.4,1.9,1.1,3.3,2.3,4.3c1.1,0.9,2.8,1.4,5.1,1.4c2.1,0,3.9-0.2,5.5-0.6c1.6-0.4,2.9-0.8,3.9-1.3
		l2.7,7.6c-1.5,0.7-3.4,1.4-5.5,1.9c-2.2,0.5-4.9,0.8-8.1,0.8c-2.9,0-5.4-0.5-7.6-1.4c-2.2-0.9-4-2.2-5.5-3.8
		c-1.5-1.6-2.6-3.6-3.3-5.8c-0.8-2.2-1.1-4.7-1.1-7.3s0.3-5.1,1-7.3c0.7-2.2,1.8-4.1,3.2-5.7c1.4-1.6,3.2-2.9,5.2-3.7
		c2.1-0.9,4.5-1.3,7.2-1.3c2.7,0,5.1,0.5,7.2,1.4c2,0.9,3.7,2.2,5,3.9c1.3,1.7,2.2,3.7,2.8,6.2c0.6,2.4,0.8,5.1,0.6,8.1L148.8,128.1
		z"/>
	<path id="XMLID_34_" class="st2" d="M192.5,141.5v-24.2c0-1.1-0.3-2-0.9-2.8c-0.6-0.8-1.7-1.2-3.3-1.2c-0.7,0-1.3,0-1.8,0.1
		c-0.5,0.1-0.9,0.2-1.3,0.3v27.7h-12.4v-33.1c1.8-0.8,4.1-1.5,6.7-2c2.7-0.5,5.6-0.7,8.9-0.7c3,0,5.5,0.3,7.6,0.8s3.8,1.3,5.1,2.3
		c1.3,1,2.3,2.2,2.9,3.6c0.6,1.4,0.9,3,0.9,4.8v24.3H192.5z"/>
	<path id="XMLID_33_" class="st2" d="M226.2,141.7c-1,0.3-2.2,0.4-3.7,0.4c-2,0-3.7-0.3-5.1-0.8c-1.5-0.6-2.7-1.3-3.6-2.3
		c-1-1-1.7-2.1-2.1-3.5c-0.5-1.3-0.7-2.7-0.7-4.3v-16.8h-3.6v-8.1h3.6v-7.2l12.4-3.1v10.3h5.1v8.1h-5.1v15.8c0,1.3,0.2,2.2,0.7,2.8
		c0.5,0.5,1.1,0.8,2.1,0.8c0.5,0,0.9,0,1.2-0.1c0.3-0.1,0.7-0.2,1.2-0.4v7.6C228,141.2,227.2,141.4,226.2,141.7z"/>
	<path id="XMLID_32_" class="st1" d="M236.4,138.9c0,0.8-0.3,1.5-0.8,2c-0.6,0.6-1.2,0.8-2,0.8c-0.8,0-1.5-0.3-2-0.8
		c-0.5-0.6-0.8-1.2-0.8-2c0-0.8,0.3-1.5,0.8-2c0.5-0.6,1.2-0.8,2-0.8c0.8,0,1.5,0.3,2,0.8C236.1,137.4,236.4,138.1,236.4,138.9z"/>
	<path id="XMLID_31_" class="st1" d="M247.7,141.4c-0.7,0.2-1.6,0.4-2.7,0.4c-1,0-2-0.2-2.8-0.6c-0.9-0.4-1.6-1-2.3-1.7
		c-0.6-0.8-1.1-1.7-1.5-2.8c-0.3-1.1-0.5-2.4-0.5-3.9c0-1.5,0.2-2.7,0.6-3.9c0.4-1.1,0.9-2,1.5-2.8c0.6-0.7,1.4-1.3,2.3-1.7
		c0.9-0.4,1.8-0.6,2.7-0.6c1.1,0,2,0.1,2.6,0.4c0.7,0.3,1.2,0.5,1.6,0.9l-1,2.8c-0.2-0.2-0.5-0.3-0.8-0.5c-0.3-0.1-0.7-0.2-1.2-0.2
		c-1.1,0-1.9,0.5-2.4,1.4c-0.5,1-0.8,2.3-0.8,4.1c0,1.8,0.3,3.1,0.8,4.1c0.6,1,1.3,1.4,2.4,1.4c0.5,0,0.9-0.1,1.2-0.2
		c0.3-0.1,0.6-0.3,0.9-0.5l1.1,3C248.9,140.9,248.3,141.2,247.7,141.4z"/>
	<path class="st1" d="M260.1,132.7c0-0.8,0-1.5-0.1-2.2c-0.1-0.7-0.2-1.3-0.4-1.9c-0.2-0.5-0.5-1-0.8-1.3c-0.3-0.3-0.8-0.5-1.3-0.5
		c-0.5,0-1,0.2-1.3,0.5c-0.3,0.3-0.6,0.7-0.8,1.3c-0.2,0.5-0.3,1.2-0.4,1.9c-0.1,0.7-0.1,1.4-0.1,2.2c0,0.8,0,1.5,0.1,2.2
		c0.1,0.7,0.2,1.3,0.4,1.8c0.2,0.5,0.5,0.9,0.8,1.2c0.3,0.3,0.8,0.4,1.3,0.4c0.6,0,1-0.1,1.3-0.4s0.6-0.7,0.8-1.2
		c0.2-0.5,0.3-1.1,0.4-1.8C260.1,134.2,260.1,133.5,260.1,132.7L260.1,132.7z M265.1,132.8c0,1.3-0.2,2.5-0.5,3.6
		c-0.3,1.1-0.8,2.1-1.5,2.9c-0.6,0.8-1.4,1.4-2.4,1.9c-1,0.5-2.1,0.7-3.3,0.7c-1.3,0-2.4-0.2-3.3-0.7c-1-0.5-1.8-1.1-2.4-1.9
		c-0.6-0.8-1.1-1.8-1.4-2.9c-0.3-1.1-0.5-2.3-0.5-3.6c0-1.3,0.2-2.5,0.5-3.6c0.3-1.1,0.8-2.1,1.4-2.8c0.6-0.8,1.4-1.4,2.4-1.9
		c1-0.5,2.1-0.7,3.3-0.7c1.3,0,2.4,0.2,3.3,0.7c1,0.4,1.8,1.1,2.4,1.9c0.6,0.8,1.1,1.7,1.5,2.8C265,130.3,265.1,131.5,265.1,132.8z"
		/>
	<path id="XMLID_28_" class="st1" d="M286.7,141.5v-12.2c0-0.7-0.2-1.2-0.6-1.7c-0.4-0.5-1-0.7-1.9-0.7c-0.9,0-1.6,0.3-2.2,0.8v13.7
		h-5v-12.3c0-0.7-0.2-1.2-0.7-1.7c-0.5-0.4-1.1-0.6-2-0.6c-0.5,0-0.8,0-1.1,0.1c-0.3,0.1-0.6,0.1-0.9,0.2v14.2h-5v-16.4
		c1-0.4,2-0.8,3.1-1c1.1-0.2,2.4-0.3,3.9-0.3c1.4,0,2.6,0.2,3.5,0.5c0.9,0.3,1.6,0.7,2,1.2c0.6-0.5,1.3-0.9,2.2-1.2
		c0.9-0.3,2.1-0.5,3.5-0.5c1,0,1.9,0.1,2.7,0.4c0.8,0.3,1.4,0.7,1.9,1.2c0.5,0.5,0.9,1.1,1.2,1.7c0.3,0.7,0.4,1.4,0.4,2.2v12.2
		H286.7z"/>
</g>
<g id="XMLID_51_">
</g>
<g id="XMLID_52_">
</g>
<g id="XMLID_53_">
</g>
<g id="XMLID_54_">
</g>
<g id="XMLID_55_">
</g>
<g id="XMLID_56_">
</g>
</svg>
