<?xml version="1.0" encoding="utf-8"?>
<!-- Generator: Adobe Illustrator 19.2.1, SVG Export Plug-In . SVG Version: 6.00 Build 0)  -->
<svg version="1.1" id="Layer_1" xmlns="http://www.w3.org/2000/svg" xmlns:xlink="http://www.w3.org/1999/xlink" x="0px" y="0px"
	 viewBox="0 0 1118.8 172.3" style="enable-background:new 0 0 1118.8 172.3;" xml:space="preserve">
<style type="text/css">
	.st0{fill:#333333;}
	.st1{fill:#F5AB35;}
</style>
<g>
	<g>
		<g>
			<g>
				<path class="st0" d="M384.6,53c9.2,0,16.4,3.1,21.6,9.4c5.3,6.3,7.9,13.8,7.9,22.6s-2.6,16.4-7.9,22.6
					c-5.3,6.3-12.4,9.4-21.6,9.4c-8.3,0-15.4-2.7-19.9-8.2v34.6h-17.8V54.6h15.5v9C368.2,56.5,375,53,384.6,53z M392,72.7
					c-2.9-3.3-6.7-5-11.6-5c-3.6,0-6.7,1-9.5,2.9c-2.8,1.9-4.9,4.3-6,7.2v14.4c1.1,2.9,3.2,5.3,6,7.2c2.8,1.9,6,2.9,9.6,2.9
					c4.9,0,8.7-1.7,11.6-5c2.9-3.3,4.3-7.4,4.3-12.3S394.9,76,392,72.7z"/>
				<path class="st0" d="M448,55.6c4.3-1.9,9.1-2.6,14.6-2.1v17c-4.4-0.8-9.1-0.4-13.3,1.3c-4.2,1.7-7.8,4.3-8.9,7.9v36h-17.8V54.6
					h15.5v9.2C440.4,60.3,443.7,57.5,448,55.6z"/>
				<path class="st0" d="M475.3,61.4c6.5-5.6,14.4-8.4,23.7-8.4c9.4,0,17.3,2.8,23.8,8.4c6.4,5.6,9.6,13.5,9.6,23.6
					s-3.2,17.9-9.6,23.6c-6.4,5.6-14.3,8.4-23.8,8.4c-9.3,0-17.2-2.8-23.7-8.4c-6.5-5.6-9.7-13.5-9.7-23.6S468.8,67,475.3,61.4z
					 M510.4,73.2c-2.8-3.1-6.6-4.6-11.5-4.6s-8.7,1.5-11.4,4.6c-2.7,3.1-4.1,7-4.1,11.8s1.4,8.7,4.1,11.8c2.7,3.1,6.5,4.6,11.4,4.6
					s8.7-1.5,11.5-4.6c2.8-3.1,4.2-7,4.2-11.8S513.2,76.3,510.4,73.2z"/>
				<path class="st0" d="M604.7,26.8v88.8h-15.5v-9.2c-5.6,7.1-12.4,10.6-21.9,10.6c-9.2,0-16.4-3.1-21.7-9.4
					c-5.3-6.3-7.9-13.8-7.9-22.6s2.6-16.4,7.9-22.6c5.3-6.3,12.4-9.4,21.6-9.4c8.3,0,15.4,2.7,19.8,8.2V26.8H604.7z M580.9,70.6
					c-2.8-1.9-6-2.9-9.6-2.9c-4.9,0-8.7,1.7-11.6,5c-2.9,3.3-4.3,7.4-4.3,12.3s1.4,9,4.3,12.3c2.9,3.3,6.7,5,11.6,5
					c3.6,0,6.7-1,9.6-2.9c2.8-1.9,4.9-4.3,6-7.2V77.8C585.8,74.9,583.7,72.5,580.9,70.6z"/>
				<path class="st0" d="M675.7,54.6v61.1h-15.5v-8.1c-5.6,6.3-12.1,9.5-20.1,9.5c-7.9,0-13.8-2.3-18.1-6.9
					c-4.2-4.6-6.2-10.6-6.2-17.9V54.6h17.8v35.3c0,3.9,0.8,6.9,2.8,8.9c2,2,4.6,3,8.3,3c5.4,0,10-2.6,13.3-7.7V54.6H675.7z"/>
				<path class="st0" d="M687.1,71c2-4.4,4.6-7.8,7.9-10.4c3.3-2.6,6.9-4.5,10.8-5.8c3.9-1.3,8-2,12.4-2c7,0,13,1.5,18.6,4.4v15.4
					c-4.4-3-10-4.5-16.1-4.5c-5.3,0-9.7,1.4-13.3,4.2c-3.6,2.8-5.4,7-5.4,12.7c0,5.5,1.8,9.6,5.4,12.5c3.6,2.9,8.2,4.3,13.3,4.3
					c6.5,0,11.6-1.5,17.2-4.4V113c-6.7,2.7-13.3,4-20.6,4c-9.1,0-16.9-2.7-23.4-8c-6.5-5.3-9.7-13-9.7-23.1
					C684.2,80.3,685.1,75.4,687.1,71z"/>
				<path class="st0" d="M769,32.9v21.6h18.9V69H769v24.2c0,6,3.4,9.1,9.9,9.1c3.9,0,7.8-0.7,11.2-2v14.1
					c-5.6,1.8-10.6,2.6-16.4,2.6c-6.4,0-11.9-1.6-16-4.9c-4.1-3.3-6.4-8.4-6.4-15.5V69h-10V54.6h10V37.1L769,32.9z"/>
				<path class="st0" d="M805.6,26.8v38c2.2-3.1,5.7-5.8,9.6-8.1c3.9-2.3,8.3-3.4,13.1-3.4c7.1,0,13.2,2.2,17.9,6.7
					c4.6,4.5,7.2,10.4,7.2,17.8v37.7h-7.8V78.8c0-6-1.6-10.7-5-14c-3.4-3.3-7.7-4.9-13.1-4.9c-4.8,0-9.1,1.3-12.8,4
					c-3.7,2.7-6.9,6-9.1,9.8v41.9H799V26.8H805.6z"/>
				<path class="st0" d="M874.7,39.9c-0.9,0.8-2.1,1.3-3.4,1.3c-1.4,0-2.6-0.4-3.5-1.2c-0.9-0.8-1.4-2-1.4-3.6
					c0-1.4,0.5-2.6,1.4-3.5c1-0.9,2.1-1.3,3.5-1.3c1.3,0,2.5,0.4,3.4,1.3c0.9,0.9,1.4,2,1.4,3.5C876.1,37.8,875.6,39,874.7,39.9z
					 M867.8,115.6V54.6h6.7v61.1H867.8z"/>
				<path class="st0" d="M945.8,54.6l-27.3,61.1h-7.6l-27.5-61.1h7.9l23.3,52.4l23.2-52.4H945.8z"/>
				<path class="st0" d="M956.7,61.8c6-5.6,13-8.4,20.9-8.4c4.5,0,8.4,0.7,12,2.1c3.5,1.4,6.4,3.3,8.5,5.6c2.1,2.4,3.9,5,5.4,8.1
					c1.4,3,2.2,6,2.3,9.2c0.1,3.2-0.1,6.3-0.6,9.6h-50.3c0.4,7.8,3.2,12.8,8.3,16.5c5.1,3.7,11.6,5.6,19,5.6c7.6,0,14.4-1.5,20-4.8
					v7.1c-5.6,2.9-12.6,4.4-21,4.4c-9.5,0-17.5-2.7-23.9-8.1c-6.3-5.4-9.6-13.2-9.6-23.6C947.7,75.1,950.7,67.4,956.7,61.8z
					 M994.6,67.1c-3.4-4.7-8.9-7.2-16.6-7.2c-6.2,0-11.6,2.1-16,6c-4.5,3.9-6.8,8.6-7.2,16.3h44C999.4,76.8,998,71.8,994.6,67.1z"/>
				<path class="st0" d="M1022,114.9c-1,0.9-2.2,1.3-3.6,1.3c-1.4,0-2.6-0.4-3.6-1.3c-1-0.9-1.4-2.1-1.4-3.6c0-1.5,0.5-2.7,1.4-3.6
					c1-0.9,2.2-1.3,3.6-1.3c1.4,0,2.6,0.4,3.6,1.3c1,0.9,1.4,2.1,1.4,3.6C1023.5,112.8,1023,114,1022,114.9z"/>
				<path class="st0" d="M1043.6,39.9c-0.9,0.8-2.1,1.3-3.4,1.3c-1.4,0-2.6-0.4-3.5-1.2c-0.9-0.8-1.4-2-1.4-3.6
					c0-1.4,0.5-2.6,1.5-3.5c1-0.9,2.1-1.3,3.5-1.3c1.3,0,2.5,0.4,3.4,1.3c0.9,0.9,1.4,2,1.4,3.5C1045,37.8,1044.5,39,1043.6,39.9z
					 M1036.6,115.6V54.6h7.8v61.1H1036.6z"/>
				<path class="st0" d="M1064.6,61.8c6.3-5.7,13.7-8.5,22.4-8.5c8.7,0,16.2,2.8,22.5,8.5s9.4,13.4,9.4,23.1s-3.1,17.5-9.4,23.1
					c-6.3,5.7-13.8,8.5-22.5,8.5c-8.7,0-16.1-2.8-22.4-8.5c-6.3-5.7-9.4-13.4-9.4-23.1S1058.3,67.5,1064.6,61.8z M1104.6,66.8
					c-4.7-4.5-10.5-6.7-17.5-6.7c-7,0-12.8,2.2-17.6,6.7c-4.7,4.5-7.1,10.5-7.1,18.1s2.4,13.7,7.1,18.1c4.7,4.5,10.6,6.7,17.6,6.7
					c7,0,12.8-2.2,17.5-6.7c4.7-4.5,7.1-10.5,7.1-18.1S1109.3,71.3,1104.6,66.8z"/>
			</g>
		</g>
	</g>
	<path class="st1" d="M241.4,23.5c-7.8,0-15.8,1.5-23.8,4.5c-4.9,1.8-9.8,4.1-14.8,7.1L155.8,1.2c-2.2-1.6-5.2-1.6-7.4,0l-34.2,24.9
		c-2.8,2.1-3.5,6-1.4,8.9c2.1,2.8,6,3.5,8.9,1.4l30.5-22.2l40.6,29.3l-27.4,19.7c-2.5,1.8-3.1,5.4-1.3,7.9c1.1,1.5,2.9,2.4,4.6,2.4
		c1.2,0,2.3-0.3,3.3-1.1l34.4-24.8c5.4-3.4,10.6-5.9,15.6-7.8c6.7-2.5,13.1-3.7,19.4-3.7c27.6,0,50,22.4,50,50c0,27.6-22.4,50-50,50
		c-29.6,0-57.9-27.8-85.2-54.7c-29-28.5-59-58-93.4-58C28.1,23.5,0,51.6,0,86.2c0,34.6,28.1,62.7,62.7,62.7c7.8,0,15.8-1.5,23.8-4.6
		c4.9-1.8,9.8-4.2,14.9-7.2l46.9,33.9c1.1,0.8,2.4,1.2,3.7,1.2c1.3,0,2.6-0.4,3.7-1.2l46.8-33.9c12.4,7.2,25.2,11.7,38.8,11.7
		c34.6,0,62.7-28.1,62.7-62.7C304.1,51.6,276,23.5,241.4,23.5z M97.5,124.7c-5.4,3.3-10.4,5.9-15.4,7.8c-6.7,2.5-13,3.8-19.4,3.8
		c-27.6,0-50-22.4-50-50c0-27.6,22.4-50,50-50c29.2,0,57.3,27.1,84.5,53.8c7.9,7.7,15.8,15.6,23.9,22.3h-38.5l6.9-4.4
		c2.5-1.8,3.1-5.1,1.3-7.7c-1.8-2.5-5.4-3-7.9-1.2L97.5,124.7z M152,157.8l-16.8-12.2h33.6L152,157.8z M183.7,134.5h-63.4l-8.9-6.1
		l6.4-4.8c0.2,0,0.5-0.2,0.7-0.2h65.3c2.4,2.2,4.9,3.9,7.3,5.6L183.7,134.5z"/>
</g>
</svg>
