<?xml version="1.0" encoding="utf-8"?>
<!-- Generator: Adobe Illustrator 19.0.0, SVG Export Plug-In . SVG Version: 6.00 Build 0)  -->
<svg version="1.1" id="Layer_1" xmlns="http://www.w3.org/2000/svg" xmlns:xlink="http://www.w3.org/1999/xlink" x="0px" y="0px"
	 viewBox="0 0 304 152" style="enable-background:new 0 0 304 152;" xml:space="preserve">
<style type="text/css">
	.st0{fill-rule:evenodd;clip-rule:evenodd;}
	.st1{fill-rule:evenodd;clip-rule:evenodd;fill:#5AB7B2;}
</style>
<g id="XMLID_1_">
	<path id="XMLID_12_" class="st0" d="M56.3,53.7c-5.2-0.8-10.5,0.4-14.3,4.2c-2.2,2.2-3.1,6.4-3.5,9.3c-0.5,1.8-2.5,2.7-4.1,3
		c-5.6,1.4-9,4.3-11.9,8c-3.9,5.9-4.2,9.8-5,16.6c-1.1,2-3.9,7-4.6,8.9c-0.2,1.3,0.4,1.3,1.4,1.3c5-1,9.2-4.5,14-6.1
		c1.3,0.3,2.9,0.6,4.5,0.9c-0.5,1-1,1.9-1.5,2.9v0.1h0.1c2.5-0.8,4.7-1.6,7.5-0.6c2.2,1.1,4.5,2.7,5.6,5h0.6
		c1.1-0.6,1.9-1.4,2.8-2.3v-0.2c-0.4-1.3-1.3-2.8-2.4-3.5c1.3-0.7,3.6,1.5,4.4,0.8c0.6-0.5,1-0.9,1.3-1.4c0.2-0.3-0.3-0.8-1.2-1.4
		c0.2-0.1,0.5-0.2,0.7-0.3C59.9,94.2,64,83.2,59,73.3c0-1.8,0.4-4.9,1.3-6.6c0.8-0.4,4.1-0.9,4.8-0.9c0.6-0.1,0.5-1.4,0.5-1.7
		c-0.6-2-2.5-3.2-4.5-3.2c-0.1-4.3-1.8-5.7-3.9-6.5c1.3-1.3,3.1-2.5,4.9-2.6c1.3-0.1,1.9,0.9,1.9,2.1c0.5,0.5,3.2-1.8,3-3.8
		c-0.1-1.3-2-2.9-4.8-2.2C59.3,48.7,56.5,52.1,56.3,53.7"/>
	<path class="st0" d="M143.9,50.1L143.9,50.1l1.1,1.7c0,6.9-0.6,21.8-1.1,29.3c-0.6,3.4-1.1,10.9-1.1,14.3c0,7.5-0.6,7.5,8,7.5h3.4
		v-2.9h-3.4v-4V76c0.6-1.1,1.1-2.3,2.9-2.3h0.6v-3.9c-0.3,0.2-0.7,0.4-1.1,0.4h-1.7V51.3h2.9V48l-1.7-0.1h-4.6
		C145.6,47.8,145,49,143.9,50.1 M154.2,103h0.6c3.4,0,7.5-1.7,9.2-4l1.7-18.4c0-2.9-0.6-3.4-0.6-6.9l-4-2.3c0.6-0.6,2.3-7.5,2.3-8.6
		v-8c0-3.4-2.3-5.2-4-6.3l-5.2-0.4v3.3h1.1c1.1,0,1.7,0.6,1.7,1.7v1.7l-1.1,13.8c-0.7,0.4-1.2,0.9-1.7,1.3v3.9h2.9
		c1.1,0,1.7,0.6,1.7,1.7V76c0,5.2-1.1,24.1-4.6,24.1V103z"/>
	<path id="XMLID_9_" class="st0" d="M111.1,45h-3.4c-1.1,4-0.6,16.6-1.1,23c-0.6,4.6-4,17.8-5.2,20.1l-2.3-12.6h-4
		c-4,0-3.4,9.2-6.3,11.5c-2.3-5.2-1.1-14.9-2.9-20.7c-1.1-5.7,0.6-18.4-5.7-18.4h-0.6c-2.9,0-1.1,9.2-1.1,12.6
		c0.6,4.6,1.1,9.2,1.1,14.3c0,8.6,4,17.8,4,27c0.6,0.6,1.7,1.1,1.7,1.1l6.9-0.6l2.3-11.5l3.4,11.5c5.7,0,6.3,0,6.3-5.2
		c1.7-2.9,2.9-9.8,4.6-13.2c2.9-6.3,3.4-4.6,3.4-14.3l1.1-1.7l1.7-19.5l0.6-0.6L111.1,45z"/>
	<path id="XMLID_8_" class="st0" d="M236.2,104.1h3.4l4.6-2.3c0-6.3-1.7-10.9-2.3-17.2c-0.6-5.2,0-11.5,0.6-18.4l12.1,33.3h5.2
		c1.1,0,2.3-1.1,2.3-2.3v-1.7c0-1.7-1.1-1.1-1.1-2.9v-4l1.7-29.8v-9.2c0-1.7,0-1.7-0.6-2.9c-1.1-0.6-1.1-0.6-2.9-0.6H258
		c-2.9,0-2.3,14.9-2.3,18.4c0,6.9-0.6,13.2-0.6,20.7c-1.7-2.3-5.2-15.5-6.9-19.5c-0.6-0.6-2.9-9.8-2.9-10.3c0-1.1-1.1-5.2-1.1-5.7
		c-0.6,0-5.2-1.7-5.2-1.7h-1.1c-1.7,0-3.4,0.6-3.4,2.3v28.7L236.2,104.1z"/>
	<path id="XMLID_7_" class="st0" d="M291.3,100.7v-1.1c-1.7-1.1-9.8-21.2-9.8-24.7v-1.7c0-2.3,8-17.2,8.6-24.1
		c-1.1-0.6-1.7-1.1-3.4-1.1h-0.6c-1.7,0-6.9,16.1-7.5,18.9c-2.3-2.9-2.9-5.7-4.6-9.8c-0.6-2.9-1.1-1.7-1.7-5.7
		c-0.6-2.3-1.1-3.4-4-3.4h-0.6c-1.1,0-1.7,0.6-1.7,1.7v0.6c0,6.3,9.8,19.5,9.8,23c0,2.9-13.8,30.4-8.6,30.4h0.6l5.2-0.6
		c0.6-4,3.4-17.8,6.3-18.4l6.3,16.1c1.1,0.6,1.1,0.6,2.9,0.6C290.1,101.2,290.1,101.2,291.3,100.7"/>
	<path id="XMLID_6_" class="st0" d="M192.6,89.7v11.5c0,1.1,1.1,2.3,2.3,2.3h0.6c2.3,0,8-1.7,11.5-1.7c3.4,0,10.9,0.6,10.9-2.3
		c0-1.7-1.7-2.3-2.9-2.3l-11.5,1.1c-3.4,0.6-2.3-21.2-2.3-24.7c0.6-4-0.6-9.8,0-13.8c0.6-2.3,2.3-10.9,2.3-12.1
		c-2.9,0-2.3-1.1-4.6-1.1h-1.7C192,46.7,192.6,81.7,192.6,89.7"/>
	<path id="XMLID_5_" class="st0" d="M169,49.6c0.6,1.1,0.6,1.7,0.6,3.4v33.9c0,3.4-1.7,16.6,1.1,16.1l18.4-2.9
		c-0.6-1.7-1.1-2.9-2.9-2.9h-4l-6.3,0.6v-1.7l0.6-17.8c3.4-1.7,5.7-0.6,8-1.7c2.9-1.1,2.9-4,4.6-6.3l-9.8,1.7h-2.9V61.6l-0.6-8.6
		c2.3,0,10.3,0,10.3-2.3V49l1.7-1.1l-17.8-0.6L169,49.6z"/>
	<path id="XMLID_4_" class="st0" d="M119.1,49l0.6,4.6v37.9c0,8.6-3.4,11.5,4,10.9c5.2-0.6,9.8-1.7,15.5-2.3
		c-0.6-1.7-1.1-2.9-2.9-2.9H126v-4.6l0.6-14.3c3.4-1.7,5.7-0.6,8-1.7c3.4-1.7,2.9-4,4.6-5.7L126.6,72L125.4,53
		c5.7-0.6,10.9,1.1,10.9-4l1.7-1.1l-17.8-0.6L119.1,49z"/>
	<path id="XMLID_3_" class="st0" d="M221.2,50.7v37.9l0.6,13.2c1.1,0.6,1.1,1.1,2.3,1.1h1.1c2.3,0,2.3-0.6,4-1.1l-1.1-8
		c-0.6-3.4,1.1-13.2,1.1-17.8c0-4.6,0.6-27-2.9-27h-3.4C221.8,49,221.2,49.6,221.2,50.7"/>
	<path id="XMLID_2_" class="st1" d="M56.3,51.8C51.1,50.9,45.8,52.2,42,56c-2.2,2.2-3.1,6.4-3.5,9.3c-0.5,1.8-2.5,2.7-4.1,3
		c-5.6,1.4-9,4.3-11.9,8c-3.9,5.9-4.2,9.8-5,16.6c-1.1,2-3.9,7-4.6,8.9c-0.2,1.3,0.4,1.3,1.4,1.3c5-1,9.2-4.5,14-6.1
		c1.3,0.3,2.9,0.6,4.5,0.9c-0.5,1-1,1.9-1.5,2.9v0.1h0.1c2.5-0.8,4.7-1.6,7.5-0.6c2.2,1.1,4.5,2.7,5.6,5h0.6
		c1.1-0.6,1.9-1.4,2.8-2.3v-0.2c-0.4-1.3-1.3-2.8-2.4-3.5c1.3-0.7,3.6,1.5,4.4,0.8c0.6-0.5,1-0.9,1.3-1.4c0.2-0.3-0.3-0.8-1.2-1.4
		c0.2-0.1,0.5-0.2,0.7-0.3C59.9,92.2,64,81.3,59,71.4c0-1.8,0.4-4.9,1.3-6.6c0.8-0.4,4.1-0.9,4.8-0.9c0.6-0.1,0.5-1.4,0.5-1.7
		c-0.6-2-2.5-3.2-4.5-3.2c-0.1-4.3-1.8-5.7-3.9-6.5c1.3-1.3,3.1-2.5,4.9-2.6c1.3-0.1,1.9,0.9,1.9,2.1c0.5,0.5,3.2-1.8,3-3.8
		c-0.1-1.3-2-2.9-4.8-2.2C59.3,46.8,56.5,50.2,56.3,51.8"/>
</g>
<g id="XMLID_13_">
</g>
<g id="XMLID_14_">
</g>
<g id="XMLID_15_">
</g>
<g id="XMLID_16_">
</g>
<g id="XMLID_17_">
</g>
<g id="XMLID_18_">
</g>
</svg>
