<?xml version="1.0" encoding="utf-8"?>
<!-- Generator: Adobe Illustrator 19.0.0, SVG Export Plug-In . SVG Version: 6.00 Build 0)  -->
<svg version="1.1" id="Layer_1" xmlns="http://www.w3.org/2000/svg" xmlns:xlink="http://www.w3.org/1999/xlink" x="0px" y="0px"
	 viewBox="0 0 314 152" style="enable-background:new 0 0 314 152;" xml:space="preserve">
<style type="text/css">
	.st0{fill:#E26159;}
	.st1{fill:#E51015;}
	.st2{fill:#FD4146;}
	.st3{fill:#BC0E0B;}
	.st4{fill:#94090A;}
	.st5{fill:#FFFFFF;}
</style>
<g id="Page-1">
	<g id="Product-submenu" transform="translate(-29.000000, -3.000000)">
		<g id="Group-11" transform="translate(29.000000, 3.000000)">
			<g id="Group-3">
				<g id="Group-Copy-2" transform="translate(33.888889, 6.666667)">
					<path id="Fill-1" d="M55.2,51c-0.6,0-1.1,0.2-1.5,0.6c-0.3,0.3-0.5,0.8-0.5,1.5v39.3c0,1.4,0.7,2.1,2,2.1h4.5
						c1.3,0,2-0.7,2-2.1V79.8h18.8c0.7,0,1.2-0.2,1.6-0.5c0.3-0.5,0.5-1,0.5-1.5v-3.7c0-0.6-0.2-1.1-0.5-1.5c-0.4-0.4-1-0.6-1.6-0.6
						H61.6V58.7h21.7c0.6,0,1-0.2,1.3-0.5c0.5-0.4,0.7-0.9,0.7-1.5v-3.6c0-0.7-0.2-1.2-0.7-1.5c-0.3-0.4-0.8-0.6-1.3-0.6H55.2"/>
					<path id="Fill-2" d="M121.8,55c-1.5-1.3-3.2-2.3-5.3-3c-2.1-0.7-4.4-1-6.8-1H94.3c-1.3,0-2,0.7-2,2v39.6c0,0.5,0.2,1,0.5,1.5
						c0.4,0.3,0.9,0.5,1.5,0.5h4.5c0.5,0,1-0.2,1.4-0.5c0.4-0.5,0.6-1,0.6-1.5V79.8h7.4l9.9,12c0.7,1.1,1.5,1.9,2.4,2.3
						c0.8,0.3,2,0.5,3.6,0.5h3.4c1.1,0,1.7-0.5,1.7-1.5c0-0.4-0.2-0.8-0.5-1.1l-11.2-13.6c1.4-0.6,2.6-1.3,3.6-2.2
						c1.1-0.8,2.1-1.8,2.7-2.9c0.8-1.1,1.5-2.4,1.9-3.7c0.5-1.4,0.7-2.8,0.7-4.2c0-2.1-0.4-4-1.2-5.9
						C124.4,57.7,123.3,56.2,121.8,55 M100.7,58.7h9.8c1.1,0,2.2,0.2,3.1,0.6c0.8,0.3,1.5,0.7,2.2,1.3c0.7,0.7,1.1,1.4,1.3,2.1
						c0.4,0.9,0.6,1.8,0.6,2.7c0,1-0.2,2-0.6,2.8c-0.2,0.8-0.7,1.5-1.3,2.1c-0.7,0.5-1.4,0.9-2.2,1.2c-0.9,0.3-2,0.5-3.1,0.5h-9.8
						V58.7"/>
					<path id="Fill-3" d="M169.9,94.5h5.1c0.6,0,1-0.2,1.3-0.6c0.3-0.6,0.4-1.1,0.2-1.6l-17.5-39.5c-0.5-1.3-1.4-1.9-2.7-1.9h-3.4
						c-1.3,0-2.2,0.6-2.7,1.9l-17.6,39.3c-0.2,0.6-0.1,1.1,0.2,1.7c0.4,0.4,0.9,0.6,1.5,0.6h5c1.1,0,2.1-0.7,2.7-2l3.4-8.5h18.3
						l3.5,8.5C167.7,93.9,168.7,94.5,169.9,94.5 M160.6,77.1h-12.5c2-5,4.1-10.5,6.5-16.8C156.7,66.5,158.8,72.1,160.6,77.1"/>
					<path id="Fill-4" d="M189.2,51h-3.8c-0.6,0-1.1,0.2-1.6,0.5c-0.4,0.4-0.6,0.9-0.6,1.5l-1.4,39.4c-0.1,0.6,0.1,1.1,0.5,1.6
						c0.4,0.3,0.9,0.5,1.5,0.5h4.3c1.4,0,2.2-0.7,2.3-2.1c0.3-11.1,0.5-16.9,0.5-17.5c0-0.8-0.1-3.7-0.2-8.5h0.3l10.3,18.2
						c0.8,1.4,1.9,2.1,3.2,2.1h1.1c1.4,0,2.4-0.7,3.3-2.1l10.1-18.2h0.4c-0.2,4.5-0.2,7.3-0.2,8.5c0.1,0.6,0.4,6.4,0.8,17.5
						c0,0.6,0.2,1.1,0.5,1.6c0.4,0.3,0.9,0.5,1.6,0.5h4.4c1.4,0,2.1-0.7,2.1-2.1L226.9,53c0-1.4-0.8-2-2.3-2h-3.8
						c-1.3,0-2.3,0.7-3,2L205,75l-12.6-22C191.7,51.7,190.6,51,189.2,51"/>
					<path id="Fill-5" d="M237.9,51.6c-0.4,0.3-0.5,0.8-0.5,1.5v39.3c0,1.4,0.7,2.1,2,2.1h28.1c0.6,0,1-0.2,1.4-0.5
						c0.5-0.5,0.7-1.1,0.7-1.6v-3.6c0-0.6-0.2-1-0.7-1.3c-0.4-0.5-0.8-0.8-1.4-0.8h-21.7V76h18.8c0.7,0,1.2-0.2,1.6-0.5
						c0.4-0.4,0.5-0.9,0.5-1.5v-3.6c0-0.7-0.2-1.2-0.5-1.6c-0.4-0.3-0.9-0.5-1.6-0.5h-18.8v-9.7h21.7c0.6,0,1-0.2,1.4-0.5
						c0.5-0.4,0.7-0.9,0.7-1.5v-3.6c0-0.7-0.2-1.2-0.7-1.5c-0.4-0.4-0.8-0.6-1.4-0.6h-28.1C238.9,51,238.4,51.2,237.9,51.6"/>
				</g>
				<path id="Fill-6-Copy-2" class="st0" d="M52.2,79.6l-14.3,2.9V70.9L52.2,68v-7.1l20.5-4.2V101L52.2,86.8V79.6"/>
				<path id="Fill-7-Copy-2" class="st1" d="M52.2,79.6l-14.3,2.9V70.9L52.2,68v-7.1l20.5-4.2V101L52.2,86.8V79.6"/>
				<path id="Fill-8-Copy-2" class="st2" d="M52.2,42.5l20.5,14.3l-20.5,4.2V42.5"/>
				<path id="Fill-9-Copy-2" class="st1" d="M52.2,42.5v18.4L31,65.2L10.5,51L52.2,42.5"/>
				<path id="Fill-10-Copy-2" class="st3" d="M31,65.2v25.8l-20.5,4.2V51L31,65.2"/>
				<path id="Fill-11-Copy-2" class="st4" d="M31,91.1v18.4L10.5,95.2L31,91.1"/>
				<path id="Fill-12-Copy-2" class="st3" d="M72.7,101l-34.8,7.1V89.7l14.3-2.9L72.7,101"/>
				<path id="Fill-13-Copy-2" class="st5" d="M37.9,108.1l-6.9,1.4V65.1l21.2-4.1V68l-14.3,3v11.5l14.3-2.9v7.1l-14.3,3"/>
			</g>
		</g>
	</g>
</g>
</svg>
