<?xml version="1.0" encoding="utf-8"?>
<!-- Generator: Adobe Illustrator 19.0.0, SVG Export Plug-In . SVG Version: 6.00 Build 0)  -->
<svg version="1.1" id="Layer_1" xmlns="http://www.w3.org/2000/svg" xmlns:xlink="http://www.w3.org/1999/xlink" x="0px" y="0px"
	 viewBox="0 0 314 152" style="enable-background:new 0 0 314 152;" xml:space="preserve">
<style type="text/css">
	.st0{fill:#022169;}
</style>
<g id="XMLID_144_">
	<g id="XMLID_169_">
		<polygon id="XMLID_187_" class="st0" points="116.1,101.3 116.1,67.2 123.1,67.2 123.1,81.4 136.6,81.4 136.6,67.2 143.7,67.2 
			143.7,101.3 136.6,101.3 136.6,86.1 123.1,86.1 123.1,101.3 		"/>
		<path id="XMLID_184_" class="st0" d="M176,75.2c-1.2-2.7-3-4.8-5.4-6.2c-2.3-1.4-5.1-2.2-8.2-2.2c-3.1,0-5.9,0.7-8.2,2.2
			c-2.4,1.4-4.1,3.5-5.4,6.2c-1.2,2.7-1.8,5.7-1.8,9.1c0,3.4,0.6,6.5,1.8,9.2c1.2,2.7,3,4.7,5.3,6.2c2.3,1.4,5.1,2.1,8.2,2.1
			c3.2,0,5.9-0.7,8.3-2.1c2.3-1.5,4.1-3.5,5.3-6.2c1.2-2.7,1.8-5.7,1.8-9.2C177.9,80.9,177.3,77.8,176,75.2 M168.6,93.2
			c-1.3,2.6-3.4,3.9-6.1,3.9c-2.8,0-4.8-1.3-6.1-3.9c-1.4-2.6-2-5.6-2-8.9c0-3.4,0.7-6.3,2-8.9c1.3-2.6,3.4-3.9,6.1-3.9
			c2.7,0,4.8,1.3,6.1,3.9c1.4,2.6,2,5.6,2,8.9C170.6,87.6,169.9,90.6,168.6,93.2"/>
		<path id="XMLID_181_" class="st0" d="M198.4,85.6c2.1-0.9,3.8-2.5,4.9-4.2c1.2-1.8,1.6-3.7,1.6-5.7c0-1.7-0.4-3.2-1.2-4.5
			c-0.8-1.3-1.9-2.3-3.2-3c-1.4-0.6-3.4-1-6-1h-13.2v34.1h7.2V87.4h3.9l9.6,13.9h7.5L198.4,85.6z M196.1,80.7
			c-1.1,1.3-3.1,1.9-6.1,1.9h-1.6V71.9h2.5c2.8,0,4.6,0.4,5.5,1.2c0.9,0.8,1.4,1.9,1.4,3.3C197.7,78,197.2,79.4,196.1,80.7"/>
		<polygon id="XMLID_180_" class="st0" points="248.7,101.3 248.7,67.2 271.1,67.2 271.1,71.9 255.7,71.9 255.7,81.4 268.5,81.4 
			268.5,86.1 255.7,86.1 255.7,96.6 271.1,96.6 271.1,101.3 		"/>
		<polygon id="XMLID_179_" class="st0" points="274.5,101.3 274.5,67.3 281.9,67.3 295.3,90.6 295.3,67.3 302.2,67.3 302.2,101.3 
			294.6,101.3 281.4,78.1 281.4,101.3 		"/>
		<path id="XMLID_178_" class="st0" d="M244.1,86.7c-1-1.5-3.4-3.3-7.2-5.4l-2.5-1.3c-2.1-1.2-3.5-2.1-4-2.8
			c-0.6-0.7-0.8-1.4-0.8-2.2c0-1,0.4-1.9,1.3-2.6c0.9-0.7,2.2-1,3.9-1c3.9,0,8.4,1.6,8.4,1.6v-4.6c-2.9-1.1-6.5-1.7-9.3-1.7
			c-3.7,0-6.5,0.9-8.4,2.7c-2,1.8-2.9,3.9-2.9,6.4c0,2,0.6,3.8,1.8,5.3c1.2,1.5,3.4,3.2,6.7,5l2.3,1.2c2.2,1.2,3.5,2.1,4,2.9
			c0.5,0.8,0.8,1.6,0.8,2.5c0,1.2-0.5,2.3-1.5,3.1c-1,0.9-2.5,1.2-4.5,1.2c-1.1,0-2.3-0.1-3.6-0.3c-2.8-0.4-5.5-1.4-5.5-1.4v4.9
			c0,0,5.5,1.6,9.2,1.5c4.6,0,8-1,10.2-2.9c2.1-1.9,3.2-4.3,3.2-7C245.6,90,245.1,88.2,244.1,86.7"/>
		<rect id="XMLID_177_" x="212.2" y="67.2" class="st0" width="6.8" height="34.1"/>
		<g id="XMLID_170_">
			<path id="XMLID_176_" class="st0" d="M98.8,88.5c-2.8-1.6-8.6-4.5-11.3-5.9c-1.8-0.9-2.1-0.4-3.7,0.2c0,0,10.3,16,10.3,16
				C94.7,98.7,104.7,91.9,98.8,88.5"/>
			<path id="XMLID_175_" class="st0" d="M66.5,74.9c0-0.1-0.1-0.2-0.1-0.4c-0.2-0.2-0.4-0.4-0.8-0.6C53.8,69.2,8.3,49.7,4.4,48
				c1.9,15.7,12.3,17.6,16.1,18.4c6.4,1.3,39.3,7.7,46.2,9C66.6,75.3,66.5,75.1,66.5,74.9"/>
			<path id="XMLID_174_" class="st0" d="M67.4,77.3l-51.3-4.8c3.5,7.9,10.4,12.8,20.8,11.3c5.5-0.8,29.1-4.5,31.5-5
				C68.1,78.4,67.7,77.9,67.4,77.3"/>
			<path id="XMLID_173_" class="st0" d="M69.8,80.4c-1.7,0.5-35.3,10-35.3,10.1c3,3.1,12.1,9.5,21.5,3.2c2.5-1.6,13.1-9.6,15.8-11.7
				C71,81.4,70.4,80.9,69.8,80.4"/>
			<path id="XMLID_172_" class="st0" d="M73.6,82.8c-0.9,0.9-18.1,17.9-18.1,17.9c2.3,1.5,14.1,5.2,16.8-2.9
				c0.4-1.1,2.4-8.6,3.9-14.3C75.3,83.4,74.4,83.2,73.6,82.8"/>
			<path id="XMLID_171_" class="st0" d="M80.7,83.4c-0.9,0.2-1.7,0.3-2.7,0.3c0,0,0,0-0.1,0c-0.2,1.9-2,20.2-1.9,20.2
				c1.7,0.4,13.4-0.5,10.5-7.4C85.1,92.9,81.4,84.9,80.7,83.4"/>
		</g>
	</g>
	<path id="XMLID_164_" class="st0" d="M307.7,69.8c0.5-0.1,0.7-0.4,0.7-0.7c0-0.2-0.1-0.4-0.3-0.5c-0.2-0.2-0.4-0.2-0.9-0.2h-0.9
		v2.5h0.5v-1h0.1c0.2,0,0.3,0,0.5,0.2c0.2,0.2,0.2,0.3,0.3,0.4l0.2,0.4h0.6l-0.3-0.5C308,70,307.9,69.9,307.7,69.8 M307.6,69.5
		c-0.1,0-0.4,0-0.5,0h-0.2v-0.7h0.2c0.4,0,0.5,0,0.6,0.1c0.1,0.1,0.1,0.1,0.1,0.3C307.8,69.2,307.8,69.4,307.6,69.5 M307.3,67.3
		c-1.3,0-2.3,1.1-2.3,2.3c0,1.3,1,2.3,2.3,2.3c1.3,0,2.3-1,2.3-2.3C309.6,68.4,308.6,67.3,307.3,67.3 M307.3,71.5
		c-1,0-1.9-0.8-1.9-1.9c0-1,0.8-1.9,1.9-1.9c1,0,1.9,0.8,1.9,1.9C309.2,70.7,308.3,71.5,307.3,71.5"/>
</g>
<g id="XMLID_146_">
</g>
<g id="XMLID_147_">
</g>
<g id="XMLID_149_">
</g>
<g id="XMLID_150_">
</g>
<g id="XMLID_152_">
</g>
<g id="XMLID_153_">
</g>
<g id="XMLID_188_">
</g>
<g id="XMLID_189_">
</g>
<g id="XMLID_190_">
</g>
<g id="XMLID_191_">
</g>
<g id="XMLID_192_">
</g>
<g id="XMLID_193_">
</g>
<g id="XMLID_194_">
</g>
<g id="XMLID_195_">
</g>
<g id="XMLID_196_">
</g>
</svg>
