<?xml version="1.0" encoding="utf-8"?>
<!-- Generator: Adobe Illustrator 19.0.0, SVG Export Plug-In . SVG Version: 6.00 Build 0)  -->
<svg version="1.1" id="Layer_1" xmlns="http://www.w3.org/2000/svg" xmlns:xlink="http://www.w3.org/1999/xlink" x="0px" y="0px"
	 viewBox="0 0 157 152" style="enable-background:new 0 0 157 152;" xml:space="preserve">
<style type="text/css">
	.st0{fill:#232C3A;}
	.st1{fill:#242D3A;}
	.st2{fill:#27303D;}
	.st3{fill:#545B65;}
	.st4{fill:#00CFE1;}
	.st5{fill:#1C2533;}
	.st6{fill:#00C8DA;}
	.st7{fill:#232B39;}
	.st8{fill:#222A38;}
	.st9{fill:#FDFDFD;}
	.st10{fill:#FBFBFB;}
</style>
<g id="XMLID_114_">
	<path id="XMLID_207_" class="st0" d="M50.1,147.9c-0.7-0.7-1.7-1.1-2.1-2.1c-0.7-1.7-0.6-3.3,0.7-4.8c1.3-1.5,3-1.5,4.7-1
		c0.5,0.1,1.3,0.3,1,1.1c-0.3,0.8-0.8,0.4-1.5,0.3c-2.4-0.7-4,0.5-3.8,2.7c0.1,1.7,1.5,2.8,3.2,2.5c0.6-0.1,1.2-0.3,1.3-1
		c0.1-0.9-0.6-0.9-1.2-0.9c-0.5,0-0.9-0.1-0.8-0.8c0.1-0.6,0.7-0.6,1.1-0.5c0.8,0.1,2-0.6,2.3,0.6c0.4,1.6,0.2,3.2-1.7,4
		C52.2,147.9,51.1,147.9,50.1,147.9z"/>
	<path id="XMLID_206_" class="st1" d="M105.1,147.9c-0.4-0.2-0.7-0.5-1.1-0.7c-0.4-0.3-0.8-0.5-0.4-1c0.3-0.5,0.7-0.5,1.1-0.1
		c0.1,0.1,0.3,0.2,0.4,0.2c1,0.3,2.3,0.9,2.7-0.4c0.4-1.2-1-1.2-1.8-1.4c-1.1-0.4-2.2-0.6-2.4-2c-0.1-1.1,0.2-2,1.3-2.4
		c1.2-0.5,2.5-0.4,3.6,0.3c0.4,0.2,0.6,0.4,0.3,0.9c-0.2,0.3-0.4,0.5-0.7,0.4c-0.2-0.1-0.4-0.2-0.6-0.3c-0.8-0.2-2-0.7-2.4,0.3
		c-0.5,1.3,0.9,1.2,1.7,1.5c1.1,0.4,2.4,0.7,2.6,2.1c0.2,1.3-0.8,2-1.7,2.6C106.9,147.9,106,147.9,105.1,147.9z"/>
	<path id="XMLID_135_" class="st2" d="M83.9,141.1c0-0.5,0.2-1.1-0.6-1.2c-0.7-0.1-1.1,0.1-1.5,0.7c-0.6,0.9-1.2,1.8-1.9,2.9
		c-0.8-1.2-1.4-2.1-2-3.1c-0.3-0.6-0.8-0.6-1.3-0.5c-0.8,0.1-0.6,0.8-0.6,1.2c0,2.3,0,3.9,0,6.9c0.4,0,0.9,0,1.3,0
		c0-1,0-1.8,0.1-2.7c0-0.8,0-1.6,0-3c1,1.4,1.7,2.3,2.4,3.4c0,0,0.1,0,0.1,0c0.7-1,1.3-1.8,2.1-2.9c0.8,1.7-0.2,3.2,0.6,5.2
		c0.3,0,0.6,0,0.9,0C84.3,145,83.8,143.4,83.9,141.1z"/>
	<path id="XMLID_202_" class="st3" d="M97,147.5c0,0.2,0.1,0.3,0.1,0.5c-1.9,0-3.9,0-5.8,0c0-0.1,0-0.3,0-0.4
		C93.2,146.7,95.1,146.9,97,147.5z"/>
	<path id="XMLID_201_" class="st4" d="M22.7,101.4c-5,0.1-5,0.1-3.9-4.9C25.4,68.3,32,40,38.5,11.8c0.4-1.5,0.9-2.1,2.6-2.2
		c17.6-1.2,35.2-2.5,52.8-3.8c6.5-0.5,12.9-0.8,19.4-1.4c1.8-0.2,2.1,0.8,2.4,2.1c7.3,28.5,14.7,57,22.1,85.5c0.7,2.5,1.2,5.1,2,7.5
		c0.5,1.7,0.1,2.1-1.5,2c-0.9-0.1-1.8,0-2.7,0c-0.8-0.9-0.5-2-0.6-3c-0.2-3-2.2-4.1-4.7-2.5c-1.5,1-2.1,0.8-2.7-0.8
		c-0.7-1.8-2.6-2.2-4.2-0.8c-1.5,1.2-2.6,1.8-4.3,0.2c-1.3-1.2-3-0.4-4.3,0.6c-1.6,1.3-2.3,3-3,4.9c-0.2,0.6-0.3,1.3-0.8,1.8
		c0,0-0.1,0-0.2,0c-0.1,0-0.1-0.1-0.1-0.3c-1.8-0.1-3.5-0.1-5.3-0.2c0.1-0.9,0.9-1.3,1.5-1.9c1.7-1.5,3.2-3.1,4.3-5.1
		c1-2,1.3-4.1,0.7-6.3c-0.8-2.7-2.5-3.8-5.2-3.3c-2.7,0.5-2.9,0.3-2.9-2.5c0-12.9-0.2-25.8,0.1-38.7c0.1-5.4-1.4-10.1-4-14.6
		c-0.4-0.6-0.8-1.3-1.1-2c-0.2,0.4,0,0.7-0.1,1.1c-0.5,1.9-1.2,2.2-2.8,1c-2.8-2.2-5.2-4.9-8.1-7.1c0.5,2,1.2,4,1.7,6
		c0.3,0.9,0.9,2.1,0,2.7c-0.8,0.5-1.6-0.4-2.3-1c-2.6-2.2-5.2-4.4-7.9-6.8c0.7,1.8,1.3,3.6,1.9,5.4c0.2,0.7,0.6,1.5-0.2,2.1
		c-0.6,0.5-1.3,0.1-1.9-0.2c-2.1-1-4.1-2.1-6.5-3.2c0.4,1.1,1.1,1.8,1.5,2.6c0.8,1.6,0.4,2.2-1.4,2.1c-2.7-0.2-5.5-0.5-8.2-0.9
		c-1.6-0.2-3.3-0.2-4.9-0.6c-0.1,0.1-0.1,0.2,0.1,0.3c0.8,0.7,2.1,1.2,1.7,2.3c-0.4,1-1.7,0.3-2.7,0.3c-4.3-0.1-8.6-0.5-12.4-0.8
		c2.3,1.3,5.1,2.7,7.7,4.3c1.4,0.9,1.3,2.2,1.3,3.6c0,8.9,0,17.7,0,26.6c0,5.2,0,10.4,0,15.7c0,2.8-0.2,2.9-2.8,2.3
		c-3.5-0.9-6.3,1.5-6.1,5.4c0.2,3.7,2.1,6.4,4.8,8.8c0.8,0.7,2,1.1,2.2,2.4c-1.9,0-3.9,0.1-5.8,0.1c-1.4-1.1-1.6-3-2.4-4.4
		c-1-1.6-2.2-2.8-4.1-3c-1-0.1-2,0.1-2.5,1c-0.9,1.6-1.7,1.1-2.5,0c-0.3-0.4-0.7-0.8-1.2-1c-1.7-1-3.6-0.6-4.5,1.3
		c-0.5,1.1-0.9,1.5-2.1,0.8c-3.4-1.9-5.3-0.7-5.1,3.2C23,100,23.4,100.8,22.7,101.4z"/>
	<path id="XMLID_200_" class="st5" d="M53.3,101.3c-3.4-2.3-6.3-5-7.4-9.2c-0.3-1.2-0.4-2.4-0.2-3.5c0.6-3.4,3.7-6.6,8.9-3.4
		c0-1.2,0-2.1,0-3.1c0-14.1,0-28.2,0-42.3c0-1.5-0.4-2.4-1.8-3.1c-2.9-1.5-5.7-3.1-8.4-5c5.5,0.4,11,0.7,16.8,1.1
		c-0.9-1.6-2.7-1.9-3.8-3.5c5.7,0.6,11.1,1.2,16.9,1.9c-1.2-1.8-2.2-3.4-3.2-5c0.1-0.1,0.1-0.2,0.2-0.3c3.1,1.5,6.2,2.9,9.8,4.6
		c-1.1-3.2-2-6-3.2-9.4c4.1,3.5,7.6,6.5,11.7,10c-1.1-3.9-2.1-7.3-3.3-11.1c3.9,3.5,7.4,6.6,11.1,10c0.6-1.4,0.3-2.8,0.6-4.6
		c2.9,4.8,6,8.9,6.1,14.2c0.2,14.2,0,28.5,0,42.7c0,0.8,0,1.6,0,2.3c0.4,0.3,0.7,0.1,0.9,0c3.9-1.7,7.3,0.3,7.6,4.6
		c0.4,4.3-1.8,7.4-4.7,10.1c-0.8,0.8-1.7,1.4-2.6,2.1c-1,0.4-2,0.5-3,0.5c-15.3,0-30.7,0-46,0C55.3,101.9,54.3,101.7,53.3,101.3z"/>
	<path id="XMLID_198_" class="st5" d="M22.7,101.4c-0.1-0.4-0.2-0.9-0.2-1.3c-0.1-1.9-0.5-4,1.4-5c1.9-1.1,3.9-0.5,5.5,1.5
		c0.3-1.8,0.7-3.3,2.6-3.6c2.5-0.5,4,1.1,5.3,3c1.3-3.1,4.6-3.5,7-1c1.8,1.8,2.4,4.2,3.2,6.5c0.1,0.4,0.1,0.9,0.2,1.3
		c0.3,1.9,0.2,3.6-1.8,4.6c-1.8,0.9-3.9,0.3-5.4-1.4c-0.3-0.4-0.6-0.8-1-1.2c-2.3,4.6-5,4.6-8.5-0.2c-0.4,1.8-1.3,2.8-3,2.8
		c-1.9,0.1-3.1-0.9-3.9-2.5C23.6,103.8,23.2,102.6,22.7,101.4z"/>
	<path id="XMLID_197_" class="st5" d="M110.7,101.5c0.6-1.8,1.1-3.7,2.2-5.3c1-1.6,2.4-2.7,4.3-2.8c1.7-0.1,3.1,0.3,3.6,2.4
		c1.5-1.5,2.6-3,4.7-3c2.3,0,3,1.5,3.3,3.5c0.7-0.5,1.1-0.9,1.7-1.3c2.6-1.5,5-0.2,5.2,2.7c0.1,1.2,0,2.4-0.1,3.6
		c-0.6,1.3-0.9,2.8-1.8,4c-2,2.9-5.1,2.7-6.7-0.7c-1.2,1.5-2.4,3.1-4.5,3.3c-2.3,0.2-3.2-1.3-3.8-3.3c-1.1,0.7-1.5,2-2.8,2.6
		c-3,1.4-5.7-0.4-5.6-3.6C110.5,103,110.6,102.3,110.7,101.5z"/>
	<path id="XMLID_196_" class="st6" d="M30.7,122.5c-1.3,1.6-2.6,3.2-3.8,4.8c-0.7,1-1.2,1.1-2,0c-1.2-1.7-2.6-3.3-4.3-5.5
		c0,3.6-0.1,6.5,0,9.5c0.1,1.5-0.4,1.9-1.9,1.9c-3.6,0-3.6,0-3.6-3.4c0-4.3,0.1-8.6,0-13c0-1.5,0.4-1.8,1.9-2.1
		c3.8-0.7,5.3,1.7,7,4.2c1.8,2.6,1.9,2.6,3.7,0c0.3-0.4,0.7-0.8,0.9-1.3c1.3-3.3,4.1-3.1,6.9-2.9c0.9,0,1.1,0.5,1.1,1.3
		c0,5.3,0,10.6,0,15.9c0,1-0.4,1.2-1.3,1.3c-4.2,0.3-4.2,0.3-4.2-3.8c0-2.3,0-4.5,0-6.8C31,122.6,30.8,122.5,30.7,122.5z"/>
	<path id="XMLID_195_" class="st5" d="M90.5,124.2c0,2.5-0.1,4.9,0,7.4c0.1,1.3-0.4,1.6-1.6,1.6c-3.9,0-3.9,0.1-3.9-3.7
		c0-1.4-0.4-1.9-1.8-1.7c-0.1,0-0.3,0-0.4,0c-3.4,0-3.5,0-3.4,3.4c0.1,1.7-0.5,2.1-2.1,2c-3.6-0.1-3.6,0-3.6-3.6c0-4.3,0.1-8.6,0-13
		c0-1.4,0.3-1.9,1.8-1.9c3.9,0.1,3.9,0,3.9,3.8c0,0.7,0,1.3,0,2c0,3.2,0,3,3.2,3.2c1.9,0.1,2.7-0.4,2.5-2.4
		c-0.2-1.6,0.1-3.3-0.1-4.9c-0.1-1.5,0.5-1.7,1.8-1.7c3.8,0,3.8,0,3.8,3.9C90.5,120.5,90.5,122.4,90.5,124.2z"/>
	<path id="XMLID_192_" class="st7" d="M97,147.5c-1.9,0-3.8,0-5.8,0c0-2.2-0.1-4.3-0.1-6.5c0-0.6,0-1.2,0.9-1.2c1.4,0,2.8,0,4.2,0
		c0.4,0,0.8,0,0.8,0.5c0,0.6-0.4,0.7-0.9,0.7c-0.8,0-1.6,0-2.5,0c-0.6,0-1.2,0-1.2,0.9c0,0.8,0.3,1,1,1.1c1,0.1,2.8-0.7,2.8,0.7
		c0,1.2-1.8,0.5-2.8,0.6c-0.8,0.1-1,0.4-1,1.1c0,0.7,0.2,1.1,1,1.1c0.9,0,1.8,0,2.7,0C96.8,146.5,97.2,146.8,97,147.5z"/>
	<path id="XMLID_137_" class="st5" d="M141.5,121.2c-1.6-4.3-4.5-6.3-9-6.3c-2.1,0-4.2,0.1-6.3,0c-1.2,0-1.6,0.2-1.3,1.5
		c1.2,5.2,2.2,10.5,3.4,15.7c0.1,0.4,0,1,0.7,1.2c3.8,1.3,9.8-1.1,11.9-4.9c0.3-0.6,0.2-1.5,1.2-1.8c0-1.6,0-3.3,0-4.9
		C142,121.4,141.5,121.3,141.5,121.2z M134,127.7c-1.3,0.3-2.5,0.5-2.6-1.5c-0.2-1.7-0.6-3.4-1.1-5c-0.5-1.8,0-2.5,1.6-2.2
		c3.2,0,5,1.5,5.3,3.9C137.5,125,136,127.2,134,127.7z"/>
	<path id="XMLID_141_" class="st8" d="M66.3,140.6c-0.6-1.3-1.5-1-2,0.2c-1,2.4-2,4.2-3.1,7.2c0.4,0,0.9,0,1.3,0
		c0.4-2,1.7-2.2,3.4-2.1c1.5,0.1,1.7,1.1,2,2.1c0.4,0,0.9,0,1.3,0C68.8,145,67.4,143,66.3,140.6z M64.5,144.5
		c-0.6-0.9,0.5-1.7,0.8-2.6c0.6,0.8,1.1,1.6,1.2,2.6C65.8,144.8,64.8,145,64.5,144.5z"/>
	<path id="XMLID_189_" class="st9" d="M76.5,33.1c0.9-0.4,1.5-0.1,2.2,0.2c5,2.5,9.9,5,15,7.5c1.3,0.6,1.4,1.1,0.4,2.2
		c-4.6,5.1-9,10.3-13.5,15.5c-0.9,1.1-1.4,1.1-2.3,0c-4-4.9-8.1-9.7-12.3-14.5C65,43,65,42.4,66.5,42c3.5-1.2,7-2.4,10.5-3.7
		c1-0.4,1.6-0.2,2.4,0.4c1.6,1.4,3.3,2.8,5,4.1c0.9,0.7,1.1,1.2,0.3,2.1c-1.8,2.3-3.6,4.8-5.3,7.2c-0.7,0.9-1.2,0.9-1.8,0
		c-1.3-1.8-2.7-3.6-4.1-5.3c-0.8-1-0.4-1.4,0.6-1.7c0.4-0.1,0.8-0.3,1.2-0.5c1.1-0.5,2.2-1,2.8,0.5c0.6,1.4-0.9,1.2-1.5,1.6
		c-0.6,0.4-1.1,0.8-0.3,1.3c0.8,0.5,1.2,2.4,2.6,1.1c1.1-1.1,2-2.4,2.9-3.6c0.2-0.2,0.3-0.5,0.3-0.8c-0.2-1.3-4.6-3.8-5.9-3.3
		c-2,0.7-3.9,1.4-5.9,2c-1.3,0.4-1.4,0.9-0.5,2c2.8,3.7,5.6,7.4,8.3,11.1c1,1.3,1.4,1,2.2-0.1c3-4.2,6.1-8.5,9.2-12.6
		c0.8-1.1,0.6-1.6-0.5-2.3C84.8,38.7,80.7,36,76.5,33.1z"/>
	<path id="XMLID_188_" class="st9" d="M65.6,86.2c0-2.6,1.9-4.5,4.5-4.5c2.5,0,4.6,2.1,4.5,4.6c-0.1,2.4-2.1,4.4-4.4,4.4
		C67.7,90.7,65.7,88.8,65.6,86.2z"/>
	<path id="XMLID_187_" class="st10" d="M90.2,85.1c1.5,0,2.9,1.3,2.8,2.8c-0.1,1.6-1.1,2.6-2.7,2.7c-1.6,0.1-2.6-0.9-2.8-2.5
		C87.4,86.5,88.6,85.1,90.2,85.1z"/>
	<path id="XMLID_134_" class="st5" d="M125.2,131.6c-1.1-5.1-2.2-10.2-3.2-15.3c-0.3-1.3-0.8-1.6-2.1-1.6c-2.3,0.1-4.6,0.1-6.9,0
		c-1.4-0.1-1.8,0.5-2,1.7c-0.8,3.9-1.8,7.8-2.5,11.8c-0.2,1.1-0.7,1.4-1.7,1.4c-2.2-0.1-4.5,0-6.7,0c-0.5,0-1.1,0.2-1.3-0.7
		c-0.5-2.3,0.1-3.1,2.4-3.1c0.5,0,1,0,1.6,0c1.3,0.1,2.2,0.2,2.2-1.7c0-1.8-0.8-1.9-2.1-1.8c-0.8,0.1-1.6-0.1-2.5,0
		c-1.7,0.2-1.6-0.9-1.5-1.9c0-1-0.2-2.1,1.5-2c2.1,0.1,4.2,0,6.3,0c2.1,0,1.4-1.8,1.6-2.8c0.3-1.2-1-0.7-1.6-0.7
		c-3.8-0.1-7.6,0-11.4-0.1c-1.3,0-1.9,0.1-1.8,1.7c0.1,2.4,0,4.9,0,7.4c0,2.4,0.1,4.8,0,7.1c-0.1,1.6,0.3,2.3,2.1,2.2
		c5.1-0.1,10.3-0.1,15.4,0c1.5,0,2.4-0.2,2.4-2c0-1.7,0.9-2.4,2.7-2.2c1.6,0.2,3.8-0.6,3.8,2.2c0,1.5,0.8,2.1,2.2,1.9
		c0.7-0.1,1.3-0.1,2,0C125.4,133.4,125.4,132.7,125.2,131.6z M115.3,122.1c0.2-1-0.2-2.7,1.2-2.7c1.5,0,0.9,1.8,1.3,2.8
		c0.4,1,0.5,2.1,0.8,3.2C114.4,125.9,114.3,125.9,115.3,122.1z"/>
	<path id="XMLID_128_" class="st6" d="M54.7,131.8c-0.9-4.1-1.7-8.2-2.5-12.2c-1-4.7-1-4.7-5.8-4.7c-1,0-2,0.1-2.9,0
		c-1.7-0.2-2.2,0.4-2.6,2.1c-1.1,4.8-1.5,9.7-1.7,14.6c0,0.6-0.6,1.6,0.7,1.6c0.9,0,2.4,0.5,2.4-1.1c0-3,1.8-3,4.1-3
		c1.9,0,2.7,0.5,2.8,2.4c0.1,1.3,0.6,2,2.1,1.8c0.7-0.1,1.5-0.1,2.2,0C54.8,133.3,55,132.9,54.7,131.8z M46,124.7
		c-0.6-0.3-2,0.5-1.6-1c0.4-1.5,0.1-4.3,1.7-4.2c1.5,0,1.2,2.8,1.5,4.4C47.9,125.2,46.6,124.4,46,124.7z"/>
	<path id="XMLID_131_" class="st6" d="M65,115.2c-1.8-0.6-3.7-0.3-5.3-0.4c-1.3,0-2.4,0.1-3.4,0c-1.8-0.2-2.1,0.5-1.7,2.1
		c0.9,4,1.8,8,2.6,12c0.9,4.6,0.9,4.6,5.6,4.3c4.5-0.2,8.1-3.8,8.6-8.5C71.9,120.5,69.2,116.5,65,115.2z M65.3,127.5
		c-0.8,0.7-1.8,1.3-2.8,1.1c-1.2-0.2-0.8-1.5-1-2.2c-0.5-1.9-0.7-3.9-1.2-5.9c-0.2-1.1,0.1-1.4,1.2-1.5c3.2-0.1,5.4,1.8,5.3,4.9
		C66.8,125.3,66.4,126.5,65.3,127.5z"/>
</g>
<g id="XMLID_92_">
</g>
<g id="XMLID_93_">
</g>
<g id="XMLID_112_">
</g>
<g id="XMLID_113_">
</g>
<g id="XMLID_117_">
</g>
<g id="XMLID_138_">
</g>
<g id="XMLID_139_">
</g>
<g id="XMLID_142_">
</g>
<g id="XMLID_143_">
</g>
<g id="XMLID_144_">
</g>
<g id="XMLID_145_">
</g>
<g id="XMLID_146_">
</g>
<g id="XMLID_147_">
</g>
<g id="XMLID_148_">
</g>
<g id="XMLID_149_">
</g>
</svg>
