<?xml version="1.0" encoding="utf-8"?>
<!-- Generator: Adobe Illustrator 19.0.0, SVG Export Plug-In . SVG Version: 6.00 Build 0)  -->
<svg version="1.1" id="Layer_1" xmlns="http://www.w3.org/2000/svg" xmlns:xlink="http://www.w3.org/1999/xlink" x="0px" y="0px"
	 viewBox="0 0 841.9 595.3" style="enable-background:new 0 0 841.9 595.3;" xml:space="preserve">
<style type="text/css">
	.st0{fill:url(#SVGID_1_);}
	.st1{fill:#FFFFFF;}
	.st2{fill-rule:evenodd;clip-rule:evenodd;fill:#FFFFFF;}
	.st3{fill:url(#SVGID_2_);}
</style>
<g>
	
		<radialGradient id="SVGID_1_" cx="602.8794" cy="316.3398" r="201.498" gradientTransform="matrix(1.02 0 0 0.99 -12.2777 -2.5819)" gradientUnits="userSpaceOnUse">
		<stop  offset="0.6319" style="stop-color:#DD1B29"/>
		<stop  offset="1" style="stop-color:#B1101E"/>
	</radialGradient>
	<path class="st0" d="M495.3,408.5c-51.6-38.9-92-83.8-107.7-121c-30-71.1,16.4-139.4,87.5-146.2c30.3-2.9,62.7,6,90.4,32.1
		c28.9-28.8,75.1-45.8,135-41.4c111,8.1,146.9,103.5,115.8,172.8c-17.2,38.2-44.2,65.3-93.7,93.4c-67.5,38.1-106.6,65.7-126.8,91.9
		C584.1,470.6,526.7,432.1,495.3,408.5z"/>
	<g>
		<path class="st1" d="M571.8,418.8h-4.4v-12.1h4.2c2.5,0,3.7,1.5,3.7,3.1c0,0.9-0.5,1.9-1.4,2.4v0c1.5,0.4,2.2,1.6,2.2,2.9
			C576.1,416.9,574.7,418.8,571.8,418.8z M571,409h-0.8v2.6h0.9c0.9,0,1.4-0.6,1.4-1.3C572.5,409.6,572,409,571,409z M571.6,413.8
			h-1.4v2.7h1.2c1.3,0,1.9-0.5,1.9-1.4C573.3,414.3,572.7,413.8,571.6,413.8z"/>
		<path class="st1" d="M578,418.8v-12.1h2.8v9.9h4.2v2.3H578z"/>
		<path class="st1" d="M595,418.8l-1.2-2.9h-3.9l-1.1,2.9H586l4.8-12.2h2.2l5,12.2H595z M592.4,412c-0.3-0.8-0.4-1.3-0.5-1.7h0
			c-0.1,0.4-0.3,0.9-0.6,1.7l-0.6,1.7h2.3L592.4,412z"/>
		<path class="st1" d="M605.2,419c-4.2,0-6.5-2.5-6.5-6c0-3.7,2.8-6.5,7-6.5c1.6,0,2.7,0.2,3.7,0.6l-0.1,2.6c-1-0.5-2.1-0.8-3.2-0.8
			c-3,0-4.4,1.7-4.4,4c0,2.3,1.3,3.8,3.8,3.8c0.6,0,1.2-0.1,1.6-0.2v-3.9h2.8v5.4C608.7,418.6,606.9,419,605.2,419z"/>
		<path class="st1" d="M622.9,417.1c-1.1,1.2-2.7,1.9-4.7,1.9c-1.8,0-3.3-0.5-4.4-1.5c-1.3-1.1-1.9-2.8-1.9-4.6
			c0-1.8,0.6-3.4,1.8-4.5c1.1-1.1,2.7-1.8,4.6-1.8c2,0,3.7,0.7,4.8,1.9c1,1.1,1.5,2.6,1.5,4.3C624.5,414.4,624,416,622.9,417.1z
			 M618.2,408.8c-1.9,0-3.4,1.4-3.4,4s1.5,4,3.4,4c1.9,0,3.4-1.4,3.4-4S620.1,408.8,618.2,408.8z"/>
		<path class="st1" d="M556.5,436c-4.2,0-6.5-2.5-6.5-6c0-3.7,2.8-6.5,7-6.5c1.6,0,2.7,0.2,3.7,0.6l-0.1,2.6c-1-0.5-2.1-0.8-3.2-0.8
			c-3,0-4.4,1.7-4.4,4c0,2.3,1.3,3.8,3.8,3.8c0.6,0,1.2-0.1,1.6-0.2v-3.9h2.8v5.4C560,435.6,558.2,436,556.5,436z"/>
		<path class="st1" d="M571.7,435.8l-1.2-2.9h-3.9l-1.1,2.9h-2.8l4.8-12.2h2.2l5,12.2H571.7z M569.1,429c-0.3-0.8-0.4-1.3-0.5-1.7h0
			c-0.1,0.4-0.3,0.9-0.6,1.7l-0.6,1.7h2.3L569.1,429z"/>
		<path class="st1" d="M575.3,435.8l6.1-10l-5,0l-0.7-2.2h10l-5.9,9.9l5.8-0.1v2.3H575.3z"/>
		<path class="st1" d="M587.4,435.8v-12.1h2.8v12.1H587.4z"/>
		<path class="st1" d="M599.6,435.8c-1.7-3.1-2.4-4.4-2.9-4.4H596v4.4h-2.8v-12.1h3.8c3.3,0,4.5,1.7,4.5,3.6c0,1.6-0.9,2.7-2.2,3.1
			v0c0.7,0.4,1.8,2.4,3.6,5.5H599.6z M597,426H596v3.1h1c1,0,1.7-0.6,1.7-1.5C598.7,426.6,598,426,597,426z"/>
		<path class="st1" d="M612.5,435.8l-1.2-2.9h-3.9l-1.1,2.9h-2.8l4.8-12.2h2.2l5,12.2H612.5z M609.9,429c-0.3-0.8-0.4-1.3-0.5-1.7h0
			c-0.1,0.4-0.3,0.9-0.6,1.7l-0.6,1.7h2.3L609.9,429z"/>
		<path class="st1" d="M625.9,435.8l-5-6.4c-0.4-0.5-0.7-1-1.1-1.5h0c0.1,0.4,0.1,1.2,0.1,1.7v6.2H617v-12.1h2.8l4.9,6.1
			c0.4,0.5,0.7,1,1.1,1.5h0c0-0.6,0-1.5,0-2v-5.6h2.8v12.1H625.9z"/>
		<path class="st1" d="M639.1,435.8l-1.2-2.9H634l-1.1,2.9H630l4.8-12.2h2.2l5,12.2H639.1z M636.5,429c-0.3-0.8-0.4-1.3-0.5-1.7h0
			c-0.1,0.4-0.3,0.9-0.6,1.7l-0.6,1.7h2.3L636.5,429z"/>
	</g>
	<g>
		<path class="st1" d="M498.1,396.7c-2.3,0-3.8-1.4-3.8-3.7c0-2.3,1.6-3.9,4-3.9c0.9,0,1.7,0.2,2.1,0.4l0,1
			c-0.5-0.3-1.2-0.6-2.1-0.6c-1.9,0-2.9,1.2-2.9,3c0,1.7,1.1,2.9,2.8,2.9c0.7,0,1.1-0.1,1.4-0.3v-2.6h1v3.2
			C500.1,396.4,499.1,396.7,498.1,396.7z"/>
		<path class="st1" d="M507.2,396.6l-0.8-1.9h-2.9l-0.7,1.9h-1l2.9-7.5h0.6l2.9,7.5H507.2z M505.3,391.5c-0.1-0.4-0.2-0.7-0.3-0.9h0
			c-0.1,0.3-0.2,0.6-0.3,0.9l-0.8,2.3h2.2L505.3,391.5z"/>
		<path class="st1" d="M509.1,396.6l3.8-6.6l-3.4,0l-0.3-0.9h5.3l-3.7,6.6l3.9,0v0.9H509.1z"/>
		<path class="st1" d="M516.2,396.6v-7.5h1v7.5H516.2z"/>
		<path class="st1" d="M523.1,396.6c-1.2-1.9-1.8-3.1-2.2-3.1h-0.7v3.1h-1v-7.5h1.7c1.8,0,2.5,0.9,2.5,2.1c0,1.1-0.6,1.7-1.4,2v0
			c0.3,0.1,1.1,1.5,2.3,3.4H523.1z M521,390h-0.7v2.6h0.7c0.9,0,1.5-0.6,1.5-1.3C522.4,390.6,522,390,521,390z"/>
		<path class="st1" d="M530.3,396.6l-0.8-1.9h-2.9l-0.7,1.9h-1l2.9-7.5h0.6l2.9,7.5H530.3z M528.4,391.5c-0.1-0.4-0.2-0.7-0.3-0.9h0
			c-0.1,0.3-0.2,0.6-0.3,0.9l-0.8,2.3h2.2L528.4,391.5z"/>
		<path class="st1" d="M538.1,396.6l-3.6-4.8c-0.4-0.5-0.6-0.8-0.8-1.1h0c0,0.3,0,0.6,0,0.9v5h-1v-7.5h1l3.5,4.6
			c0.5,0.6,0.7,0.9,0.8,1.2h0c0-0.3,0-0.6,0-1v-4.9h1v7.5H538.1z"/>
		<path class="st1" d="M545.7,396.6l-0.8-1.9h-2.9l-0.7,1.9h-1l2.9-7.5h0.6l2.9,7.5H545.7z M543.9,391.5c-0.1-0.4-0.2-0.7-0.3-0.9h0
			c-0.1,0.3-0.2,0.6-0.3,0.9l-0.8,2.3h2.2L543.9,391.5z"/>
		<path class="st1" d="M552.7,393.9h-0.5v2.7h-1v-7.5h1.7c1.6,0,2.6,0.9,2.6,2.4C555.4,392.8,554.6,393.9,552.7,393.9z M552.8,390
			h-0.6v3h0.6c1.1,0,1.6-0.6,1.6-1.6C554.4,390.6,553.8,390,552.8,390z"/>
		<path class="st1" d="M560.9,396.6c-1.2-1.9-1.8-3.1-2.2-3.1H558v3.1h-1v-7.5h1.7c1.8,0,2.5,0.9,2.5,2.1c0,1.1-0.6,1.7-1.4,2v0
			c0.3,0.1,1.1,1.5,2.3,3.4H560.9z M558.7,390H558v2.6h0.7c0.9,0,1.5-0.6,1.5-1.3C560.2,390.6,559.8,390,558.7,390z"/>
		<path class="st1" d="M563.4,396.6v-7.5h1v7.5H563.4z"/>
		<path class="st1" d="M570.4,396.6c-1.2-1.9-1.8-3.1-2.2-3.1h-0.7v3.1h-1v-7.5h1.7c1.8,0,2.5,0.9,2.5,2.1c0,1.1-0.6,1.7-1.4,2v0
			c0.3,0.1,1.1,1.5,2.3,3.4H570.4z M568.2,390h-0.7v2.6h0.7c0.9,0,1.5-0.6,1.5-1.3C569.6,390.6,569.3,390,568.2,390z"/>
		<path class="st1" d="M573.3,390.1c0.7-0.7,1.6-1.1,2.7-1.1c1.2,0,2.1,0.4,2.8,1.2c0.6,0.7,0.9,1.6,0.9,2.7c0,1.1-0.4,2.1-1.1,2.8
			c-0.7,0.6-1.6,1-2.6,1c-1,0-1.9-0.3-2.6-0.9c-0.7-0.7-1.2-1.7-1.2-2.9C572.3,391.8,572.6,390.8,573.3,390.1z M576,389.9
			c-1.6,0-2.7,1.1-2.7,2.9s1,2.9,2.7,2.9c1.6,0,2.7-1.1,2.7-2.9C578.7,391.2,577.7,389.9,576,389.9z"/>
		<path class="st1" d="M583.2,396.6h-1.8v-7.5h1.8c2.8,0,4.1,1.6,4.1,3.7C587.3,394.9,586,396.6,583.2,396.6z M583.3,390h-0.9v5.7
			h0.9c2.2,0,3-1.4,3-2.9C586.3,391.2,585.3,390,583.3,390z"/>
		<path class="st1" d="M594.4,396.6l-3.6-4.8c-0.4-0.5-0.6-0.8-0.8-1.1h0c0,0.3,0,0.6,0,0.9v5h-1v-7.5h1l3.5,4.6
			c0.5,0.6,0.7,0.9,0.8,1.2h0c0-0.3,0-0.6,0-1v-4.9h1v7.5H594.4z"/>
		<path class="st1" d="M602.1,396.6l-0.8-1.9h-2.9l-0.7,1.9h-1l2.9-7.5h0.6l2.9,7.5H602.1z M600.2,391.5c-0.1-0.4-0.2-0.7-0.3-0.9h0
			c-0.1,0.3-0.2,0.6-0.3,0.9l-0.8,2.3h2.2L600.2,391.5z"/>
		<path class="st1" d="M613.7,396.6v-5.1c0-0.3,0-0.4,0-0.8h0c-0.1,0.3-0.3,0.6-0.4,0.7l-1.8,2.9h-0.6l-2-3
			c-0.1-0.2-0.3-0.4-0.4-0.7h0c0,0.4,0,0.5,0,0.8v5.1h-1v-7.5h1l2.3,3.4c0.2,0.3,0.3,0.5,0.4,0.7h0c0.1-0.2,0.2-0.4,0.4-0.7l2.1-3.4
			h1v7.5H613.7z"/>
		<path class="st1" d="M616.8,396.6v-7.5h1v7.5H616.8z"/>
		<path class="st1" d="M625.3,396.6l-3.6-4.8c-0.4-0.5-0.6-0.8-0.8-1.1h0c0,0.3,0,0.6,0,0.9v5h-1v-7.5h1l3.5,4.6
			c0.5,0.6,0.7,0.9,0.8,1.2h0c0-0.3,0-0.6,0-1v-4.9h1v7.5H625.3z"/>
		<path class="st1" d="M628.3,396.6v-7.5h3.8l-0.3,0.9h-2.5v2.3h2.5v0.9h-2.5v2.5h2.8v0.9H628.3z"/>
		<path class="st1" d="M637.8,396.6c-1.2-1.9-1.8-3.1-2.2-3.1h-0.7v3.1h-1v-7.5h1.7c1.8,0,2.5,0.9,2.5,2.1c0,1.1-0.6,1.7-1.4,2v0
			c0.3,0.1,1.1,1.5,2.3,3.4H637.8z M635.6,390h-0.7v2.6h0.7c0.9,0,1.5-0.6,1.5-1.3C637.1,390.6,636.7,390,635.6,390z"/>
		<path class="st1" d="M644.9,396.6l-0.8-1.9h-2.9l-0.7,1.9h-1l2.9-7.5h0.6l2.9,7.5H644.9z M643.1,391.5c-0.1-0.4-0.2-0.7-0.3-0.9h0
			c-0.1,0.3-0.2,0.6-0.3,0.9l-0.8,2.3h2.2L643.1,391.5z"/>
		<path class="st1" d="M647.3,396.6v-7.5h1v6.6h2.8v0.9H647.3z"/>
		<path class="st1" d="M657.8,396.6l-3.6-4.8c-0.4-0.5-0.6-0.8-0.8-1.1h0c0,0.3,0,0.6,0,0.9v5h-1v-7.5h1l3.5,4.6
			c0.5,0.6,0.7,0.9,0.8,1.2h0c0-0.3,0-0.6,0-1v-4.9h1v7.5H657.8z"/>
		<path class="st1" d="M665.5,396.6l-0.8-1.9h-2.9l-0.7,1.9h-1l2.9-7.5h0.6l2.9,7.5H665.5z M663.6,391.5c-0.1-0.4-0.2-0.7-0.3-0.9h0
			c-0.1,0.3-0.2,0.6-0.3,0.9l-0.8,2.3h2.2L663.6,391.5z"/>
		<path class="st1" d="M672.7,396.6H672l-3-7.5h1.1l1.8,4.7c0.1,0.4,0.3,0.8,0.4,1.2h0c0.1-0.4,0.3-0.8,0.5-1.2l2-4.7h1.1
			L672.7,396.6z"/>
		<path class="st1" d="M677.6,390.1c0.7-0.7,1.6-1.1,2.7-1.1c1.2,0,2.1,0.4,2.8,1.2c0.6,0.7,0.9,1.6,0.9,2.7c0,1.1-0.4,2.1-1.1,2.8
			c-0.7,0.6-1.6,1-2.6,1c-1,0-1.9-0.3-2.6-0.9c-0.7-0.7-1.2-1.7-1.2-2.9C676.5,391.8,676.9,390.8,677.6,390.1z M680.3,389.9
			c-1.6,0-2.7,1.1-2.7,2.9s1,2.9,2.7,2.9c1.6,0,2.7-1.1,2.7-2.9C682.9,391.2,682,389.9,680.3,389.9z"/>
		<path class="st1" d="M687.5,396.6h-1.8v-7.5h1.8c2.8,0,4.1,1.6,4.1,3.7C691.6,394.9,690.3,396.6,687.5,396.6z M687.6,390h-0.9v5.7
			h0.9c2.2,0,3-1.4,3-2.9C690.5,391.2,689.6,390,687.6,390z"/>
		<path class="st1" d="M697.7,396.6l-0.8-1.9h-2.9l-0.7,1.9h-1l2.9-7.5h0.6l2.9,7.5H697.7z M695.8,391.5c-0.1-0.4-0.2-0.7-0.3-0.9h0
			c-0.1,0.3-0.2,0.6-0.3,0.9l-0.8,2.3h2.2L695.8,391.5z"/>
	</g>
	<g>
		<path class="st2" d="M659.9,264.1c-1.5-1.4-3-3.2-4.3-4.9c-1.2-1.8-2.4-4-3.3-6.2c-0.8-2.3-1.2-5-1.2-8.1c0-4.3,0.9-8.3,2.7-12
			c1.9-3.9,4.6-7.2,8.1-9.9c3.5-2.9,7.7-5.2,12.6-6.8c5.1-1.7,10.8-2.5,17-2.5c6.2,0,11.5,1,16,2.9c4.6,1.9,8.4,4.1,11.6,6.6
			c3.5-3.2,6.2-5.4,9.2-6.9c3-1.6,6.8-2.7,11.3-2.7c3.6,0,6.7,1.1,8.7,3.2c2.1,1.9,3.1,4.5,3.1,7.7c0,2.8-0.8,5-2.5,6.6
			c-1.7,1.5-3.9,2.2-6.6,2.3c-1.9,0.1-3.3-0.1-4.8-0.8c-1.2-0.5-2-1.1-2.6-1.9c-0.7-0.9-1-1.9-1.3-3c-0.3-1.5-0.7-5-1.2-6.1
			c-0.3-0.9-1.2-1.5-2.7-1.4c-1.1,0-2,0.5-3.1,1.1c-2.2,1.2-2.9,1.7-5.6,3.7c1.7,1.8,3.3,3.5,5.4,7.3c1.7,3.3,2.7,7.6,2.9,12.8
			c0.1,3.4-0.7,6.9-2.1,10.4c-1.2,3.3-3.4,6.4-6.4,9.1c-2.9,2.8-6.7,5-11.4,6.8c-4.7,1.7-10.5,2.5-17.4,2.5c-5.5,0-8.7-0.3-13.9-1.4
			c-4.7-1-6.1-1.2-10.9-3.4C664.1,267.5,662,266,659.9,264.1z M690.4,270.8c2.5,0,4.7-0.3,6.6-0.8c1.9-0.7,3.6-1.9,5-3.7
			c1.4-1.9,2.4-4.6,3.1-8.1c0.8-3.6,1.2-8.2,1.2-13.9c0-4-0.1-7.7-0.4-11c-0.3-3.4-1-6.4-2.1-8.9c-1.1-2.5-2.7-4.4-4.8-5.8
			c-2.1-1.4-5-2.1-8.7-2.1c-3.4,0-6.3,0.8-8.5,2.3c-2.2,1.4-3.9,3.2-5.2,5.6c-1.1,2.3-1.9,5-2.3,8.1c-0.4,3-0.6,6.1-0.6,9.3
			c0,6.5,0.4,11.7,1.2,15.5c0.8,3.9,1.9,6.8,3.3,8.9c1.5,1.9,3.3,3.2,5.4,3.7C685.8,270.6,688,270.8,690.4,270.8z"/>
		<g>
			<path class="st2" d="M554.1,377.7l0-2.8h6.2v-28h-6.1v-2.8h8.4c2.8,0,3.5-0.4,4.4-2.1l1.3,0.3v32.6h6.2v2.8H554.1z M554.1,377.7
				h-20.5v-2.8h6.2v-23.7c0-4-1.7-5.8-4.6-5.8c-2.9,0-5.8,1.7-7.9,4.8c-1.3,1.9-2.1,4.3-2.1,5.5v19.2h6.1v2.8h-20.4v-2.8h6.4v-25
				c0-3.1-1.6-4.8-4.2-4.8c-4.5,0-9,3.8-10.5,9.2v20.5h6.1v2.8h-20.2v-2.8h6.2v-28h-6.2v-2.8h8.4c2.8,0,3.7-0.6,4.4-1.9l1.3,0.3v5.9
				c2.4-3.7,6.8-6,11.6-6c5.8,0,9.3,2.3,10.6,7.2c2.3-4.5,6.7-7.1,11.8-7.1c3.8,0,7.2,1.4,9.2,3.8c1.9,2.2,2.2,4.1,2.2,9.5v19.1h6.2
				L554.1,377.7z M633.6,355.4c0-8.2-1.9-10.6-6.8-10.6c-3.5,0-5.8,1.5-6.9,4.1c-0.5,1.2-0.7,2.4-0.8,6.5h14
				C633.3,355.4,633.4,355.4,633.6,355.4z M627.7,378.8c-9.6,0-17.6-8.1-17.6-17.8c0-9.7,7.9-18.8,16.7-18.8c4.4,0,9,2.4,12.1,6.3
				c1.6,2.1,3.7,6.5,3.8,8.5c0,0.4-0.1,0.8-0.6,1.1c-0.2,0.1-0.4,0.1-0.5,0.1c-0.1,0-0.3,0-0.5,0h-22c-0.1,3.9-0.1,4.8-0.1,5.5
				c0,5.6,0.4,7.6,1.6,9.3c1.5,2,3.8,3,7,3c6.7,0,10.9-3.3,13.2-10.6l0.2-0.6l2.6,0.5l-0.2,0.7C641.5,373.9,635.5,378.8,627.7,378.8
				z M591.7,346.9h-5.5l8.7,20.9l7-16.6c0.6-1.4,0.9-2.6,0.9-3.2c0-0.6-0.3-1.1-2.5-1.1h-4.2v-2.8h15.8v2.8H609
				c-1.9,0-2.4,0.3-5.3,7.2l-10.8,25.7h-1.6l-14-32.8h-5.1v-2.8h19.6V346.9z M643.8,320.2h8.5c2.9,0,3.6-0.4,4.5-2.1l1.3,0.3v56.5
				h6.1v2.8h-20.4v-2.8h6.2V323h-6.2V320.2z M689.5,357.6v-7.2c0-4.2-1.3-5.4-7.3-5.4c-5.1,0-7.8,1.7-7.8,3.1c0,0.2,0,0.3,0.6,0.8
				c1.4,1.1,1.9,2,1.9,3.5c0,2.5-1.7,4.3-4.1,4.3c-2.6,0-4.3-2.1-4.3-4.7c0-5.5,6.4-9.7,13.6-9.7c4,0,7.8,1.1,11,3.1
				c3,2,4,3.7,4,7.3v14.3c0.1,3.4,0.1,4.8,0.2,5.6c0,0.7,0.1,0.8,0.1,1.3c0.2,0.9,0.6,1.2,1.2,1.2c1,0,2-0.6,3.3-2.8l0.3-0.6
				l2.2,1.2l-0.3,0.6c-1.6,3.2-4.1,4.8-7.4,4.8c-3.4,0-5.8-1.6-6.8-4.4c-2.4,2.9-6.7,4.6-11.6,4.6c-7.5,0-12.6-3.2-12.6-8.8
				c0-3.8,3.1-7.9,7.3-9.4C677.3,358.7,683.8,357.6,689.5,357.6z M689.5,360.2c-6.3,0-11.1,1-13.1,2.4c-1.3,1-1.9,2.5-1.9,5.6
				c0,5.2,1.7,7,5.8,7c4.3,0,7.9-2,9.2-5V360.2z"/>
			<g>
				<path class="st1" d="M559,333.7c0-2.4,2-4.4,4.4-4.4c2.4,0,4.4,2,4.4,4.4c0,2.4-2,4.4-4.4,4.4C561,338.1,559,336.1,559,333.7z"
					/>
				<path class="st1" d="M563.4,333.7"/>
			</g>
		</g>
		<g>
			<polygon class="st2" points="498.8,178.1 498.8,301.2 517.7,301.2 517.7,304.9 475.6,304.9 475.6,301.2 494.5,301.2 494.5,177 
				475.6,177 475.6,173.3 529.2,173.3 564.5,261.7 600.5,173.3 652.7,173.3 652.7,177 633.8,177 633.8,301.2 658.8,301.2 
				658.4,304.9 584.3,304.9 584.3,301.2 603,301.2 603,178.1 553,304.9 549,304.9 			"/>
		</g>
		<g>
			<path class="st2" d="M677,311.3c-2-0.1-4.2-0.4-6.6-0.9c-3.3-0.7-6.4-1.8-9.3-3.4c-2.9-1.6-5.3-3.8-7.2-6.6
				c-1.9-2.8-2.8-6.3-2.8-10.5c0-0.7,0.2-1.9,0.5-3.6c0.4-1.7,1.3-3.8,2.5-6c1.2-2.4,3.1-4.9,5.5-7.4c2.4-2.4,5.5-4.6,9.2-6.8
				c0.9,0.6,1.8,1.1,2.7,1.7c-3.6,2.4-5.7,4.5-6.4,6.3c-0.7,1.7-1.1,3.4-1.1,4.8c-0.1,3.4,1.2,5.8,3.8,7.4c2.6,1.6,6.2,2.4,10.7,2.4
				h21.8c5,0,9.8,0.5,14.3,1.6c4.6,0.9,8.6,2.6,12,5c3.4,2.4,6.1,5.6,8.1,9.7c2,4.2,3,9.3,2.9,15.5c-0.1,5.2-1.3,10.3-3.5,15.3
				c-2.2,5-5.4,9.4-9.6,13.3c-4.2,3.9-9.2,7-15.1,9.5c-0.9,0.4-1.7,0.6-2.4,0.8l0.2-3.3c2.7-1.3,5.1-2.9,7.3-4.9
				c2.7-2.4,4.9-5.3,6.5-8.7c1.7-3.4,2.5-7,2.6-11.1c0.1-4-0.5-7.3-1.8-9.9c-1.3-2.4-2.9-4.4-4.8-5.8c-2-1.5-4.1-2.5-6.5-3
				c-2.4-0.5-4.5-0.8-6.5-0.8L677,311.3z"/>
		</g>
		<g>
			<polygon class="st2" points="751.4,180.4 751.4,185 742.7,185 742.7,193.8 738.1,193.8 738.1,185 729.4,185 729.4,180.4 
				738.1,180.4 738.1,171.7 742.7,171.7 742.7,180.4 			"/>
			<polygon class="st2" points="719.5,182.4 719.5,193.1 730.2,193.1 730.2,197.6 719.5,197.6 719.5,208.3 715,208.3 715,197.6 
				704.3,197.6 704.3,193.1 715,193.1 715,182.4 			"/>
		</g>
	</g>
</g>
<g>
	
		<radialGradient id="SVGID_2_" cx="250.8169" cy="316.6156" r="201.4978" gradientTransform="matrix(1.02 0 0 0.99 -12.2553 -5.6273)" gradientUnits="userSpaceOnUse">
		<stop  offset="0.6748" style="stop-color:#008D6A"/>
		<stop  offset="1" style="stop-color:#006E57"/>
	</radialGradient>
	<path class="st3" d="M136.2,405.7c-51.6-38.9-92-83.8-107.7-121c-30-71.1,16.4-139.4,87.5-146.2c30.3-2.9,62.7,6,90.4,32.1
		c28.9-28.8,75.1-45.8,135-41.4c111,8.1,146.8,103.5,115.8,172.8c-17.2,38.2-44.2,65.3-93.7,93.4c-67.5,38-106.6,65.7-126.8,91.9
		C225,467.8,167.6,429.4,136.2,405.7z"/>
	<g>
		<path class="st2" d="M301.7,260.6c-1.5-1.4-2.9-3.2-4.3-4.9c-1.2-1.8-2.4-4-3.3-6.2c-0.8-2.3-1.2-5-1.2-8.1c0-4.3,0.9-8.3,2.7-12
			c1.9-3.9,4.6-7.2,8.1-9.9c3.5-2.9,7.7-5.2,12.6-6.8c5.1-1.7,10.8-2.5,17-2.5c6.2,0,11.5,1,16,2.9c4.6,1.9,8.4,4.1,11.6,6.6
			c3.5-3.2,6.2-5.4,9.2-6.9c3-1.6,6.8-2.7,11.3-2.7c3.6,0,6.7,1.1,8.7,3.2c2.1,1.9,3.1,4.5,3.1,7.7c0,2.8-0.8,5-2.5,6.6
			c-1.7,1.5-3.9,2.2-6.6,2.3c-1.9,0.1-3.3-0.2-4.8-0.8c-1.2-0.5-2-1.1-2.6-1.9c-0.7-0.9-1-1.9-1.3-3c-0.3-1.5-0.7-5-1.2-6.1
			c-0.3-0.9-1.2-1.5-2.7-1.4c-1.1,0-2,0.5-3.1,1.1c-2.2,1.2-2.8,1.7-5.6,3.7c1.7,1.8,3.3,3.6,5.4,7.3c1.7,3.3,2.7,7.6,2.9,12.8
			c0.1,3.4-0.7,6.9-2.1,10.4c-1.2,3.3-3.4,6.4-6.4,9.1c-2.9,2.8-6.7,5-11.4,6.8c-4.7,1.7-10.5,2.5-17.4,2.5c-5.5,0-8.7-0.3-13.9-1.4
			c-4.7-0.9-6.1-1.2-10.9-3.4C305.8,264,303.8,262.5,301.7,260.6z M332.1,267.3c2.5,0,4.7-0.3,6.6-0.8c1.9-0.7,3.6-1.9,5-3.7
			c1.4-1.9,2.4-4.6,3.1-8.1c0.8-3.6,1.2-8.2,1.2-13.9c0-4-0.1-7.7-0.4-11c-0.3-3.5-1-6.4-2.1-8.9c-1.1-2.5-2.7-4.4-4.8-5.8
			c-2.1-1.4-5-2.1-8.7-2.1c-3.5,0-6.3,0.8-8.5,2.3c-2.2,1.4-3.9,3.2-5.2,5.6c-1.1,2.3-1.9,5-2.3,8.1c-0.4,3-0.6,6.1-0.6,9.3
			c0,6.5,0.4,11.7,1.2,15.5c0.8,3.9,1.9,6.8,3.3,8.9c1.5,1.9,3.3,3.2,5.4,3.7C327.5,267,329.8,267.3,332.1,267.3z"/>
		<g>
			<path class="st2" d="M195.9,374.2l0-2.8h6.2v-28h-6.1v-2.8h8.4c2.8,0,3.5-0.4,4.4-2.1l1.3,0.3v32.6h6.2v2.8H195.9z M195.8,374.2
				h-20.5v-2.8h6.2v-23.7c0-4-1.7-5.8-4.6-5.8c-2.9,0-5.8,1.7-7.9,4.8c-1.3,1.9-2.1,4.3-2.1,5.5v19.2h6.1v2.8h-20.4v-2.8h6.4v-25
				c0-3.1-1.6-4.8-4.2-4.8c-4.5,0-9,3.8-10.5,9.2v20.5h6.1v2.8H130v-2.8h6.2v-28H130v-2.8h8.5c2.8,0,3.7-0.6,4.4-1.9l1.3,0.3v5.9
				c2.4-3.7,6.8-6,11.6-6c5.8,0,9.3,2.3,10.6,7.2c2.3-4.5,6.7-7.1,11.8-7.1c3.8,0,7.2,1.4,9.2,3.8c1.9,2.2,2.2,4.1,2.2,9.5v19.1h6.2
				L195.8,374.2z M275.3,351.8c0-8.2-1.9-10.6-6.8-10.6c-3.5,0-5.8,1.5-6.9,4.1c-0.5,1.2-0.7,2.4-0.8,6.5h14
				C275,351.8,275.2,351.8,275.3,351.8z M269.5,375.2c-9.6,0-17.6-8.1-17.6-17.8c0-9.7,7.9-18.8,16.7-18.8c4.4,0,9,2.4,12.1,6.3
				c1.7,2.1,3.7,6.5,3.8,8.5c0,0.4-0.1,0.8-0.6,1.1c-0.2,0.1-0.4,0.1-0.5,0.1c-0.2,0-0.3,0-0.5,0h-22c-0.1,3.9-0.1,4.8-0.1,5.6
				c0,5.6,0.4,7.6,1.6,9.3c1.5,1.9,3.8,3,7,3c6.7,0,10.9-3.3,13.2-10.6l0.2-0.6l2.6,0.5l-0.2,0.7
				C283.2,370.3,277.2,375.2,269.5,375.2z M233.5,343.3h-5.5l8.7,20.9l7-16.5c0.6-1.4,0.9-2.6,0.9-3.2c0-0.6-0.3-1.1-2.5-1.1h-4.2
				v-2.8h15.8v2.8h-2.9c-1.9,0-2.4,0.3-5.3,7.2l-10.8,25.7H233l-14-32.8h-5.1v-2.8h19.6V343.3z M285.6,316.7h8.4
				c2.9,0,3.6-0.4,4.5-2.1l1.3,0.3v56.5h6.1v2.8h-20.4v-2.8h6.2v-51.9h-6.2V316.7z M331.2,354v-7.2c0-4.2-1.3-5.4-7.3-5.4
				c-5.1,0-7.8,1.7-7.8,3.1c0,0.2,0,0.3,0.6,0.8c1.4,1.1,1.9,2,1.9,3.5c0,2.5-1.7,4.3-4.1,4.3c-2.6,0-4.2-2.1-4.2-4.7
				c0-5.5,6.4-9.7,13.6-9.7c4,0,7.8,1.1,11,3.1c3,2,4,3.7,4,7.3v14.3c0.1,3.4,0.1,4.9,0.2,5.6c0,0.7,0.1,0.8,0.1,1.3
				c0.2,0.9,0.6,1.2,1.2,1.2c1,0,2-0.6,3.3-2.8l0.3-0.6l2.2,1.2l-0.3,0.6c-1.6,3.2-4.1,4.8-7.4,4.8c-3.4,0-5.8-1.6-6.8-4.4
				c-2.4,2.9-6.7,4.6-11.6,4.6c-7.5,0-12.6-3.2-12.6-8.8c0-3.8,3.1-7.9,7.3-9.4C319.1,355.1,325.6,354,331.2,354z M331.2,356.7
				c-6.3,0-11.1,1-13.1,2.4c-1.3,1-1.9,2.5-1.9,5.6c0,5.2,1.6,7,5.8,7c4.3,0,7.9-2,9.2-5V356.7z"/>
			<g>
				<circle class="st1" cx="205.2" cy="330.1" r="4.4"/>
				<path class="st1" d="M205.2,330.1"/>
			</g>
		</g>
		<g>
			<polygon class="st2" points="140.5,174.6 140.5,297.6 159.4,297.6 159.4,301.3 117.3,301.3 117.3,297.6 136.2,297.6 136.2,173.4 
				117.3,173.4 117.3,169.7 170.9,169.7 206.3,258.2 242.3,169.7 294.4,169.7 294.4,173.4 275.5,173.4 275.5,297.6 300.5,297.6 
				300.1,301.3 226.1,301.3 226.1,297.6 244.8,297.6 244.8,174.6 194.7,301.3 190.8,301.3 			"/>
		</g>
		<g>
			<path class="st2" d="M318.7,307.8c-2-0.1-4.2-0.4-6.6-0.9c-3.3-0.7-6.4-1.8-9.3-3.4c-2.9-1.6-5.3-3.8-7.2-6.6
				c-1.9-2.8-2.8-6.3-2.8-10.5c0-0.7,0.2-1.9,0.5-3.6c0.4-1.7,1.3-3.8,2.5-6c1.2-2.4,3.1-4.9,5.5-7.4c2.4-2.4,5.5-4.6,9.2-6.8
				c0.9,0.6,1.8,1.1,2.7,1.7c-3.6,2.4-5.7,4.5-6.4,6.3c-0.7,1.7-1.1,3.4-1.1,4.8c-0.1,3.4,1.2,5.8,3.8,7.4c2.6,1.6,6.2,2.4,10.7,2.4
				h21.8c5,0,9.8,0.5,14.3,1.6c4.6,0.9,8.6,2.6,12,5c3.4,2.4,6.1,5.6,8.1,9.7c2,4.2,3,9.3,2.9,15.5c-0.1,5.2-1.3,10.3-3.5,15.3
				c-2.2,5-5.4,9.4-9.6,13.3c-4.2,3.9-9.2,7-15.1,9.5c-0.9,0.4-1.7,0.6-2.4,0.8l0.2-3.3c2.7-1.3,5.1-2.9,7.3-4.9
				c2.7-2.4,4.9-5.3,6.5-8.7c1.7-3.4,2.5-7,2.6-11.1c0.1-4-0.5-7.3-1.8-9.9c-1.3-2.4-2.9-4.4-4.8-5.8c-2-1.5-4.1-2.5-6.5-3
				c-2.4-0.5-4.5-0.8-6.5-0.8L318.7,307.8z"/>
		</g>
		<g>
			<polygon class="st2" points="393.2,176.9 393.2,181.5 384.5,181.5 384.5,190.2 379.9,190.2 379.9,181.5 371.1,181.5 371.1,176.9 
				379.9,176.9 379.9,168.1 384.5,168.1 384.5,176.9 			"/>
			<polygon class="st2" points="361.3,178.9 361.3,189.5 371.9,189.5 371.9,194.1 361.3,194.1 361.3,204.7 356.7,204.7 356.7,194.1 
				346.1,194.1 346.1,189.5 356.7,189.5 356.7,178.9 			"/>
		</g>
	</g>
	<g>
		<path class="st1" d="M174.5,401.5c-2.8,0-4.6-1.7-4.6-4.5c0-2.8,1.9-4.8,4.8-4.8c1.1,0,2,0.3,2.6,0.5l0,1.3
			c-0.6-0.3-1.5-0.7-2.5-0.7c-2.3,0-3.5,1.5-3.5,3.6c0,2.1,1.3,3.5,3.4,3.5c0.8,0,1.4-0.1,1.7-0.3v-3.2h1.2v3.9
			C177,401.1,175.8,401.5,174.5,401.5z"/>
		<path class="st1" d="M185.9,401.4L185,399h-3.5l-0.9,2.4h-1.2l3.5-9.1h0.8l3.5,9.1H185.9z M183.7,395.2c-0.2-0.5-0.3-0.8-0.3-1.1
			h0c-0.1,0.3-0.2,0.7-0.4,1.1l-1,2.7h2.7L183.7,395.2z"/>
		<path class="st1" d="M188.7,401.4l4.6-8l-4.1,0l-0.4-1.1h6.4l-4.5,8l4.7,0v1.1H188.7z"/>
		<path class="st1" d="M197.5,401.4v-9.1h1.2v9.1H197.5z"/>
		<path class="st1" d="M206.3,401.4c-1.4-2.3-2.2-3.7-2.6-3.7h-0.9v3.7h-1.2v-9.1h2.1c2.2,0,3.1,1.1,3.1,2.5c0,1.3-0.8,2.1-1.7,2.4
			v0c0.3,0.2,1.3,1.8,2.8,4.1H206.3z M203.7,393.4h-0.9v3.2h0.8c1,0,1.8-0.7,1.8-1.6C205.4,394.1,205,393.4,203.7,393.4z"/>
		<path class="st1" d="M215.3,401.4l-0.9-2.4h-3.5l-0.9,2.4h-1.2l3.5-9.1h0.8l3.5,9.1H215.3z M213,395.2c-0.2-0.5-0.3-0.8-0.3-1.1h0
			c-0.1,0.3-0.2,0.7-0.4,1.1l-1,2.7h2.7L213,395.2z"/>
		<path class="st1" d="M225.1,401.4l-4.4-5.8c-0.5-0.6-0.7-1-0.9-1.3h0c0,0.3,0,0.7,0,1.1v6.1h-1.2v-9.1h1.2l4.2,5.6
			c0.5,0.7,0.8,1.1,1,1.4h0c0-0.3,0-0.7,0-1.2v-5.9h1.2v9.1H225.1z"/>
		<path class="st1" d="M234.7,401.4l-0.9-2.4h-3.5l-0.9,2.4h-1.2l3.5-9.1h0.8l3.5,9.1H234.7z M232.5,395.2c-0.2-0.5-0.3-0.8-0.3-1.1
			h0c-0.1,0.3-0.2,0.7-0.4,1.1l-1,2.7h2.7L232.5,395.2z"/>
		<path class="st1" d="M243.8,398.1h-0.6v3.2H242v-9.1h2c1.9,0,3.1,1,3.1,2.9C247.1,396.7,246.2,398.1,243.8,398.1z M243.9,393.4
			h-0.7v3.7h0.7c1.3,0,1.9-0.8,1.9-1.9C245.9,394.1,245.2,393.4,243.9,393.4z"/>
		<path class="st1" d="M254.1,401.4c-1.4-2.3-2.2-3.7-2.6-3.7h-0.9v3.7h-1.2v-9.1h2.1c2.2,0,3.1,1.1,3.1,2.5c0,1.3-0.8,2.1-1.7,2.4
			v0c0.3,0.2,1.3,1.8,2.8,4.1H254.1z M251.5,393.4h-0.9v3.2h0.8c1,0,1.8-0.7,1.8-1.6C253.3,394.1,252.8,393.4,251.5,393.4z"/>
		<path class="st1" d="M257.5,401.4v-9.1h1.2v9.1H257.5z"/>
		<path class="st1" d="M266.3,401.4c-1.4-2.3-2.2-3.7-2.6-3.7h-0.9v3.7h-1.2v-9.1h2.1c2.2,0,3.1,1.1,3.1,2.5c0,1.3-0.8,2.1-1.7,2.4
			v0c0.3,0.2,1.3,1.8,2.8,4.1H266.3z M263.7,393.4h-0.9v3.2h0.8c1,0,1.8-0.7,1.8-1.6C265.4,394.1,265,393.4,263.7,393.4z"/>
		<path class="st1" d="M270.2,393.5c0.8-0.8,1.9-1.3,3.2-1.3c1.4,0,2.6,0.5,3.4,1.4c0.7,0.8,1.1,1.9,1.1,3.2c0,1.4-0.5,2.6-1.3,3.4
			c-0.8,0.8-1.9,1.2-3.2,1.2c-1.3,0-2.3-0.4-3.1-1.1c-0.9-0.8-1.4-2-1.4-3.5C269,395.5,269.4,394.4,270.2,393.5z M273.5,393.3
			c-2,0-3.2,1.4-3.2,3.5c0,2.2,1.3,3.5,3.2,3.5c2,0,3.2-1.4,3.2-3.5C276.7,394.8,275.5,393.3,273.5,393.3z"/>
		<path class="st1" d="M282.6,401.4h-2.2v-9.1h2.2c3.4,0,5,1.9,5,4.4C287.5,399.3,285.9,401.4,282.6,401.4z M282.7,393.4h-1.1v6.9
			h1.1c2.7,0,3.6-1.7,3.6-3.5C286.3,394.9,285.1,393.4,282.7,393.4z"/>
		<path class="st1" d="M296.5,401.4l-4.4-5.8c-0.5-0.6-0.7-1-0.9-1.3h0c0,0.3,0,0.7,0,1.1v6.1h-1.2v-9.1h1.2l4.2,5.6
			c0.6,0.7,0.8,1.1,1,1.4h0c0-0.3,0-0.7,0-1.2v-5.9h1.2v9.1H296.5z"/>
		<path class="st1" d="M306.1,401.4l-0.9-2.4h-3.5l-0.9,2.4h-1.2l3.5-9.1h0.8l3.5,9.1H306.1z M303.8,395.2c-0.2-0.5-0.3-0.8-0.3-1.1
			h0c-0.1,0.3-0.2,0.7-0.4,1.1l-1,2.7h2.7L303.8,395.2z"/>
		<path class="st1" d="M188.9,417v-6.2c0-0.3,0-0.5,0-1h0c-0.2,0.4-0.3,0.7-0.5,0.9l-2.2,3.6h-0.7l-2.4-3.6
			c-0.2-0.2-0.3-0.5-0.5-0.9h0c0.1,0.4,0.1,0.6,0.1,0.9v6.2h-1.2v-9.1h1.2l2.7,4.1c0.2,0.4,0.4,0.6,0.5,0.9h0
			c0.1-0.2,0.2-0.5,0.5-0.9l2.6-4.1h1.2v9.1H188.9z"/>
		<path class="st1" d="M192.9,417v-9.1h1.2v9.1H192.9z"/>
		<path class="st1" d="M203.6,417l-4.4-5.8c-0.5-0.6-0.7-1-0.9-1.3h0c0,0.3,0,0.7,0,1.1v6.1H197v-9.1h1.3l4.2,5.6
			c0.5,0.7,0.8,1.1,1,1.4h0c0-0.3,0-0.7,0-1.2v-5.9h1.2v9.1H203.6z"/>
		<path class="st1" d="M207.6,417v-9.1h4.6l-0.4,1.1h-3v2.8h3v1.1h-3v3h3.4v1.1H207.6z"/>
		<path class="st1" d="M219.4,417c-1.4-2.3-2.2-3.7-2.6-3.7h-0.9v3.7h-1.2v-9.1h2.1c2.2,0,3.1,1.1,3.1,2.5c0,1.3-0.8,2.1-1.7,2.4v0
			c0.3,0.2,1.3,1.8,2.8,4.1H219.4z M216.8,409h-0.9v3.2h0.8c1,0,1.8-0.7,1.8-1.6C218.5,409.7,218.1,409,216.8,409z"/>
		<path class="st1" d="M228.4,417l-0.9-2.4H224l-0.9,2.4h-1.2l3.5-9.1h0.8l3.5,9.1H228.4z M226.2,410.8c-0.2-0.5-0.3-0.8-0.3-1.1h0
			c-0.1,0.3-0.2,0.7-0.4,1.1l-1,2.7h2.7L226.2,410.8z"/>
		<path class="st1" d="M231.6,417v-9.1h1.2v8h3.4v1.1H231.6z"/>
		<path class="st1" d="M244.7,417l-4.4-5.8c-0.5-0.6-0.7-1-0.9-1.3h0c0,0.3,0,0.7,0,1.1v6.1h-1.2v-9.1h1.3l4.2,5.6
			c0.5,0.7,0.8,1.1,1,1.4h0c0-0.3,0-0.7,0-1.2v-5.9h1.2v9.1H244.7z"/>
		<path class="st1" d="M254.4,417l-0.9-2.4h-3.5l-0.9,2.4h-1.2l3.5-9.1h0.8l3.5,9.1H254.4z M252.1,410.8c-0.2-0.5-0.3-0.8-0.3-1.1h0
			c-0.1,0.3-0.2,0.7-0.4,1.1l-1,2.7h2.7L252.1,410.8z"/>
		<path class="st1" d="M263.7,417H263l-3.6-9.1h1.3l2.2,5.7c0.2,0.5,0.4,1,0.5,1.5h0c0.2-0.5,0.3-0.9,0.5-1.5l2.4-5.7h1.3L263.7,417
			z"/>
		<path class="st1" d="M270.1,409.1c0.8-0.8,1.9-1.3,3.2-1.3c1.4,0,2.6,0.5,3.4,1.4c0.7,0.8,1.1,1.9,1.1,3.2c0,1.4-0.5,2.6-1.3,3.4
			c-0.8,0.8-1.9,1.2-3.2,1.2c-1.3,0-2.3-0.4-3.1-1.1c-0.9-0.8-1.4-2-1.4-3.5C268.8,411.1,269.3,410,270.1,409.1z M273.3,408.9
			c-2,0-3.2,1.4-3.2,3.5c0,2.2,1.3,3.5,3.2,3.5c1.9,0,3.2-1.4,3.2-3.5C276.5,410.4,275.4,408.9,273.3,408.9z"/>
		<path class="st1" d="M282.4,417h-2.2v-9.1h2.2c3.4,0,5,1.9,5,4.4C287.4,414.9,285.8,417,282.4,417z M282.5,409h-1.1v6.9h1.1
			c2.7,0,3.6-1.7,3.6-3.5S285,409,282.5,409z"/>
		<path class="st1" d="M295.2,417l-0.9-2.4h-3.5l-0.9,2.4h-1.2l3.5-9.1h0.8l3.5,9.1H295.2z M292.9,410.8c-0.2-0.5-0.3-0.8-0.3-1.1h0
			c-0.1,0.3-0.2,0.7-0.4,1.1l-1,2.7h2.7L292.9,410.8z"/>
	</g>
</g>
<g>
</g>
<g>
</g>
<g>
</g>
<g>
</g>
<g>
</g>
<g>
</g>
</svg>
