<?xml version="1.0" encoding="utf-8"?>
<!-- Generator: Adobe Illustrator 19.0.0, SVG Export Plug-In . SVG Version: 6.00 Build 0)  -->
<svg version="1.1" id="Layer_1" xmlns="http://www.w3.org/2000/svg" xmlns:xlink="http://www.w3.org/1999/xlink" x="0px" y="0px"
	 viewBox="0 0 314 152" style="enable-background:new 0 0 314 152;" xml:space="preserve">
<style type="text/css">
	.st0{fill:#737373;}
	.st1{fill:#F25022;}
	.st2{fill:#7FBA00;}
	.st3{fill:#00A4EF;}
	.st4{fill:#FFB900;}
</style>
<g>
	<g>
		<path class="st0" d="M112.5,80.9l-1.8,5.1h-0.2c-0.3-1.2-0.9-2.9-1.8-5l-9.7-24.3h-9.5v38.8h6.3V71.5c0-1.5,0-3.2-0.1-5.3
			c-0.1-1.1-0.2-1.9-0.2-2.5h0.2c0.3,1.5,0.7,2.6,0.9,3.3l11.6,28.3h4.4l11.5-28.5c0.3-0.7,0.5-2,0.8-3.1h0.2
			c-0.2,2.9-0.3,5.4-0.3,7v24.6h6.7V56.6h-9.1L112.5,80.9z M137.9,67.5h6.5v27.8h-6.5V67.5z M141.2,55.8c-1.1,0-2,0.4-2.8,1.1
			c-0.8,0.7-1.2,1.6-1.2,2.7c0,1.1,0.4,2,1.2,2.7s1.7,1.1,2.8,1.1s2.1-0.4,2.8-1.1c0.8-0.7,1.2-1.6,1.2-2.7s-0.4-2-1.2-2.7
			C143.3,56.2,142.3,55.8,141.2,55.8 M167.5,67.3c-1.2-0.3-2.5-0.4-3.7-0.4c-3,0-5.7,0.7-7.9,2s-4.1,3.1-5.2,5.4
			c-1.2,2.3-1.8,5-1.8,8c0,2.7,0.6,5,1.8,7.2c1.2,2.1,2.8,3.8,4.9,5c2.1,1.2,4.5,1.8,7.2,1.8c3.1,0,5.8-0.7,7.9-1.9l0.1-0.1v-6
			l-0.3,0.2c-1,0.7-2.1,1.3-3.2,1.7c-1.2,0.4-2.2,0.6-3.1,0.6c-2.6,0-4.7-0.8-6.1-2.4c-1.5-1.6-2.3-3.8-2.3-6.6
			c0-2.9,0.8-5.1,2.3-6.8s3.6-2.5,6.1-2.5c2.1,0,4.3,0.7,6.2,2.1l0.3,0.2v-6.4l-0.1-0.1C169.8,67.9,168.8,67.5,167.5,67.3 M189,67.1
			c-1.6,0-3.1,0.5-4.4,1.6c-1.1,0.9-1.9,2.2-2.5,3.8h-0.1v-4.9h-6.5v27.8h6.5V81.1c0-2.4,0.5-4.4,1.6-5.9c1.1-1.5,2.5-2.3,4.2-2.3
			c0.6,0,1.2,0.2,2,0.3c0.7,0.2,1.2,0.4,1.6,0.7l0.3,0.2v-6.5l-0.2-0.1C191,67.2,190.1,67.1,189,67.1 M206.8,66.9
			c-4.6,0-8.2,1.4-10.8,4c-2.6,2.7-3.9,6.3-3.9,10.9c0,4.3,1.3,7.8,3.8,10.4c2.5,2.5,5.9,3.8,10.2,3.8c4.5,0,8-1.4,10.6-4.1
			c2.6-2.7,3.9-6.3,3.9-10.8c0-4.4-1.2-7.9-3.7-10.5C214.6,68.2,211.1,66.9,206.8,66.9 M212,88.3c-1.2,1.6-3.1,2.3-5.5,2.3
			c-2.4,0-4.3-0.8-5.6-2.4c-1.4-1.6-2-3.8-2-6.7c0-3,0.7-5.2,2-6.8c1.4-1.6,3.2-2.4,5.6-2.4c2.3,0,4.1,0.8,5.4,2.3
			c1.3,1.6,2,3.8,2,6.8C213.8,84.4,213.3,86.7,212,88.3 M235.1,79.1c-2.1-0.9-3.4-1.5-4-2.1c-0.5-0.5-0.8-1.2-0.8-2.1
			c0-0.8,0.3-1.5,1.1-2s1.6-0.8,2.9-0.8c1.1,0,2.3,0.2,3.4,0.5c1.1,0.3,2.1,0.8,2.9,1.4l0.3,0.2v-6.1l-0.2-0.1
			c-0.8-0.3-1.8-0.6-3-0.9c-1.2-0.2-2.3-0.3-3.2-0.3c-3.1,0-5.7,0.8-7.7,2.4c-2,1.6-3,3.7-3,6.1c0,1.3,0.2,2.5,0.7,3.4
			c0.5,1,1.1,1.9,2,2.6c0.9,0.7,2.2,1.5,4,2.3c1.5,0.7,2.7,1.2,3.4,1.6c0.7,0.4,1.2,0.9,1.5,1.2c0.3,0.4,0.4,0.9,0.4,1.6
			c0,1.9-1.4,2.8-4.3,2.8c-1.1,0-2.3-0.2-3.6-0.7c-1.4-0.5-2.6-1.1-3.7-1.9l-0.3-0.2v6.4l0.2,0.1c1,0.5,2.1,0.8,3.5,1.1
			c1.4,0.3,2.7,0.5,3.8,0.5c3.4,0,6.1-0.8,8.1-2.4c2-1.6,3.1-3.7,3.1-6.3c0-1.9-0.5-3.5-1.6-4.8C239.6,81.3,237.8,80.1,235.1,79.1
			 M259.8,66.9c-4.6,0-8.2,1.4-10.8,4c-2.6,2.7-3.9,6.3-3.9,10.9c0,4.3,1.3,7.8,3.8,10.4c2.5,2.5,5.9,3.8,10.2,3.8
			c4.5,0,8-1.4,10.6-4.1c2.6-2.7,3.9-6.3,3.9-10.8c0-4.4-1.2-7.9-3.7-10.5C267.6,68.2,264.1,66.9,259.8,66.9 M265,88.3
			c-1.2,1.6-3.1,2.3-5.5,2.3c-2.4,0-4.3-0.8-5.6-2.4c-1.4-1.6-2-3.8-2-6.7c0-3,0.7-5.2,2-6.8c1.4-1.6,3.2-2.4,5.6-2.4
			c2.3,0,4.1,0.8,5.4,2.3s2,3.8,2,6.8C266.9,84.4,266.3,86.7,265,88.3"/>
		<path id="XMLID_83_" class="st0" d="M308.5,72.9v-5.4h-6.6v-8.2l-0.2,0.1l-6.2,1.9l-0.2,0.1v6.3h-9.8V64c0-1.6,0.4-2.9,1.1-3.7
			s1.8-1.2,3.1-1.2c0.9,0,1.9,0.2,2.9,0.7l0.3,0.2v-5.7l-0.2-0.1c-0.9-0.3-2.1-0.5-3.7-0.5c-2,0-3.7,0.5-5.2,1.2
			c-1.6,0.9-2.7,2-3.6,3.6c-0.9,1.5-1.3,3.2-1.3,5.2v3.9h-4.6v5.3h4.6v22.5h6.6V72.9h9.8v14.3c0,5.9,2.8,8.8,8.3,8.8
			c0.9,0,1.9-0.2,2.8-0.3c1-0.2,1.7-0.5,2.1-0.7l0.1-0.1v-5.4l-0.3,0.2c-0.4,0.3-0.8,0.5-1.4,0.6c-0.5,0.2-1,0.2-1.3,0.2
			c-1.3,0-2.2-0.3-2.9-1.1c-0.6-0.7-0.9-1.9-0.9-3.6V72.9H308.5L308.5,72.9z"/>
	</g>
	<path id="XMLID_82_" class="st1" d="M5.5,43.6h30.8v30.8H5.5V43.6z"/>
	<path id="XMLID_81_" class="st2" d="M39.5,43.6h30.8v30.8H39.5V43.6z"/>
	<path id="XMLID_80_" class="st3" d="M5.5,77.6h30.8v30.8H5.5V77.6z"/>
	<path id="XMLID_79_" class="st4" d="M39.5,77.6h30.8v30.8H39.5V77.6z"/>
</g>
</svg>
