<?xml version="1.0" encoding="utf-8"?>
<!-- Generator: Adobe Illustrator 19.0.0, SVG Export Plug-In . SVG Version: 6.00 Build 0)  -->
<svg version="1.1" id="Layer_1" xmlns="http://www.w3.org/2000/svg" xmlns:xlink="http://www.w3.org/1999/xlink" x="0px" y="0px"
	 viewBox="0 0 314 152" style="enable-background:new 0 0 314 152;" xml:space="preserve">
<style type="text/css">
	.st0{fill:#282828;}
</style>
<g id="XMLID_79_">
	<path id="XMLID_85_" class="st0" d="M81.9,75.5l0-3.1l0-6.1l0,0c0-1.5-0.6-2.9-1.8-3.8l-15-13.2c-1.9-1.7-4.6-1.8-6.6-0.3
		l-10.2,8.4L38.3,49l-0.1-0.1c-2-1.5-4.8-1.4-6.6,0.2L16.6,62.3c-1.1,1-1.7,2.4-1.8,3.8l0,6.2l0,0l0,3l0,3l0,7.3l0,0
		c0,1.5,0.6,2.9,1.8,3.8l15,13.2c1.9,1.7,4.6,1.8,6.6,0.3l10.2-8.4l10.1,8.3l0.1,0.1c0.9,0.7,2,1.1,3.2,1.1c1.2,0,2.5-0.4,3.5-1.3
		l15.1-13.2c1.1-1,1.7-2.4,1.8-3.8l0-7.3l0,0L81.9,75.5z M76.9,85.8c0,0.1,0,0.1-0.1,0.1L61.8,99.1c-0.1,0.1-0.2,0.1-0.2,0
		l-11.9-9.8l0,0L33.5,75.9c-0.1,4.6,2.3,8.4,5.8,11.3l5.1,4.2l-9.3,7.6c-0.1,0-0.2,0-0.3,0l-15-13.2c0,0-0.1-0.1-0.1-0.1l0-10.2
		l0-9.3c0-0.1,0-0.1,0.1-0.1l15.1-13.2c0.1-0.1,0.2-0.1,0.2,0l15.1,12.5l12.9,10.7c0.1-4.6-2.3-8.4-5.8-11.3l-5.1-4.2l0,0l9.3-7.6
		c0.1,0,0.2,0,0.3,0l15,13.2c0,0,0.1,0.1,0.1,0.1l0,9.1L76.9,85.8z"/>
	<path id="XMLID_80_" class="st0" d="M298.9,79.5c-1-3.9-3.8-5.8-7.3-7c-1.9-0.7-4-1.2-5.8-2c-0.6-0.3-1.3-1.4-1.2-2
		c0.1-0.7,0.5-1.4,1.5-1.4c0.4,0,1.3,0.1,1.7,0.3c1.7,0.6,3.3,1.3,5.2,2l4.2-7.2c-3.7-2.5-7.4-3.8-12.8-3.3c-3,0.3-5.7,1.4-7.7,3.6
		c-1.4,1.5-2.3,3.6-2.5,5.9c0-2.7,0-5.3,0-8c0-0.3,0.2-0.6,0.1-0.9c-3.7,0-7.7,0-11.6,0c0,0.7,0,1.4,0,2.1c0,5.8,0,11.6,0,17.4
		c0,1.2-0.2,2.4-0.5,3.6c-0.5,1.5-1.6,2.2-3.2,2.2c-1.5,0-2.6-0.7-3.1-2.1c-0.3-1.1-0.5-2.4-0.5-3.6c0-4.3,0-8.7,0-13
		c0-2.2,0.1-4.5,0.1-6.6c-7.4,0-28.2,0.1-35.6,0.1c0,4.3,0,8.6,0,12.9c-1.2-5.3-5-9.6-10.6-11.6c-6.3-2.2-12.7-1-19.2-1.3
		c0,10.9,0,21.6,0,32.1c-2.4-4-4.4-7.5-6.6-11.3c4.9-3.8,6.5-7.7,5-12.8c-1.5-5-5.3-7.4-10.2-7.7c-6.1-0.3-12.3-0.2-18.4-0.2
		c-0.1,0-0.2,0.1-0.3,0.2c0,4,0,8,0,12c-2-7.7-8.9-13.1-17.6-13c-8.9,0.1-15.9,5.7-17.6,13.7c0-4.3,0-8.6,0-12.9
		c-3.8,0-7.4,0-11.2,0c0,5.3,0,10.4,0,15.6c-0.2,0.1-0.3,0.1-0.5,0.2c-0.4-0.5-0.7-1.1-1.1-1.6c-2.8-4.4-5.6-8.7-8.4-13.1
		c-0.3-0.5-0.8-1.1-1.3-1.1c-3.1-0.1-6.3-0.1-9.4-0.1c0,11.3,0.1,22.4,0.1,33.5h11.2c0-4.6,0-9.1,0-13.6c3.1,4.1,5.7,8.2,8.4,12.4
		c0.3,0.5,0.8,1.2,1.2,1.2c3.6,0.1,7.3,0.1,10.9,0.1c0-4.3,0-8.6,0-12.8c1.8,7.8,8.8,13.5,17.7,13.6c8.7,0,15.6-5.4,17.6-13
		c0,4,0,7.9,0,12c4,0,7.7,0,11.6,0c0-4.6,0-8.9,0-13.4c2.4,4.1,4.3,8,6.5,12.1c0.3,0.5,0.7,1.3,1.1,1.3c3.9,0.1,7.8,0.1,12,0.1
		c0,0,0,0,0,0c5.1,0,10.2,0.4,15.1-0.1c7.3-0.8,12.5-5.9,14-12.7c0,4.3,0,8.7,0,13c7.4,0,15.8,0,23,0l-2.7-9c-3.5,0-5.3,0-8.7,0
		c0-1.3,0-2.4,0-3.7c3.2,0,5.2,0,8.4,0c0-2.7,0-5.3,0-8.1c-3.3,0-5.3,0-8.4,0c0-1.3,0-2.4,0-3.7c1.8,0,7.1,0,12.3,0
		c0,4.2,0,8.4,0.1,12.6c0.2,6.1,3.6,10.3,9.1,11.9c3.6,1.1,7.2,1.2,10.8,0.3c6.5-1.5,10.1-5.5,10.4-12.1c0.1-3.5,0.2-7,0.2-10.5
		c0.3,3.2,2.1,6.4,5.9,8c2.1,0.9,4.4,1.5,6.5,2.5c0.7,0.3,1.4,1.2,1.3,2.2c0,0.6-0.7,1.1-1.5,1.5c-0.4,0.2-1.4,0.1-1.9,0
		c-2.1-0.7-4.1-1.5-6.4-2.4c-1.6,2.1-3.3,4.4-5.1,6.8c5,4.5,14.5,5.9,20.4,3C297.9,89.7,300.2,84.7,298.9,79.5z M141.7,83.2
		c-3.8,0-6.5-3-6.5-7.1c0-4.1,2.7-7,6.5-7.1c3.8,0,6.6,2.8,6.6,7C148.4,80.2,145.6,83.2,141.7,83.2z M177.3,73.9
		c-1.4,2.4-3.9,2.4-6.5,2.6c0-2.8,0-5.3,0-8c2.2-0.1,4.5-0.6,6.2,1.5C178.1,71.1,178.1,72.6,177.3,73.9z M201.5,83.8
		c0-5.1,0-10.2,0-15.2c3.9-0.4,6.8,2.5,6.9,6.8C208.6,80.7,206.1,83.9,201.5,83.8z"/>
</g>
</svg>
