<?xml version="1.0" encoding="utf-8"?>
<!-- Generator: Adobe Illustrator 19.0.0, SVG Export Plug-In . SVG Version: 6.00 Build 0)  -->
<svg version="1.1" id="Layer_1" xmlns="http://www.w3.org/2000/svg" xmlns:xlink="http://www.w3.org/1999/xlink" x="0px" y="0px"
	 viewBox="0 0 157 152" style="enable-background:new 0 0 157 152;" xml:space="preserve">
<style type="text/css">
	.st0{fill-rule:evenodd;clip-rule:evenodd;fill:#FFCB05;}
	.st1{fill:#00AEEF;}
	.st2{fill:#FFCB05;}
</style>
<g>
	<circle id="XMLID_60_" class="st0" cx="369.9" cy="97.2" r="3.3"/>
	<path class="st1" d="M370.1,54.3c-2.7-1-1.8-4.8,1-5.1c1.1-0.1,2.1,0.4,2.5,1.4C374.2,52.3,372.4,55,370.1,54.3L370.1,54.3z
		 M383,56.8c-1.3-0.2-1.7,0.7-1.7,0.8c-3.3,5.4-15.1,6.2-18.6-0.5c-3.8-8.6,4.4-15,11.8-12c4.2,1.7,4.3,8.6,1.8,6.5
		c-0.6-0.5-0.6-1.9-1.2-2.7c-0.8-1-1.7-2-4-2c-2.4-0.1-4.7,1.5-5.7,3.4c-0.6,1.1-0.7,2.9-0.5,4.1c0.2,1.2,0.7,2.3,1.5,3
		c1.3,1.3,3.4,2.1,5.2,1.9c4.1-0.4,3.9-2.9,4.3-3.3c0.1-0.1,0.4,0.1,0.7,0.3c4.3,2.6,6.3-8.3,1.1-12.5c-2.8-2.3-7-2.5-10.5-1.6
		c-7.2,2-10.3,7.6-8.1,15.2c2.7,5.5,7,7.3,11.5,7.6c4.7,0.3,9.5-1.2,12.9-4.9C383.4,59.8,385.1,57.4,383,56.8z"/>
	<path id="XMLID_57_" class="st1" d="M382.2,69.4c-0.3-0.6-1-0.6-1.7-0.3v0c-0.3,0-6,4.5-9.2,1.3c-1.3-1.2-0.3-3.4-1.3-4.8
		c-0.4-1.7-2.7-1.9-4.7-1.5c-7.9-0.2-13.6,5.8-16,8.6l0,0c-0.6,0.6-0.4,1.8,0.4,2.6c0.8,0.8,2,1,2.6,0.4l0,0c0,0,0,0,0,0
		c0,0,0,0,0,0c0,0,0,0,0,0c0.7-0.7,1.4-1.4,2-2.1c0.1-0.1,0.2-0.2,0.3-0.3c0.5-0.6,1-1.2,1.6-1.7c0.1-0.1,0.2-0.2,0.4-0.3
		c1.3-1,3.3-1.6,4.7-0.7c3.1,1.7,1.4,5.8-0.2,8.3C361.1,79,352,94.6,350,98c-0.1,0.2-0.3,0.4-0.3,0.6c0,0,0,0,0,0c0,0,0,0,0,0h0
		c-0.4,1.1,0.6,2,2.2,2c1.6,0,3.2-0.9,3.6-1.9h0c0.2-0.2,6.4-11.9,6.4-11.9c0.2-0.3,2.1-4.1,5.8-2.4c2.9,1.6,1.1,4.7,0.4,6.9
		c0,0,0,0,0,0c0,0,0,0,0,0c0,0,0,0.1,0,0.1h0c-0.1,0.6,0.6,1,1.7,1c1.2,0,2.3-0.5,2.5-1.1c0,0,0,0,0,0c1.7-3.8,4.2-11.1-4.1-12.5
		c0-0.1,0.1-0.4,0.1-0.4c0.5-1.6,1.1-4.2,3.1-3.1c1.7,0.8,3.5,0.6,4.9,0c0.1,0,0.2-0.1,0.4-0.1c1.2-0.5,2.3-1,3.3-1.8
		c0.1-0.1,0.2-0.1,0.3-0.2c0.3-0.1,0.6-0.3,0.9-0.6C382.2,71.6,382.6,70.2,382.2,69.4z"/>
	<polygon id="XMLID_56_" class="st1" points="380.3,73.2 380.7,73 380.7,72.3 380,72.4 	"/>
	<path class="st1" d="M382.5,99.6V88.4l-3.5,0.3v10.8H382.5L382.5,99.6z M382.8,84.3c0-1.1-0.9-2.1-2-2.1c-1.1,0-2,0.9-2,2.1
		c0,1.2,0.9,2.1,2,2.1C381.9,86.4,382.8,85.5,382.8,84.3L382.8,84.3z M393.8,99.6v-8.2c0-1.1-0.3-3-2.9-3c-1.7,0-2.7,0.8-3,1
		c0-0.5-0.1-0.8-0.2-1l-3.2,0.6c0.3,1.6,0.3,2.6,0.3,3.7v7h3.5V92c0.3-0.3,0.7-0.6,1.1-0.6c0.1,0,0.2,0,0.3,0c0.4,0,0.6,0.3,0.6,1.2
		v7H393.8L393.8,99.6z M402.3,84.3c-0.8-0.4-1.5-0.6-2.5-0.6c-1.3,0-3.6,0.4-3.6,3.5c0,0.4,0,0.9,0.1,1.3h-0.9V91h0.9v8.5h3.5V91
		h1.7l0.5-2.4h-2.2v-1.4c0-0.5,0.4-0.8,0.8-0.8c0.4,0,0.8,0.1,1,0.3L402.3,84.3L402.3,84.3z M411.6,93.8c0,1.9-0.4,3.5-1.6,4.7
		c-1,0.9-2.1,1.3-3.3,1.3c-1.9,0-2.9-0.8-3.5-1.6c-0.7-0.9-1.2-2.1-1.2-3.9c0-2.2,0.7-3.6,1.4-4.4c0.7-0.8,1.8-1.6,3.6-1.6
		c1.5,0,2.7,0.6,3.4,1.3C411.1,90.5,411.6,91.7,411.6,93.8L411.6,93.8z M407.9,93.9c0-1.6-0.1-2.3-0.4-2.6c-0.2-0.3-0.5-0.4-0.7-0.4
		c-0.2,0-0.4,0-0.6,0.3c-0.4,0.5-0.5,1.3-0.5,3.2c0,1.2,0.1,1.7,0.2,2.1c0.2,0.6,0.5,0.8,0.9,0.8c0.3,0,0.6-0.1,0.8-0.7
		C407.8,95.9,407.9,94.6,407.9,93.9L407.9,93.9z M421.3,89.4l-0.4-0.2c-1.3-0.7-2.4-0.9-3.7-0.9c-1.1,0-2.2,0.2-3.1,1
		c-0.8,0.7-1.2,1.7-1.2,2.7c0,2.4,1.8,2.8,2.4,3l1.3,0.3c0.6,0.1,1,0.3,1.2,0.5c0.1,0.1,0.2,0.3,0.2,0.5c0,0.2-0.1,0.4-0.3,0.6
		c-0.2,0.2-0.5,0.3-0.8,0.3c-0.9,0-2.5-0.8-3.4-1.4l-1.2,2.7l0.6,0.3c0.5,0.3,1.1,0.5,1.5,0.6c0.6,0.2,1.6,0.4,2.6,0.4
		c1,0,2.2-0.2,3.2-1c0.9-0.7,1.4-1.6,1.4-3c0-0.9-0.2-1.5-0.7-2.1c-0.6-0.6-1.3-0.8-1.8-1l-1.3-0.3c-0.6-0.1-0.8-0.3-0.9-0.4
		c-0.2-0.2-0.2-0.4-0.2-0.5c0-0.2,0.1-0.3,0.2-0.4c0.2-0.1,0.5-0.2,0.7-0.2c0.8,0,1.8,0.3,2.5,0.8L421.3,89.4L421.3,89.4z
		 M428.9,97.1c-0.4,0.2-0.7,0.2-1,0.2c-0.2,0-0.5,0-0.7-0.3c-0.2-0.2-0.3-0.7-0.3-1.6V91h1.4l0.5-2.4h-1.9v-0.4c0-1.1,0-1.8,0.1-2.9
		l-3.4,0.5c-0.1,0.4-0.2,1.2-0.1,2.7h-0.8V91h0.8v6.2c0,0.6,0.1,1.5,0.8,2.1c0.4,0.3,1.1,0.6,2.4,0.6c0.7,0,1.6-0.1,2.6-0.6
		L428.9,97.1L428.9,97.1z M439.8,98.7c-0.1-0.1-0.3-0.6-0.4-1.1c-0.1-0.4-0.1-0.9-0.1-1.3v-7.9l-3.5,0.6v7.6
		c-0.1,0.1-0.3,0.3-0.4,0.4c-0.2,0.1-0.4,0.2-0.7,0.2c-0.1,0-0.5,0-0.7-0.2c-0.1-0.2-0.2-0.4-0.2-0.6v-7.9l-3.5,0.6v6.8
		c0,0.7,0,1.6,0.2,2.2c0.2,0.7,0.8,1.9,3.2,1.9c0.8,0,1.7-0.2,2.6-1l0.1,0.2c0.1,0.5,0.3,0.7,0.4,0.8L439.8,98.7L439.8,98.7z
		 M450.6,99.6c-0.3-0.8-0.4-1.6-0.4-4.4V84.5l-3.5-0.5v3c0,0.6,0,0.6,0.1,1.7c-0.3-0.2-0.7-0.4-1.4-0.4c-1,0-2.2,0.4-3.1,1.5
		c-1.1,1.4-1.3,3.3-1.3,4.4c0,2.2,0.6,3.6,1.3,4.4c0.5,0.6,1.4,1.2,2.8,1.2c1.3,0,1.9-0.5,2.2-0.9c0,0.1,0,0.3,0.2,0.7H450.6
		L450.6,99.6z M446.8,96.7c-0.2,0.2-0.4,0.4-0.8,0.4c-0.3,0-0.7-0.1-0.9-0.6c-0.2-0.6-0.2-1.8-0.2-2.1c0-1.8,0.1-2.4,0.4-2.8
		c0.2-0.3,0.4-0.4,0.8-0.4c0.1,0,0.5,0,0.7,0.4V96.7L446.8,96.7z M456.3,97.7c0-1.2-0.9-2.1-2.1-2.1s-2,1-2,2.1c0,1.2,0.9,2.2,2,2.2
		S456.3,99,456.3,97.7L456.3,97.7z M464.4,96.1c-0.5,0.7-1.3,1-1.9,1c-0.4,0-0.6-0.1-0.9-0.5c-0.2-0.4-0.4-1-0.4-2.6
		c0-1.8,0.2-2.4,0.5-2.7c0.2-0.3,0.5-0.3,0.8-0.3c0.3,0,0.8,0.1,1.5,0.8l1.6-2.2c-1.2-1.2-2.5-1.3-3.2-1.3c-1.4,0-2.7,0.5-3.6,1.5
		c-0.6,0.7-1.3,2.1-1.3,4.3c0,1.7,0.3,3.1,1.3,4.3c0.6,0.7,1.5,1.4,3.4,1.4c1,0,2.4-0.2,3.7-1.6L464.4,96.1L464.4,96.1z M475.9,93.8
		c0-2.1-0.6-3.3-1.3-4.1c-0.7-0.8-1.9-1.3-3.4-1.3c-1.7,0-2.8,0.7-3.6,1.6c-0.7,0.8-1.4,2.2-1.4,4.4c0,1.8,0.5,3,1.2,3.9
		c0.6,0.8,1.7,1.6,3.5,1.6c1.2,0,2.3-0.4,3.3-1.3C475.5,97.3,475.9,95.7,475.9,93.8L475.9,93.8z M472.2,93.9c0,0.7,0,2.1-0.2,2.7
		c-0.2,0.6-0.6,0.7-0.8,0.7c-0.5,0-0.8-0.2-0.9-0.8c-0.1-0.3-0.2-0.8-0.2-2.1c0-2,0.1-2.8,0.5-3.2c0.2-0.2,0.4-0.3,0.6-0.3
		c0.3,0,0.5,0.1,0.7,0.4C472.1,91.6,472.2,92.3,472.2,93.9L472.2,93.9z M491.2,99.6v-8c0-0.7,0-1.9-0.9-2.6c-0.3-0.3-0.9-0.6-2-0.6
		c-0.8,0-1.9,0.2-2.9,1.2c-0.8-1-1.6-1.2-2.3-1.2c-0.3,0-1.5,0.1-2.5,1.1c0-0.3-0.1-0.5-0.1-0.8l-0.1-0.2l-3.2,0.6
		c0.3,1.6,0.3,2.6,0.3,3.7v7h3.3v-8c0.5-0.4,0.9-0.4,1.2-0.4c0.2,0,0.3,0,0.5,0.2c0,0.1,0.1,0.3,0.1,0.9v7.3h3.3v-8
		c0.5-0.4,0.9-0.4,1.2-0.4c0.2,0,0.3,0,0.5,0.2c0,0.1,0.1,0.3,0.1,0.9v7.3H491.2z"/>
	<g>
		<path class="st2" d="M219.6,89.7c0,4-0.8,7-2.3,9c-1.5,2-3.7,2.9-6.5,2.9c-0.6,0-1.2-0.1-1.7-0.2c-0.5-0.1-1-0.3-1.5-0.5
			c0.1,0.3,0.2,0.7,0.2,1.2c0.1,0.5,0.1,1.1,0.1,2v4.2l-7,1.9V87.9c0-1.3,0-2.4-0.1-3.6c-0.1-1.1-0.3-2.2-0.5-3.4l6.4-1.1
			c0.2,0.6,0.4,1.2,0.4,1.8c0.1-0.2,0.3-0.4,0.6-0.7c0.3-0.2,0.6-0.4,1-0.6c0.4-0.2,0.8-0.3,1.3-0.4c0.5-0.1,1-0.2,1.5-0.2
			c1.8,0,3.3,0.3,4.3,1c1.1,0.7,1.9,1.5,2.4,2.5s0.9,2,1.1,3.2C219.6,87.7,219.6,88.7,219.6,89.7z M212.2,90.3
			c0-1.6-0.1-2.9-0.4-3.7c-0.2-0.9-0.8-1.3-1.7-1.3c-0.6,0-1,0.1-1.4,0.3c-0.3,0.2-0.6,0.4-0.8,0.7v9.3c0.1,0.2,0.2,0.3,0.4,0.4
			c0.2,0.1,0.5,0.2,0.9,0.2c0.4,0,0.8,0,1.1-0.1c0.4-0.1,0.7-0.3,0.9-0.7c0.3-0.4,0.5-1,0.6-1.7C212.1,92.7,212.2,91.7,212.2,90.3z"
			/>
		<path class="st2" d="M234.7,86c-0.4-0.2-0.7-0.4-1-0.4c-0.3-0.1-0.6-0.1-1-0.1c-0.6,0-1.1,0.1-1.5,0.4c-0.4,0.3-0.7,0.6-0.9,1.1
			v14.1h-7V88.5c0-1.3,0-2.6-0.1-3.9c-0.1-1.3-0.2-2.5-0.5-3.6l6.4-1.1c0.1,0.4,0.2,0.8,0.3,1.2c0.1,0.4,0.1,0.8,0.1,1.3
			c0.2-0.3,0.4-0.6,0.7-0.9c0.3-0.3,0.6-0.6,0.9-0.8c0.3-0.3,0.7-0.5,1.2-0.6c0.4-0.2,0.9-0.2,1.5-0.2c0.5,0,0.9,0,1.3,0.1
			c0.4,0.1,0.8,0.2,1.3,0.5L234.7,86z"/>
		<path class="st2" d="M245.8,75c0,0.5-0.1,1-0.3,1.5c-0.2,0.5-0.5,0.9-0.9,1.3c-0.4,0.4-0.8,0.6-1.3,0.8c-0.5,0.2-1,0.3-1.6,0.3
			c-0.5,0-1-0.1-1.5-0.3c-0.5-0.2-0.9-0.5-1.3-0.8c-0.4-0.4-0.6-0.8-0.9-1.3c-0.2-0.5-0.3-1-0.3-1.5c0-0.5,0.1-1,0.3-1.5
			c0.2-0.5,0.5-0.9,0.9-1.3c0.4-0.4,0.8-0.6,1.3-0.8c0.5-0.2,1-0.3,1.6-0.3c1.1,0,2.1,0.4,2.8,1.1C245.4,72.9,245.8,73.9,245.8,75z
			 M238.3,101.1V80.7l7-0.6v21H238.3z"/>
		<path class="st2" d="M257.1,100.4c0,1.5-0.1,2.7-0.3,3.7c-0.2,1-0.5,1.9-1,2.7c-0.5,0.8-1.2,1.4-2,2c-0.8,0.6-1.9,1.1-3.1,1.7
			l-2.8-3.6c0.4-0.3,0.7-0.7,1-1c0.3-0.4,0.5-0.8,0.7-1.3c0.2-0.5,0.3-1,0.4-1.6c0.1-0.6,0.1-1.3,0.1-2.1V80.7l7-0.6V100.4z
			 M257.4,75c0,0.5-0.1,1-0.3,1.5c-0.2,0.5-0.5,0.9-0.9,1.3c-0.4,0.4-0.8,0.6-1.3,0.8c-0.5,0.2-1,0.3-1.6,0.3c-0.5,0-1-0.1-1.5-0.3
			c-0.5-0.2-0.9-0.5-1.3-0.8c-0.4-0.4-0.6-0.8-0.9-1.3c-0.2-0.5-0.3-1-0.3-1.5c0-0.5,0.1-1,0.3-1.5c0.2-0.5,0.5-0.9,0.9-1.3
			c0.4-0.4,0.8-0.6,1.3-0.8c0.5-0.2,1-0.3,1.6-0.3c1.1,0,2.1,0.4,2.8,1.1C257,72.9,257.4,73.9,257.4,75z"/>
		<path class="st2" d="M267.9,93c0,0.3,0,0.7,0.1,1.1c0.1,0.4,0.2,0.8,0.5,1.2c0.2,0.4,0.6,0.7,1,1s1,0.4,1.7,0.4
			c1.8,0,3.7-0.7,5.4-2.1l2.7,4c-1.4,1.1-2.8,1.8-4.1,2.3c-1.3,0.5-2.8,0.7-4.3,0.7c-3.3,0-5.9-0.9-7.6-2.8
			c-1.7-1.9-2.6-4.5-2.6-7.9c0-1.7,0.2-3.2,0.6-4.6c0.4-1.4,1-2.5,1.9-3.5c0.8-1,1.8-1.7,3-2.2c1.2-0.5,2.5-0.8,3.9-0.8
			c3.3,0,5.7,1,7.2,3c1.5,2,2.2,4.8,2.2,8.4V93H267.9z M272.5,88.4c0.1-1.1-0.1-2-0.4-2.7c-0.3-0.7-0.9-1-1.8-1
			c-0.7,0-1.3,0.3-1.8,0.8c-0.4,0.5-0.7,1.5-0.7,2.9H272.5z"/>
		<path class="st2" d="M303.5,101.1V88.3c0-0.7,0-1.2-0.1-1.6c0-0.4-0.1-0.7-0.2-0.9c-0.1-0.2-0.3-0.3-0.5-0.4
			c-0.2,0-0.4-0.1-0.7-0.1c-0.2,0-0.5,0.1-1,0.2c-0.5,0.2-0.9,0.3-1.2,0.6v14.9h-6.5V88.3c0-0.7,0-1.2,0-1.6c0-0.4-0.1-0.7-0.2-0.9
			c-0.1-0.2-0.2-0.3-0.4-0.4c-0.2-0.1-0.4-0.1-0.8-0.1c-0.3,0-0.7,0.1-1.1,0.2c-0.4,0.2-0.8,0.3-1.1,0.6v15h-6.8V87.9
			c0-1.3,0-2.4-0.1-3.6c-0.1-1.1-0.3-2.2-0.5-3.4l6.4-1.1c0.1,0.4,0.2,0.7,0.3,1c0.1,0.3,0.1,0.6,0.1,1c0.7-0.6,1.5-1.1,2.4-1.5
			c0.9-0.4,1.7-0.5,2.6-0.5c1.1,0,2,0.2,2.8,0.6s1.3,1,1.9,1.6c0.8-0.7,1.7-1.3,2.7-1.7c1-0.4,2-0.6,3.2-0.6c0.7,0,1.4,0.1,2.1,0.2
			c0.7,0.2,1.3,0.5,1.8,0.9c0.5,0.4,0.9,1.1,1.3,1.9c0.3,0.8,0.5,1.8,0.5,3.1v15.1H303.5z"/>
		<path class="st2" d="M326,101.1V87.9c0-0.6,0-1-0.1-1.3c-0.1-0.3-0.2-0.5-0.4-0.7c-0.2-0.1-0.3-0.2-0.6-0.2c-0.2,0-0.4,0-0.7,0
			c-0.3,0-0.6,0.1-1,0.3c-0.4,0.2-0.8,0.5-1.3,0.9v14.3h-7V87.9c0-1.3,0-2.4-0.1-3.6c-0.1-1.1-0.3-2.2-0.5-3.4l6.4-1.1
			c0.1,0.2,0.2,0.5,0.2,0.9c0.1,0.4,0.1,0.7,0.2,1c0.7-0.5,1.5-1,2.5-1.4c1-0.4,2.1-0.6,3.5-0.6c1.2,0,2.2,0.2,2.9,0.5
			c0.8,0.3,1.4,0.7,1.8,1.3c0.4,0.5,0.7,1.1,0.9,1.8c0.1,0.7,0.2,1.4,0.2,2.1v15.5H326z"/>
		<path class="st2" d="M345.2,75c0,0.5-0.1,1-0.3,1.5c-0.2,0.5-0.5,0.9-0.9,1.3c-0.4,0.4-0.8,0.6-1.3,0.8c-0.5,0.2-1,0.3-1.6,0.3
			c-0.5,0-1-0.1-1.5-0.3c-0.5-0.2-0.9-0.5-1.3-0.8c-0.4-0.4-0.6-0.8-0.9-1.3c-0.2-0.5-0.3-1-0.3-1.5c0-0.5,0.1-1,0.3-1.5
			c0.2-0.5,0.5-0.9,0.9-1.3c0.4-0.4,0.8-0.6,1.3-0.8c0.5-0.2,1-0.3,1.6-0.3c1.1,0,2.1,0.4,2.8,1.1C344.9,72.9,345.2,73.9,345.2,75z
			 M337.8,101.1V80.7l7-0.6v21H337.8z"/>
	</g>
</g>
<g id="XMLID_74_">
</g>
<g id="XMLID_75_">
</g>
<g id="XMLID_76_">
</g>
<g id="XMLID_77_">
</g>
<g id="XMLID_78_">
</g>
<g id="XMLID_79_">
</g>
</svg>
