<?xml version="1.0" encoding="utf-8"?>
<!-- Generator: Adobe Illustrator 19.0.0, SVG Export Plug-In . SVG Version: 6.00 Build 0)  -->
<svg version="1.1" id="Layer_1" xmlns="http://www.w3.org/2000/svg" xmlns:xlink="http://www.w3.org/1999/xlink" x="0px" y="0px"
	 viewBox="0 0 314 152" style="enable-background:new 0 0 314 152;" xml:space="preserve">
<style type="text/css">
	.st0{fill:#333333;}
</style>
<g id="XMLID_105_">
	<g id="XMLID_111_">
		<g id="XMLID_112_">
			<g id="XMLID_113_">
				<path id="XMLID_139_" class="st0" d="M111.6,67.4c2.4,0,4.3,0.8,5.6,2.4c1.4,1.6,2,3.6,2,5.9s-0.7,4.3-2,5.9
					c-1.4,1.6-3.2,2.4-5.6,2.4c-2.2,0-4-0.7-5.2-2.1v9h-4.6v-23h4v2.3C107.4,68.3,109.1,67.4,111.6,67.4z M113.6,72.5
					c-0.8-0.9-1.7-1.3-3-1.3c-0.9,0-1.7,0.3-2.5,0.8c-0.7,0.5-1.3,1.1-1.6,1.9v3.7c0.3,0.8,0.8,1.4,1.6,1.9c0.7,0.5,1.6,0.8,2.5,0.8
					c1.3,0,2.3-0.4,3-1.3c0.8-0.9,1.1-1.9,1.1-3.2C114.7,74.4,114.3,73.4,113.6,72.5z"/>
				<path id="XMLID_101_" class="st0" d="M128.1,68.1c1.1-0.5,2.4-0.7,3.8-0.5V72c-1.1-0.2-2.4-0.1-3.5,0.3c-1.1,0.4-2,1.1-2.3,2
					v9.3h-4.6V67.8h4v2.4C126.1,69.3,127,68.6,128.1,68.1z"/>
				<path id="XMLID_135_" class="st0" d="M135.2,69.6c1.7-1.5,3.7-2.2,6.1-2.2c2.4,0,4.5,0.7,6.2,2.2c1.7,1.5,2.5,3.5,2.5,6.1
					s-0.8,4.6-2.5,6.1c-1.7,1.5-3.7,2.2-6.2,2.2c-2.4,0-4.5-0.7-6.1-2.2s-2.5-3.5-2.5-6.1S133.5,71,135.2,69.6z M144.3,72.7
					c-0.7-0.8-1.7-1.2-3-1.2c-1.3,0-2.3,0.4-3,1.2c-0.7,0.8-1.1,1.8-1.1,3.1s0.4,2.3,1.1,3.1c0.7,0.8,1.7,1.2,3,1.2
					c1.3,0,2.3-0.4,3-1.2c0.7-0.8,1.1-1.8,1.1-3.1S145,73.5,144.3,72.7z"/>
				<path id="XMLID_132_" class="st0" d="M168.7,60.6v23h-4v-2.4c-1.5,1.8-3.2,2.8-5.7,2.8c-2.4,0-4.3-0.8-5.6-2.4s-2-3.6-2-5.9
					c0-2.3,0.7-4.3,2-5.9c1.4-1.6,3.2-2.4,5.6-2.4c2.2,0,4,0.7,5.1,2.1v-8.9H168.7z M162.6,72c-0.7-0.5-1.6-0.8-2.5-0.8
					c-1.3,0-2.3,0.4-3,1.3c-0.8,0.9-1.1,1.9-1.1,3.2s0.4,2.3,1.1,3.2c0.8,0.9,1.7,1.3,3,1.3c0.9,0,1.7-0.3,2.5-0.8
					c0.7-0.5,1.3-1.1,1.6-1.9v-3.7C163.8,73.1,163.3,72.5,162.6,72z"/>
				<path id="XMLID_96_" class="st0" d="M187.2,67.8v15.9h-4v-2.1c-1.5,1.6-3.1,2.5-5.2,2.5c-2,0-3.6-0.6-4.7-1.8
					c-1.1-1.2-1.6-2.8-1.6-4.6v-9.8h4.6V77c0,1,0.2,1.8,0.7,2.3c0.5,0.5,1.2,0.8,2.2,0.8c1.4,0,2.6-0.7,3.5-2V67.8H187.2z"/>
				<path id="XMLID_95_" class="st0" d="M190.1,72.1c0.5-1.1,1.2-2,2-2.7c0.9-0.7,1.8-1.2,2.8-1.5c1-0.3,2.1-0.5,3.2-0.5
					c1.8,0,3.4,0.4,4.8,1.1v4c-1.1-0.8-2.6-1.2-4.2-1.2c-1.4,0-2.5,0.4-3.5,1.1s-1.4,1.8-1.4,3.3c0,1.4,0.5,2.5,1.4,3.2
					c0.9,0.8,2.1,1.1,3.5,1.1c1.7,0,3-0.4,4.5-1.1v4c-1.7,0.7-3.5,1-5.3,1c-2.4,0-4.4-0.7-6.1-2.1s-2.5-3.4-2.5-6
					C189.4,74.5,189.6,73.2,190.1,72.1z"/>
				<path id="XMLID_94_" class="st0" d="M211.4,62.2v5.6h4.9v3.8h-4.9v6.3c0,1.6,0.9,2.4,2.6,2.4c1,0,2-0.2,2.9-0.5v3.7
					c-1.5,0.5-2.8,0.7-4.3,0.7c-1.7,0-3.1-0.4-4.2-1.3c-1.1-0.9-1.7-2.2-1.7-4v-7.2h-2.6v-3.7h2.6v-4.5L211.4,62.2z"/>
				<path id="XMLID_93_" class="st0" d="M220.9,60.6v9.9c0.6-0.8,1.5-1.5,2.5-2.1c1-0.6,2.2-0.9,3.4-0.9c1.8,0,3.4,0.6,4.6,1.7
					c1.2,1.2,1.9,2.7,1.9,4.6v9.8h-2v-9.5c0-1.6-0.4-2.8-1.3-3.6c-0.9-0.9-2-1.3-3.4-1.3c-1.2,0-2.4,0.3-3.3,1
					c-1,0.7-1.8,1.6-2.4,2.5v10.9h-1.7v-23H220.9z"/>
				<path id="XMLID_125_" class="st0" d="M238.8,64c-0.2,0.2-0.5,0.3-0.9,0.3c-0.4,0-0.7-0.1-0.9-0.3c-0.2-0.2-0.4-0.5-0.4-0.9
					c0-0.4,0.1-0.7,0.4-0.9c0.3-0.2,0.5-0.3,0.9-0.3c0.3,0,0.6,0.1,0.9,0.3c0.2,0.2,0.4,0.5,0.4,0.9C239.2,63.5,239,63.8,238.8,64z
					 M237,83.7V67.8h1.7v15.9L237,83.7L237,83.7z"/>
				<path id="XMLID_90_" class="st0" d="M257.2,67.8l-7.1,15.9h-2L241,67.8h2l6,13.6l6-13.6H257.2z"/>
				<path id="XMLID_121_" class="st0" d="M260.1,69.7c1.6-1.5,3.4-2.2,5.4-2.2c1.2,0,2.2,0.2,3.1,0.5c0.9,0.4,1.7,0.9,2.2,1.5
					c0.5,0.6,1,1.3,1.4,2.1c0.4,0.8,0.6,1.6,0.6,2.4s0,1.6-0.2,2.5h-13c0.1,2,0.8,3.3,2.2,4.3s3,1.5,4.9,1.5c2,0,3.7-0.4,5.2-1.2
					v1.8c-1.5,0.8-3.3,1.1-5.4,1.1c-2.5,0-4.5-0.7-6.2-2.1c-1.6-1.4-2.5-3.4-2.5-6.1C257.7,73.1,258.5,71.1,260.1,69.7z M269.9,71.1
					c-0.9-1.2-2.3-1.9-4.3-1.9c-1.6,0-3,0.5-4.2,1.6c-1.2,1-1.8,2.2-1.9,4.2H271C271.1,73.6,270.8,72.3,269.9,71.1z"/>
				<path id="XMLID_87_" class="st0" d="M277,83.5c-0.3,0.2-0.6,0.3-0.9,0.3c-0.4,0-0.7-0.1-0.9-0.3c-0.3-0.2-0.4-0.5-0.4-0.9
					s0.1-0.7,0.4-0.9c0.3-0.2,0.6-0.3,0.9-0.3c0.4,0,0.7,0.1,0.9,0.3c0.3,0.2,0.4,0.5,0.4,0.9C277.4,82.9,277.3,83.2,277,83.5z"/>
				<path id="XMLID_117_" class="st0" d="M282.6,64c-0.2,0.2-0.5,0.3-0.9,0.3c-0.4,0-0.7-0.1-0.9-0.3c-0.2-0.2-0.4-0.5-0.4-0.9
					c0-0.4,0.1-0.7,0.4-0.9c0.3-0.2,0.5-0.3,0.9-0.3c0.3,0,0.6,0.1,0.9,0.3c0.2,0.2,0.4,0.5,0.4,0.9C283,63.5,282.8,63.8,282.6,64z
					 M280.8,83.7V67.8h2v15.9L280.8,83.7L280.8,83.7z"/>
				<path id="XMLID_114_" class="st0" d="M288.1,69.7c1.6-1.5,3.6-2.2,5.8-2.2c2.3,0,4.2,0.7,5.8,2.2c1.6,1.5,2.4,3.5,2.4,6
					c0,2.5-0.8,4.5-2.4,6c-1.6,1.5-3.6,2.2-5.8,2.2c-2.3,0-4.2-0.7-5.8-2.2c-1.6-1.5-2.4-3.5-2.4-6
					C285.6,73.2,286.4,71.2,288.1,69.7z M298.4,71c-1.2-1.2-2.7-1.7-4.5-1.7s-3.3,0.6-4.6,1.7c-1.2,1.2-1.8,2.7-1.8,4.7
					c0,2,0.6,3.6,1.8,4.7c1.2,1.2,2.8,1.7,4.6,1.7s3.3-0.6,4.5-1.7s1.8-2.7,1.8-4.7C300.3,73.7,299.7,72.2,298.4,71z"/>
			</g>
		</g>
	</g>
	<path id="XMLID_106_" class="st0" d="M74.5,59.8c-2,0-4.1,0.4-6.2,1.2c-1.3,0.5-2.5,1.1-3.8,1.8L52.3,54c-0.6-0.4-1.3-0.4-1.9,0
		l-8.9,6.5c-0.7,0.5-0.9,1.6-0.4,2.3c0.5,0.7,1.6,0.9,2.3,0.4l7.9-5.8l10.5,7.6l-7.1,5.1c-0.6,0.5-0.8,1.4-0.3,2
		c0.3,0.4,0.8,0.6,1.2,0.6c0.3,0,0.6-0.1,0.9-0.3l8.9-6.4c1.4-0.9,2.8-1.5,4-2c1.7-0.6,3.4-1,5-1c7.2,0,13,5.8,13,13s-5.8,13-13,13
		c-7.7,0-15-7.2-22.1-14.2c-7.5-7.4-15.3-15-24.2-15c-9,0-16.3,7.3-16.3,16.3s7.3,16.3,16.3,16.3c2,0,4.1-0.4,6.2-1.2
		c1.3-0.5,2.5-1.1,3.9-1.9L50.3,98c0.3,0.2,0.6,0.3,1,0.3s0.7-0.1,1-0.3l12.1-8.8c3.2,1.9,6.5,3,10.1,3c9,0,16.3-7.3,16.3-16.3
		C90.8,67,83.5,59.8,74.5,59.8z M37.2,86c-1.4,0.9-2.7,1.5-4,2c-1.7,0.6-3.4,1-5,1c-7.2,0-13-5.8-13-13s5.8-13,13-13
		c7.6,0,14.9,7,21.9,14c2,2,4.1,4,6.2,5.8h-10l1.8-1.1c0.6-0.5,0.8-1.3,0.3-2c-0.5-0.6-1.4-0.8-2-0.3L37.2,86z M51.3,94.6l-4.4-3.2
		h8.7L51.3,94.6z M59.5,88.6H43.1L40.8,87l1.7-1.2c0.1,0,0.1-0.1,0.2-0.1h16.9c0.6,0.6,1.3,1,1.9,1.5L59.5,88.6z"/>
</g>
</svg>
