<?xml version="1.0" encoding="utf-8"?>
<!-- Generator: Adobe Illustrator 19.0.0, SVG Export Plug-In . SVG Version: 6.00 Build 0)  -->
<svg version="1.1" id="Layer_1" xmlns="http://www.w3.org/2000/svg" xmlns:xlink="http://www.w3.org/1999/xlink" x="0px" y="0px"
	 viewBox="0 0 157 152" style="enable-background:new 0 0 157 152;" xml:space="preserve">
<style type="text/css">
	.st0{fill:#D6D6D6;}
	.st1{fill:#FFFFFF;}
	.st2{fill:url(#XMLID_267_);}
	.st3{fill:url(#XMLID_268_);}
	.st4{fill:url(#XMLID_269_);}
	.st5{fill:url(#XMLID_270_);}
	.st6{fill:url(#XMLID_271_);}
	.st7{fill:url(#XMLID_272_);}
	.st8{fill:url(#XMLID_273_);}
	.st9{fill:url(#XMLID_274_);}
	.st10{fill:#686868;}
</style>
<g id="XMLID_233_">
	<g id="XMLID_210_">
		<path id="XMLID_232_" class="st0" d="M100.2,91.5C100.2,91.5,100.2,91.5,100.2,91.5l-0.4,0c-0.1,0-0.3,0-0.5-0.1
			c-0.3,0-0.6-0.1-0.9-0.2l-0.2,0c-0.1,0-0.3-0.1-0.4-0.1l-0.7-0.2c-1.1-0.3-2.3-0.6-3.4-1c-0.2-0.1-0.5-0.2-0.7-0.3l-0.2-0.1
			c-0.3-0.1-0.7-0.3-1-0.4l-1.9-0.8c-0.2-0.1-0.3-0.3-0.2-0.5c0.1-0.2,0.3-0.3,0.5-0.2l1.8,0.8c0.3,0.1,0.7,0.3,1,0.4l0.2,0.1
			c0.2,0.1,0.5,0.2,0.7,0.3c1.1,0.4,2.2,0.7,3.3,1l0.4,0.1c-0.1-0.1-0.2-0.1-0.4-0.2c-0.8-0.5-1.8-1-2.9-1.7
			c-0.2-0.1-0.3-0.2-0.5-0.3l-0.3-0.2c-0.3-0.2-0.6-0.4-0.9-0.6l-0.6-0.4c-0.2-0.1-0.2-0.4-0.1-0.5c0.1-0.2,0.4-0.2,0.5-0.1l0.6,0.4
			c0.3,0.2,0.6,0.4,0.9,0.6l0.3,0.2c0.2,0.1,0.3,0.2,0.5,0.3c1.1,0.7,2.1,1.2,2.9,1.7c0.7,0.4,1.3,0.7,1.9,1
			c0.2,0.1,0.3,0.2,0.4,0.2l0.3,0.2c0.2,0.1,0.3,0.3,0.2,0.5C100.5,91.4,100.4,91.5,100.2,91.5z"/>
		<path id="XMLID_231_" class="st0" d="M92.3,86.4c0.1,0,0.1,0.1,0.2,0.1c0.2,0.1,0.3,0.2,0.5,0.3c0.3,0.2,0.6,0.4,0.9,0.6
			c0.3,0.2,0.6,0.4,0.9,0.5c1.1,0.7,2.1,1.3,2.9,1.7c0.8,0.5,1.5,0.8,1.9,1c0.2,0.1,0.4,0.2,0.5,0.3c0.1,0.1,0.2,0.1,0.2,0.1
			s-0.1,0-0.2,0c-0.1,0-0.3,0-0.6-0.1c-0.3,0-0.6-0.1-0.9-0.2c-0.2,0-0.4-0.1-0.6-0.1c-0.2,0-0.4-0.1-0.7-0.2
			c-0.9-0.2-2.1-0.5-3.3-1c-0.3-0.1-0.6-0.2-1-0.4c-0.3-0.1-0.7-0.3-1-0.4c-0.2-0.1-0.4-0.1-0.5-0.2c-0.2-0.1-0.4-0.2-0.5-0.2
			c-0.2-0.1-0.4-0.2-0.6-0.2c-0.1,0-0.1-0.1-0.2-0.1"/>
		<g id="XMLID_222_">
			<path id="XMLID_230_" class="st0" d="M60.8,83c-0.1,0-0.2-0.1-0.3-0.1c-4-4.9-6.2-11.1-6.2-17.7c0-2.8,0.4-5.6,1.2-8.3
				c0-0.2,0.2-0.3,0.3-0.3c0,0,0,0,0,0c0.1,0,0.3,0.1,0.3,0.2c0.5,0.9,1.1,1.9,1.8,2.9c1.1,1.6,2.2,3.2,3.5,4.8
				c1.3,1.7,2.7,3.3,4.1,4.8c0.6,0.6,1.1,1.2,1.7,1.8c0.1,0.1,0.1,0.4,0,0.5c-0.3,0.4-0.6,0.8-0.9,1.3c-1.1,1.5-2.1,3.2-2.9,4.8
				c-0.8,1.5-1.5,3-2.2,4.5c-0.1,0.2-0.2,0.4-0.3,0.6C61.1,82.8,61,82.9,60.8,83C60.8,83,60.8,83,60.8,83z"/>
			<path id="XMLID_229_" class="st0" d="M61,81.9c0.6-1.4,1.3-3,2.2-4.6c0.9-1.6,1.8-3.2,3-4.8c0.3-0.4,0.6-0.8,0.9-1.3
				c-0.6-0.6-1.1-1.2-1.7-1.8c-1.5-1.6-2.9-3.2-4.1-4.8c-1.3-1.6-2.5-3.2-3.5-4.8c-0.7-1-1.3-2-1.8-2.9c-0.8,2.6-1.2,5.3-1.2,8.2
				c0,6.7,2.3,12.8,6.1,17.4C60.9,82.4,60.9,82.1,61,81.9z"/>
			<path id="XMLID_228_" class="st0" d="M69.8,68.2c-0.1,0-0.2,0-0.3-0.1c-0.5-0.4-0.9-0.9-1.3-1.3c-1.4-1.4-2.8-2.8-4.3-4.4
				c-1.3-1.4-2.6-2.8-3.8-4.3c-1.2-1.4-2.3-2.7-3.2-4L56.8,54c-0.1-0.1-0.1-0.3,0-0.4c4-9.1,12.6-15,21.8-15
				C86,38.7,93,42.4,97.6,49c0.1,0.1,0.1,0.2,0.1,0.3c0,0.1-0.1,0.2-0.2,0.3l-0.1,0c-0.3,0.1-0.6,0.2-0.9,0.3
				c-0.3,0.1-0.6,0.2-1,0.4c-0.7,0.3-1.4,0.5-2.1,0.8c-1.5,0.6-3,1.3-4.5,2.1C87.3,54.1,85.7,55,84,56c-1.6,1-3.3,2.2-4.9,3.4
				c-1.6,1.2-3.2,2.6-4.7,4c-1.5,1.5-3,3-4.3,4.5C70.1,68.1,70,68.2,69.8,68.2C69.8,68.2,69.8,68.2,69.8,68.2z"/>
			<path id="XMLID_227_" class="st0" d="M57.1,53.9c1,1.3,2,2.6,3.2,4c1.2,1.4,2.5,2.8,3.8,4.2c1.4,1.4,2.8,2.9,4.3,4.4
				c0.4,0.4,0.9,0.9,1.3,1.3c0,0,0,0,0.1-0.1c1.3-1.6,2.8-3.1,4.3-4.5c1.5-1.4,3.1-2.8,4.7-4.1c1.6-1.3,3.3-2.4,4.9-3.5
				c1.6-1,3.3-2,4.9-2.8c1.6-0.8,3.1-1.5,4.5-2.1c0.7-0.3,1.4-0.6,2.1-0.8c0.3-0.1,0.7-0.2,1-0.4c0.3-0.1,0.6-0.2,0.9-0.3
				c0,0,0.1,0,0.1,0C93,43,86.2,39.1,78.5,39.1C69.1,39.1,60.9,45.1,57.1,53.9C57.1,53.8,57.1,53.9,57.1,53.9z"/>
			<path id="XMLID_226_" class="st0" d="M92.3,86.8c-0.1,0-0.2,0-0.2-0.1l-0.8-0.5l-0.5-0.3c-1.4-0.9-2.8-2-4.2-3
				c-1.5-1.2-3.1-2.4-4.5-3.5c-1.5-1.2-3-2.5-4.7-4c-1.5-1.3-3.1-2.7-4.7-4.2l-0.1-0.1c-0.2-0.1-0.2-0.4,0-0.6l0.2-0.2
				c1.3-1.4,2.7-2.8,4.2-4.2c1.5-1.4,3-2.7,4.4-3.9c1.6-1.3,3.1-2.5,4.5-3.6c1.5-1.1,3-2.2,4.4-3.2c1.3-0.9,2.6-1.8,4-2.7
				c0.2-0.1,0.4-0.3,0.6-0.4l0.3-0.2l0.9-0.6c0.4-0.2,0.7-0.5,1.1-0.7c0.2-0.1,0.9-0.6,0.9-0.6c0.1,0,0.1-0.1,0.2-0.1
				c0,0,0.1,0,0.1,0c0.1,0,0.2,0.1,0.2,0.2c2.7,4.4,4.1,9.5,4.1,14.8c0,8.5-3.8,16.6-10.1,21.6C92.5,86.8,92.4,86.8,92.3,86.8z"/>
			<path id="XMLID_225_" class="st0" d="M97.9,50.8c-0.5,0.3-1.1,0.7-1.7,1c-0.3,0.2-0.6,0.4-0.9,0.6c-0.3,0.2-0.6,0.4-0.9,0.6
				c-1.3,0.8-2.6,1.7-4,2.7c-1.4,1-2.9,2.1-4.3,3.2c-1.5,1.1-3,2.3-4.5,3.6c-1.5,1.3-3,2.6-4.4,3.9c-1.4,1.4-2.8,2.8-4.1,4.2
				c-0.1,0.1-0.1,0.1-0.2,0.2c0,0,0.1,0.1,0.1,0.1c1.5,1.4,3.1,2.9,4.7,4.2c1.6,1.4,3.1,2.7,4.7,3.9c1.5,1.3,3,2.4,4.5,3.5
				c1.5,1.1,2.9,2.1,4.2,3c0.2,0.1,0.3,0.2,0.5,0.3c0.2,0.1,0.3,0.2,0.5,0.3c0.1,0.1,0.2,0.1,0.3,0.2c6.1-4.7,10-12.5,10-21.3
				c0-5.4-1.5-10.4-4-14.6C98.1,50.7,98,50.7,97.9,50.8z"/>
			<path id="XMLID_224_" class="st0" d="M78.5,91.7c-6.1,0-11.9-2.5-16.3-6.9c-0.1-0.1-0.2-0.3-0.1-0.5l0.1-0.2
				c0.2-0.4,0.5-0.8,0.7-1.1c1-1.5,1.9-2.8,2.7-4c1.1-1.5,2.2-2.9,3.3-4.2c0.2-0.3,0.4-0.5,0.7-0.8c0.1-0.1,0.2-0.1,0.3-0.1
				c0,0,0,0,0,0c0.1,0,0.2,0,0.3,0.1c1.6,1.5,3.3,3,4.9,4.3c1.6,1.3,3.3,2.6,5.1,3.8c3.2,2.2,6.6,4.1,9.7,5.6l0.3,0.1
				c0.1,0.1,0.2,0.2,0.2,0.3c0,0.1-0.1,0.3-0.2,0.4C86.7,90.5,82.6,91.7,78.5,91.7z"/>
			<path id="XMLID_223_" class="st0" d="M89.8,87.8c-3-1.4-6.4-3.3-9.8-5.6c-1.7-1.2-3.4-2.4-5.1-3.8c-1.7-1.4-3.3-2.8-4.9-4.3
				c-0.2,0.3-0.4,0.5-0.7,0.8c-1.2,1.4-2.3,2.8-3.3,4.2c-1,1.4-1.9,2.7-2.7,4c-0.3,0.5-0.6,0.9-0.8,1.3c4.2,4.2,9.9,6.8,16,6.8
				c4.2,0,8.2-1.2,11.6-3.3C89.9,87.9,89.9,87.9,89.8,87.8z"/>
		</g>
		<path id="XMLID_221_" class="st0" d="M100.2,91.5C100.2,91.5,100.2,91.5,100.2,91.5l-0.4-0.1c-0.1,0-0.3,0-0.5-0.1
			c-0.3,0-0.6-0.1-0.9-0.2l-0.2,0c-0.1,0-0.3-0.1-0.4-0.1l-0.7-0.2c-1.1-0.3-2.3-0.6-3.4-1c-0.2-0.1-0.5-0.2-0.7-0.3l-0.2-0.1
			c-0.3-0.1-0.7-0.3-1-0.4l-1.9-0.8c-0.2-0.1-0.3-0.3-0.2-0.5c0.1-0.2,0.3-0.3,0.5-0.2l1.8,0.8c0.3,0.1,0.7,0.3,1,0.4l0.2,0.1
			c0.2,0.1,0.5,0.2,0.7,0.3c1.1,0.4,2.2,0.7,3.3,1l0.4,0.1c-0.1-0.1-0.2-0.1-0.4-0.2c-0.8-0.5-1.8-1-2.9-1.7
			c-0.2-0.1-0.3-0.2-0.5-0.3l-0.3-0.2c-0.3-0.2-0.6-0.4-0.9-0.6l-0.6-0.4c-0.2-0.1-0.2-0.4-0.1-0.5c0.1-0.2,0.4-0.2,0.5-0.1l0.6,0.4
			c0.3,0.2,0.6,0.4,0.9,0.6l0.4,0.2c0.2,0.1,0.3,0.2,0.5,0.3c1.1,0.7,2.1,1.2,2.9,1.7c0.7,0.4,1.3,0.7,1.9,1
			c0.2,0.1,0.3,0.1,0.4,0.2l0.3,0.2c0.2,0.1,0.3,0.3,0.2,0.5C100.5,91.4,100.4,91.5,100.2,91.5z"/>
		<path id="XMLID_220_" class="st0" d="M92.3,86.5c0.1,0,0.1,0.1,0.2,0.1c0.2,0.1,0.3,0.2,0.5,0.3c0.3,0.2,0.6,0.4,0.9,0.6
			c0.3,0.2,0.6,0.4,0.9,0.5c1.1,0.7,2.1,1.3,2.9,1.7c0.8,0.5,1.5,0.8,1.9,1c0.2,0.1,0.4,0.2,0.5,0.3c0.1,0.1,0.2,0.1,0.2,0.1
			s-0.1,0-0.2,0c-0.1,0-0.3,0-0.6-0.1c-0.3,0-0.6-0.1-0.9-0.2c-0.2,0-0.4-0.1-0.6-0.1c-0.2,0-0.4-0.1-0.7-0.2
			c-0.9-0.2-2.1-0.5-3.3-1c-0.3-0.1-0.6-0.2-1-0.4c-0.3-0.1-0.7-0.3-1-0.4c-0.2-0.1-0.4-0.1-0.5-0.2c-0.2-0.1-0.4-0.2-0.5-0.2
			c-0.2-0.1-0.4-0.2-0.6-0.2c-0.1,0-0.1-0.1-0.2-0.1"/>
		<g id="XMLID_211_">
			<path id="XMLID_219_" class="st0" d="M60.8,83c-0.1,0-0.2-0.1-0.3-0.1c-4-4.9-6.2-11.1-6.2-17.7c0-2.8,0.4-5.6,1.2-8.3
				c0-0.2,0.2-0.3,0.3-0.3c0,0,0,0,0,0c0.1,0,0.3,0.1,0.3,0.2c0.5,0.9,1.1,1.9,1.8,2.9c1.1,1.6,2.2,3.2,3.5,4.8
				c1.3,1.7,2.7,3.3,4.1,4.8c0.6,0.6,1.1,1.2,1.7,1.8c0.1,0.1,0.1,0.4,0,0.5c-0.3,0.4-0.6,0.8-0.9,1.3c-1.1,1.5-2.1,3.2-2.9,4.8
				c-0.8,1.5-1.5,3-2.2,4.5c-0.1,0.2-0.2,0.4-0.3,0.6C61.1,82.8,61,82.9,60.8,83C60.8,83,60.8,83,60.8,83z"/>
			<path id="XMLID_218_" class="st0" d="M61.1,81.9c0.6-1.4,1.3-3,2.2-4.6c0.9-1.6,1.8-3.2,3-4.8c0.3-0.4,0.6-0.8,0.9-1.3
				c-0.6-0.6-1.1-1.2-1.7-1.8c-1.5-1.6-2.9-3.2-4.1-4.8c-1.3-1.6-2.5-3.2-3.5-4.8c-0.7-1-1.3-2-1.8-2.9c-0.8,2.6-1.2,5.3-1.2,8.2
				c0,6.7,2.3,12.8,6.1,17.4C60.9,82.4,61,82.1,61.1,81.9z"/>
			<path id="XMLID_217_" class="st0" d="M69.8,68.2c-0.1,0-0.2,0-0.3-0.1c-0.5-0.4-0.9-0.9-1.3-1.3c-1.4-1.4-2.8-2.8-4.3-4.4
				c-1.3-1.4-2.6-2.8-3.8-4.3c-1.2-1.4-2.3-2.7-3.2-4L56.8,54c-0.1-0.1-0.1-0.3,0-0.4c4-9.1,12.6-15,21.8-15
				c7.5,0,14.5,3.8,19.1,10.3c0.1,0.1,0.1,0.2,0.1,0.4c0,0.1-0.1,0.2-0.3,0.3l-0.1,0c-0.3,0.1-0.6,0.2-0.9,0.3
				c-0.3,0.1-0.6,0.2-1,0.4c-0.7,0.3-1.4,0.5-2.1,0.8c-1.5,0.6-3,1.3-4.5,2.1c-1.6,0.8-3.2,1.8-4.8,2.8c-1.6,1-3.3,2.2-4.9,3.4
				c-1.6,1.2-3.2,2.6-4.7,4c-1.5,1.5-3,3-4.3,4.5C70.1,68.1,70,68.2,69.8,68.2C69.9,68.2,69.8,68.2,69.8,68.2z"/>
			<path id="XMLID_216_" class="st0" d="M57.2,53.9c1,1.3,2,2.6,3.2,4c1.2,1.4,2.5,2.8,3.8,4.2c1.4,1.4,2.8,2.9,4.3,4.4
				c0.4,0.4,0.9,0.9,1.3,1.3c0,0,0,0,0.1-0.1c1.3-1.6,2.8-3.1,4.3-4.5c1.5-1.4,3.1-2.8,4.7-4.1c1.6-1.3,3.3-2.4,4.9-3.5
				c1.6-1,3.3-2,4.9-2.8c1.6-0.8,3.1-1.5,4.5-2.1c0.7-0.3,1.4-0.6,2.1-0.8c0.3-0.1,0.7-0.2,1-0.4c0.3-0.1,0.6-0.2,0.9-0.3
				c0,0,0.1,0,0.1,0C93,43,86.2,39.1,78.5,39.1C69.1,39.1,60.9,45.1,57.2,53.9C57.1,53.8,57.1,53.9,57.2,53.9z"/>
			<path id="XMLID_215_" class="st0" d="M92.3,86.8c-0.1,0-0.2,0-0.2-0.1l-0.8-0.5l-0.5-0.3c-1.4-0.9-2.8-2-4.2-3
				c-1.5-1.2-3.1-2.4-4.5-3.5c-1.5-1.2-3-2.5-4.7-4c-1.5-1.3-3.1-2.7-4.7-4.2l-0.1-0.1c-0.1-0.1-0.1-0.2-0.1-0.3
				c0-0.1,0-0.2,0.1-0.3l0.2-0.2c1.3-1.4,2.7-2.8,4.2-4.2c1.5-1.4,3-2.7,4.4-3.9c1.6-1.3,3.1-2.5,4.5-3.6c1.5-1.1,3-2.2,4.4-3.2
				c1.3-0.9,2.6-1.8,4-2.7c0.2-0.1,0.4-0.3,0.6-0.4l0.3-0.2l0.9-0.6c0.4-0.2,0.7-0.5,1.1-0.7l0.9-0.6c0.1,0,0.1-0.1,0.2-0.1
				c0,0,0.1,0,0.1,0c0.1,0,0.2,0.1,0.2,0.2c2.7,4.4,4.1,9.5,4.1,14.8c0,8.5-3.8,16.6-10.1,21.6C92.5,86.8,92.4,86.8,92.3,86.8z"/>
			<path id="XMLID_214_" class="st0" d="M97.9,50.8c-0.5,0.3-1.1,0.7-1.7,1c-0.3,0.2-0.6,0.4-0.9,0.6c-0.3,0.2-0.6,0.4-0.9,0.6
				c-1.3,0.8-2.6,1.7-4,2.7c-1.4,1-2.9,2.1-4.3,3.2c-1.5,1.1-3,2.3-4.5,3.6c-1.5,1.3-3,2.6-4.4,3.9c-1.4,1.4-2.8,2.8-4.1,4.2
				c-0.1,0.1-0.1,0.1-0.2,0.2c0,0,0.1,0.1,0.1,0.1c1.5,1.4,3.1,2.9,4.7,4.2c1.6,1.4,3.1,2.7,4.7,3.9c1.5,1.3,3,2.4,4.5,3.5
				c1.5,1.1,2.9,2.1,4.2,3c0.2,0.1,0.3,0.2,0.5,0.3c0.2,0.1,0.3,0.2,0.5,0.3c0.1,0.1,0.2,0.1,0.3,0.2c6.1-4.7,10-12.5,10-21.3
				c0-5.4-1.5-10.4-4-14.6C98.1,50.6,98,50.7,97.9,50.8z"/>
			<path id="XMLID_213_" class="st0" d="M78.5,91.7c-6.1,0-11.9-2.5-16.3-6.9c-0.1-0.1-0.2-0.3-0.1-0.5l0.1-0.2
				c0.2-0.4,0.5-0.8,0.7-1.1c1-1.5,1.9-2.8,2.7-4c1.1-1.5,2.2-2.9,3.3-4.2c0.2-0.3,0.4-0.5,0.7-0.8c0.1-0.1,0.2-0.1,0.3-0.1
				c0,0,0,0,0,0c0.1,0,0.2,0,0.3,0.1c1.6,1.5,3.3,3,4.9,4.3c1.6,1.3,3.3,2.6,5.1,3.8c3.2,2.2,6.6,4.1,9.7,5.6l0.3,0.1
				c0.1,0.1,0.2,0.2,0.2,0.3c0,0.1-0.1,0.3-0.2,0.4C86.7,90.5,82.6,91.7,78.5,91.7z"/>
			<path id="XMLID_212_" class="st0" d="M89.8,87.8c-3-1.4-6.4-3.3-9.8-5.6c-1.7-1.2-3.4-2.4-5.1-3.8c-1.7-1.4-3.3-2.8-4.9-4.3
				c-0.2,0.3-0.4,0.5-0.7,0.8c-1.2,1.4-2.3,2.8-3.3,4.2c-1,1.4-1.9,2.7-2.7,4c-0.3,0.5-0.6,0.9-0.8,1.3c4.2,4.2,9.9,6.8,16,6.8
				c4.2,0,8.2-1.2,11.6-3.3C89.9,87.9,89.9,87.9,89.8,87.8z"/>
		</g>
	</g>
	<g id="XMLID_197_">
		<path id="XMLID_209_" class="st1" d="M92.3,86.4c0.1,0,0.1,0.1,0.2,0.1c0.2,0.1,0.3,0.2,0.5,0.3c0.3,0.2,0.6,0.4,0.9,0.6
			c0.3,0.2,0.6,0.4,0.9,0.5c1.1,0.7,2.1,1.3,2.9,1.7c0.8,0.5,1.5,0.8,1.9,1c0.2,0.1,0.4,0.2,0.5,0.3c0.1,0.1,0.2,0.1,0.2,0.1
			s-0.1,0-0.2,0c-0.1,0-0.3,0-0.6-0.1c-0.3,0-0.6-0.1-0.9-0.2c-0.2,0-0.4-0.1-0.6-0.1c-0.2,0-0.4-0.1-0.7-0.2
			c-0.9-0.2-2.1-0.5-3.3-1c-0.3-0.1-0.6-0.2-1-0.4c-0.3-0.1-0.7-0.3-1-0.4c-0.2-0.1-0.4-0.1-0.5-0.2c-0.2-0.1-0.4-0.2-0.5-0.2
			c-0.2-0.1-0.4-0.2-0.6-0.2c-0.1,0-0.1-0.1-0.2-0.1"/>
		<g id="XMLID_204_">
			<linearGradient id="XMLID_267_" gradientUnits="userSpaceOnUse" x1="61.0675" y1="66.7309" x2="55.0656" y2="73.3997">
				<stop  offset="2.688172e-002" style="stop-color:#FEDD8A"/>
				<stop  offset="1" style="stop-color:#293A29"/>
			</linearGradient>
			<path id="XMLID_208_" class="st2" d="M61,81.9c0.6-1.4,1.3-3,2.2-4.6c0.9-1.6,1.8-3.2,3-4.8c0.3-0.4,0.6-0.8,0.9-1.3
				c-0.6-0.6-1.1-1.2-1.7-1.8c-1.5-1.6-2.9-3.2-4.1-4.8c-1.3-1.6-2.5-3.2-3.5-4.8c-0.7-1-1.3-2-1.8-2.9c-0.8,2.6-1.2,5.3-1.2,8.2
				c0,6.7,2.3,12.8,6.1,17.4C60.9,82.4,60.9,82.1,61,81.9z"/>
			<linearGradient id="XMLID_268_" gradientUnits="userSpaceOnUse" x1="67.7324" y1="63.7745" x2="84.6267" y2="40.8783">
				<stop  offset="2.688172e-002" style="stop-color:#FEDD8A"/>
				<stop  offset="1" style="stop-color:#293A29"/>
			</linearGradient>
			<path id="XMLID_207_" class="st3" d="M57.1,53.9c1,1.3,2,2.6,3.2,4c1.2,1.4,2.5,2.8,3.8,4.2c1.4,1.4,2.8,2.9,4.3,4.4
				c0.4,0.4,0.9,0.9,1.3,1.3c0,0,0,0,0.1-0.1c1.3-1.6,2.8-3.1,4.3-4.5c1.5-1.4,3.1-2.8,4.7-4.1c1.6-1.3,3.3-2.4,4.9-3.5
				c1.6-1,3.3-2,4.9-2.8c1.6-0.8,3.1-1.5,4.5-2.1c0.7-0.3,1.4-0.6,2.1-0.8c0.3-0.1,0.7-0.2,1-0.4c0.3-0.1,0.6-0.2,0.9-0.3
				c0,0,0.1,0,0.1,0C93,43,86.2,39.1,78.5,39.1C69.1,39.1,60.9,45.1,57.1,53.9C57.1,53.8,57.1,53.9,57.1,53.9z"/>
			<linearGradient id="XMLID_269_" gradientUnits="userSpaceOnUse" x1="76.9985" y1="76.0034" x2="103.0068" y2="65.3333">
				<stop  offset="2.688172e-002" style="stop-color:#FEDD8A"/>
				<stop  offset="1" style="stop-color:#293A29"/>
			</linearGradient>
			<path id="XMLID_206_" class="st4" d="M97.9,50.8c-0.5,0.3-1.1,0.7-1.7,1c-0.3,0.2-0.6,0.4-0.9,0.6c-0.3,0.2-0.6,0.4-0.9,0.6
				c-1.3,0.8-2.6,1.7-4,2.7c-1.4,1-2.9,2.1-4.3,3.2c-1.5,1.1-3,2.3-4.5,3.6c-1.5,1.3-3,2.6-4.4,3.9c-1.4,1.4-2.8,2.8-4.1,4.2
				c-0.1,0.1-0.1,0.1-0.2,0.2c0,0,0.1,0.1,0.1,0.1c1.5,1.4,3.1,2.9,4.7,4.2c1.6,1.4,3.1,2.7,4.7,3.9c1.5,1.3,3,2.4,4.5,3.5
				c1.5,1.1,2.9,2.1,4.2,3c0.2,0.1,0.3,0.2,0.5,0.3c0.2,0.1,0.3,0.2,0.5,0.3c0.1,0.1,0.2,0.1,0.3,0.2c6.1-4.7,10-12.5,10-21.3
				c0-5.4-1.5-10.4-4-14.6C98.1,50.7,98,50.7,97.9,50.8z"/>
			<linearGradient id="XMLID_270_" gradientUnits="userSpaceOnUse" x1="79.3061" y1="81.2248" x2="73.7488" y2="90.3388">
				<stop  offset="2.688172e-002" style="stop-color:#FEDD8A"/>
				<stop  offset="1" style="stop-color:#293A29"/>
			</linearGradient>
			<path id="XMLID_205_" class="st5" d="M89.8,87.8c-3-1.4-6.4-3.3-9.8-5.6c-1.7-1.2-3.4-2.4-5.1-3.8c-1.7-1.4-3.3-2.8-4.9-4.3
				c-0.2,0.3-0.4,0.5-0.7,0.8c-1.2,1.4-2.3,2.8-3.3,4.2c-1,1.4-1.9,2.7-2.7,4c-0.3,0.5-0.6,0.9-0.8,1.3c4.2,4.2,9.9,6.8,16,6.8
				c4.2,0,8.2-1.2,11.6-3.3C89.9,87.9,89.9,87.9,89.8,87.8z"/>
		</g>
		<path id="XMLID_203_" class="st1" d="M92.3,86.5c0.1,0,0.1,0.1,0.2,0.1c0.2,0.1,0.3,0.2,0.5,0.3c0.3,0.2,0.6,0.4,0.9,0.6
			c0.3,0.2,0.6,0.4,0.9,0.5c1.1,0.7,2.1,1.3,2.9,1.7c0.8,0.5,1.5,0.8,1.9,1c0.2,0.1,0.4,0.2,0.5,0.3c0.1,0.1,0.2,0.1,0.2,0.1
			s-0.1,0-0.2,0c-0.1,0-0.3,0-0.6-0.1c-0.3,0-0.6-0.1-0.9-0.2c-0.2,0-0.4-0.1-0.6-0.1c-0.2,0-0.4-0.1-0.7-0.2
			c-0.9-0.2-2.1-0.5-3.3-1c-0.3-0.1-0.6-0.2-1-0.4c-0.3-0.1-0.7-0.3-1-0.4c-0.2-0.1-0.4-0.1-0.5-0.2c-0.2-0.1-0.4-0.2-0.5-0.2
			c-0.2-0.1-0.4-0.2-0.6-0.2c-0.1,0-0.1-0.1-0.2-0.1"/>
		<g id="XMLID_198_">
			<linearGradient id="XMLID_271_" gradientUnits="userSpaceOnUse" x1="66.9382" y1="69.3317" x2="55.8235" y2="69.8874">
				<stop  offset="2.688172e-002" style="stop-color:#FFFFFF;stop-opacity:0"/>
				<stop  offset="1" style="stop-color:#FFFFFF"/>
			</linearGradient>
			<path id="XMLID_202_" class="st6" d="M61.1,81.9c0.6-1.4,1.3-3,2.2-4.6c0.9-1.6,1.8-3.2,3-4.8c0.3-0.4,0.6-0.8,0.9-1.3
				c-0.6-0.6-1.1-1.2-1.7-1.8c-1.5-1.6-2.9-3.2-4.1-4.8c-1.3-1.6-2.5-3.2-3.5-4.8c-0.7-1-1.3-2-1.8-2.9c-0.8,2.6-1.2,5.3-1.2,8.2
				c0,6.7,2.3,12.8,6.1,17.4C60.9,82.4,61,82.1,61.1,81.9z"/>
			<linearGradient id="XMLID_272_" gradientUnits="userSpaceOnUse" x1="72.242" y1="68.1515" x2="80.8003" y2="39.4757">
				<stop  offset="2.688172e-002" style="stop-color:#FFFFFF;stop-opacity:0"/>
				<stop  offset="1" style="stop-color:#FFFFFF"/>
			</linearGradient>
			<path id="XMLID_201_" class="st7" d="M57.2,53.9c1,1.3,2,2.6,3.2,4c1.2,1.4,2.5,2.8,3.8,4.2c1.4,1.4,2.8,2.9,4.3,4.4
				c0.4,0.4,0.9,0.9,1.3,1.3c0,0,0,0,0.1-0.1c1.3-1.6,2.8-3.1,4.3-4.5c1.5-1.4,3.1-2.8,4.7-4.1c1.6-1.3,3.3-2.4,4.9-3.5
				c1.6-1,3.3-2,4.9-2.8c1.6-0.8,3.1-1.5,4.5-2.1c0.7-0.3,1.4-0.6,2.1-0.8c0.3-0.1,0.7-0.2,1-0.4c0.3-0.1,0.6-0.2,0.9-0.3
				c0,0,0.1,0,0.1,0C93,43,86.2,39.1,78.5,39.1C69.1,39.1,60.9,45.1,57.2,53.9C57.1,53.8,57.1,53.9,57.2,53.9z"/>
			<linearGradient id="XMLID_273_" gradientUnits="userSpaceOnUse" x1="73.5014" y1="72.6092" x2="102.2884" y2="67.163">
				<stop  offset="2.688172e-002" style="stop-color:#FFFFFF;stop-opacity:0"/>
				<stop  offset="1" style="stop-color:#FFFFFF"/>
			</linearGradient>
			<path id="XMLID_200_" class="st8" d="M97.9,50.8c-0.5,0.3-1.1,0.7-1.7,1c-0.3,0.2-0.6,0.4-0.9,0.6c-0.3,0.2-0.6,0.4-0.9,0.6
				c-1.3,0.8-2.6,1.7-4,2.7c-1.4,1-2.9,2.1-4.3,3.2c-1.5,1.1-3,2.3-4.5,3.6c-1.5,1.3-3,2.6-4.4,3.9c-1.4,1.4-2.8,2.8-4.1,4.2
				c-0.1,0.1-0.1,0.1-0.2,0.2c0,0,0.1,0.1,0.1,0.1c1.5,1.4,3.1,2.9,4.7,4.2c1.6,1.4,3.1,2.7,4.7,3.9c1.5,1.3,3,2.4,4.5,3.5
				c1.5,1.1,2.9,2.1,4.2,3c0.2,0.1,0.3,0.2,0.5,0.3c0.2,0.1,0.3,0.2,0.5,0.3c0.1,0.1,0.2,0.1,0.3,0.2c6.1-4.7,10-12.5,10-21.3
				c0-5.4-1.5-10.4-4-14.6C98.1,50.6,98,50.7,97.9,50.8z"/>
			<linearGradient id="XMLID_274_" gradientUnits="userSpaceOnUse" x1="70.2078" y1="74.1177" x2="78.6549" y2="90.9009">
				<stop  offset="2.688172e-002" style="stop-color:#FFFFFF;stop-opacity:0"/>
				<stop  offset="1" style="stop-color:#FFFFFF"/>
			</linearGradient>
			<path id="XMLID_199_" class="st9" d="M89.8,87.8c-3-1.4-6.4-3.3-9.8-5.6c-1.7-1.2-3.4-2.4-5.1-3.8c-1.7-1.4-3.3-2.8-4.9-4.3
				c-0.2,0.3-0.4,0.5-0.7,0.8c-1.2,1.4-2.3,2.8-3.3,4.2c-1,1.4-1.9,2.7-2.7,4c-0.3,0.5-0.6,0.9-0.8,1.3c4.2,4.2,9.9,6.8,16,6.8
				c4.2,0,8.2-1.2,11.6-3.3C89.9,87.9,89.9,87.9,89.8,87.8z"/>
		</g>
	</g>
	<g id="XMLID_145_">
		<path id="XMLID_195_" class="st10" d="M16.3,103.2H7.6v7.6h5.6c0.1,0,0.1,0,0.2,0.1c0.1,0,0.1,0.1,0.1,0.1l0.9,0.8
			c0.1,0.1,0.2,0.2,0.2,0.2c0,0.1-0.1,0.1-0.2,0.1h-7c-0.4,0-0.7-0.1-1.1-0.4c-0.3-0.3-0.5-0.6-0.5-1v-7.7c0-0.4,0.2-0.7,0.5-1
			s0.7-0.4,1.1-0.4h9.1c0.2,0,0.4,0,0.6,0.1c0.2,0.1,0.4,0.2,0.5,0.3c0.1,0.1,0.3,0.3,0.3,0.4c0.1,0.2,0.1,0.3,0.1,0.5v7.9l1.1,1
			c0.1,0.1,0.1,0.2,0.1,0.3c0,0.1,0,0.2-0.1,0.3l-0.7,0.6c-0.1,0.1-0.2,0.1-0.3,0.1c-0.1,0-0.2,0-0.3-0.1l-4.1-3.6
			c-0.1-0.1-0.1-0.2-0.1-0.3c0-0.1,0-0.2,0.1-0.3l0.7-0.6c0.1-0.1,0.2-0.1,0.3-0.1c0.1,0,0.2,0,0.3,0.1l1.2,1.1V103.2z"/>
		<path id="XMLID_193_" class="st10" d="M30.5,104c0-0.1,0-0.2,0.1-0.2c0.1-0.1,0.2-0.1,0.3-0.1h0.9c0.1,0,0.2,0,0.3,0.1
			c0.1,0.1,0.1,0.1,0.1,0.2v7.2c0,0.3-0.1,0.5-0.3,0.7c-0.2,0.2-0.5,0.3-0.8,0.3h-7.1c-0.3,0-0.6-0.1-0.8-0.3
			c-0.2-0.2-0.3-0.4-0.3-0.7V104c0-0.1,0-0.2,0.1-0.2c0.1-0.1,0.2-0.1,0.3-0.1h0.9c0.1,0,0.2,0,0.3,0.1c0.1,0.1,0.1,0.1,0.1,0.2v7
			h6.1V104z"/>
		<path id="XMLID_191_" class="st10" d="M39.5,104c0-0.1,0.1-0.2,0.2-0.2c0.1-0.1,0.2-0.1,0.3-0.1h0.8c0.1,0,0.2,0,0.3,0.1
			c0.1,0.1,0.2,0.1,0.3,0.2l4.7,7.9c0,0.1,0,0.1,0,0.2c0,0.1-0.1,0.2-0.2,0.2h-1c-0.2,0-0.3-0.1-0.4-0.2l-1.1-1.8H39
			c-0.2,0-0.2-0.1-0.2-0.2c0,0,0-0.1,0-0.2l0.4-0.6c0.1-0.2,0.2-0.2,0.4-0.2h3.1l-2.3-4l-4,7c0,0.1-0.1,0.1-0.2,0.2
			c-0.1,0-0.2,0.1-0.2,0.1h-1c-0.2,0-0.2-0.1-0.2-0.2c0,0,0-0.1,0-0.2L39.5,104z"/>
		<path id="XMLID_189_" class="st10" d="M52.4,111.3c0-0.1,0-0.2,0.1-0.2c0.1-0.1,0.2-0.1,0.3-0.1h4.6c0.2,0,0.3-0.1,0.5-0.2
			c0.1-0.1,0.2-0.3,0.2-0.4v-4.9c0-0.2-0.1-0.3-0.2-0.4c-0.1-0.1-0.3-0.2-0.5-0.2h-6.2v7c0,0.1,0,0.2-0.1,0.2
			c-0.1,0.1-0.2,0.1-0.3,0.1H50c-0.1,0-0.2,0-0.3-0.1c-0.1-0.1-0.1-0.1-0.1-0.2V104c0-0.1,0-0.2,0.1-0.2c0.1-0.1,0.2-0.1,0.3-0.1
			h7.7c0.6,0,1.1,0.2,1.5,0.5c0.4,0.4,0.6,0.8,0.6,1.3v4.9c0,0.5-0.2,0.9-0.6,1.3c-0.4,0.4-0.9,0.5-1.5,0.5h-4.8
			c-0.1,0-0.2,0-0.3-0.1c-0.1-0.1-0.1-0.1-0.1-0.2V111.3z"/>
		<path id="XMLID_187_" class="st10" d="M69.6,103.7c0.4,0,0.8,0.1,1.2,0.2c0.4,0.1,0.7,0.3,0.9,0.6c0.3,0.2,0.5,0.5,0.6,0.8
			c0.2,0.3,0.2,0.6,0.2,1c0,0.6-0.2,1.2-0.6,1.6c-0.4,0.5-1,0.7-1.6,0.9l2.6,3.1c0,0.1,0.1,0.1,0.1,0.2c0,0.1-0.1,0.1-0.2,0.1h-1.2
			c0,0-0.1,0-0.1,0c-0.1,0-0.1-0.1-0.1-0.1l-2.7-3.2h-1.7c-0.1,0-0.2,0-0.3-0.1c-0.1-0.1-0.1-0.1-0.1-0.2V108c0-0.1,0-0.2,0.1-0.2
			c0.1-0.1,0.2-0.1,0.3-0.1h2.7c0.5,0,0.8-0.1,1.1-0.4c0.3-0.3,0.4-0.6,0.4-1c0-0.4-0.2-0.7-0.5-1c-0.3-0.3-0.7-0.4-1.1-0.4h-4.3v7
			c0,0.1,0,0.2-0.1,0.2c-0.1,0.1-0.2,0.1-0.3,0.1H64c-0.1,0-0.2,0-0.3-0.1c-0.1-0.1-0.1-0.1-0.1-0.2V104c0-0.1,0-0.2,0.1-0.2
			c0.1-0.1,0.2-0.1,0.3-0.1H69.6z"/>
		<path id="XMLID_185_" class="st10" d="M75.9,104c0-0.1,0-0.2,0.1-0.2c0.1-0.1,0.2-0.1,0.3-0.1h0.9c0.1,0,0.2,0,0.3,0.1
			c0.1,0.1,0.1,0.1,0.1,0.2v7.9c0,0.1,0,0.2-0.1,0.2c-0.1,0.1-0.2,0.1-0.3,0.1h-0.9c-0.1,0-0.2,0-0.3-0.1c-0.1-0.1-0.1-0.1-0.1-0.2
			V104z"/>
		<path id="XMLID_182_" class="st10" d="M84.5,106c0.1,0.1,0.1,0.2,0.1,0.2c0,0,0,0.1-0.1,0.2L84,107c0,0.1-0.1,0.1-0.2,0.1
			c0,0-0.1,0-0.1-0.1c0,0-0.1-0.1-0.1-0.1l-3.1-2.9c-0.1-0.1-0.1-0.2-0.1-0.2c0-0.1,0.1-0.1,0.2-0.1h1.2c0.1,0,0.2,0,0.3,0.1
			c0.1,0,0.2,0.1,0.3,0.1c0.1,0.1,0.1,0.1,0.2,0.2L84.5,106z M90.8,111.9c0.1,0.1,0.1,0.2,0.1,0.2c0,0.1-0.1,0.1-0.2,0.1h-1.2
			c-0.1,0-0.2,0-0.4-0.1c-0.1-0.1-0.3-0.1-0.4-0.2l-3.3-3.2l-3.2,3.4c-0.1,0.1-0.2,0.1-0.3,0.1h-1.2c-0.1,0-0.2,0-0.2-0.1
			c0,0,0-0.1,0.1-0.2l7.6-8.1c0.1-0.1,0.2-0.1,0.3-0.1h1.2c0.1,0,0.2,0,0.2,0.1c0,0.1,0,0.1-0.1,0.2l-3.5,3.7L90.8,111.9z"/>
		<path id="XMLID_180_" class="st10" d="M103,109.2c0.2,0,0.2,0.1,0.2,0.2c0.1,0.4,0.2,0.7,0.6,1c0.3,0.3,0.7,0.4,1.2,0.4h4.3
			c0.5,0,0.9-0.2,1.3-0.5s0.5-0.7,0.5-1.1c0-0.4-0.2-0.8-0.5-1.1c-0.3-0.3-0.8-0.5-1.3-0.5h-4.1c-0.5,0-0.9-0.1-1.3-0.2
			c-0.4-0.2-0.7-0.4-1-0.6c-0.3-0.3-0.5-0.6-0.7-0.9c-0.2-0.4-0.2-0.7-0.2-1.1s0.1-0.8,0.2-1.1c0.2-0.4,0.4-0.7,0.7-0.9
			c0.3-0.3,0.6-0.5,1-0.6c0.4-0.2,0.8-0.2,1.3-0.2h4c0.4,0,0.8,0.1,1.1,0.2c0.4,0.1,0.7,0.3,1,0.6c0.3,0.2,0.6,0.5,0.8,0.8
			s0.3,0.7,0.3,1.1c0,0.1-0.1,0.2-0.3,0.2h-1c-0.2,0-0.2-0.1-0.2-0.2c-0.1-0.4-0.2-0.6-0.5-0.9c-0.3-0.2-0.6-0.4-1.1-0.4h-4.3
			c-0.5,0-0.9,0.1-1.2,0.4c-0.3,0.3-0.5,0.6-0.5,1c0,0.4,0.1,0.7,0.4,1c0.3,0.3,0.7,0.4,1.2,0.4h4.2c0.5,0,0.9,0.1,1.3,0.2
			c0.4,0.2,0.8,0.4,1.1,0.6s0.6,0.6,0.7,1c0.2,0.4,0.3,0.8,0.3,1.2c0,0.4-0.1,0.8-0.3,1.2c-0.2,0.4-0.4,0.7-0.7,1
			c-0.3,0.3-0.7,0.5-1.1,0.6s-0.9,0.2-1.3,0.2H105c-0.4,0-0.8-0.1-1.2-0.2c-0.4-0.1-0.8-0.3-1.1-0.6c-0.3-0.2-0.6-0.5-0.8-0.9
			c-0.2-0.3-0.3-0.7-0.3-1.1c0-0.1,0.1-0.2,0.2-0.2H103z"/>
		<path id="XMLID_177_" class="st10" d="M117.1,104.9c0-0.1,0-0.3,0.1-0.5c0.1-0.2,0.2-0.3,0.3-0.4c0.1-0.1,0.3-0.2,0.5-0.3
			c0.2-0.1,0.3-0.1,0.5-0.1h7.4c0.2,0,0.4,0,0.5,0.1c0.2,0.1,0.3,0.2,0.5,0.3c0.1,0.1,0.2,0.3,0.3,0.4c0.1,0.2,0.1,0.3,0.1,0.5v6
			c0,0.1,0,0.3-0.1,0.5c-0.1,0.2-0.2,0.3-0.3,0.4c-0.1,0.1-0.3,0.2-0.5,0.3c-0.2,0.1-0.3,0.1-0.5,0.1h-7.4c-0.2,0-0.3,0-0.5-0.1
			c-0.2-0.1-0.3-0.2-0.5-0.3c-0.1-0.1-0.2-0.3-0.3-0.4c-0.1-0.2-0.1-0.3-0.1-0.5V104.9z M118.6,111h7.1v-6h-7.1V111z"/>
		<path id="XMLID_149_" class="st10" d="M131.1,104c0-0.1,0-0.2,0.1-0.2c0.1-0.1,0.2-0.1,0.3-0.1h7.8c0.1,0,0.2,0,0.3,0.1
			c0.1,0.1,0.1,0.1,0.1,0.2v0.6c0,0.1,0,0.2-0.1,0.2c-0.1,0.1-0.2,0.1-0.3,0.1h-6.6v7c0,0.1,0,0.2-0.1,0.2c-0.1,0.1-0.2,0.1-0.3,0.1
			h-0.9c-0.1,0-0.2,0-0.3-0.1c-0.1-0.1-0.1-0.1-0.1-0.2V104z M133.9,107.9c0-0.1,0-0.2,0.1-0.2c0.1-0.1,0.2-0.1,0.3-0.1h4.4
			c0.1,0,0.2,0,0.3,0.1c0.1,0.1,0.1,0.2,0.1,0.2v0.6c0,0.1,0,0.2-0.1,0.2s-0.2,0.1-0.3,0.1h-4.4c-0.1,0-0.2,0-0.3-0.1
			c-0.1-0.1-0.1-0.2-0.1-0.2V107.9z"/>
		<path id="XMLID_146_" class="st10" d="M141.4,104c0-0.1,0-0.2,0.1-0.2c0.1-0.1,0.2-0.1,0.3-0.1h9c0.1,0,0.2,0,0.3,0.1
			c0.1,0.1,0.1,0.1,0.1,0.2v0.6c0,0.1,0,0.2-0.1,0.2c-0.1,0.1-0.2,0.1-0.3,0.1h-9c-0.1,0-0.2,0-0.3-0.1c-0.1-0.1-0.1-0.1-0.1-0.2
			V104z M145.4,106.3c0-0.2,0.1-0.3,0.4-0.3h0.9c0.3,0,0.4,0.1,0.4,0.3v5.6c0,0.1,0,0.2-0.1,0.2c-0.1,0.1-0.2,0.1-0.3,0.1h-0.9
			c-0.1,0-0.2,0-0.3-0.1c-0.1-0.1-0.1-0.1-0.1-0.2V106.3z"/>
	</g>
</g>
<g id="XMLID_260_">
</g>
<g id="XMLID_261_">
</g>
<g id="XMLID_262_">
</g>
<g id="XMLID_263_">
</g>
<g id="XMLID_264_">
</g>
<g id="XMLID_265_">
</g>
</svg>
