<?xml version="1.0" encoding="utf-8"?>
<!-- Generator: Adobe Illustrator 19.0.0, SVG Export Plug-In . SVG Version: 6.00 Build 0)  -->
<svg version="1.1" id="Layer_1" xmlns="http://www.w3.org/2000/svg" xmlns:xlink="http://www.w3.org/1999/xlink" x="0px" y="0px"
	 viewBox="0 0 157 152" style="enable-background:new 0 0 157 152;" xml:space="preserve">
<style type="text/css">
	.st0{fill:url(#XMLID_9_);}
	.st1{fill:url(#XMLID_10_);}
	.st2{fill:#6E6E71;}
	.st3{fill:url(#XMLID_11_);}
	.st4{fill:url(#XMLID_12_);}
	.st5{fill:#97C93D;}
	.st6{fill:url(#XMLID_13_);}
	.st7{fill:url(#XMLID_14_);}
	.st8{fill:url(#XMLID_15_);}
</style>
<g>
	<g>
		<linearGradient id="XMLID_9_" gradientUnits="userSpaceOnUse" x1="46.1787" y1="42.9207" x2="46.1787" y2="73.9894">
			<stop  offset="0.2747" style="stop-color:#333132"/>
			<stop  offset="1" style="stop-color:#888689"/>
		</linearGradient>
		<polygon id="XMLID_78_" class="st0" points="35.7,75.5 56.6,63.7 35.7,27.5 		"/>
		<linearGradient id="XMLID_10_" gradientUnits="userSpaceOnUse" x1="43.1229" y1="34.7139" x2="79.6433" y2="14.4258">
			<stop  offset="0.5" style="stop-color:#333132"/>
			<stop  offset="1" style="stop-color:#888689"/>
		</linearGradient>
		<polygon id="XMLID_77_" class="st1" points="35.7,27.5 56.6,39.4 77.5,3.4 		"/>
		<polygon id="XMLID_76_" class="st2" points="56.6,63.7 56.6,39.4 35.7,27.5 		"/>
		<polygon id="XMLID_75_" class="st2" points="56.6,39.4 77.5,27.5 77.5,3.4 		"/>
		<linearGradient id="XMLID_11_" gradientUnits="userSpaceOnUse" x1="79.1061" y1="21.4118" x2="120.8855" y2="21.4118">
			<stop  offset="0" style="stop-color:#467637"/>
			<stop  offset="1" style="stop-color:#68AB45"/>
		</linearGradient>
		<polygon id="XMLID_74_" class="st3" points="79.1,3.4 100,39.4 120.9,27.5 		"/>
		<linearGradient id="XMLID_12_" gradientUnits="userSpaceOnUse" x1="99.9968" y1="51.5139" x2="120.8855" y2="51.5139">
			<stop  offset="0" style="stop-color:#467637"/>
			<stop  offset="1" style="stop-color:#68AB45"/>
		</linearGradient>
		<polygon id="XMLID_73_" class="st4" points="100,63.7 120.9,75.5 120.9,27.5 		"/>
		<polygon id="XMLID_72_" class="st5" points="100,39.4 100,63.7 120.9,27.5 		"/>
		<polygon id="XMLID_71_" class="st5" points="79.1,27.5 100,39.4 79.1,3.4 		"/>
		<linearGradient id="XMLID_13_" gradientUnits="userSpaceOnUse" x1="44.0233" y1="69.8325" x2="79.7064" y2="91.3505">
			<stop  offset="0.5" style="stop-color:#333132"/>
			<stop  offset="1" style="stop-color:#888689"/>
		</linearGradient>
		<polygon id="XMLID_70_" class="st6" points="77.5,77.7 56.8,65.3 35.8,77.2 77.2,101.7 		"/>
		<polygon id="XMLID_69_" class="st2" points="35.8,77.2 77.5,77.7 56.8,65.3 		"/>
		<polygon id="XMLID_68_" class="st5" points="120.8,77.2 99.9,65.3 79.2,77.7 120.8,101.1 		"/>
		
			<linearGradient id="XMLID_14_" gradientUnits="userSpaceOnUse" x1="75.148" y1="82.657" x2="116.179" y2="82.657" gradientTransform="matrix(0.9997 -2.500000e-002 2.500000e-002 0.9997 2.1262 3.2279)">
			<stop  offset="0" style="stop-color:#467637"/>
			<stop  offset="1" style="stop-color:#68AB45"/>
		</linearGradient>
		<polygon id="XMLID_67_" class="st7" points="99.9,65.3 120.8,101.1 79.2,77.7 		"/>
	</g>
	<g>
		<path class="st5" d="M8.7,148c-0.4,0.4-1,0.5-1.6,0.5c-0.5,0-1.1-0.1-1.5-0.5c-0.3-0.3-0.5-0.7-0.5-1.2H6c0,0.2,0.1,0.5,0.3,0.6
			c0.2,0.2,0.6,0.3,0.8,0.3c0.3,0,0.7-0.1,0.9-0.3c0.1-0.1,0.2-0.2,0.2-0.5c0-0.4-0.3-0.5-0.6-0.6c-0.3-0.1-0.8-0.1-1.1-0.1
			c-0.7-0.1-1.3-0.6-1.3-1.4c0-0.4,0.2-0.7,0.4-1c0.3-0.3,0.9-0.5,1.5-0.5c0.5,0,1.1,0.2,1.4,0.5c0.3,0.3,0.5,0.7,0.5,1.1H8.1
			c0-0.2-0.1-0.4-0.2-0.5c-0.2-0.2-0.5-0.3-0.8-0.3c-0.3,0-0.6,0.1-0.8,0.3c-0.1,0.1-0.2,0.2-0.2,0.4c0,0.3,0.2,0.5,0.5,0.5
			c0.3,0,0.8,0.1,1.1,0.1c0.8,0.1,1.4,0.6,1.4,1.4C9.1,147.5,9,147.8,8.7,148z"/>
		<path class="st5" d="M13.2,148c-0.4,0.4-0.9,0.6-1.4,0.6c-0.5,0-1.1-0.2-1.4-0.6c-0.5-0.5-0.6-1.2-0.6-2s0.1-1.5,0.6-2
			c0.4-0.4,0.9-0.6,1.4-0.6c0.5,0,1.1,0.2,1.4,0.6c0.5,0.5,0.6,1.2,0.6,2S13.7,147.5,13.2,148z M12.5,144.5
			c-0.2-0.2-0.5-0.3-0.8-0.3c-0.3,0-0.6,0.1-0.8,0.3c-0.3,0.4-0.4,1-0.4,1.4c0,0.5,0,1.1,0.4,1.4c0.2,0.2,0.5,0.3,0.8,0.3
			c0.3,0,0.6-0.1,0.8-0.3c0.3-0.4,0.4-1,0.4-1.4C12.9,145.5,12.9,144.9,12.5,144.5z"/>
		<path class="st5" d="M15.6,144.3v1.3h2.3v0.8h-2.3v2h-0.9v-5h3.5v0.8H15.6z"/>
		<path class="st5" d="M20.7,144.3v4.2h-0.9v-4.2h-1.5v-0.8h3.9v0.8H20.7z"/>
		<path class="st5" d="M27.3,148.5h-0.9l-1-3.5l-1,3.5h-0.9l-1-5h0.9l0.7,3.5l1-3.4h0.8l1,3.4l0.7-3.5h0.8L27.3,148.5z"/>
		<path class="st5" d="M31.8,148.5l-0.3-1h-2l-0.3,1h-0.9l1.8-5h1l1.8,5H31.8z M30.5,144.6l-0.7,2.1h1.4L30.5,144.6z"/>
		<path class="st5" d="M36.3,148.5l-0.8-1.9h-1.1v1.9h-0.9v-5h2.1c1.2,0,1.7,0.7,1.7,1.6c0,0.7-0.4,1.2-0.9,1.4l0.9,2H36.3z
			 M35.5,144.3h-1.2v1.5h1.2c0.5,0,0.8-0.3,0.8-0.7C36.3,144.6,36,144.3,35.5,144.3z"/>
		<path class="st5" d="M38,148.5v-5h3.6v0.8H39v1.2h2.3v0.8H39v1.4h2.7v0.8H38z"/>
		<path class="st5" d="M47.3,147.9c-0.3,0.3-0.8,0.5-1.4,0.5h-2v-5h2c0.6,0,1.1,0.2,1.4,0.5c0.5,0.5,0.6,1.3,0.6,2
			C47.9,146.7,47.8,147.4,47.3,147.9z M46.6,144.6c-0.2-0.2-0.4-0.3-0.7-0.3h-1v3.4h1c0.3,0,0.5-0.1,0.7-0.3C47,147,47,146.4,47,146
			C47,145.5,47,144.9,46.6,144.6z"/>
		<path class="st5" d="M48.8,148.5v-5h3.6v0.8h-2.7v1.2h2.3v0.8h-2.3v1.4h2.7v0.8H48.8z"/>
		<path class="st5" d="M55.3,148.5h-1l-1.7-5h1l1.2,3.8l1.2-3.8H57L55.3,148.5z"/>
		<path class="st5" d="M57.6,148.5v-5h3.6v0.8h-2.7v1.2h2.3v0.8h-2.3v1.4h2.7v0.8H57.6z"/>
		<path class="st5" d="M62,148.5v-5h0.9v4.1h2.3v0.9H62z"/>
		<path class="st5" d="M68.9,148c-0.4,0.4-0.9,0.6-1.4,0.6s-1.1-0.2-1.4-0.6c-0.5-0.5-0.6-1.2-0.6-2s0.1-1.5,0.6-2
			c0.4-0.4,0.9-0.6,1.4-0.6s1.1,0.2,1.4,0.6c0.5,0.5,0.6,1.2,0.6,2S69.5,147.5,68.9,148z M68.3,144.5c-0.2-0.2-0.5-0.3-0.8-0.3
			c-0.3,0-0.6,0.1-0.8,0.3c-0.3,0.4-0.4,1-0.4,1.4c0,0.5,0,1.1,0.4,1.4c0.2,0.2,0.5,0.3,0.8,0.3c0.3,0,0.6-0.1,0.8-0.3
			c0.3-0.4,0.4-1,0.4-1.4C68.6,145.5,68.6,144.9,68.3,144.5z"/>
		<path class="st5" d="M72.4,146.7h-1.1v1.8h-0.9v-5h2c1.2,0,1.8,0.6,1.8,1.6S73.6,146.7,72.4,146.7z M72.4,144.3h-1v1.6h1
			c0.6,0,0.9-0.3,0.9-0.8C73.3,144.6,73,144.3,72.4,144.3z"/>
		<path class="st5" d="M79,148.5v-3.6l-1.3,3.5H77l-1.3-3.5v3.6h-0.9v-5h1.2l1.3,3.6l1.3-3.6h1.2v5H79z"/>
		<path class="st5" d="M81.1,148.5v-5h3.6v0.8H82v1.2h2.3v0.8H82v1.4h2.7v0.8H81.1z"/>
		<path class="st5" d="M88.6,148.5l-2.2-3.4v3.4h-0.9v-5h1l2.1,3.4v-3.4h0.9v5H88.6z"/>
		<path class="st5" d="M92.5,144.3v4.2h-0.9v-4.2h-1.5v-0.8H94v0.8H92.5z"/>
		<path class="st5" d="M99.3,148.5l-0.4-0.4c-0.4,0.4-0.9,0.5-1.4,0.5c-0.9,0-1.7-0.6-1.7-1.5c0-0.6,0.4-1.1,0.9-1.4
			c-0.3-0.3-0.5-0.6-0.5-1.1c0-0.8,0.6-1.3,1.4-1.3c0.7,0,1.4,0.5,1.4,1.2c0,0.6-0.4,1-0.9,1.3l0.9,0.9c0.1-0.2,0.1-0.4,0.1-0.6
			c0-0.2,0-0.5,0-0.6h1.3v0.7h-0.6c0,0.4-0.1,0.8-0.3,1.1c0.3,0.3,0.6,0.7,0.9,1H99.3z M97.2,146.3c-0.3,0.2-0.6,0.4-0.6,0.8
			c0,0.5,0.4,0.8,0.9,0.8c0.3,0,0.6-0.1,0.8-0.3C98,147.1,97.6,146.7,97.2,146.3z M97.6,144.1c-0.3,0-0.6,0.2-0.6,0.5
			c0,0.3,0.3,0.6,0.5,0.8c0.3-0.2,0.6-0.3,0.6-0.7C98.1,144.3,97.9,144.1,97.6,144.1z"/>
		<path class="st5" d="M102.7,148.5v-5h0.9v5H102.7z"/>
		<path class="st5" d="M106.6,144.3v4.2h-0.9v-4.2h-1.5v-0.8h3.9v0.8H106.6z"/>
		<path class="st5" d="M113.2,148c-0.4,0.4-0.9,0.6-1.4,0.6c-0.5,0-1-0.2-1.4-0.6c-0.5-0.5-0.6-1.2-0.6-2s0.1-1.5,0.6-2
			c0.4-0.4,0.9-0.6,1.4-0.6c0.5,0,1.1,0.2,1.4,0.6c0.3,0.3,0.4,0.7,0.5,1.1h-0.9c0-0.2-0.1-0.4-0.2-0.5c-0.2-0.2-0.4-0.3-0.8-0.3
			c-0.3,0-0.6,0.1-0.8,0.3c-0.3,0.4-0.3,1-0.3,1.4c0,0.5,0,1.1,0.3,1.4c0.2,0.2,0.5,0.3,0.8,0.3c0.3,0,0.6-0.1,0.8-0.3
			c0.1-0.2,0.2-0.3,0.2-0.6h0.9C113.7,147.3,113.5,147.7,113.2,148z"/>
		<path class="st5" d="M117.7,148c-0.4,0.4-0.9,0.6-1.4,0.6c-0.5,0-1.1-0.2-1.4-0.6c-0.5-0.5-0.6-1.2-0.6-2s0.1-1.5,0.6-2
			c0.4-0.4,0.9-0.6,1.4-0.6c0.5,0,1.1,0.2,1.4,0.6c0.5,0.5,0.6,1.2,0.6,2S118.3,147.5,117.7,148z M117.1,144.5
			c-0.2-0.2-0.5-0.3-0.8-0.3c-0.3,0-0.6,0.1-0.8,0.3c-0.3,0.4-0.4,1-0.4,1.4c0,0.5,0,1.1,0.4,1.4c0.2,0.2,0.5,0.3,0.8,0.3
			c0.3,0,0.6-0.1,0.8-0.3c0.3-0.4,0.4-1,0.4-1.4C117.4,145.5,117.4,144.9,117.1,144.5z"/>
		<path class="st5" d="M122.3,148.5l-2.2-3.4v3.4h-0.9v-5h1l2.1,3.4v-3.4h0.9v5H122.3z"/>
		<path class="st5" d="M127.6,148c-0.4,0.4-1,0.5-1.6,0.5c-0.5,0-1.1-0.1-1.5-0.5c-0.3-0.3-0.5-0.7-0.5-1.2h0.9
			c0,0.2,0.1,0.5,0.3,0.6c0.2,0.2,0.6,0.3,0.8,0.3c0.3,0,0.7-0.1,0.9-0.3c0.1-0.1,0.2-0.2,0.2-0.5c0-0.4-0.3-0.5-0.6-0.6
			c-0.3-0.1-0.8-0.1-1.1-0.1c-0.7-0.1-1.3-0.6-1.3-1.4c0-0.4,0.2-0.7,0.4-1c0.3-0.3,0.9-0.5,1.5-0.5c0.5,0,1.1,0.2,1.4,0.5
			c0.3,0.3,0.5,0.7,0.5,1.1h-0.9c0-0.2-0.1-0.4-0.2-0.5c-0.2-0.2-0.5-0.3-0.8-0.3c-0.3,0-0.6,0.1-0.8,0.3c-0.1,0.1-0.2,0.2-0.2,0.4
			c0,0.3,0.2,0.5,0.5,0.5c0.3,0,0.8,0.1,1.1,0.1c0.7,0.1,1.4,0.6,1.4,1.4C128.1,147.5,127.9,147.8,127.6,148z"/>
		<path class="st5" d="M130.7,148.6c-1.3,0-2-0.8-2-2v-3.1h0.9v3.1c0,0.7,0.3,1.2,1.1,1.2c0.7,0,1.1-0.5,1.1-1.2v-3.1h0.9v3.1
			C132.7,147.8,132,148.6,130.7,148.6z"/>
		<path class="st5" d="M133.7,148.5v-5h0.9v4.1h2.3v0.9H133.7z"/>
		<path class="st5" d="M138.7,144.3v4.2h-0.9v-4.2h-1.5v-0.8h3.9v0.8H138.7z"/>
		<path class="st5" d="M140.8,148.5v-5h0.9v5H140.8z"/>
		<path class="st5" d="M146,148.5l-2.2-3.4v3.4h-0.9v-5h1l2.1,3.4v-3.4h0.9v5H146z"/>
		<path class="st5" d="M151.3,148.5l-0.1-0.6c-0.1,0.3-0.6,0.6-1.3,0.6c-0.6,0-1.1-0.1-1.5-0.6c-0.5-0.5-0.7-1.2-0.7-2
			s0.1-1.5,0.7-2c0.4-0.4,1-0.6,1.5-0.6c0.6,0,1.1,0.2,1.5,0.6c0.3,0.3,0.4,0.6,0.5,1H151c0-0.2-0.1-0.3-0.2-0.5
			c-0.2-0.2-0.5-0.3-0.8-0.3c-0.3,0-0.6,0.1-0.8,0.3c-0.3,0.4-0.4,1-0.4,1.4c0,0.5,0,1.1,0.4,1.5c0.2,0.2,0.5,0.3,0.8,0.3
			c0.3,0,0.6-0.1,0.8-0.3c0.3-0.3,0.3-0.6,0.3-1h-1.2v-0.8h2.1v2.7H151.3z"/>
	</g>
	<g>
		<path d="M47,131.2c0,4.3-3,6.5-8.9,6.5c-1.7,0-3.2-0.1-4.4-0.4c-1.2-0.3-2.3-0.7-3.1-1.2c-0.8-0.5-1.4-1.2-1.8-2
			c-0.4-0.8-0.6-1.7-0.6-2.8v-8.1h4.4v8.1c0,0.5,0.1,1,0.2,1.3c0.1,0.4,0.4,0.6,0.8,0.9c0.4,0.2,0.9,0.4,1.7,0.5
			C36,134,37,134,38.1,134c0.9,0,1.6,0,2.1-0.2c0.6-0.1,1-0.3,1.4-0.5c0.3-0.2,0.6-0.5,0.7-0.9c0.1-0.4,0.2-0.8,0.2-1.3v-8.1H47
			V131.2z"/>
		<path d="M53.8,137.4l2.7-3.7h3.6c0.4,0,0.9,0,1.3,0c0.5,0,0.9,0,1.2,0c-0.2-0.3-0.4-0.6-0.7-1c-0.3-0.4-0.5-0.8-0.8-1.1l-2.6-3.8
			l-6.7,9.5h-5.2l9.2-12.9c0.3-0.4,0.7-0.8,1.1-1.1c0.5-0.3,1-0.5,1.7-0.5c0.7,0,1.2,0.2,1.7,0.5c0.4,0.3,0.8,0.7,1.1,1.1l8.9,12.9
			H53.8z"/>
		<path d="M86.5,137.7c-0.3,0-0.6,0-0.8-0.1c-0.3-0.1-0.6-0.3-0.9-0.6l-8.8-7.9v8.4h-4v-11.9c0-0.5,0.1-0.9,0.2-1.2
			c0.1-0.3,0.3-0.6,0.5-0.8c0.2-0.2,0.5-0.4,0.8-0.5c0.3-0.1,0.6-0.1,0.9-0.1c0.3,0,0.5,0,0.8,0.1c0.3,0.1,0.6,0.3,1,0.6l8.8,7.9
			v-8.4h4V135c0,0.5-0.1,0.9-0.2,1.2c-0.1,0.3-0.3,0.6-0.5,0.8c-0.2,0.2-0.5,0.4-0.8,0.5C87.1,137.6,86.8,137.7,86.5,137.7z"/>
		<path d="M109.3,123.2l-2.9,3.7h-5.1v10.6h-4.4v-10.6h-6.7l2.9-3.7H109.3z"/>
		<path d="M118.6,122.9c3.5,0,6.1,0.6,7.8,1.8c1.7,1.2,2.6,3,2.6,5.6c0,2.6-0.9,4.4-2.6,5.6c-1.7,1.2-4.3,1.8-7.8,1.8
			c-3.5,0-6.1-0.6-7.8-1.8c-1.7-1.2-2.6-3.1-2.6-5.6c0-2.5,0.9-4.4,2.6-5.6C112.5,123.5,115.1,122.9,118.6,122.9z M118.6,134
			c1.1,0,2.1,0,2.8-0.1c0.8-0.1,1.4-0.3,1.9-0.5c0.5-0.3,0.8-0.6,1-1.1c0.2-0.5,0.3-1.1,0.3-1.9c0-0.8-0.1-1.4-0.3-1.9
			c-0.2-0.5-0.6-0.8-1-1.1c-0.5-0.3-1.1-0.4-1.9-0.5c-0.8-0.1-1.7-0.1-2.8-0.1c-1.1,0-2,0-2.8,0.1c-0.8,0.1-1.4,0.3-1.9,0.5
			c-0.5,0.3-0.8,0.6-1,1.1c-0.2,0.5-0.3,1.1-0.3,1.9c0,0.8,0.1,1.4,0.3,1.9c0.2,0.5,0.6,0.9,1,1.1c0.5,0.3,1.1,0.5,1.9,0.5
			C116.6,133.9,117.5,134,118.6,134z"/>
		<path d="M15.8,122.7c3.5,0,6.1,0.6,7.8,1.8c1.7,1.2,2.6,3,2.6,5.6c0,2.6-0.9,4.4-2.6,5.6c-1.7,1.2-4.3,1.8-7.8,1.8
			c-3.5,0-6.1-0.6-7.8-1.8c-1.7-1.2-2.6-3.1-2.6-5.6c0-2.5,0.9-4.4,2.6-5.6C9.7,123.3,12.3,122.7,15.8,122.7z M15.8,133.7
			c1.1,0,2.1,0,2.8-0.1c0.8-0.1,1.4-0.3,1.9-0.5c0.5-0.3,0.8-0.6,1-1.1c0.2-0.5,0.3-1.1,0.3-1.9c0-0.8-0.1-1.4-0.3-1.9
			c-0.2-0.5-0.6-0.8-1-1.1c-0.5-0.3-1.1-0.4-1.9-0.5c-0.8-0.1-1.7-0.1-2.8-0.1c-1.1,0-2,0-2.8,0.1c-0.8,0.1-1.4,0.3-1.9,0.5
			c-0.5,0.3-0.8,0.6-1,1.1c-0.2,0.5-0.3,1.1-0.3,1.9c0,0.8,0.1,1.4,0.3,1.9c0.2,0.5,0.6,0.9,1,1.1c0.5,0.3,1.1,0.5,1.9,0.5
			C13.7,133.7,14.6,133.7,15.8,133.7z"/>
		<path d="M150.6,123.2l-4.5,4.1c-0.5,0.5-0.9,0.8-1.3,1.1c-0.3,0.3-0.6,0.6-0.9,0.8c-0.2,0.2-0.4,0.4-0.6,0.5
			c-0.2,0.1-0.3,0.3-0.4,0.4c0.1,0.1,0.3,0.2,0.4,0.3c0.2,0.1,0.4,0.3,0.6,0.5c0.3,0.2,0.6,0.5,1,0.9c0.4,0.4,0.9,0.8,1.5,1.3
			l4.6,4.3h-6.2l-4.9-4.7l-5,4.7h-5.5l4.7-4.3c0.5-0.5,1-0.9,1.4-1.2c0.4-0.3,0.7-0.6,0.9-0.8c0.2-0.2,0.4-0.4,0.6-0.5
			c0.2-0.1,0.3-0.2,0.4-0.3c-0.1-0.1-0.3-0.2-0.4-0.3c-0.2-0.1-0.4-0.3-0.6-0.5c-0.2-0.2-0.5-0.5-0.9-0.8c-0.4-0.3-0.8-0.8-1.4-1.3
			l-4.4-4.1h6.1l4.5,4.4l4.6-4.4H150.6z"/>
		<g>
			<polygon id="XMLID_2_" class="st5" points="25.2,134.2 21.4,132 14.5,133.7 25.1,139.7 			"/>
			
				<linearGradient id="XMLID_15_" gradientUnits="userSpaceOnUse" x1="9.1113" y1="133.1084" x2="19.6028" y2="133.1084" gradientTransform="matrix(0.9997 -2.500000e-002 2.500000e-002 0.9997 2.1262 3.2279)">
				<stop  offset="0" style="stop-color:#467637"/>
				<stop  offset="1" style="stop-color:#68AB45"/>
			</linearGradient>
			<polygon id="XMLID_1_" class="st8" points="21.4,132 25.1,139.7 14.5,133.7 			"/>
		</g>
	</g>
</g>
</svg>
