<?xml version="1.0" encoding="utf-8"?>
<!-- Generator: Adobe Illustrator 19.0.0, SVG Export Plug-In . SVG Version: 6.00 Build 0)  -->
<svg version="1.1" id="Layer_1" xmlns="http://www.w3.org/2000/svg" xmlns:xlink="http://www.w3.org/1999/xlink" x="0px" y="0px"
	 viewBox="0 0 314 152" style="enable-background:new 0 0 314 152;" xml:space="preserve">
<style type="text/css">
	.st0{fill:#0C96F1;}
	.st1{fill:#7CF3F8;}
	.st2{fill:#7CF3F9;}
</style>
<g id="XMLID_144_">
	<path id="XMLID_215_" d="M154.9,97.4c0-0.5,0-1.1,0-1.6c0-9,0-18,0-27.1c0-0.4,0-0.8,0-1.2c0-0.6,0.2-0.8,0.8-0.8
		c1.3,0,2.6,0,3.9,0c1.5,0,2.9,0,4.4,0c0.7,0,1.1,0.2,1,1c0,0.3,0,0.7,0,1c0,18.8,0,37.7,0,56.5c0,0.2,0,0.3,0,0.5
		c0,1.5,0,1.5-1.5,1.5c-1.9,0-3.7,0-5.6,0c-1.4,0-1.4,0-1.9-1.3c-4.1-9.7-7.7-19.6-11.6-29.4c-0.2-0.6-0.5-1.2-1-1.8
		c0,0.6,0,1.2,0,1.8c0,9.5,0,19.1,0,28.6c0,0.3,0,0.6,0,0.8c0,1.3,0,1.3-1.3,1.3c-2.6,0-5.2,0-7.8,0c-1.3,0-1.3,0-1.3-1.4
		c0-0.1,0-0.2,0-0.3c0-18.9,0-37.9,0-56.8c0-1.9-0.3-1.8,1.8-1.8c2,0,3.9,0,5.9,0c0.8,0,1.2,0.3,1.5,1c3.5,8.5,7,17.1,10.5,25.6
		C153.2,94.7,153.7,96.2,154.9,97.4z"/>
	<path id="XMLID_214_" d="M287.3,86.3c1-0.9,1.7-1.6,2.5-2.1c2.1-1.3,4.4-2.1,6.9-1.8c2.6,0.3,4.4,1.9,5.6,4.2
		c1,1.8,1.3,3.8,1.3,5.9c0,11.1,0,22.2,0,33.3c0,1.2,0,1.3-1.3,1.3c-2.9,0-5.8,0-8.6,0c-1.5,0-1.5,0-1.5-1.5c0-10,0-20.1,0-30.1
		c0-0.8,0-1.7,0-2.5c-0.1-0.9-0.3-1.7-1.2-2c-0.9-0.3-1.5,0.1-2.2,0.6c-1,0.8-1.5,1.8-1.5,3.2c0.1,10.1,0,20.2,0,30.3
		c0,0.4,0,0.8,0,1.2c0,0.5-0.1,0.9-0.7,0.8c-3.2,0-6.4,0-9.6,0c-0.6,0-0.8-0.2-0.8-0.8c0-0.4,0-0.8,0-1.2c0-13.4,0-26.7,0-40.1
		c0-0.3,0-0.6,0-0.8c-0.1-0.8,0.2-1.1,1-1.1c3,0,6.1,0,9.1,0c0.9,0,1.1,0.4,1,1.1C287.3,84.8,287.3,85.3,287.3,86.3z"/>
	<path id="XMLID_211_" d="M108.1,101.5c0-7.8,0-15.7,0-23.5c0-0.3,0-0.6,0-0.8c0-1.2,0-1.2-1.3-1.2c-1.9,0-3.7,0-5.6,0
		c-0.3,0-0.7,0-1,0c-0.5,0-0.8-0.1-0.8-0.7c0-2.6,0-5.2,0-7.8c0-0.5,0.2-0.7,0.7-0.7c0.3,0,0.6,0,0.8,0c8.8,0,17.7,0,26.5,0
		c1.6,0,1.4-0.1,1.4,1.5c0,2.1,0,4.2,0,6.3c0,1.5,0,1.5-1.4,1.5c-1.9,0-3.7,0-5.6,0c-1.7,0-1.5-0.1-1.5,1.6c0,2.9,0,5.7,0,8.6
		c0,12.9,0,25.8,0,38.7c0,0.3,0,0.7,0,1c0,1.2,0,1.3-1.3,1.3c-3.2,0-6.3,0-9.5,0c-1.6,0-1.5,0.1-1.5-1.4
		C108.1,117.6,108.1,109.6,108.1,101.5z"/>
	<path id="XMLID_210_" d="M222.2,118.3c-0.2,2.8-0.4,5.4-0.6,8.1c0,0.5-0.3,0.7-0.7,0.8c-3.4,0.6-6.7,0.9-10-0.2
		c-2.2-0.7-3.6-2.3-4.5-4.3c-0.9-1.9-1.2-3.9-1.4-5.9c-0.3-3.2-0.2-6.4-0.2-9.6c0-5,0-10,0-15.1c0-1.4,0-1.4-1.4-1.4
		c-0.3,0-0.6,0-0.8,0c-0.8,0.1-1-0.3-0.9-1c0-1.8,0-3.6,0-5.4c0-0.8,0.1-1.1,1-1.1c2.2,0,2.2-0.1,2.2-2.2c0-3.6,0-7.1,0-10.7
		c0-1.6,0.2-1.3,1.4-1.3c2.8,0,5.5,0,8.3,0c1.3,0,1.5-0.3,1.5,1.4c0,3.7,0,7.4,0,11.2c0,1.9-0.2,1.7,1.7,1.7c0.9,0,1.8,0,2.7,0
		c0.7,0,0.9,0.3,0.9,0.9c0,1.9,0,3.8,0,5.8c0,0.7-0.2,0.9-0.9,0.9c-1.2,0-2.4,0-3.6,0c-0.6,0-1,0.2-0.9,0.9c0,0.1,0,0.2,0,0.3
		c0,7.6,0,15.1,0,22.7c0,3.4,0.9,4.2,4.3,4C220.8,118.5,221.4,118.4,222.2,118.3z"/>
	<path id="XMLID_209_" d="M226.3,105.2c0-6.9,0-13.7,0-20.6c0-1.5,0-1.5,1.5-1.5c2.9,0,5.7,0,8.6,0c0.9,0,1.2,0.3,1.1,1.2
		c0,3.8,0,7.7,0,11.5c0,9.7,0,19.4,0,29.1c0,0.3,0,0.6,0,0.8c0,1.6,0.1,1.5-1.4,1.5c-2.8,0-5.5,0-8.3,0c-1.5,0-1.5,0-1.5-1.4
		C226.3,118.9,226.3,112,226.3,105.2z"/>
	<path id="XMLID_208_" d="M73.6,74.1c0-4.6,3.5-9.1,9.1-9.1c5.5,0,9,4.2,9.1,9.1c0.1,4.6-3.7,9.3-9.2,9.3
		C77.1,83.3,73.4,78.3,73.6,74.1z"/>
	<path id="XMLID_207_" class="st0" d="M82.7,106.1c-4.5,0.3-9.1-4.2-9.1-9c0.1-5.3,3.9-9.3,9.1-9.3c5.2,0,9.2,4,9.2,9.2
		C91.8,102,87.1,106.5,82.7,106.1z"/>
	<path id="XMLID_206_" d="M69.2,74.1c0,4.4-3.6,9.3-9.1,9.2c-4.8,0-9-4.1-9-9.1c0-5,3.5-9.2,8.9-9.3C65.6,64.9,69,69.1,69.2,74.1z"
		/>
	<path id="XMLID_205_" d="M28.6,74.1c0-5.2,4-9.2,9-9.2c5.1,0,9,4.1,9,9.3c0,4.2-3.5,9.1-9,9.2C32.7,83.4,28.6,79.2,28.6,74.1z"/>
	<path id="XMLID_204_" d="M60.1,106.1c-4.2,0.2-9-4.1-8.9-9.2c0.1-5.2,4.1-9.2,9.3-9.1c5,0.1,8.8,4.2,8.8,9.3
		C69.3,102,64.6,106.4,60.1,106.1z"/>
	<path id="XMLID_203_" class="st0" d="M75.6,51.4c-0.2-4,3.8-7.3,7-7.2c3.5,0,7.1,3.1,7.1,7.2c0,3.6-3,7.3-7.2,7.3
		C78.5,58.7,75.4,54.7,75.6,51.4z"/>
	<path id="XMLID_202_" class="st1" d="M82.5,126.7c-3.8,0.1-7-3.1-6.9-7c0.1-4.1,3.1-7.3,7.1-7.2c4.2,0.1,7,3,7,7.1
		C89.8,123.8,86.7,126.7,82.5,126.7z"/>
	<path id="XMLID_201_" class="st1" d="M67.2,51.4c0.1,3.3-2.8,7.3-7,7.2c-3.9,0-6.8-3.2-7-7.2c-0.2-3.7,3.5-7.4,7-7.2
		C63.7,44.3,67.4,47.4,67.2,51.4z"/>
	<path id="XMLID_200_" d="M231.9,68.6c1.5,0,2.9,0,4.4,0c0.8,0,1.2,0.2,1.2,1.1c-0.1,2.9,0,5.7,0,8.6c0,0.7-0.3,1-1,1
		c-3.1,0-6.2,0-9.3,0c-0.8,0-1-0.3-0.9-1c0-2.9,0-5.7,0-8.6c0-0.8,0.3-1.1,1.1-1C228.9,68.7,230.4,68.6,231.9,68.6z"/>
	<path id="XMLID_199_" class="st1" d="M82.5,33.4c-2.6,0-4.4-2.1-4.6-4.8c-0.1-2.2,2.1-4.8,4.7-4.7c3.2,0.1,4.7,2.3,4.8,4.6
		C87.6,30.9,85.1,33.7,82.5,33.4z"/>
	<path id="XMLID_198_" class="st2" d="M15.2,69.5c2.5,0,4.7,2.2,4.6,4.6c0,2.7-2,4.7-4.6,4.7c-3.4,0-5-2.4-4.9-4.8
		C10.4,71.3,12.4,69.5,15.2,69.5z"/>
	<path id="XMLID_197_" class="st1" d="M105.1,56c-2.3,0.3-4.6-2-4.6-4.6c0.1-2.8,2.2-4.7,4.8-4.6c2.6,0.1,4.5,2,4.5,4.7
		C109.9,53.8,107.9,56.2,105.1,56z"/>
	<path id="XMLID_153_" d="M270.5,105.4c-0.1-3.5,0.2-7.7-0.3-11.9c-0.7-5.3-3.7-9.1-8.5-10.4c-3.2-0.8-6.3-0.9-9.5-0.1
		c-4.1,1-6.8,3.6-8.1,7.6c-0.6,1.8-0.8,3.7-0.9,5.7c-0.1,6.6-0.1,13.3,0,19.9c0.1,5.3,2.9,8.8,7.8,10.8c2.9,1.2,5.9,1.3,9,0.7
		c4.9-0.9,10.6-4.9,10.5-12.4C270.5,112.3,270.5,109.2,270.5,105.4z M259.2,115.5c0,0.7,0,1.5-0.2,2.2c-0.3,1.3-1.1,2-2.4,1.9
		c-1.2,0-1.9-0.6-2.1-2c-0.1-0.7-0.1-1.5-0.1-2.2c0-3.4,0-6.8,0-10.2c0-3.5,0-7,0-10.5c0-0.7,0-1.4,0.2-2c0.3-1.3,1.1-1.9,2.2-1.9
		c1.1,0,2,0.8,2.2,2c0.1,0.7,0.2,1.3,0.2,2C259.2,101.7,259.2,108.6,259.2,115.5z"/>
	<path id="XMLID_150_" d="M199.1,126c-0.9-4.1-1.2-8.3-1.2-12.6c0-6.3,0-12.5,0-18.8c0-2.7-0.8-5.1-2.5-7.2c-2.8-3.4-6.3-5.1-10.7-5
		c-3.6,0.1-6.9,0.9-9.6,3.4c-3.4,3.1-4.2,7.2-4.3,11.5c0,0.7,0.3,0.7,0.9,0.7c3,0,6.1,0,9.1,0c0.8,0,0.9-0.4,0.9-1
		c0-1.4-0.1-2.8,0.2-4.2c0.4-1.3,1.1-2,2.4-1.9c1.1,0,1.8,0.7,2.2,2c0.3,1.1,0.3,2.2,0.3,3.4c0,1,0.2,2.1-0.2,2.8
		c-0.4,0.8-1.6,0.8-2.5,1.2c-3.4,1.6-6.7,3.3-9.5,6c-4.3,4.1-5.1,12.3-3,17c1.2,2.7,3.3,4.3,6.2,4.7c1.4,0.2,2.8,0.1,4.2-0.1
		c2.5-0.5,4.5-1.6,5.6-4.1c0.1-0.2,0.2-0.4,0.4-0.6c0.3,1.1,0.6,2.1,0.8,3.1c0.1,0.8,0.5,1,1.2,1c2.3,0,4.6,0,6.9,0
		c0.8,0,1.6,0.1,2.4-0.1C199.2,126.6,199.2,126.3,199.1,126z M186.6,116.8c0,1.5-2.2,3.1-3.6,2.8c-0.7-0.1-1.2-0.6-1.4-1.3
		c-0.5-1.2-0.4-2.4-0.2-3.7c0.6-3.3,2.5-5.7,5.3-8C186.7,110.3,186.7,113.5,186.6,116.8z"/>
</g>
<g id="XMLID_164_">
</g>
<g id="XMLID_165_">
</g>
<g id="XMLID_166_">
</g>
<g id="XMLID_167_">
</g>
<g id="XMLID_168_">
</g>
<g id="XMLID_169_">
</g>
<g id="XMLID_170_">
</g>
<g id="XMLID_171_">
</g>
<g id="XMLID_172_">
</g>
<g id="XMLID_173_">
</g>
<g id="XMLID_174_">
</g>
<g id="XMLID_175_">
</g>
<g id="XMLID_176_">
</g>
<g id="XMLID_177_">
</g>
<g id="XMLID_178_">
</g>
</svg>
